<svg xmlns="http://www.w3.org/2000/svg" xmlns:xlink="http://www.w3.org/1999/xlink" viewBox="0 0 168.11 229.43"><defs><style>.cls-1,.cls-13{fill:none;}.cls-2{fill:#f4a9bc;}.cls-11,.cls-13,.cls-15,.cls-2,.cls-3,.cls-4,.cls-9{stroke:#80433b;}.cls-11,.cls-15,.cls-2,.cls-3,.cls-4,.cls-9{stroke-miterlimit:10;}.cls-14,.cls-3{fill:#f7d080;}.cls-10,.cls-18,.cls-19,.cls-4{fill:#d0e4e9;}.cls-5{isolation:isolate;}.cls-11,.cls-17,.cls-6{fill:#fceaee;}.cls-10,.cls-16,.cls-19,.cls-21,.cls-6,.cls-8{mix-blend-mode:multiply;}.cls-7{fill:#80433b;}.cls-8{opacity:0.43;}.cls-12,.cls-9{fill:#fff;}.cls-10{opacity:0.66;}.cls-13{stroke-linecap:round;stroke-linejoin:round;}.cls-15{fill:url(#New_Pattern_Swatch_1);}.cls-20{opacity:0.35;}.cls-21{opacity:0.46;}</style><pattern id="New_Pattern_Swatch_1" data-name="New Pattern Swatch 1" width="30.14" height="20.81" patternUnits="userSpaceOnUse" viewBox="0 0 30.14 20.81"><rect class="cls-1" width="30.14" height="20.81"/><path class="cls-2" d="M27.65,20.33A2.3,2.3,0,1,1,25.35,18,2.3,2.3,0,0,1,27.65,20.33Z"/><path class="cls-3" d="M28.06,14a1.61,1.61,0,1,1-1.61-1.6A1.61,1.61,0,0,1,28.06,14Z"/><path class="cls-3" d="M34,11.63a2.29,2.29,0,1,1-3.24.13A2.29,2.29,0,0,1,34,11.63Z"/><path class="cls-3" d="M3.85,11.63a2.29,2.29,0,1,1-3.24.13A2.28,2.28,0,0,1,3.85,11.63Z"/><circle class="cls-2" cx="5.5" cy="20.81" r="3.2"/><path class="cls-2" d="M27.65-.48a2.29,2.29,0,0,1-2.3,2.29A2.28,2.28,0,0,1,23.06-.48a2.29,2.29,0,0,1,2.29-2.3A2.3,2.3,0,0,1,27.65-.48Z"/><path class="cls-4" d="M30.85,6.41a3.21,3.21,0,1,1-3.2-3.21A3.2,3.2,0,0,1,30.85,6.41Z"/><path class="cls-2" d="M12.58,9.93a2.3,2.3,0,1,1-2.3-2.3A2.3,2.3,0,0,1,12.58,9.93Z"/><path class="cls-3" d="M13,3.6A1.61,1.61,0,1,1,11.39,2,1.6,1.6,0,0,1,13,3.6Z"/><path class="cls-4" d="M15.78,16.81a3.21,3.21,0,1,1-3.2-3.2A3.21,3.21,0,0,1,15.78,16.81Z"/><path class="cls-3" d="M18.92,1.22a2.3,2.3,0,1,1-3.24.13A2.28,2.28,0,0,1,18.92,1.22Z"/><circle class="cls-4" cx="19.41" cy="17.9" r="1.6" transform="translate(-1.69 33.77) rotate(-79.62)"/><circle class="cls-2" cx="20.57" cy="10.41" r="3.2" transform="translate(9.33 30.54) rotate(-87.65)"/><circle class="cls-4" cx="-2.49" cy="6.41" r="3.2"/><path class="cls-4" d="M5.43,6.31a1.6,1.6,0,1,1-2.27.1A1.61,1.61,0,0,1,5.43,6.31Z"/><circle class="cls-2" cx="5.5" r="3.2" transform="translate(0 0.08) rotate(-0.88)"/></pattern></defs><title>k3</title><g class="cls-5"><g id="Layer_2" data-name="Layer 2"><g id="OBJECTS"><ellipse class="cls-6" cx="80.61" cy="220.31" rx="58.81" ry="9.12"/><path class="cls-7" d="M35,146.4a36,36,0,0,1-27.75-2.49,6,6,0,0,0,5.57-5.26c.3-3.41-2.36-6.3-3.3-9.57a10,10,0,0,1,3.1-10.2A12.57,12.57,0,0,1,.52,117c2.3,1.22,5.29.21,7-1.74a13.6,13.6,0,0,0,2.79-7.15,41.72,41.72,0,0,1,1.41-7.66,15.74,15.74,0,0,1,8.88-9,21.5,21.5,0,0,1,12.82-.88l23.85,9.69c.12.32.23.65.34,1A35.9,35.9,0,0,1,56,128.07c-.18.36-.37.73-.56,1.08A36,36,0,0,1,35,146.4Z" transform="translate(0 0)"/><path class="cls-7" d="M34.89,145.91a35.59,35.59,0,0,1-21.54,0,35,35,0,0,1-5.82-2.45l-.26.93A6.45,6.45,0,0,0,12,142a6.37,6.37,0,0,0,1.29-5.22c-.37-2.06-1.52-3.88-2.4-5.75a10.16,10.16,0,0,1-1-6A9.54,9.54,0,0,1,13,119.24a.51.51,0,0,0-.49-.84A12.14,12.14,0,0,1,.88,116.66l-.61.78c3,1.53,6.52-.11,8.33-2.72,2.23-3.22,2.21-7.31,2.85-11a15.74,15.74,0,0,1,1.83-5.38,15.16,15.16,0,0,1,3.33-3.9A17.66,17.66,0,0,1,27.05,90.5a22.29,22.29,0,0,1,6,.47,5.78,5.78,0,0,1,.7.24l3.48,1.42L49,97.39l5.25,2.13A25.69,25.69,0,0,0,57,100.65l.13.06-.35-.35a35.76,35.76,0,0,1,.62,22.76,35.2,35.2,0,0,1-22.53,22.79c-.61.2-.35,1.17.27,1a35.89,35.89,0,0,0,24.58-38.54,36.56,36.56,0,0,0-.73-4.16q-.25-1-.57-2.07c-.1-.34-.22-.68-.33-1a4.64,4.64,0,0,0-.39-1.12c-.23-.33-.94-.49-1.29-.63L40.17,92.73,34,90.23a13.42,13.42,0,0,0-4-.7,21.08,21.08,0,0,0-8.84,1.13,16.24,16.24,0,0,0-10.34,11c-.76,3-.75,6-1.54,9-.71,2.64-2.19,5.28-4.95,6.16a4.7,4.7,0,0,1-3.59-.19c-.48-.24-1.08.41-.61.79a13.14,13.14,0,0,0,12.6,2l-.49-.84A10.63,10.63,0,0,0,8.9,128.58a26.07,26.07,0,0,0,2.37,5.58c.83,1.76,1.5,3.78.79,5.71a5.54,5.54,0,0,1-4.79,3.54.5.5,0,0,0-.25.93,36.6,36.6,0,0,0,21.91,3.94,35.77,35.77,0,0,0,6.23-1.4C35.77,146.68,35.51,145.72,34.89,145.91Z" transform="translate(0 0)"/><g class="cls-8"><path class="cls-7" d="M55.46,129.15A26.44,26.44,0,0,1,23,135a4.46,4.46,0,0,0,4.16-3.93c.23-2.54-1.76-4.71-2.46-7.16A7.49,7.49,0,0,1,27,116.3,9.39,9.39,0,0,1,18,114.89c1.72.93,4,.16,5.25-1.29a10.21,10.21,0,0,0,2.09-5.35,31.32,31.32,0,0,1,1-5.72A11.8,11.8,0,0,1,33,95.77a16.15,16.15,0,0,1,9.58-.67l15.05,6.12A35.9,35.9,0,0,1,56,128.07C55.84,128.43,55.65,128.8,55.46,129.15Z" transform="translate(0 0)"/></g><path class="cls-7" d="M129,146.79a35.88,35.88,0,0,0,27.8,1.8,6,6,0,0,1-4.69-6.05c.23-3.41,3.3-5.86,4.73-8.95a10,10,0,0,0-1.5-10.55,12.56,12.56,0,0,0,12.26,0c-2.45.86-5.26-.6-6.66-2.79a13.61,13.61,0,0,1-1.66-7.5,42,42,0,0,0-.22-7.78,15.74,15.74,0,0,0-7.38-10.3,21.57,21.57,0,0,0-12.54-2.84l-25,5.91c-.17.3-.33.61-.49.93a35.85,35.85,0,0,0-2.53,26.78c.12.39.25.78.38,1.16A35.94,35.94,0,0,0,129,146.79Z" transform="translate(0 0)"/><path class="cls-7" d="M128.77,147.23a36.74,36.74,0,0,0,21.88,3.42,35.94,35.94,0,0,0,6.31-1.57c.43-.15.52-.86,0-1a5.52,5.52,0,0,1-4.09-3.69A6.47,6.47,0,0,1,154,139c1-1.63,2.29-3.08,3.16-4.8a10.25,10.25,0,0,0,1.05-5.61,10.6,10.6,0,0,0-2.46-5.87l-.61.79a13.16,13.16,0,0,0,12.76,0,.5.5,0,0,0-.38-.91c-2.63.85-5.27-.92-6.47-3.2-1.42-2.71-1.26-5.9-1.18-8.86a20.09,20.09,0,0,0-1.2-8.67,16.43,16.43,0,0,0-4.59-6.08,19.09,19.09,0,0,0-7.32-3.71,24.47,24.47,0,0,0-4.25-.7,14.92,14.92,0,0,0-3.47,0c-1.58.27-3.16.75-4.73,1.12l-18,4.24c-.7.17-1.4.32-2.1.5a.76.76,0,0,0-.56.37,22.08,22.08,0,0,0-1.85,3.86,36,36,0,0,0,13.67,43.86,37.66,37.66,0,0,0,3.32,1.92c.57.29,1.08-.57.5-.87a35.55,35.55,0,0,1-14.73-14.15,34.79,34.79,0,0,1-4.12-21.85A35.75,35.75,0,0,1,114.54,98l-.3.23,7-1.67,12.52-2.95,4.37-1c.33-.08.66-.18,1-.24a13.79,13.79,0,0,1,3.21,0,19.3,19.3,0,0,1,10.68,3.88,15.13,15.13,0,0,1,5.48,8.51c.84,4-.18,8.07.58,12.05.63,3.29,2.79,6.51,6.35,7a5.09,5.09,0,0,0,2.29-.22l-.38-.91a12.12,12.12,0,0,1-11.75,0,.51.51,0,0,0-.61.79,9.46,9.46,0,0,1,2.21,5.63,9.8,9.8,0,0,1-1.64,5.83c-2,3.11-5.13,6.32-3.5,10.3a6.52,6.52,0,0,0,4.61,3.92v-1a35.58,35.58,0,0,1-21.58.54,33.71,33.71,0,0,1-5.84-2.29C128.7,146.07,128.19,146.94,128.77,147.23Z" transform="translate(0 0)"/><g class="cls-8"><path class="cls-7" d="M111.47,126.62a26.47,26.47,0,0,0,31.16,10.76,4.46,4.46,0,0,1-3.51-4.52c.17-2.55,2.47-4.38,3.53-6.7a7.51,7.51,0,0,0-1.11-7.88,9.37,9.37,0,0,0,9.16,0c-1.83.65-3.93-.45-5-2.08a10.21,10.21,0,0,1-1.24-5.61,31.42,31.42,0,0,0-.16-5.82,11.78,11.78,0,0,0-5.53-7.69A16.15,16.15,0,0,0,129.42,95l-15.8,3.73a35.85,35.85,0,0,0-2.53,26.78C111.21,125.85,111.34,126.24,111.47,126.62Z" transform="translate(0 0)"/></g><path class="cls-9" d="M70.19,124.36,63,139.07l-4.81,9.85a62.53,62.53,0,0,1-19.41-22.13l5-7.91,1,.13C48.56,119.51,62,121.44,70.19,124.36Z" transform="translate(0 0)"/><path class="cls-10" d="M70.19,124.36,63,139.07A62.61,62.61,0,0,1,44.8,119C48.56,119.51,62,121.44,70.19,124.36Z" transform="translate(0 0)"/><path class="cls-11" d="M129.86,154.59a10.76,10.76,0,0,0,1.8,1.11,5.44,5.44,0,0,0,3.16.57,6.07,6.07,0,0,0,2.85-1.48,1.44,1.44,0,0,1,1-.48.93.93,0,0,1,.71,1.07c-.07.48-.53.72-.83,1.09a4.1,4.1,0,0,1,1.24-.79,1.32,1.32,0,0,1,1.38,0,.81.81,0,0,1,0,1.25,1.16,1.16,0,0,1-.2,1.41,3.31,3.31,0,0,1-1.33.75l-3.16,1.2c-.37.14-.81.4-.74.79a.6.6,0,0,0,.56.42,1.87,1.87,0,0,0,.73-.15,9.75,9.75,0,0,1,1.85-.43,1.35,1.35,0,0,1,1,.14,1,1,0,0,1,0,1.37,2.48,2.48,0,0,1-1.35.7,17.56,17.56,0,0,1-3.21.57c-1.2.1-2.56.15-3.39,1a5.67,5.67,0,0,0-1,1.82,2.79,2.79,0,0,1-1.27,1.56c-.36.15-.87.11-1-.25a.81.81,0,0,1,.27-.79,2.62,2.62,0,0,0,.58-.67c.22-.54-.19-1.13-.66-1.48a4,4,0,0,1-1.32-1.11c-.38-.69-.1-1.54-.13-2.32a2.83,2.83,0,0,0-1.74-2.44l-.35-.32A46.9,46.9,0,0,0,129.86,154.59Z" transform="translate(0 0)"/><path class="cls-12" d="M134.84,154.35a1.77,1.77,0,0,0-1.25-1.6,2.88,2.88,0,0,0-2.11.2,8.33,8.33,0,0,0-1.79,1.22l-4.52,5.77a6.18,6.18,0,0,0,.31,2.87,2.1,2.1,0,0,0,2.34,1.28A1.86,1.86,0,0,0,129,162.7a3,3,0,0,0-.26-1.85,1.75,1.75,0,1,0,2.35-2.57,5.05,5.05,0,0,0,1.86-.07,1.84,1.84,0,0,0,1.32-1.2,1.15,1.15,0,0,0-.86-1.41A1.29,1.29,0,0,0,134.84,154.35Z" transform="translate(0 0)"/><path class="cls-7" d="M135.34,154.35a2.34,2.34,0,0,0-2-2.18,4.63,4.63,0,0,0-3.55,1.28,13.16,13.16,0,0,0-2,2.33l-2.61,3.33a2.08,2.08,0,0,0-.52.83,4.94,4.94,0,0,0,.71,3.64,2.34,2.34,0,0,0,3.11.73,2.89,2.89,0,0,0,.72-3.59l-.83.49a2.24,2.24,0,1,0,3.05-3.28l-.35.85c1.24.11,2.75.05,3.46-1.17a1.67,1.67,0,0,0-1-2.49l-.13,1a1.81,1.81,0,0,0,1.94-1.75c0-.64-1-.63-1,0a.8.8,0,0,1-.94.75c-.56-.07-.68.88-.13,1,.77.15.54,1,.06,1.39a3.24,3.24,0,0,1-2.25.31.51.51,0,0,0-.35.86,1.33,1.33,0,0,1,.2,1.84,1.32,1.32,0,0,1-1.84,0c-.33-.31-1,0-.84.49a2.37,2.37,0,0,1,.12,2,1.12,1.12,0,0,1-1.52.56c-1.35-.6-1.24-2.37-1.18-3.59l-.14.35,3.18-4c.43-.55.83-1.18,1.31-1.69a5.39,5.39,0,0,1,2-1.27c.9-.3,2.31-.12,2.36,1.07A.5.5,0,0,0,135.34,154.35Z" transform="translate(0 0)"/><path class="cls-13" d="M138.6,156.33a8.15,8.15,0,0,1-4.18,1.26" transform="translate(0 0)"/><path class="cls-13" d="M141.21,157a.77.77,0,0,0-.74-.22,2.38,2.38,0,0,0-.74.31,11.15,11.15,0,0,1-5.15,1.34" transform="translate(0 0)"/><path class="cls-9" d="M130.73,154l-4.64,7.3c-.6-.2-1.22-.42-1.86-.67-9.07-3.42-22.16-10.75-22.16-10.75l-1.74-16.76L99.07,121C121.17,130,130.73,154,130.73,154Z" transform="translate(0 0)"/><path class="cls-10" d="M124.23,160.6c-9.07-3.42-22.16-10.75-22.16-10.75l-1.74-16.76C114.16,141.56,121.76,155.43,124.23,160.6Z" transform="translate(0 0)"/><path class="cls-11" d="M81.36,182.64,68.24,208.19l-3.62,7.06L63.22,218l-.27.53v4.73H49.07c-.36-3.35,4.83-4.73,4.83-4.73v-3.88l0-6.44L54,180.67Z" transform="translate(0 0)"/><polygon class="cls-9" points="68.23 208.19 64.61 215.25 63.22 217.98 53.9 217.98 53.91 214.63 53.92 208.19 68.23 208.19"/><path class="cls-14" d="M64.62,215.25,63,218.51v4.73H49.07c-.36-3.35,4.83-4.73,4.83-4.73v-3.88C57.48,214.7,61.06,214.91,64.62,215.25Z" transform="translate(0 0)"/><path class="cls-7" d="M64.18,215l-1.06,2.07a4,4,0,0,0-.67,1.57c-.06,1.53,0,3.07,0,4.6l.5-.5H49.07l.5.5c-.21-2.35,2.52-3.73,4.46-4.25a.52.52,0,0,0,.37-.48v-3.88l-.5.5c3.57.08,7.14.28,10.71.62.64.06.63-.94,0-1-3.57-.34-7.14-.54-10.71-.62a.51.51,0,0,0-.5.5v3.88l.36-.48c-2.36.63-5.44,2.38-5.19,5.21a.51.51,0,0,0,.5.5H63a.51.51,0,0,0,.5-.5c0-1.5.09-3,0-4.53,0-.41-.18.22,0-.11s.39-.76.58-1.13l1-2C65.34,214.93,64.48,214.43,64.18,215Z" transform="translate(0 0)"/><path class="cls-11" d="M114,223.24H100.15v-4.73l-.27-.53-1.34-2.61-3.69-7.18L81.74,182.64l27.38-2,.06,27.52v10.32S114.4,219.89,114,223.24Z" transform="translate(0 0)"/><polygon class="cls-9" points="109.19 217.98 99.88 217.98 98.53 215.37 94.84 208.19 109.17 208.19 109.19 214.9 109.19 217.98"/><path class="cls-14" d="M114,223.24H100.15v-4.73l-1.61-3.14,10.65-.47v3.61S114.4,219.89,114,223.24Z" transform="translate(0 0)"/><path class="cls-7" d="M114,222.74H100.15l.5.5c0-1.52,0-3.06,0-4.58a3.73,3.73,0,0,0-.63-1.48l-1-2.06-.43.75,10.65-.47-.5-.5v3.61a.5.5,0,0,0,.36.48c1.94.52,4.68,1.9,4.47,4.25-.06.64.94.64,1,0,.25-2.83-2.84-4.58-5.2-5.21l.37.48V214.9a.51.51,0,0,0-.5-.5l-10.65.47a.51.51,0,0,0-.44.75l1,1.95c.18.34.33.7.53,1s0-.09,0-.08a1.61,1.61,0,0,1,0,.22c-.1,1.49,0,3,0,4.5a.5.5,0,0,0,.5.5H114A.5.5,0,0,0,114,222.74Z" transform="translate(0 0)"/><path class="cls-9" d="M98.23,121.94l-29.79-1s-6.13,6.82-12.11,24.61c-4.08,12.14-2.91,27.9-2.82,38.56,0,0,13.71,18.7,56.33.17,0,0,3.58-20.47-1.72-37.54C105.32,137.74,102,128.65,98.23,121.94Z" transform="translate(0 0)"/><path class="cls-15" d="M98.23,121.94l-29.79-1s-6.13,6.82-12.11,24.61c-4.08,12.14-2.91,27.9-2.82,38.56,0,0,13.71,18.7,56.33.17,0,0,3.58-20.47-1.72-37.54C105.32,137.74,102,128.65,98.23,121.94Z" transform="translate(0 0)"/><path class="cls-10" d="M77.7,192.47c-17.76.43-24.19-8.34-24.19-8.34-.09-10.66-1.25-26.43,2.82-38.56,6-17.79,12.12-24.62,12.12-24.62l4.78.16c-.6,1.12-4.21,8.23-7.73,24.46-2.63,12.13-1.88,27.9-1.82,38.56A16.24,16.24,0,0,0,77.7,192.47Z" transform="translate(0 0)"/><path class="cls-10" d="M109.84,184.3c-11,4.81-20.16,7.11-27.59,7.87C87,191.4,92.9,189.1,100,184.3c0,0,2.31-20.47-1.11-37.55a187.11,187.11,0,0,0-6.38-24.81l-10.36-.53,16.07.53c3.74,6.71,7.09,15.79,9.89,24.81C113.42,163.83,109.84,184.3,109.84,184.3Z" transform="translate(0 0)"/><path class="cls-3" d="M82.18,192.18a22.92,22.92,0,0,1-4.48.29C79.12,192.44,80.61,192.35,82.18,192.18Z" transform="translate(0 0)"/><path class="cls-3" d="M82.16,121.41l-8.93-.3.09-.16Z" transform="translate(0 0)"/><path class="cls-11" d="M82,132.62h0a8.48,8.48,0,0,1-8.47-8.48v-8.47h17v8.47A8.48,8.48,0,0,1,82,132.62Z" transform="translate(0 0)"/><path class="cls-11" d="M138.76,100.15c-.87,7.4-6.3,12.85-12.13,12.16s-9.85-7.24-9-14.64S124,84.83,129.78,85.51,139.63,92.75,138.76,100.15Z" transform="translate(0 0)"/><path class="cls-11" d="M45.12,96.9c3,6.85,1,14.28-4.42,16.6s-12.15-1.34-15.1-8.19S24.63,91,30,88.72,42.18,90.06,45.12,96.9Z" transform="translate(0 0)"/><path class="cls-11" d="M142,72.59c-1.1,12.49-6.81,23.54-15.19,32.23-.33.36-.67.71-1,1.06a4.42,4.42,0,0,0-1.31,3.25,21.36,21.36,0,0,1-.11,2.8,9.56,9.56,0,0,1-3.43,6.66c-3.38,2.88-7.81,4.16-12,5.24a100.23,100.23,0,0,1-25.17,3,120.28,120.28,0,0,1-29.55-3.51c-5.76-1.51-13-4.35-15.19-10.24a9.56,9.56,0,0,1-.41-1.44,10.81,10.81,0,0,1-.21-2.09v-.13a4.67,4.67,0,0,0-1.21-3.12A59.87,59.87,0,0,1,25,85.48a61.34,61.34,0,0,1-2.83-26.95C26,25.7,54.83,2.11,86.51,5.83c14.95,1.76,29,6.72,39.31,16.2C137.33,32.63,144.08,48.88,142,72.59Z" transform="translate(0 0)"/><g class="cls-16"><path class="cls-17" d="M140.87,65.73a43.46,43.46,0,0,1-10.34,33.7,34.47,34.47,0,0,0-4.76,5.9c-1.22,2.24-1.67,5.13-.37,7.32a13,13,0,0,1-2.12-1,15,15,0,0,1-7-8.71,15.28,15.28,0,0,1,2.33-13.25,19,19,0,0,1-2.7,1.93,20,20,0,0,1-5.17,2.21,5,5,0,0,0,1-.94c2.07-2.45,2-6.47.65-9.52-1.56-3.49-4.4-6.17-6.65-9.24a16.12,16.12,0,0,1-3-6.67c-.06.43-.14.85-.23,1.26a22.27,22.27,0,0,1-1.54,4.74,20.54,20.54,0,0,1-2.09,3.68c-.38-4.79-5.7-7.36-10.34-8.17C85,68.4,81.06,68.08,78,66.37a9.56,9.56,0,0,1-2.56-2.07l3.35,5.83h-.22c-5.54.26-11.27.44-16.42-1.64s-9.73-7.21-9.37-13c-.22,1.44-.43,2.91-.63,4.37-1.47,10.62-2.2,21.65,2.4,31.13a7.68,7.68,0,0,1-8.21-2.67,16.34,16.34,0,0,1,.12,2.88c-.29,7.19-4.87,14.14-11.44,16.85a11.38,11.38,0,0,0-.1-1.32c-.67-4.9-4.18-9-7.21-13-3.3-4.32-6.35-9.85-4.59-15l-7.45.9c6.23-3.39,9.32-10.8,10.65-17.9q.26-1.37.45-2.76c1.28-9,2.28-17.42,7-25.39,4.31-7.23,11-13,19.26-15A23.84,23.84,0,0,1,59.56,18a20.61,20.61,0,0,1,3.67.48c.48.1,2.6,1.05,2.94.89a58.77,58.77,0,0,1,59.5,5.55c5.79,4.28,11,9.88,13.2,16.82,1.31,4.06,1.57,8.42,2.77,12.52s3.65,8.22,7.6,9.61A9.25,9.25,0,0,1,140.87,65.73Z" transform="translate(0 0)"/></g><path class="cls-7" d="M62.07,105.05a4.85,4.85,0,0,0,5-1.2,5.3,5.3,0,0,0-2.34-8.57c-4-1.14-8.06,3.28-6,7.08A5.71,5.71,0,0,0,62.07,105.05Z" transform="translate(0 0)"/><path class="cls-7" d="M99.52,105.54a4.83,4.83,0,0,0,5-1.19,5.3,5.3,0,0,0-2.34-8.57c-4-1.14-8.06,3.27-6,7.08A5.69,5.69,0,0,0,99.52,105.54Z" transform="translate(0 0)"/><path class="cls-7" d="M87.65,97.1a.94.94,0,0,0-1.12-.64.92.92,0,0,0-.63,1.12,4.93,4.93,0,0,1-2.14,6.25,4.8,4.8,0,0,1-6.4-2,4.92,4.92,0,0,1-.27-3.94c.39-1.11-1.37-1.58-1.76-.48a6.69,6.69,0,0,0,3.52,8.2,6.62,6.62,0,0,0,8.58-3.08A6.73,6.73,0,0,0,87.65,97.1Z" transform="translate(0 0)"/><path class="cls-2" d="M43.4,110.76a8.08,8.08,0,1,0,6.42-9.45A8.08,8.08,0,0,0,43.4,110.76Z" transform="translate(0 0)"/><path class="cls-12" d="M53.89,104.27a.69.69,0,0,1,.9.31l2,3a.67.67,0,0,1-.31.9.7.7,0,0,1-.9-.3l-2-3.06A.67.67,0,0,1,53.89,104.27Z" transform="translate(0 0)"/><path class="cls-12" d="M50.4,105a.69.69,0,0,1,1,.06l2.2,3a.67.67,0,1,1-1,.88l-2.2-3A.69.69,0,0,1,50.4,105Z" transform="translate(0 0)"/><path class="cls-12" d="M47.17,105.38a.68.68,0,0,1,.9.3l1.71,3a.67.67,0,0,1-.3.9.69.69,0,0,1-.9-.31l-1.71-3A.67.67,0,0,1,47.17,105.38Z" transform="translate(0 0)"/><path class="cls-2" d="M104.91,109.52a8.08,8.08,0,1,0,6.42-9.46A8.08,8.08,0,0,0,104.91,109.52Z" transform="translate(0 0)"/><path class="cls-12" d="M115.41,103a.7.7,0,0,1,.9.31l2,3a.67.67,0,0,1-.3.9.7.7,0,0,1-.91-.31l-2-3A.67.67,0,0,1,115.41,103Z" transform="translate(0 0)"/><path class="cls-12" d="M111.92,103.78a.69.69,0,0,1,1,.06l2.2,3a.68.68,0,0,1-1,.89l-2.19-3A.69.69,0,0,1,111.92,103.78Z" transform="translate(0 0)"/><path class="cls-12" d="M108.69,104.13a.69.69,0,0,1,.9.31l1.71,3a.68.68,0,0,1-.31.9.69.69,0,0,1-.9-.31l-1.71-3A.68.68,0,0,1,108.69,104.13Z" transform="translate(0 0)"/><path class="cls-7" d="M108.07,84.43c-.65-1.89-1.42-3.87-3-5.15a4.66,4.66,0,0,0-5.53-.52.91.91,0,1,0,.92,1.57,2.5,2.5,0,0,1,1.73-.44,3.46,3.46,0,0,1,1.86.9,9.44,9.44,0,0,1,2.3,4.12.93.93,0,0,0,1.12.63A.91.91,0,0,0,108.07,84.43Z" transform="translate(0 0)"/><path class="cls-7" d="M56.82,84.43c.65-1.89,1.42-3.87,3-5.15a4.66,4.66,0,0,1,5.53-.52.91.91,0,1,1-.92,1.57,2.51,2.51,0,0,0-1.73-.44,3.46,3.46,0,0,0-1.86.9,9.44,9.44,0,0,0-2.3,4.12.93.93,0,0,1-1.12.63A.91.91,0,0,1,56.82,84.43Z" transform="translate(0 0)"/><path class="cls-4" d="M26.52,160.39a3.83,3.83,0,1,1-3.83-3.83A3.83,3.83,0,0,1,26.52,160.39Z" transform="translate(0 0)"/><path class="cls-18" d="M37.35,143.31a1.18,1.18,0,0,1-.91-.43,1.08,1.08,0,0,1-.21-.92,87.81,87.81,0,0,0,1.64-22.67,1,1,0,0,1,.27-.77,1.08,1.08,0,0,1,.79-.33,1.1,1.1,0,0,1,1.13,1,90,90,0,0,1-1.71,23.25A1,1,0,0,1,37.35,143.31Z" transform="translate(0 0)"/><path class="cls-7" d="M38.93,118.69a.6.6,0,0,1,.63.57,89.7,89.7,0,0,1-1.7,23.12.5.5,0,0,1-.51.43.62.62,0,0,1-.63-.75,88.09,88.09,0,0,0,1.65-22.8.52.52,0,0,1,.56-.57m0-1a1.61,1.61,0,0,0-1.15.48,1.53,1.53,0,0,0-.41,1.15,87.73,87.73,0,0,1-1.63,22.54,1.57,1.57,0,0,0,.32,1.34,1.68,1.68,0,0,0,1.29.61,1.49,1.49,0,0,0,1.49-1.23,90.51,90.51,0,0,0,1.72-23.38,1.6,1.6,0,0,0-1.63-1.51Z" transform="translate(0 0)"/><path class="cls-4" d="M43.19,155.53c-.61,11.53-3.1,15.76-8.59,15.76s-11.15-6.59-11.15-14.73,5.66-14.73,11.15-14.73S43.8,144,43.19,155.53Z" transform="translate(0 0)"/><path class="cls-19" d="M34.6,141.83a8.58,8.58,0,0,0-4.87,1.68,10.06,10.06,0,0,1,3.89,3.54c3,4.44,4.21,10.43,4.16,15.73A35.47,35.47,0,0,1,36.73,171c4-1.07,5.94-5.58,6.46-15.5C43.8,144,40.09,141.83,34.6,141.83Z" transform="translate(0 0)"/><path class="cls-4" d="M27.83,155.57A3.83,3.83,0,1,1,24,151.75,3.83,3.83,0,0,1,27.83,155.57Z" transform="translate(0 0)"/><path class="cls-7" d="M32.67,165.55a1.33,1.33,0,1,1-1.33-1.33A1.32,1.32,0,0,1,32.67,165.55Z" transform="translate(0 0)"/><circle class="cls-2" cx="34.78" cy="171.34" r="1.43"/><circle class="cls-11" cx="39.73" cy="120.72" r="7.06"/><path class="cls-7" d="M148.7,59.44A49.27,49.27,0,0,1,137,97.66c-1.9,2.15-4,4.16-5.4,6.69s-1.89,5.81-.42,8.3a15.19,15.19,0,0,1-2.4-1.08,17,17,0,0,1-8-9.88,17.28,17.28,0,0,1,2.65-15,22.82,22.82,0,0,1-3.07,2.19,22.46,22.46,0,0,1-5.86,2.5,5.87,5.87,0,0,0,1.15-1.07c2.34-2.77,2.29-7.33.73-10.79-1.77-4-5-7-7.54-10.48a18.25,18.25,0,0,1-3.45-7.56c-.07.48-.16,1-.26,1.43a25.15,25.15,0,0,1-1.74,5.37A23.93,23.93,0,0,1,101,72.44c-.44-5.44-6.47-8.35-11.73-9.27-4-.7-8.41-1.07-11.84-3a10.82,10.82,0,0,1-2.9-2.34l3.8,6.61H78.1c-6.29.29-12.78.5-18.62-1.86s-11-8.18-10.63-14.69c-.25,1.64-.49,3.3-.72,5-1.66,12-2.49,24.55,2.73,35.3a8.72,8.72,0,0,1-9.31-3,18.84,18.84,0,0,1,.13,3.27c-.33,8.15-5.52,16-13,19.11a12.3,12.3,0,0,0-.12-1.5c-.75-5.55-4.74-10.22-8.17-14.73-3.74-4.9-7.2-11.17-5.21-17l-8.45,1C13.83,71.4,17.33,63,18.84,55c.19-1,.36-2.08.51-3.13,1.45-10.18,2.59-19.76,8-28.8,4.88-8.2,12.42-14.74,21.84-17a27,27,0,0,1,7.32-.74,24.41,24.41,0,0,1,4.17.54c.54.12,2.94,1.2,3.33,1C85.4-3.53,112.24-1,131.47,13.16c6.56,4.85,12.41,11.2,15,19.07,1.49,4.61,1.79,9.55,3.14,14.2s4.14,9.32,8.63,10.9A10.5,10.5,0,0,1,148.7,59.44Z" transform="translate(0 0)"/><path class="cls-7" d="M148.2,59.44A49.07,49.07,0,0,1,145.61,82a47.83,47.83,0,0,1-5.21,10.35,43.61,43.61,0,0,1-3.46,4.55c-1.3,1.51-2.72,2.92-4,4.47-2.53,3.17-4.43,7.62-2.25,11.49l.57-.73a16.42,16.42,0,0,1-10.07-10.73,16.83,16.83,0,0,1,2.64-14.52c.36-.48-.38-.94-.79-.6a23.28,23.28,0,0,1-8.71,4.56l.39.91c3.46-2.56,3.84-7.44,2.56-11.27-1.51-4.5-5.13-7.83-7.89-11.55a18.17,18.17,0,0,1-3.55-7.64.51.51,0,0,0-1,0,25.64,25.64,0,0,1-4.32,10.86l.94.25c-.36-3.8-3.21-6.46-6.51-8-4.07-1.91-8.56-2-12.86-3a13.69,13.69,0,0,1-7.25-3.92c-.38-.43-1.07.12-.79.6l3.8,6.61.44-.75c-5.4.22-10.9.5-16.16-1a18.34,18.34,0,0,1-11-8,12.42,12.42,0,0,1-1.82-7.1c0-.55-.9-.69-1-.13-1.61,10.63-3.19,21.72-.81,32.36a39,39,0,0,0,2.87,8.28l.3-.73a8.28,8.28,0,0,1-8.82-2.9.5.5,0,0,0-.85.35c1.07,8.94-4.1,18.39-12.48,21.9l.64.48c-.3-10-10.16-16-13.24-25a12.68,12.68,0,0,1-.28-8.14.5.5,0,0,0-.48-.63l-8.45,1,.25.93c6.06-3.35,9.47-9.81,11.3-16.27a90.34,90.34,0,0,0,2.12-11.67A111.28,111.28,0,0,1,22.62,36,44.73,44.73,0,0,1,33.36,15.88,32.08,32.08,0,0,1,52.52,6a24.87,24.87,0,0,1,6.62.11,28,28,0,0,1,3.8,1.12,2.09,2.09,0,0,0,1.18.15,19.83,19.83,0,0,0,2.49-1.13c1.69-.74,3.42-1.39,5.18-2a66.32,66.32,0,0,1,62,11.36c5.8,4.84,10.67,11,12.64,18.37,1.93,7.23,1.79,15.8,7.6,21.32a11.55,11.55,0,0,0,4.05,2.52l-.22-.83a10.08,10.08,0,0,1-9,2,.5.5,0,0,0-.27,1,11.14,11.14,0,0,0,10-2.23.51.51,0,0,0-.22-.84c-3.41-1.24-5.72-4.27-7.17-7.48-1.68-3.73-2.18-7.86-2.93-11.84a36,36,0,0,0-3.8-11.06,39.62,39.62,0,0,0-6.9-8.82C127.14,7.48,112.8,1.6,98.43.28A67.61,67.61,0,0,0,76.74,1.8a63.1,63.1,0,0,0-10.2,3.36c-.8.33-1.61.67-2.38,1.06-.52.27-1,0-1.57-.2S61.53,5.59,61,5.43A15.19,15.19,0,0,0,58.3,5C50.74,4.07,43,6.76,37,11.31A41.47,41.47,0,0,0,24,28.62c-3.1,7.54-4,15.65-5.2,23.64-1,7-3.12,14.36-8.21,19.49A18.21,18.21,0,0,1,6.5,74.82c-.41.23-.25,1,.26.93l8.45-1-.49-.63c-1.51,4.64.16,9.44,2.56,13.46,2.51,4.22,6,7.75,8.44,12a17.15,17.15,0,0,1,2.49,7.92c0,.29.31.62.63.48A22.46,22.46,0,0,0,42.05,85.12l-.86.36A9.27,9.27,0,0,0,51,88.63a.5.5,0,0,0,.3-.73c-4.56-9.47-4.39-20.27-3.24-30.48.35-3.14.8-6.27,1.28-9.4l-1-.13c-.25,4.68,2.19,9,5.68,12,4,3.44,9.24,4.79,14.45,5.15a92.85,92.85,0,0,0,9.87-.07.51.51,0,0,0,.43-.75L75,57.57l-.79.61c6,6.78,16.73,3.36,23.43,9.06a7.82,7.82,0,0,1,2.9,5.2.5.5,0,0,0,.93.25,26.28,26.28,0,0,0,4.42-11.1h-1c.79,4.51,3.69,8,6.52,11.46s5.54,7,5.56,11.54a7.64,7.64,0,0,1-2.74,6.34.5.5,0,0,0,.39.91A24.33,24.33,0,0,0,123.78,87l-.79-.61a17.63,17.63,0,0,0,1.89,22.9,17.05,17.05,0,0,0,6.14,3.81c.43.16.77-.37.57-.73-2.11-3.73.13-8,2.59-10.88,1.27-1.51,2.67-2.91,3.94-4.43a47,47,0,0,0,3.28-4.4,50.05,50.05,0,0,0,7.69-20.62,49,49,0,0,0,.11-12.63C149.12,58.81,148.12,58.8,148.2,59.44Z" transform="translate(0 0)"/><g class="cls-20"><g class="cls-16"><path class="cls-7" d="M41.68,88.39c-.33,8.15-5.52,16-13,19.11a12.3,12.3,0,0,0-.12-1.5c2.17-5.31,2.12-11.55,1.17-17.32-1.2-7.27-3.63-14.35-4-21.71a39.92,39.92,0,0,1,7.38-25.19,73.75,73.75,0,0,0,3,29.15C38,76.74,40.57,82.47,41.68,88.39Z" transform="translate(0 0)"/></g><g class="cls-16"><path class="cls-7" d="M78.1,64.44c-6.29.29-12.78.5-18.62-1.86s-11-8.18-10.63-14.69c-.25,1.64-.49,3.3-.72,5A57.8,57.8,0,0,1,52.87,22c.87,7.46,1.81,15.13,5.46,21.68,4.24,7.61,11.63,12.82,18,18.83A23.62,23.62,0,0,1,78.1,64.44Z" transform="translate(0 0)"/></g><g class="cls-16"><path class="cls-7" d="M103.39,68.26A23.93,23.93,0,0,1,101,72.44c-.44-5.44-6.47-8.35-11.73-9.27-4-.7-8.41-1.07-11.84-3a27.41,27.41,0,0,1-6.29-9.4c-2.9-7.24-2.88-15.41-1.15-23a35.58,35.58,0,0,0,7.86,16.11,53.83,53.83,0,0,0,13.89,11.5,53.26,53.26,0,0,1,7,4.45,12.15,12.15,0,0,1,4.49,6.77A8.69,8.69,0,0,1,103.39,68.26Z" transform="translate(0 0)"/></g><g class="cls-16"><path class="cls-7" d="M119.82,85.22a13.42,13.42,0,0,1-4.17,5.07c2.34-2.77,2.29-7.33.73-10.79-1.77-4-5-7-7.54-10.48a18.25,18.25,0,0,1-3.45-7.56c-.07.48-.16,1-.26,1.43A47.83,47.83,0,0,1,110,34.08c-.39,9.84-.66,20.23,4,28.89,2,3.74,4.92,7,6.29,11.07A15.07,15.07,0,0,1,119.82,85.22Z" transform="translate(0 0)"/></g><g class="cls-16"><path class="cls-7" d="M128.7,111.35l.06.22a17,17,0,0,1-8-9.88,17.28,17.28,0,0,1,2.65-15,22.82,22.82,0,0,1-3.07,2.19,52.89,52.89,0,0,1,18.89-24.34c-4.89,8.32-9.87,16.85-11.6,26.34A46.84,46.84,0,0,0,128.7,111.35Z" transform="translate(0 0)"/></g></g><path class="cls-14" d="M64.87,30c-.42-2.27-2.89-4.07-5.1-3.4,1.82-1.1,2.81-3.79,1.45-5.42-3-3.65-7.88-2.09-11.15.38a17.1,17.1,0,0,0-4,4.39c-.23.35-2.71,4.06-2.28,4.29A18.4,18.4,0,0,0,35,28.54c-2.85.06-6.6.62-8.24,3.28a5.73,5.73,0,0,0-.47,4.46,4.31,4.31,0,0,0,1,1.79,3.92,3.92,0,0,0,4.78.64,4.9,4.9,0,0,0,3.56,8.4,7.9,7.9,0,0,0,5.05-2.58,19.68,19.68,0,0,0,5.71-11.06l2.39,1.05c3,1.32,6.3,2.52,9.61,2.38C61.93,36.76,65.59,33.92,64.87,30Z" transform="translate(0 0)"/><path class="cls-7" d="M65.35,29.84a4.8,4.8,0,0,0-5.71-3.75L60,27c1.79-1.15,3-3.7,1.9-5.72a6.28,6.28,0,0,0-6-2.77c-4.7.42-8.38,4-10.81,7.8-.51.78-1,1.57-1.45,2.4-.22.41-.86,1.42-.32,1.84l.61-.78a16.81,16.81,0,0,0-6.93-1.7,20.3,20.3,0,0,0-6.12.46,7.34,7.34,0,0,0-4.61,3,6.12,6.12,0,0,0,.18,6.35,4.43,4.43,0,0,0,5.79,1.23l-.6-.79a5.39,5.39,0,0,0,2.71,9.14,6.93,6.93,0,0,0,5.7-1.81,18.5,18.5,0,0,0,4.24-5.08,20.37,20.37,0,0,0,2.5-7l-.74.3A57,57,0,0,0,53,36.64a14.31,14.31,0,0,0,6.68.61c3.5-.7,6.31-3.72,5.69-7.41-.11-.63-1.07-.37-1,.26C65,33.44,62,36,58.87,36.37c-4.26.49-8.47-1.67-12.24-3.33-.26-.12-.68,0-.74.3A19.36,19.36,0,0,1,41,43.45a9.23,9.23,0,0,1-4.66,3.08,4.41,4.41,0,0,1-4-7.46.5.5,0,0,0-.6-.79,3.41,3.41,0,0,1-4.54-1,5.07,5.07,0,0,1,.24-5.61c2.06-2.61,6.22-2.71,9.24-2.58a16,16,0,0,1,6.74,1.58c.47.25,1.08-.42.61-.79.27.21,0,.3.11.18a2.49,2.49,0,0,0,.11-.29,6.52,6.52,0,0,1,.43-.83c.35-.64.74-1.25,1.13-1.86A20.26,20.26,0,0,1,49.15,23c2.66-2.47,7.43-5,10.8-2.36a3,3,0,0,1,1.39,2.76,4,4,0,0,1-1.82,2.79.51.51,0,0,0,.39.92,3.79,3.79,0,0,1,4.48,3C64.52,30.73,65.48,30.47,65.35,29.84Z" transform="translate(0 0)"/><g class="cls-21"><path class="cls-14" d="M57.11,31.21a2.57,2.57,0,0,0-3-2c1.08-.66,1.68-2.27.86-3.25-1.82-2.19-4.72-1.25-6.68.23a10.32,10.32,0,0,0-2.43,2.63c-.13.21-1.62,2.43-1.36,2.57a11,11,0,0,0-5.23-1c-1.71,0-3.95.37-4.94,2A3.45,3.45,0,0,0,34,35a2.67,2.67,0,0,0,.58,1.07,2.34,2.34,0,0,0,2.87.38,2.94,2.94,0,0,0,2.13,5,4.78,4.78,0,0,0,3-1.55A11.82,11.82,0,0,0,46,33.3l1.43.63a13.36,13.36,0,0,0,5.76,1.43C55.35,35.27,57.54,33.57,57.11,31.21Z" transform="translate(0 0)"/></g><circle class="cls-3" cx="44.49" cy="31.75" r="5.45"/><path class="cls-12" d="M128.92,192.52l-5.19-10.71-85,5.26a15,15,0,0,0-3.08,4.37,5.09,5.09,0,0,0,.54,5.08c1.17,1.37,3.63,1.61,4.74.21a5.66,5.66,0,0,0,10.24,1.18,3.12,3.12,0,0,0,2,3.45A3.2,3.2,0,0,0,57,199.83a5.56,5.56,0,0,0,9.42.27,4.54,4.54,0,0,0,3.91,3.1,4.59,4.59,0,0,0,4.36-2.45,4.93,4.93,0,0,0,9,0,5.31,5.31,0,0,0,9.19-.43,5.91,5.91,0,0,0,10,.07,5.48,5.48,0,0,0,4.86,2,5.4,5.4,0,0,0,4.23-3.09,4.34,4.34,0,0,0,7.85-.11,4.53,4.53,0,0,0,5.11,1,4.42,4.42,0,0,0,2.44-4.54l1.2.75C129.94,195.92,129.56,193.86,128.92,192.52Z" transform="translate(0 0)"/><path class="cls-7" d="M129.35,192.27q-2.59-5.36-5.18-10.72a.49.49,0,0,0-.44-.24l-2.73.16-7.37.46-10.73.66-12.82.8-13.64.84-13.21.82-11.48.71-8.51.53-4.26.26a1.06,1.06,0,0,0-.25,0c-.49.07-.85.68-1.16,1a17,17,0,0,0-1.69,2.26,6.94,6.94,0,0,0-1.06,4.91A4.08,4.08,0,0,0,37.6,198a3.47,3.47,0,0,0,3.68-.91l-.84-.22a6.16,6.16,0,0,0,11.15,1.3l-.91-.39a3.65,3.65,0,0,0,2.31,4,3.71,3.71,0,0,0,4.39-1.74h-.86a6.06,6.06,0,0,0,10.28.28l-.91-.12a5,5,0,0,0,9.18.76h-.86a5.42,5.42,0,0,0,9.85.05h-.87a5.82,5.82,0,0,0,10.06-.44h-.86a6.41,6.41,0,0,0,10.89.07l-.79.1a5.87,5.87,0,0,0,9.88-1.17h-.87a4.84,4.84,0,0,0,8.71-.11l-.79.1a5.08,5.08,0,0,0,5.64,1.07,4.93,4.93,0,0,0,2.77-5l-.75.44c.57.36,1.2,1,1.9.66a1.92,1.92,0,0,0,.9-1.15,4.82,4.82,0,0,0-.53-3.34c-.27-.58-1.14-.08-.86.5.36.77,1,2.7-.1,3.16l.39,0-1.2-.75c-.29-.18-.8.05-.75.43a4,4,0,0,1-2.11,4.07,4.05,4.05,0,0,1-4.59-.84.51.51,0,0,0-.79.1,3.84,3.84,0,0,1-7,.11.51.51,0,0,0-.87,0,4.86,4.86,0,0,1-8.3,1,.51.51,0,0,0-.79.11,5.48,5.48,0,0,1-9.16-.07.5.5,0,0,0-.86,0,4.82,4.82,0,0,1-8.33.43.51.51,0,0,0-.87,0,4.43,4.43,0,0,1-8.12,0,.5.5,0,0,0-.86,0,4.1,4.1,0,0,1-3.93,2.2A4,4,0,0,1,66.86,200a.51.51,0,0,0-.92-.12,5.12,5.12,0,0,1-8.56-.28.51.51,0,0,0-.86,0,2.72,2.72,0,0,1-3.11,1.34A2.64,2.64,0,0,1,51.64,198a.5.5,0,0,0-.91-.39,5.31,5.31,0,0,1-5,2.48,5.23,5.23,0,0,1-4.33-3.54.51.51,0,0,0-.84-.22,2.48,2.48,0,0,1-2.7.66,3.11,3.11,0,0,1-2.08-2.52c-.54-2.81,1.56-5.17,3.28-7.09l-.35.15L47.2,187l20.35-1.26L92,184.27,113.29,183l7-.43,2.17-.14a7.2,7.2,0,0,0,1.14-.07h.13l-.43-.25,5.19,10.71C128.77,193.35,129.63,192.85,129.35,192.27Z" transform="translate(0 0)"/><path class="cls-14" d="M126.79,187.72a80.67,80.67,0,0,0-18.36-39.81c-17.74,8.48-35.4,8.58-53,0-.5,0-2.1,2.55-2.44,3-.84,1.09-1.65,2.19-2.44,3.32-1.45,2.08-2.79,4.23-4,6.44a80.49,80.49,0,0,0-9.43,27.06,4.89,4.89,0,0,0,.12,2.79c1.07,2.35,4.17,3.23,6.45,3.83a82.5,82.5,0,0,0,9.86,1.91c12.27,1.71,24.82,1.66,37.19,1.52,8.62-.09,17.33-.46,25.75-2.44.67-.16,1.34-.32,2-.5,2.63-.71,6.9-1.53,8.17-4.32A5,5,0,0,0,126.79,187.72Z" transform="translate(0 0)"/><path class="cls-7" d="M127.27,187.59a81.34,81.34,0,0,0-12.57-32.22,83,83,0,0,0-5.91-7.82.53.53,0,0,0-.61-.07,63.77,63.77,0,0,1-20.37,6,55.5,55.5,0,0,1-20-1.48A63.75,63.75,0,0,1,58,148.52l-1.34-.62a4.79,4.79,0,0,0-1-.47,1,1,0,0,0-.94.44,15.53,15.53,0,0,0-1.7,2.24c-.76,1.12-1.61,2.16-2.39,3.26-1,1.46-2,2.95-3,4.48a81,81,0,0,0-10.69,28c-.27,1.48-.79,3.26-.22,4.73a5.46,5.46,0,0,0,2.37,2.61c2.35,1.42,5.32,1.94,8,2.49a134.26,134.26,0,0,0,21.62,2.44c7.27.32,14.55.28,21.82.2a140.28,140.28,0,0,0,21.19-1.48,86.68,86.68,0,0,0,9-2c2.15-.59,4.59-1.38,6-3.25a4.93,4.93,0,0,0,.62-3.93c-.1-.64-1.06-.37-1,.26a4.31,4.31,0,0,1-.14,2.54,4.15,4.15,0,0,1-1,1.28,8.93,8.93,0,0,1-3,1.59,58.18,58.18,0,0,1-7.71,2,112.37,112.37,0,0,1-20.63,2c-14,.3-28.19.43-42.06-1.73a69.51,69.51,0,0,1-9.35-2,10.92,10.92,0,0,1-3.4-1.55,3.62,3.62,0,0,1-1.51-3.55,62.17,62.17,0,0,1,2-9.53,80.61,80.61,0,0,1,13-26.53c.62-.82,1.21-1.64,1.8-2.48a11.49,11.49,0,0,1,.85-1.1,2.2,2.2,0,0,1,.3-.31l.05,0c-.17,0-.18.07,0,.11s.6.29.78.37a66.71,66.71,0,0,0,9.46,3.6,56.85,56.85,0,0,0,19.1,2.25,61.21,61.21,0,0,0,19.18-4.36c1.55-.62,3.09-1.3,4.61-2l-.61-.08a80.3,80.3,0,0,1,16.15,30.15,81.89,81.89,0,0,1,2.08,9.44C126.41,188.49,127.37,188.22,127.27,187.59Z" transform="translate(0 0)"/><g class="cls-21"><path class="cls-14" d="M53,150.9c-.84,1.09-1.65,2.19-2.44,3.32s-1.39,2.06-2.06,3.11a29.32,29.32,0,0,0-2.1,6.7c2.86-1.14,5.42-3.17,7.89-4.91,1.46-1,2.93-2.05,4.47-3,1.76-1,3.35-2.32,5.16-3.26a1,1,0,0,1,1.47.6c1.29,6.92,6.5,12.2,12.91,14.71,1.08-1.86,3-2.89,4.55-4.42,2.27-2.27,3.64-5.36,5.64-7.86a1,1,0,0,1,1.67.44c1,3.67,4.12,6,7.37,7.54a43.08,43.08,0,0,0,9.49,3.05,23.28,23.28,0,0,0-.87-12.71c-.36-1.26,1.48-1.71,1.93-.53,1.12,4,5.6,5.86,9.22,6.92a79.75,79.75,0,0,0-8.91-12.74c-17.74,8.48-35.4,8.58-53,0C55,147.91,53.38,150.46,53,150.9Z" transform="translate(0 0)"/></g></g></g></g></svg>