<svg xmlns="http://www.w3.org/2000/svg" viewBox="0 0 194.61 365"><defs><style>.cls-1{fill:#dba7d2;}.cls-10,.cls-2{fill:#ffc9ba;}.cls-11,.cls-2,.cls-21,.cls-3,.cls-5,.cls-6,.cls-8{stroke:#693c3c;}.cls-11,.cls-14,.cls-16,.cls-2,.cls-21,.cls-3,.cls-5,.cls-6,.cls-8{stroke-linecap:round;}.cls-11,.cls-14,.cls-16,.cls-2,.cls-21{stroke-miterlimit:10;}.cls-11,.cls-16,.cls-2,.cls-21,.cls-3,.cls-5,.cls-6,.cls-8{stroke-width:2px;}.cls-3,.cls-9{fill:#ffe3d8;}.cls-3,.cls-5,.cls-6,.cls-8{stroke-linejoin:round;}.cls-4{fill:#693c3c;}.cls-12,.cls-5{fill:#d85461;}.cls-6{fill:#695b5b;}.cls-7{fill:#ffc069;}.cls-11,.cls-14,.cls-16,.cls-8{fill:none;}.cls-13{fill:#ffb0a4;}.cls-14{stroke:#a13e49;}.cls-15,.cls-21{fill:#fff;}.cls-16{stroke:#ba7366;}.cls-17{fill:#ed9087;}.cls-18{fill:#cf8e9d;}.cls-19{fill:#ba7081;}.cls-20{fill:#e39cac;}</style></defs><title>Asset 3</title><g id="Layer_2" data-name="Layer 2"><g id="BACKGROUND"><path class="cls-1" d="M172.29,355.33c0,5.34-26.46,9.67-59.11,9.67s-59.11-4.33-59.11-9.67,26.47-9.67,59.11-9.67S172.29,350,172.29,355.33Z"/></g><g id="OBJECTS"><path class="cls-2" d="M101.66,178.69c-1.94,6.1-9.9,11.06-17.77,11.06s-12.67-5-10.73-11.06,9.9-11.07,17.77-11.07S103.61,172.58,101.66,178.69Z"/><path class="cls-3" d="M175,197.38a18.11,18.11,0,0,1,10.79,4c2,1.87,2.09,3.18,2.06,5.65s-2.25,7.69-3.28,8.25-3.22-.65-3.66-1c-.16.66-1.19,1.94-2.09,1.88s-3.88-3.35-4.75-4.25a9.37,9.37,0,0,1-1.75-6.41C172.5,202.56,173.54,197.41,175,197.38Z"/><path class="cls-4" d="M179.92,214.45l.14-2.13v0a.56.56,0,0,1,.59-.51.53.53,0,0,1,.48.35l.77,2v0a1,1,0,1,1-1.92.74A1.08,1.08,0,0,1,179.92,214.45Z"/><path class="cls-3" d="M11.85,181.56a18.23,18.23,0,0,1-9.66-6.24c-1.51-2.26-1.35-3.57-.78-6s3.86-7,5-7.34,3,1.34,3.35,1.77c.3-.61,1.58-1.64,2.45-1.38s3.06,4.11,3.72,5.18a9.45,9.45,0,0,1,.31,6.63C15.41,177,13.29,181.85,11.85,181.56Z"/><path class="cls-4" d="M10.75,163.83l-.6,2h0a.55.55,0,0,1-1.08-.07l-.32-2.1v0a1,1,0,0,1,2-.3A1.08,1.08,0,0,1,10.75,163.83Z"/><path class="cls-5" d="M28.54,315.88s-13.25,3.68-14.88,4-3.44,2.81-1.44,5.62,15.69,11.88,20.63,14.44,9.62,2.62,10.75,1.25S52,329.69,52,329.69s-1-10.37-9.88-15C35,310.94,28.54,315.88,28.54,315.88Z"/><path class="cls-5" d="M174.65,302.74s13.53,2.49,15.13,2.92,4.32-1,3.75-4.43-8.91-17.54-12.22-22-7.51-6.57-9.12-5.83S159.57,280,159.57,280s-3.64,9.76,2.31,17.81C166.7,304.37,174.65,302.74,174.65,302.74Z"/><path class="cls-6" d="M49.77,262.29c-5.75,7.42-15.09,27.5-21.5,46.84-3,2.75-4.92,4.75-4.34,6s7.5,7.58,17.25,13.08,12.92,5.92,14,5.33,3.42-4.41,3.42-4.41,27.25-17.59,34.25-23.75l6.08-.59s33.92,13.42,40.67,12.92S166.27,306,166.27,306s7.16.33,7.5-.5.25-11.75-1.84-19.25S166.77,275,165.85,275s-8.75,2.5-8.75,2.5-1.88-10-5.25-15.17Z"/><path class="cls-4" d="M28.94,308.39l.46.45L30.63,310l1.75,1.59,2.09,1.74c.72.58,1.4,1.23,2.12,1.71l1.93,1.38,1.89,1.35,0,0a.53.53,0,0,1,.12.73.52.52,0,0,1-.7.13l-2-1.24-2.06-1.29c-.77-.45-1.49-1.05-2.27-1.59l-2.24-1.64-1.9-1.52c-.56-.45-1-.82-1.32-1.09l-.49-.42a1,1,0,0,1,1.3-1.52l0,0Z"/><path class="cls-4" d="M98.44,305.67l-1-.6c-.65-.37-1.57-.91-2.66-1.59L91,301.19c-.69-.41-1.37-.89-2.08-1.34l-2.15-1.4-2.14-1.4c-.7-.47-1.41-.89-2-1.39L79,293.07l-3.46-2.54a.5.5,0,0,1-.11-.71.51.51,0,0,1,.7-.13l0,0,3.53,2.39,3.6,2.44c.65.47,1.38.86,2.09,1.3l2.17,1.32,2.18,1.31c.72.43,1.41.87,2.11,1.26l3.8,2.13c1.1.63,2,1.14,2.7,1.49l1,.56a1,1,0,0,1-.94,1.76Z"/><path class="cls-4" d="M92.71,306.37s-3.22-.62-6.36-1.47L84,304.24l-2-.67-1.91-.77a.41.41,0,0,1,.27-.78h0l1.9.58,2,.47,2.3.44c3.17.56,6.34.87,6.34.87a1,1,0,1,1-.19,2Z"/><path class="cls-4" d="M157.86,278.11s-.16.17-.38.45-.55.72-.94,1.24-.8,1.18-1.18,1.92c-.21.36-.42.73-.63,1.12s-.38.79-.57,1.19-.4.8-.57,1.21l-.46,1.2a17.91,17.91,0,0,0-.77,2.16c-.4,1.29-.66,2.15-.66,2.15v0a.53.53,0,0,1-1-.28s.22-.89.54-2.24a19.12,19.12,0,0,1,.64-2.27c.13-.42.27-.84.41-1.28s.33-.86.5-1.29.34-.87.52-1.29l.58-1.21c.36-.8.81-1.5,1.14-2.12s.68-1.1.95-1.46.4-.53.4-.53l0,0a1,1,0,0,1,1.41-.12,1,1,0,0,1,.13,1.4Z"/><path class="cls-7" d="M177.14,195.71a30,30,0,0,0-4.46-2s-1-3.67-3.37-4.79-26.13-6.63-33.25-7.46c-16.79-2.87-44.8,3.13-53.63,5.5,0,0-6.17-15.21-8.25-16.46s-7.91-1.25-9.58,0-2.9,4.88-3.27,6.45c0,0-20.89-4.45-30-5.61-1.1-1-2.29-2.5-3.54-2.69a16.41,16.41,0,0,0-4.22.56s-4.47-2.75-4.88-2.91-1.72.57-1.72.57A88,88,0,0,1,13.27,177a26.14,26.14,0,0,1-3.27,5.2s-.88,1.58,0,2.58,5.79,4,5.79,4,.92,4.67,2.54,6.21S33,211.88,53.22,217.75c0,0-.5,3.69-.56,5.69-2.5,3.75-6.62,13.06-5.19,29.69-2.43,4.5-4.25,10.43-3.75,12.06s8.88,11.06,47.5,13.44,62.71-10.42,63.71-11.17,1.09-8.92-3.16-15.42c-.5-12.08-5.42-28.79-9.05-36,8.13.56,16.07,1.69,20,1.13a11.59,11.59,0,0,0,6.38-3.25s4.58,0,5-.55,3.41-13.75,3.58-14.87A3.21,3.21,0,0,0,177.14,195.71Z"/><path class="cls-8" d="M61.33,177s-20.88-4.45-30-5.61c-1.1-1-2.29-2.5-3.54-2.69a16.41,16.41,0,0,0-4.22.56s-4.47-2.75-4.88-2.91-1.72.57-1.72.57A88,88,0,0,1,13.27,177a26.14,26.14,0,0,1-3.27,5.2s-.88,1.58,0,2.58,5.79,4,5.79,4,.92,4.67,2.54,6.21S33,211.88,53.22,217.75c0,0-.5,3.69-.56,5.69-2.5,3.75-6.62,13.06-5.19,29.69-2.43,4.5-4.25,10.43-3.75,12.06s8.88,11.06,47.5,13.44,62.71-10.42,63.71-11.17,1.09-8.92-3.16-15.42c-.5-12.08-5.42-28.79-9.05-36,8.13.56,16.07,1.69,20,1.13a11.59,11.59,0,0,0,6.38-3.25s4.58,0,5-.55,3.41-13.75,3.58-14.87a3.21,3.21,0,0,0-.5-2.75,30,30,0,0,0-4.46-2s-1-3.67-3.37-4.79-26.13-6.63-33.25-7.46c-16.79-2.87-44.8,3.13-53.63,5.5,0,0-6.17-15.21-8.25-16.46s-7.91-1.25-9.58,0-3.08,5.42-3.33,6.75,2.82,4.25,7.36,6.67"/><path class="cls-4" d="M24.55,169.55s-.24.68-.66,1.71l-.7,1.76c-.26.64-.56,1.31-.85,2-.15.34-.3.67-.44,1s-.27.67-.44,1l-.84,1.69-.83,1.64a.4.4,0,0,1-.73-.32v0l.64-1.69c.2-.51.42-1.1.66-1.73.13-.31.22-.66.33-1l.33-1c.21-.69.45-1.37.63-2s.36-1.26.51-1.78c.3-1,.47-1.75.47-1.75a1,1,0,1,1,1.95.47l0,.1Z"/><path class="cls-4" d="M52.23,217.64s0-.39.09-1.07.19-1.64.34-2.79.39-2.48.65-3.91.59-2.94,1-4.45.79-3,1.24-4.39A33.79,33.79,0,0,1,57,197.3c.23-.54.52-1,.73-1.43a11.54,11.54,0,0,1,.65-1.06c.38-.59.61-.9.61-.9a.39.39,0,0,1,.54-.08.4.4,0,0,1,.14.42v0s-.11.37-.35,1c-.12.31-.25.68-.38,1.13s-.3.92-.46,1.47l-.51,1.75c-.17.62-.34,1.28-.53,2s-.37,1.39-.53,2.12-.34,1.46-.49,2.2c-.33,1.48-.6,3-.88,4.37s-.49,2.72-.68,3.84c-.37,2.25-.61,3.74-.61,3.74v0a1,1,0,0,1-2-.24Z"/><path class="cls-4" d="M51.73,217.87l-.16-.69c-.11-.44-.24-1.06-.39-1.81s-.3-1.62-.47-2.56-.31-1.94-.41-3-.25-2-.29-3-.14-1.83-.14-2.6c0-1.52,0-2.54,0-2.54a.5.5,0,0,1,1,0v0s.08,1,.18,2.47c0,.74.19,1.61.3,2.53s.3,1.9.46,2.88.39,2,.58,2.86.41,1.75.6,2.46.36,1.32.49,1.72l.19.65v0a1,1,0,0,1-1.91.59Z"/><path class="cls-8" d="M52.66,223.44s1.75-1.07,5.75-.82,40.44.4,42.94.39a7.31,7.31,0,0,1,6.94,6c.93,4.25,1.93,13.44,4.93,19.06s4,6.69,3.88,8.13-1.06,5.87-4.44,7.44"/><path class="cls-4" d="M117,262.61l2.24-.68,2.32-.67c.84-.25,1.76-.48,2.66-.73l2.68-.71,2.37-.54,2.31-.52a1,1,0,0,1,1.2.76,1,1,0,0,1-.76,1.19l-.07,0h-.06l-2.29.35-2.35.36c-.86.15-1.78.34-2.7.51s-1.83.35-2.69.53l-2.33.51-2.29.51h0a.48.48,0,0,1-.57-.36A.47.47,0,0,1,117,262.61Z"/><path class="cls-4" d="M51.87,255a3.48,3.48,0,0,0,.46.32l.54.36.8.44c.57.35,1.35.67,2.2,1.09s1.88.76,3,1.22,2.32.77,3.59,1.23,2.68.7,4.1,1.08,2.95.6,4.47.92l1.14.23.29.05.12,0,.15,0,.59.09,2.37.37c1.58.26,3.16.51,4.7.67s3.06.39,4.55.5,2.91.3,4.27.39l3.84.27c2.39.14,4.37.21,5.76.27l2.18,0h0a.49.49,0,0,1,0,1s-.81.1-2.21.2l-2.54.13-3.29.06c-1.21,0-2.52,0-3.9-.08s-2.84-.15-4.34-.22-3.07-.29-4.65-.43-3.18-.37-4.76-.59c-.79-.11-1.58-.23-2.37-.33l-.59-.09-.15,0-.17,0-.29-.06-1.18-.24c-1.56-.35-3.11-.6-4.58-1s-2.88-.83-4.21-1.26-2.56-.94-3.68-1.43-2.13-1-3-1.57A17.34,17.34,0,0,1,53,257.11l-.74-.62-.52-.52a3.13,3.13,0,0,1-.3-.34l-.09-.11a.38.38,0,1,1,.54-.54Z"/><path class="cls-4" d="M129.07,215l-.72-.46c-.23-.15-.5-.32-.82-.55l-1.07-.81a12,12,0,0,1-1.19-1c-.4-.38-.86-.74-1.26-1.18l-1.26-1.35c-.43-.47-.79-1-1.19-1.49a13.53,13.53,0,0,1-1.1-1.54l-1-1.55c-.3-.52-.53-1-.79-1.53l-.68-1.37-1.12-2.95a.45.45,0,0,1,.83-.34l0,0,1.24,2.8c.23.39.47.82.73,1.28s.52.94.84,1.41l1,1.43a11.63,11.63,0,0,0,1.13,1.41c.4.45.77.93,1.2,1.35l1.26,1.2c.4.4.85.71,1.24,1a11.23,11.23,0,0,0,1.15.87l1,.68.84.49.74.42a1,1,0,0,1,.37,1.37,1,1,0,0,1-1.36.37Z"/><path class="cls-8" d="M142.72,216s-7.87-.58-10-.67a8.65,8.65,0,0,1-3.13-1.19"/><path class="cls-4" d="M120.69,212.85a2.86,2.86,0,0,0,.24.25c.14.14.4.34.69.58a10.89,10.89,0,0,0,1.09.71,9.75,9.75,0,0,0,1.33.68l.69.3.7.22a6.84,6.84,0,0,0,1.24.34l1.23.26.1,0a1,1,0,0,1-.41,2l-.13,0-1.33-.46a9.39,9.39,0,0,1-1.32-.57l-.73-.35c-.24-.13-.47-.29-.71-.43a10.36,10.36,0,0,1-1.35-.93,10.71,10.71,0,0,1-1.08-.94,9.71,9.71,0,0,1-.69-.76c-.17-.2-.24-.3-.24-.3l0,0a.44.44,0,0,1,.13-.6A.44.44,0,0,1,120.69,212.85Z"/><path class="cls-4" d="M168.1,213.85s0-.73.15-1.84c.05-.55.11-1.2.17-1.89s.17-1.43.26-2.16.17-1.47.28-2.16.23-1.33.33-1.87l.33-1.83a.48.48,0,0,1,1,.13v0s-.07.73-.16,1.82c0,.54-.11,1.17-.17,1.85s-.06,1.41-.09,2.14-.06,1.45-.07,2.13,0,1.32,0,1.87c0,1.08,0,1.82,0,1.82a1,1,0,0,1-2,.07.14.14,0,0,1,0-.09Z"/><path class="cls-9" d="M20.43,124c-2.33,8-3.51,16.11-1.5,21.83,6.5,18.5,36.79,31.84,64.5,31.84,20.17,0,49.34-12.34,55.84-22.5,9.83-6.5,27.83-42.67,17.16-74.34s-40-44.5-79-41.66S25.6,57.46,19.93,80.63C15,100.69,20.43,119.79,20.43,124Z"/><path class="cls-10" d="M108.46,124.44C98.28,124.44,90,130.51,90,138s8.25,13.56,18.43,13.56S126.9,145.49,126.9,138,118.65,124.44,108.46,124.44Z"/><path class="cls-10" d="M44.81,138c0-7.49-8.26-13.56-18.44-13.56a24.29,24.29,0,0,0-6.31.83c-2.08,7.57-3,15.11-1.13,20.52a26.83,26.83,0,0,0,2.58,5.28,24.72,24.72,0,0,0,4.86.49C36.55,151.56,44.81,145.49,44.81,138Z"/><path class="cls-11" d="M20.43,124c-2.33,8-3.51,16.11-1.5,21.83,6.5,18.5,36.79,31.84,64.5,31.84,20.17,0,49.34-12.34,55.84-22.5,9.83-6.5,27.83-42.67,17.16-74.34s-40-44.5-79-41.66S25.6,57.46,19.93,80.63C15,100.69,20.43,119.79,20.43,124Z"/><path class="cls-9" d="M159.16,125.63c-2.92-3.21-10.75-3.57-15.87,1.93l-5.57,27.19c7.13,2.81,16.44-.56,21.13-9C164,136.52,163,129.81,159.16,125.63Z"/><path class="cls-8" d="M154,132.81s-5.62.82-8.62,9.32c3.12-2.94,7.81-1.63,8.62,1.06"/><path class="cls-11" d="M143.29,127.56c5.12-5.5,13-5.14,15.87-1.93,3.81,4.18,4.81,10.89-.31,20.12-4.69,8.44-14,11.81-21.13,9"/><path class="cls-12" d="M53.52,154.88c-.14-.66.91-2.92,4.66-3.92s20.42-4.83,24-4.92,8.09,1.84,9.84,8.17-3.53,12.4-12.34,14.5C69.51,171.13,56.35,169,53.52,154.88Z"/><path class="cls-13" d="M92.14,154.82c-13.65-2.48-26.43,5.61-30.26,12.25,5.27,2.93,12,3,17.8,1.64C88.21,166.68,93.4,160.93,92.14,154.82Z"/><path class="cls-14" d="M92.14,154.82c-13.65-2.48-26.43,5.61-30.26,12.25"/><path class="cls-15" d="M58.18,151a8.34,8.34,0,0,0-3.39,1.7c5.83,1.88,23.78.06,31.46-5.8a9.44,9.44,0,0,0-4.07-.82C78.6,146.13,61.93,150,58.18,151Z"/><path class="cls-14" d="M54.79,152.66c5.83,1.88,23.78.06,31.46-5.8"/><path class="cls-14" d="M53.52,154.88c-.14-.66.91-2.92,4.66-3.92s20.42-4.83,24-4.92,8.09,1.84,9.84,8.17-3.53,12.4-12.34,14.5C69.51,171.13,56.35,169,53.52,154.88Z"/><path class="cls-16" d="M54.79,135.81s-3.19,2.63.87,5.25"/><path class="cls-17" d="M102.11,132l.42-.28c.27-.18.67-.39,1.15-.66s1.06-.55,1.7-.8,1.31-.54,2-.75l1-.33,1-.26,1-.23c.31-.08.61-.11.88-.16l1.81-.29a.75.75,0,0,1,.24,1.48h-.12l-1.75.13c-.26,0-.55,0-.85.08l-.93.15-1,.16-1,.25a17,17,0,0,0-2,.56c-.64.18-1.2.44-1.7.63s-.89.4-1.15.54-.42.24-.42.24a.29.29,0,0,1-.39-.09.28.28,0,0,1,.07-.38Z"/><path class="cls-17" d="M105.68,133.76l.29-.16c.2-.11.47-.24.8-.39s.73-.32,1.16-.48.89-.33,1.36-.45.94-.27,1.4-.36.87-.2,1.24-.24l1.22-.17a.75.75,0,1,1,.21,1.49h-.15l-1.15,0a10.46,10.46,0,0,0-1.18.08,13.18,13.18,0,0,0-1.35.18,13.43,13.43,0,0,0-1.35.27c-.42.09-.81.21-1.15.31s-.61.2-.8.28l-.3.11h0a.28.28,0,0,1-.37-.16A.29.29,0,0,1,105.68,133.76Z"/><path class="cls-17" d="M109.29,135.53s.23-.08.59-.17.85-.22,1.34-.31c.25,0,.49-.11.73-.13l.66,0,.65-.05a.76.76,0,1,1,.12,1.51.55.55,0,0,1-.18,0h-.1l-.55-.09-.58-.09c-.21,0-.44,0-.68,0-.47,0-.94,0-1.29,0a5.58,5.58,0,0,0-.6,0,.28.28,0,0,1-.31-.25.28.28,0,0,1,.18-.3Z"/><path class="cls-17" d="M31.69,132.4s-.08-.08-.24-.21-.37-.29-.65-.49a4.22,4.22,0,0,0-.47-.3c-.17-.1-.34-.23-.53-.32a10.54,10.54,0,0,0-1.22-.57l-.63-.24a6.52,6.52,0,0,0-.63-.18,7,7,0,0,0-1.12-.25l-1.1-.14H25a.75.75,0,0,1-.65-.84.76.76,0,0,1,.85-.65h.09l1.22.32a8.79,8.79,0,0,1,1.21.42c.21.1.44.16.66.28l.65.35a12.26,12.26,0,0,1,1.23.77c.19.13.36.28.53.41s.32.25.45.38.49.46.64.63a2.38,2.38,0,0,1,.23.24v0a.3.3,0,0,1,0,.4A.29.29,0,0,1,31.69,132.4Z"/><path class="cls-17" d="M29.54,134.23a1.15,1.15,0,0,0-.17-.11l-.47-.25a8,8,0,0,0-1.5-.58,6.9,6.9,0,0,0-.83-.18,5.23,5.23,0,0,0-.73-.08l-.7,0h-.08a.76.76,0,0,1-.74-.78.75.75,0,0,1,.78-.73h.14l.83.18a5.75,5.75,0,0,1,.81.26,6.8,6.8,0,0,1,.89.38,8.7,8.7,0,0,1,1.52.94,5.61,5.61,0,0,1,.45.37l.16.15a.28.28,0,0,1,0,.4A.29.29,0,0,1,29.54,134.23Z"/><path class="cls-17" d="M27.46,136.08a1.77,1.77,0,0,0-.37,0,3.39,3.39,0,0,0-.77,0,2.18,2.18,0,0,0-.39,0l-.32.09-.29.08-.13,0a.77.77,0,1,1-.41-1.49.7.7,0,0,1,.29,0l.45.05.45,0a4.12,4.12,0,0,1,.47.13,6,6,0,0,1,.84.32,2,2,0,0,1,.35.17l0,0a.28.28,0,0,1-.21.51Z"/><path class="cls-4" d="M81.41,121.06c8.38-4.18,18.78-6.37,26-6.18s8.94,1.56,9.5,2.12,2.38,5.38,1.25,5.5S100,121.75,83.29,125C81.54,125.34,79.3,122.07,81.41,121.06Z"/><path class="cls-4" d="M45.68,121.06C41,116.88,35.1,114.69,31,114.88s-5,1.56-5.35,2.12-.72,4.33-.08,4.46a74.53,74.53,0,0,1,19,3.54C45.6,125.34,46.87,122.07,45.68,121.06Z"/><path class="cls-17" d="M84.41,116.13s5.81-2.79,8.28-3.54,2.1.6.72,1.16-8.62,2.81-9,2.91S83.82,116.41,84.41,116.13Z"/><path class="cls-17" d="M45.79,116.47s-3.36-2.78-5.83-3.53-2.09.59-.71,1.15,6.17,2.81,6.54,2.91S46.38,116.75,45.79,116.47Z"/><path class="cls-4" d="M81.27,104.29c-1.38,0,1.58-6.49,3.58-7.25,4.62-1.75,13.75.17,13.17.92S87.85,104,81.27,104.29Z"/><path class="cls-4" d="M47.93,104.29c1.09,0-1.25-6.49-2.83-7.25-3.66-1.75-10.88.17-10.42.92S42.72,104,47.93,104.29Z"/><path class="cls-18" d="M138.54,122.79c-2.76,5.67-6.12,10-6.44,10s-5.87-15.79-9-28.5c.11,3-.22,4.73-.46,5-.75.75-30.83-10.83-47.5-29.16,2.42,13.33-.75,29.58-1.41,30.08s-22.48-8.82-29.36-33.35h0c-5,6.68-12.63,27.77-13.38,27.85-.4,0-2.66-3.53-4.34-9.39C22.6,100.88,14.43,108.21,14,107.38A51,51,0,0,1,11.6,94c-4.5,2.09-9.17,3.24-9,2.29s3.67-6.45,3.75-13.62S5.68,57.13,19.93,49.13C13,48.88,8.43,39,8.68,37.71s7.09-.42,12.5-2.58S39.1,23.21,53.93,26.38C61,16.88,69,8.21,69.93,8.71S72,19.29,71,24.46c5-3.17,13-5.92,24.83-5.33s30-.92,30.92-.59c.55.21-.56,4.38-4.08,8C132.28,28.29,144,34.46,150.6,36s17.17.5,17.67,1.92-5.92,9.58-9.42,11.08c6,8.08,14.42,20.25,15.67,26.08s3,15.67,3,15.67c4.54,3.71,9.09,5.7,9.09,6.92,0,1.38-9.31,6.12-15.94,6.37,3.44,11.32,2,25.75,1.5,26.59s-4.68-3.21-6.25-5.56c0,0-2.19,4.29-4,5.56-2.33-9.17-10.86-7.14-15-5.79-2.88,5.52-6.31,9.58-6.71,9.58C139.54,134.38,138.54,122.79,138.54,122.79Z"/><path class="cls-19" d="M64.75,50.5c-1.64-5-.36-17.89,6.64-30.19.1-5.13-.75-11.22-1.46-11.6-.91-.5-8.91,8.17-16,17.67a27,27,0,0,0-3.37-.51C46.31,33,47,39.05,47.64,40.5s3,6.62,12.18,11.46Z"/><path class="cls-19" d="M166.35,99.94c-.88-.13-3.13,3.5-3.25,6.94-1.94-3.5-7.75-7-8.75-6.94s-3.25,13.12-4.1,16.21c-.83,3.72-4.74,11.06-4.89,11.33.51-.84,1-1.73,1.51-2.68,4.17-1.35,12.7-3.38,15,5.79,1.82-1.27,4-5.56,4-5.56,1.57,2.35,5.75,6.39,6.25,5.56s1.94-15.27-1.5-26.59C169.22,101.45,167.22,100.06,166.35,99.94Z"/><path class="cls-20" d="M13.55,54.39c-4.49,5.34-6.17,12.17-6.8,18.09,13.42,5.87,26.44,4.07,27.91,1.9C36,72.44,24.05,62.94,13.55,54.39Z"/><path class="cls-20" d="M174.24,74c-1.55-5-7.08-13.5-12.15-20.6-12.51,7-40.89,21.14-38.93,26.87C125,85.61,155.89,82.34,174.24,74Z"/><path class="cls-20" d="M125.72,63.13c-7-.31-16.12,3.75-13.37,5.87s16.37.63,17.5-1.37S128.6,63.25,125.72,63.13Z"/><path class="cls-8" d="M123.14,104.29c-.24-6.21-2.41-17.67-11.29-31.29"/><path class="cls-8" d="M42.43,58.38a57.68,57.68,0,0,0,2,18.48c6.88,24.53,28.81,33.76,29.36,33.35s3.83-16.75,1.41-30.08c16.67,18.33,46.75,29.91,47.5,29.16.24-.24.57-2,.46-5"/><path class="cls-8" d="M123.14,104.29v0c3.09,12.71,8.52,28.43,9,28.5s3.68-4.36,6.44-10a40.15,40.15,0,0,0,3.18-8.79c1.84-8.12,3.21-15.71.05-22.62"/><path class="cls-8" d="M138.54,122.79s1,11.59,1.62,11.59c.4,0,3.83-4.06,6.71-9.58a36.71,36.71,0,0,0,3.73-10.27"/><path class="cls-8" d="M146.87,124.8c4.17-1.35,12.7-3.38,15,5.79,1.82-1.27,4-5.56,4-5.56,1.57,2.35,5.75,6.39,6.25,5.56s1.94-15.27-1.5-26.59c6.63-.25,15.94-5,15.94-6.37,0-1.22-4.55-3.21-9.09-6.92a29.22,29.22,0,0,1-4.35-4.28"/><path class="cls-8" d="M44.4,76.86c-5,6.68-12.63,27.77-13.38,27.85-.4,0-2.66-3.53-4.34-9.39a48.51,48.51,0,0,1-1.41-19.94"/><path class="cls-8" d="M26.68,95.32C22.6,100.88,14.43,108.21,14,107.38A51,51,0,0,1,11.6,94c-4.5,2.09-9.17,3.24-9,2.29s3.67-6.45,3.75-13.62S5.68,57.13,19.93,49.13C13,48.88,8.43,39,8.68,37.71s7.09-.42,12.5-2.58S39.1,23.21,53.93,26.38C61,16.88,69,8.21,69.93,8.71S72,19.29,71,24.46c5-3.17,13-5.92,24.83-5.33s30-.92,30.92-.59c.55.21-.56,4.38-4.08,8a17.42,17.42,0,0,1-9.92,5.09"/><path class="cls-8" d="M122.68,26.54h0C132.28,28.29,144,34.46,150.6,36s17.17.5,17.67,1.92-5.92,9.58-9.42,11.08c6,8.08,14.42,20.25,15.67,26.08s3,15.67,3,15.67"/><path class="cls-18" d="M61.1,1C53.35,3.38,43.6,16,41.85,26.54S43.2,44,44.4,45.38s5.2,6,15.57,7.25l4.78-2.13C60.6,44.63,55.35,22,61.1,1Z"/><path class="cls-8" d="M64.75,50.5C60.6,44.63,55.35,22,61.1,1,53.35,3.38,43.6,16,41.85,26.54S43.2,44,44.4,45.38s5.2,6,15.57,7.25"/><path class="cls-7" d="M81,190.38c-1.56-.07-2.93-1.94-1.56-3.38s6.79-9.83,17.36-10.82c3.08-6.24,18.45-17.49,22.08-17.62s17.81,5.38,19.37,7.32,1.32,11.18-1.93,15.56c-2.38.69-10.88.75-10.88.75s-18.75,4.37-22.56,4.81C95.47,190.13,90.29,191.44,81,190.38Z"/><path class="cls-4" d="M125.64,183.16l-3.54.72c-2.12.42-4.95,1-7.79,1.55s-5.65,1.12-7.83,1.43l-3.58.56a.42.42,0,0,1-.49-.35.41.41,0,0,1,.33-.48h.06l3.5-.74c2.1-.4,4.91-1.15,7.7-1.81s5.6-1.4,7.69-1.92l3.49-.9a1,1,0,0,1,.51,1.94Z"/><path class="cls-11" d="M81,190.38c-1.56-.07-2.93-1.94-1.56-3.38s6.79-9.83,17.36-10.82c3.08-6.24,18.45-17.49,22.08-17.62s17.81,5.38,19.37,7.32,1.32,11.18-1.93,15.56c-2.38.69-10.88.75-10.88.75"/><path class="cls-21" d="M97.69,206.34a2.74,2.74,0,0,1-2.16,3.23h0a2.75,2.75,0,0,1-3.23-2.17l-4.06-20.52a2.76,2.76,0,0,1,2.17-3.23h0a2.75,2.75,0,0,1,3.23,2.17Z"/><path class="cls-21" d="M66,204.58a2.75,2.75,0,0,1-3.74,1.09h0a2.76,2.76,0,0,1-1.08-3.74l10.09-18.32A2.76,2.76,0,0,1,75,182.53h0a2.74,2.74,0,0,1,1.08,3.73Z"/></g></g></svg>