<svg width="1532" height="480" viewBox="0 0 1532 480" fill="none" xmlns="http://www.w3.org/2000/svg">
<g clip-path="url(#clip0_140_373)">
<path fill-rule="evenodd" clip-rule="evenodd" d="M175.519 54.1217L162.247 78.6304C159.955 82.8677 160.923 86.1279 165.161 88.4197L189.661 101.691C193.898 103.983 197.158 103.015 199.459 98.7775L212.73 74.2688C215.022 70.0315 214.054 66.7714 209.817 64.4706L185.308 51.208C181.071 48.9161 177.81 49.8844 175.519 54.1217Z" fill="#EA4393"/>
<path fill-rule="evenodd" clip-rule="evenodd" d="M155.54 138.263L153.995 185.531L116.801 165.384L155.54 138.263Z" fill="#C469A9"/>
<path fill-rule="evenodd" clip-rule="evenodd" d="M148.069 104.809C141.353 117.21 144.196 126.769 156.597 133.484C168.998 140.2 178.556 137.357 185.272 124.956C191.988 112.556 189.145 102.997 176.744 96.2815C164.343 89.5658 154.785 92.4085 148.069 104.809Z" fill="#7DCED3"/>
<path fill-rule="evenodd" clip-rule="evenodd" d="M218.211 69.0278L177.668 143.887C198.259 155.035 224.225 147.315 235.373 126.733C246.522 106.142 238.802 80.1851 218.211 69.0278Z" fill="#FFD74F"/>
<path fill-rule="evenodd" clip-rule="evenodd" d="M469.198 54.1217L455.927 78.6304C453.635 82.8677 454.603 86.1279 458.84 88.4197L483.34 101.691C487.578 103.983 490.838 103.015 493.138 98.7775L506.41 74.2688C508.702 70.0315 507.734 66.7714 503.496 64.4706L478.988 51.208C474.75 48.9161 471.49 49.8844 469.198 54.1217Z" fill="#EA4393"/>
<path fill-rule="evenodd" clip-rule="evenodd" d="M449.22 138.263L447.674 185.531L410.48 165.384L449.22 138.263Z" fill="#C469A9"/>
<path fill-rule="evenodd" clip-rule="evenodd" d="M441.749 104.809C435.033 117.21 437.876 126.769 450.277 133.484C462.678 140.2 472.236 137.357 478.952 124.956C485.667 112.556 482.825 102.997 470.424 96.2815C458.023 89.5658 448.465 92.4085 441.749 104.809Z" fill="#7DCED3"/>
<path fill-rule="evenodd" clip-rule="evenodd" d="M511.891 69.0278L471.348 143.887C491.939 155.035 517.905 147.315 529.053 126.733C540.201 106.142 532.482 80.1851 511.891 69.0278Z" fill="#FFD74F"/>
<path fill-rule="evenodd" clip-rule="evenodd" d="M762.878 54.1217L749.606 78.6304C747.315 82.8677 748.283 86.1279 752.52 88.4197L777.02 101.691C781.257 103.983 784.517 103.015 786.818 98.7775L800.09 74.2688C802.382 70.0315 801.413 66.7714 797.176 64.4706L772.667 51.208C768.43 48.9161 765.17 49.8844 762.878 54.1217Z" fill="#EA4393"/>
<path fill-rule="evenodd" clip-rule="evenodd" d="M742.9 138.263L741.354 185.531L704.16 165.384L742.9 138.263Z" fill="#C469A9"/>
<path fill-rule="evenodd" clip-rule="evenodd" d="M735.428 104.809C728.713 117.21 731.555 126.769 743.956 133.484C756.357 140.2 765.916 137.357 772.631 124.956C779.347 112.556 776.504 102.997 764.103 96.2815C751.703 89.5658 742.144 92.4085 735.428 104.809Z" fill="#7DCED3"/>
<path fill-rule="evenodd" clip-rule="evenodd" d="M805.57 69.0278L765.027 143.887C785.619 155.035 811.584 147.315 822.733 126.733C833.881 106.142 826.162 80.1851 805.57 69.0278Z" fill="#FFD74F"/>
<path fill-rule="evenodd" clip-rule="evenodd" d="M1056.56 54.1217L1043.29 78.6304C1040.99 82.8677 1041.96 86.1279 1046.2 88.4197L1070.7 101.691C1074.94 103.983 1078.2 103.015 1080.5 98.7775L1093.77 74.2688C1096.06 70.0315 1095.09 66.7714 1090.86 64.4706L1066.35 51.208C1062.11 48.9161 1058.85 49.8844 1056.56 54.1217Z" fill="#EA4393"/>
<path fill-rule="evenodd" clip-rule="evenodd" d="M1036.58 138.263L1035.03 185.531L997.84 165.384L1036.58 138.263Z" fill="#C469A9"/>
<path fill-rule="evenodd" clip-rule="evenodd" d="M1029.11 104.809C1022.39 117.21 1025.24 126.769 1037.64 133.484C1050.04 140.2 1059.6 137.357 1066.31 124.956C1073.03 112.556 1070.18 102.997 1057.78 96.2815C1045.38 89.5658 1035.82 92.4085 1029.11 104.809Z" fill="#7DCED3"/>
<path fill-rule="evenodd" clip-rule="evenodd" d="M1099.25 69.0278L1058.71 143.887C1079.3 155.035 1105.26 147.315 1116.41 126.733C1127.56 106.142 1119.84 80.1851 1099.25 69.0278Z" fill="#FFD74F"/>
<path fill-rule="evenodd" clip-rule="evenodd" d="M1350.24 54.1217L1336.97 78.6304C1334.67 82.8677 1335.64 86.1279 1339.88 88.4197L1364.38 101.691C1368.62 103.983 1371.88 103.015 1374.18 98.7775L1387.45 74.2688C1389.74 70.0315 1388.77 66.7714 1384.54 64.4706L1360.03 51.208C1355.79 48.9161 1352.53 49.8844 1350.24 54.1217Z" fill="#EA4393"/>
<path fill-rule="evenodd" clip-rule="evenodd" d="M1330.26 138.263L1328.71 185.531L1291.52 165.384L1330.26 138.263Z" fill="#C469A9"/>
<path fill-rule="evenodd" clip-rule="evenodd" d="M1322.79 104.809C1316.07 117.21 1318.91 126.769 1331.32 133.484C1343.72 140.2 1353.28 137.357 1359.99 124.956C1366.71 112.556 1363.86 102.997 1351.46 96.2815C1339.06 89.5658 1329.5 92.4085 1322.79 104.809Z" fill="#7DCED3"/>
<path fill-rule="evenodd" clip-rule="evenodd" d="M1392.93 69.0278L1352.39 143.887C1372.98 155.035 1398.94 147.315 1410.09 126.733C1421.24 106.142 1413.52 80.1851 1392.93 69.0278Z" fill="#FFD74F"/>
<path fill-rule="evenodd" clip-rule="evenodd" d="M14.5547 381.534L57.5547 403.134L23.0547 428.934L14.5547 381.534Z" fill="#C469A9"/>
<path fill-rule="evenodd" clip-rule="evenodd" d="M-19.5451 374.134C-10.9451 385.634 -0.94511 387.134 10.5549 378.534C22.0549 369.934 23.5549 359.934 14.9549 348.434C6.35491 336.934 -3.64512 335.434 -15.1451 344.034C-26.6451 352.534 -28.1451 362.634 -19.5451 374.134Z" fill="#7DCED3"/>
<path fill-rule="evenodd" clip-rule="evenodd" d="M-22.5449 294.034L29.2551 363.534C48.3551 349.334 52.3551 322.034 38.0551 302.934C23.7551 283.834 -3.44492 279.834 -22.5449 294.034Z" fill="#FFD74F"/>
<path fill-rule="evenodd" clip-rule="evenodd" d="M251.756 327.134L268.656 349.834C271.556 353.734 275.056 354.234 278.956 351.334L301.656 334.434C305.556 331.534 306.056 328.034 303.156 324.134L286.256 301.334C283.356 297.434 279.856 296.934 275.956 299.834L253.256 316.734C249.356 319.734 248.856 323.134 251.756 327.134Z" fill="#EA4393"/>
<path fill-rule="evenodd" clip-rule="evenodd" d="M320.955 381.534L363.955 403.134L329.455 428.934L320.955 381.534Z" fill="#C469A9"/>
<path fill-rule="evenodd" clip-rule="evenodd" d="M286.855 374.134C295.455 385.634 305.455 387.134 316.955 378.534C328.455 369.934 329.955 359.934 321.355 348.434C312.755 336.934 302.755 335.434 291.255 344.034C279.755 352.534 278.255 362.634 286.855 374.134Z" fill="#7DCED3"/>
<path fill-rule="evenodd" clip-rule="evenodd" d="M283.855 294.034L335.655 363.534C354.755 349.334 358.755 322.034 344.455 302.934C330.155 283.834 302.955 279.834 283.855 294.034Z" fill="#FFD74F"/>
<path fill-rule="evenodd" clip-rule="evenodd" d="M558.155 327.134L575.055 349.834C577.955 353.734 581.455 354.234 585.355 351.334L608.055 334.434C611.955 331.534 612.455 328.034 609.555 324.134L592.655 301.334C589.755 297.434 586.255 296.934 582.355 299.834L559.655 316.734C555.755 319.734 555.255 323.134 558.155 327.134Z" fill="#EA4393"/>
<path fill-rule="evenodd" clip-rule="evenodd" d="M627.355 381.534L670.355 403.134L635.855 428.934L627.355 381.534Z" fill="#C469A9"/>
<path fill-rule="evenodd" clip-rule="evenodd" d="M593.255 374.134C601.855 385.634 611.855 387.134 623.355 378.534C634.855 369.934 636.355 359.934 627.755 348.434C619.155 336.934 609.155 335.434 597.655 344.034C586.155 352.534 584.655 362.634 593.255 374.134Z" fill="#7DCED3"/>
<path fill-rule="evenodd" clip-rule="evenodd" d="M590.255 294.034L642.055 363.534C661.155 349.334 665.155 322.034 650.855 302.934C636.555 283.834 609.355 279.834 590.255 294.034Z" fill="#FFD74F"/>
<path fill-rule="evenodd" clip-rule="evenodd" d="M864.555 327.134L881.455 349.834C884.355 353.734 887.855 354.234 891.755 351.334L914.455 334.434C918.355 331.534 918.855 328.034 915.955 324.134L899.055 301.334C896.155 297.434 892.655 296.934 888.755 299.834L866.055 316.734C862.155 319.734 861.655 323.134 864.555 327.134Z" fill="#EA4393"/>
<path fill-rule="evenodd" clip-rule="evenodd" d="M933.756 381.534L976.756 403.134L942.256 428.934L933.756 381.534Z" fill="#C469A9"/>
<path fill-rule="evenodd" clip-rule="evenodd" d="M899.655 374.134C908.255 385.634 918.255 387.134 929.755 378.534C941.255 369.934 942.755 359.934 934.155 348.434C925.555 336.934 915.555 335.434 904.055 344.034C892.555 352.534 891.055 362.634 899.655 374.134Z" fill="#7DCED3"/>
<path fill-rule="evenodd" clip-rule="evenodd" d="M896.655 294.034L948.455 363.534C967.555 349.334 971.555 322.034 957.255 302.934C942.955 283.834 915.755 279.834 896.655 294.034Z" fill="#FFD74F"/>
<path fill-rule="evenodd" clip-rule="evenodd" d="M1170.95 327.134L1187.85 349.834C1190.75 353.734 1194.25 354.234 1198.15 351.334L1220.85 334.434C1224.75 331.534 1225.25 328.034 1222.35 324.134L1205.45 301.334C1202.55 297.434 1199.05 296.934 1195.15 299.834L1172.45 316.734C1168.55 319.734 1168.05 323.134 1170.95 327.134Z" fill="#EA4393"/>
<path fill-rule="evenodd" clip-rule="evenodd" d="M1240.15 381.534L1283.15 403.134L1248.65 428.934L1240.15 381.534Z" fill="#C469A9"/>
<path fill-rule="evenodd" clip-rule="evenodd" d="M1206.05 374.134C1214.65 385.634 1224.65 387.134 1236.15 378.534C1247.65 369.934 1249.15 359.934 1240.55 348.434C1231.95 336.934 1221.95 335.434 1210.45 344.034C1198.95 352.534 1197.45 362.634 1206.05 374.134Z" fill="#7DCED3"/>
<path fill-rule="evenodd" clip-rule="evenodd" d="M1203.05 294.034L1254.85 363.534C1273.95 349.334 1277.95 322.034 1263.65 302.934C1249.35 283.834 1222.15 279.834 1203.05 294.034Z" fill="#FFD74F"/>
<path fill-rule="evenodd" clip-rule="evenodd" d="M1477.36 327.134L1494.26 349.834C1497.16 353.734 1500.66 354.234 1504.56 351.334L1527.26 334.434C1531.16 331.534 1531.66 328.034 1528.76 324.134L1511.86 301.334C1508.96 297.434 1505.46 296.934 1501.56 299.834L1478.86 316.734C1474.96 319.734 1474.46 323.134 1477.36 327.134Z" fill="#EA4393"/>
<path fill-rule="evenodd" clip-rule="evenodd" d="M1512.45 374.134C1521.05 385.634 1531.05 387.134 1542.55 378.534C1554.05 369.934 1555.55 359.934 1546.95 348.434C1538.35 336.934 1528.35 335.434 1516.85 344.034C1505.35 352.534 1503.85 362.634 1512.45 374.134Z" fill="#7DCED3"/>
<path fill-rule="evenodd" clip-rule="evenodd" d="M1509.46 294.034L1561.26 363.534C1580.36 349.334 1584.36 322.034 1570.06 302.934C1555.76 283.834 1528.56 279.834 1509.46 294.034Z" fill="#FFD74F"/>
</g>
<defs>
<clipPath id="clip0_140_373">
<rect width="1532" height="479.531" fill="white"/>
</clipPath>
</defs>
</svg>
