<svg xmlns="http://www.w3.org/2000/svg" viewBox="0 0 168.49 82.36"><defs><style>.cls-1{fill:#1c1400;}.cls-2{fill:#4c5b6e;}.cls-3{fill:#916243;}.cls-4{fill:#fdebc2;}.cls-5{fill:#100706;}.cls-6{fill:#b5724d;}.cls-7{fill:#fff4c1;}.cls-8{fill:#fff;}.cls-9{fill:#bd7d52;}.cls-10{fill:#af6041;}.cls-11{fill:#fde9a2;}.cls-12{fill:#fcedc4;}.cls-13{fill:#fce6a5;}.cls-14{fill:#f8f6ce;}.cls-15{fill:#eb873f;}.cls-16{fill:#d57345;}.cls-17{fill:#fdb856;}.cls-18{fill:#fff2cd;}.cls-19{fill:#7f3320;}.cls-20{fill:#c57555;}.cls-21{fill:#381b18;}.cls-22{fill:#493d32;}.cls-23{fill:#5b2c2c;}.cls-24{fill:#79433d;}.cls-25{fill:#70858c;}.cls-26{fill:#526272;}.cls-27{fill:#fdfdfd;}.cls-28{fill:#74878e;}.cls-29{fill:#667984;}.cls-30{fill:#fcfcfc;}.cls-31{fill:#79372b;}.cls-32{fill:#8c412b;}.cls-33{fill:#b85e2d;}.cls-34{fill:#9d4c2b;}.cls-35{fill:#450003;}.cls-36{fill:#f9f2eb;}.cls-37{fill:#fdede6;}.cls-38{fill:#eba488;}.cls-39{fill:#f5bf99;}.cls-40{fill:#f6f3f6;}.cls-41{fill:#c6776f;}.cls-42{fill:#2e2733;}.cls-43{fill:#342c3e;}.cls-44{fill:#b8bc94;}.cls-45{fill:#fbfbfb;}.cls-46{fill:#19151e;}.cls-47{fill:#393145;}.cls-48{fill:#dfe3b3;}.cls-49{fill:#3b3242;}.cls-50{fill:#29171a;}.cls-51{fill:#f9bfac;}.cls-52{fill:#99b2b3;}.cls-53{fill:#5d8494;}.cls-54{fill:#efeaea;}.cls-55{fill:#c8d1c8;}.cls-56{fill:#d9d3b5;}.cls-57{fill:#c35327;}.cls-58{fill:#eb8040;}.cls-59{fill:#0a0100;}.cls-60{fill:#af3d27;}.cls-61{fill:#993224;}.cls-62{fill:#f1ede5;}.cls-63{fill:#ffd1bd;}.cls-64{fill:#504a6d;}.cls-65{fill:#eae6ef;}.cls-66{fill:#d4897b;}.cls-67{fill:#ea796d;}.cls-68{fill:#f6f5f0;}.cls-69{fill:#f1a57f;}.cls-70{fill:#c1766b;}.cls-71{fill:#cf917f;}.cls-72{fill:#ae5950;}.cls-73{fill:#dcaa94;}.cls-74{fill:#680604;}.cls-75{fill:#f8f9f2;}.cls-76{fill:#580a21;}.cls-77{fill:#ad6469;}.cls-78{fill:#f2eef0;}.cls-79{fill:#000100;}.cls-80{fill:#300108;}.cls-81{fill:#f2bc91;}.cls-82{fill:#d68576;}.cls-83{fill:#8ea8a9;}.cls-84{fill:#8ca7a8;}</style></defs><title>storyIllus</title><g id="Layer_2" data-name="Layer 2"><g id="Object"><path class="cls-1" d="M32,82.12a5.43,5.43,0,0,0-.65-1.35A3.46,3.46,0,0,0,30,79.49a11.78,11.78,0,0,0-2.88-.41c-1.49-.27-2.67-1.4-4.07-2s-3.43-1.69-5-1a6.33,6.33,0,0,0-3.43,3.55,3.51,3.51,0,0,0-3.7.63A3.14,3.14,0,0,0,9.7,82c0,.07,0,.14,0,.2Z"/><path class="cls-2" d="M32.15,82.11a6,6,0,0,0-.64-1.35,3.31,3.31,0,0,0-1.24-1.06,10.93,10.93,0,0,0-2.87-.41c-1.5-.28-2.68-1.4-4.08-2s-3.42-1.69-5-1a6.89,6.89,0,0,0-3.64,3.64,3.14,3.14,0,0,0-3.49.55A3.25,3.25,0,0,0,10,82.23Z"/><path class="cls-3" d="M136.89,62.12a13.76,13.76,0,0,1-2,7,12.06,12.06,0,0,1-5,5.09,10.73,10.73,0,0,1-4.06,1.21l.43-4.64.16-1.68s3.22-1.82,3.69-4a12.27,12.27,0,0,0,.06-6,8,8,0,0,1,1.23-5.25,3.92,3.92,0,0,0,1.93,2.54,5.9,5.9,0,0,1,3.52,5.15C136.86,61.74,136.87,61.93,136.89,62.12Z"/><path class="cls-4" d="M136.84,61.56a2.82,2.82,0,0,1-.64.92,4.26,4.26,0,0,1-1,.59c-.23.12-.56.6-.83.48s-.3-.4-.28-.57.15-1.22-.35-.8c-.28.24-.58.1-.87.27a1.06,1.06,0,0,0-.44.61c-.19.49-.18,1-.34,1.52-1.86,5.42-5.6,6.39-5.6,6.39a2.26,2.26,0,0,1-.26-.16l.16-1.68s3.22-1.82,3.69-4a12.27,12.27,0,0,0,.06-6,8,8,0,0,1,1.23-5.25,3.92,3.92,0,0,0,1.93,2.54A5.9,5.9,0,0,1,136.84,61.56Z"/><path class="cls-5" d="M126.28,69.05l.06,0s3.17-1.82,3.63-3.92a12.22,12.22,0,0,0,.05-6,8.07,8.07,0,0,1,1.25-5.34l.18-.27.07.31a3.83,3.83,0,0,0,1.86,2.44,6.08,6.08,0,0,1,3.6,5.27c0,.18,0,.37,0,.56h0a13.6,13.6,0,0,1-2,7.11A12.13,12.13,0,0,1,130,74.36a11.22,11.22,0,0,1-4.11,1.23h-.17Zm10.42-7.47a5.82,5.82,0,0,0-3.43-5,3.82,3.82,0,0,1-1.93-2.32,7.76,7.76,0,0,0-1,4.88,12.61,12.61,0,0,1-.06,6c-.45,2.08-3.23,3.8-3.7,4.08L126,75.29a10.82,10.82,0,0,0,3.84-1.17,12,12,0,0,0,5-5,13.49,13.49,0,0,0,2-7A4.71,4.71,0,0,0,136.7,61.58Z"/><path class="cls-6" d="M105.56,66.33s-.07,6.6-.14,7.5-1.74,2.25-2.62,2.49a3.21,3.21,0,0,1-3.2-1,1.77,1.77,0,0,1-.16-.22h0a1.77,1.77,0,0,1-.27-.63c-.16-.64.4-1.3.86-1.67s1.49-.28,2.21-.19c.3-1.13,0-8.46,0-9.51V63l1.17,1.17Z"/><path class="cls-7" d="M103.37,64.15l-.24,8.13a1.1,1.1,0,0,1-1,1,2.64,2.64,0,0,0-2.49,2,2.12,2.12,0,0,1-.43-.86c-.16-.64.41-1.3.86-1.67s1.49-.28,2.21-.19c.32-1.22,0-9.64,0-9.64Z"/><path class="cls-8" d="M102.58,72.76c-.27.27-1,0-1.46,0a2,2,0,0,0-1.68,2.33,1.77,1.77,0,0,1-.27-.63c-.16-.64.4-1.3.86-1.67s1.49-.28,2.21-.19c.3-1.13,0-8.46,0-9.51l.52.72S102.85,72.48,102.58,72.76Z"/><path class="cls-5" d="M99.27,75a1.75,1.75,0,0,1,.68-2.31,2.49,2.49,0,0,1,2-.26l.19,0c.27-1.53-.06-9.4-.07-9.48v-.36l3.6,3.61,0,0v.06c0,.27-.07,6.62-.14,7.5-.09,1.1-1.86,2.39-2.71,2.62a2.5,2.5,0,0,1-.72.1A3.31,3.31,0,0,1,99.27,75Zm3.08-11.68c.07,1.64.31,8.24,0,9.33l0,.11h-.12l-.32,0a2.3,2.3,0,0,0-1.78.19,1.54,1.54,0,0,0-.61,2,3.09,3.09,0,0,0,3.26,1.32c.87-.24,2.44-1.5,2.5-2.38s.14-6.77.15-7.42Z"/><path class="cls-9" d="M100.21,57.68a2.74,2.74,0,0,0-.36,3l.07.14a1.07,1.07,0,0,1,.4-1l0,0a9,9,0,0,0,2.36,4L105.61,67l.43.47.63.68s0,0,0,.05a.34.34,0,0,1,.08.09c.33.35.62.71,1,1.15a28.84,28.84,0,0,0,2.12,2.82,6.2,6.2,0,0,0,.44.45A12.84,12.84,0,0,0,116,75.42a37.73,37.73,0,0,0,5.35,1.24c1.63.17,3.81.35,4.68-1.39a5.67,5.67,0,0,0,.49-1.32c.74-2.75-.16-6-1.59-8.48a10.75,10.75,0,0,0-.91-1.39l-.73-.94a45.8,45.8,0,0,0-4.69-5.25L118,57.3a34.5,34.5,0,0,1-2.78-2.47,14.69,14.69,0,0,1-2.06-2.92c-.13-.25-.25-.51-.36-.75a6.52,6.52,0,0,1-.36-1.08c0-.18-10.09-1.41-10.49-1.72a3.81,3.81,0,0,0-.56,1.34c0,.12,0,.22,0,.32a3.44,3.44,0,0,0,.15,1.09,2.47,2.47,0,0,1-.4.39c-.42.36-.9.83-.8,1.25a.19.19,0,0,0,0,.11c.24.45.9.43,1.22.87a2,2,0,0,0-1.24.77.77.77,0,0,0,.37,1h.21a2.31,2.31,0,0,0-1.4,1,.89.89,0,0,0,.42,1.18.18.18,0,0,0,.1,0,.2.2,0,0,0,.11,0Z"/><path class="cls-9" d="M111.64,64.69c-.94,1.36-1.5,4.87-1.81,7.55-.14,1.13-.23,2.12-.28,2.75A3.94,3.94,0,0,1,107,78.28a3,3,0,0,1-3.92-1.3h0a1.86,1.86,0,0,1-.1-.25c-.23-.66.29-1.4.73-1.84s1-.5,1.73-.49c0-.31,0-.8,0-1.38h0c0-.53,0-1.15,0-1.82,0-.42,0-.84,0-1.27s0-.84,0-1.27l0-1.66c0-1.62,0-3,0-3.58a2.93,2.93,0,0,0-.76-2.12l3.5,1.75Z"/><path class="cls-10" d="M126.5,74a.69.69,0,0,1-.39-.17c-.54-.46-.31-1.31-.41-2-.13-1-1-1.72-1-2.68a9.09,9.09,0,0,0,.06-1.47c-.21-1-1.4-1.28-2-2-.21-.23-.36-.52-.58-.75-.65-.66-1.81-.67-2.39-1.4a5.27,5.27,0,0,0-.43-.62c-.44-.49-1.28-.48-1.68-1a5.73,5.73,0,0,1-.39-.83c-.12-.2-.6-.33-.64-.51s.38-.66.49-.85A4.72,4.72,0,0,1,118.4,58a.77.77,0,0,1,.18-.1,47.76,47.76,0,0,1,4.69,5.26c.24.31.48.63.73.94a10.58,10.58,0,0,1,.9,1.38C126.33,67.94,127.23,71.2,126.5,74Z"/><path class="cls-11" d="M111.56,53.54c.3-.13.79-.26,1-.57a3.9,3.9,0,0,0,.18-1.81c.11.25.24.5.37.76a14.86,14.86,0,0,0,2.06,2.92,36.43,36.43,0,0,0,2.78,2.46,43.64,43.64,0,0,1,5.35,5.85c.24.31.48.63.73.94a10.58,10.58,0,0,1,.9,1.38c-1,.13-1.79-.69-2.36-1.36a3.41,3.41,0,0,0-2.67-1.57.91.91,0,0,1-.74-.39,9.36,9.36,0,0,0-.61-1.06,1.68,1.68,0,0,0-1.21-.66,3.61,3.61,0,0,0-1.42.56c-.06,0-.17,0-.21,0a.11.11,0,0,1,0-.11,1.52,1.52,0,0,1,.45-.53,4.26,4.26,0,0,1,.57-.48c.15-.1.33-.29.2-.43s-.16-.07-.25-.07l-.73,0c-.24,0-.58-.05-.59-.29s.12-.29.24-.41.19-.31.07-.42-.29-.06-.42,0a9.86,9.86,0,0,0-.76.69c-.09.09-.5.54-.65.35s.27-.58.4-.73a3.13,3.13,0,0,0,.57-.78,1.16,1.16,0,0,0-.71-1.5,1.44,1.44,0,0,1-.92-1.16c0-.22-.23-.47-.46-.42a.68.68,0,0,0-.28.17c-.17.18-.55.55-.82.4s-.09-.42,0-.59a1.14,1.14,0,0,1,.52-.5c.09,0,.21-.11.19-.21s-.21-.1-.32,0a11.12,11.12,0,0,0-1.45.84c-.09.06-.2.13-.3.08s-.06-.34.07-.47A4.05,4.05,0,0,1,111.56,53.54Z"/><path class="cls-12" d="M108.3,62.22a1.87,1.87,0,0,1,0,.81,10.08,10.08,0,0,1-.28,1.3c-.41,1.51-1.09,2.4-1.39,3.8,0,0,0,0,0,.05a5.86,5.86,0,0,0-.15,1.25c0,1.18-.06,2.35-.11,3.53a9.91,9.91,0,0,1-.16,1.86c-.09.24-1,.15-1.37.21A2.22,2.22,0,0,0,103.12,77a1.73,1.73,0,0,1-.1-.24,2,2,0,0,1,.73-1.85c.55-.56,1-.5,1.74-.49,0,0,0-2.69,0-3a.89.89,0,0,1,0-.23c0-.42,0-.85,0-1.28s0-.79,0-1.2v-.08l0-1.65-2.88-3.16a9.17,9.17,0,0,1-2.36-4s0,0,0,0a1.13,1.13,0,0,0-.45,1,.23.23,0,0,0,0,.12,2.71,2.71,0,0,1,.28-3.16H100a.15.15,0,0,1-.11,0,.86.86,0,0,1-.48-1.17,2.32,2.32,0,0,1,1.36-.94h-.11a.77.77,0,0,1-.37-1,2,2,0,0,1,1.23-.78c-.31-.43-1-.41-1.21-.86a.19.19,0,0,1,0-.11c-.1-.43.39-.89.8-1.25a2.47,2.47,0,0,0,.4-.39,3.44,3.44,0,0,1-.15-1.09,5,5,0,0,0,.41.84c.06.12.16.26.22.4a.7.7,0,0,1,.06.19.33.33,0,0,1,0,.14.3.3,0,0,1-.05.15,2.51,2.51,0,0,0-.24.46,1.27,1.27,0,0,0,.07.79,3.77,3.77,0,0,0,1.11,1.24,9.14,9.14,0,0,0,2.29,1.4,8.33,8.33,0,0,0,1.29.39c.64.15,1.41.29.69.95-.15.14-1.65,1.54-1.29,1.68s1.74-.76,1.79-.51-1.42,1.19-1,1.26,1.1-.21,1,.21-.79,1.1-.46,1.24,1.17,0,1.24.48S108.16,61.79,108.3,62.22Z"/><path class="cls-8" d="M106.12,67.36c0,.52,0,1.08,0,1.54,0,.95,0,1.89-.11,2.84-.06.75-.13,1.51-.23,2.26a.82.82,0,0,1-.24.56c0-2.53,0-5.06,0-7.58l-2.88-3.16a9.17,9.17,0,0,1-2.36-4s0,0,0,0a1.13,1.13,0,0,0-.45,1,.23.23,0,0,0,0,.12,2.73,2.73,0,0,1,.28-3.17H100a.15.15,0,0,1-.11,0,.86.86,0,0,1-.48-1.17,2.35,2.35,0,0,1,1.4-1h-.15a.77.77,0,0,1-.37-1,2,2,0,0,1,1.23-.78c-.31-.43-1-.41-1.21-.86a.19.19,0,0,1,0-.11c-.1-.43.39-.89.8-1.25a2.47,2.47,0,0,0,.4-.39,3.44,3.44,0,0,1-.15-1.09,5,5,0,0,0,.41.84c.12.23.34.47.15.72a1,1,0,0,1-.27.22c-.25.17-.51.35-.49.69,0,.63,1,.94,1,1.57a.27.27,0,0,1-.09.21.49.49,0,0,1-.24,0c-.29,0-.66,0-.74.32s.24.58.17.87-.4.38-.68.48-.58.35-.46.61,1,0,1.13.47c.06.17-.08.34-.2.49a2.81,2.81,0,0,0-.55,1.2c-.06.26.22.56.37.76a9.69,9.69,0,0,1,.77,1.74,12,12,0,0,0,1.17,1.9,4,4,0,0,0,.8.93c.29.23.63.38.93.59a5.05,5.05,0,0,1,1.41,1.92A2,2,0,0,1,106.12,67.36Z"/><path class="cls-5" d="M122.92,76.9a13.76,13.76,0,0,1-1.55-.1A18.8,18.8,0,0,1,117.8,76c-.57-.16-1.17-.33-1.8-.48a12.71,12.71,0,0,1-5.77-2.76,4.89,4.89,0,0,1-.46-.45l.21-.18c.13.14.29.29.44.43a12.6,12.6,0,0,0,5.64,2.7c.64.14,1.24.31,1.82.48a20.2,20.2,0,0,0,3.51.76c1.87.19,3.76.24,4.54-1.32a6,6,0,0,0,.49-1.29,11.61,11.61,0,0,0-1.58-8.39,10.76,10.76,0,0,0-.9-1.37l-.36-.47-.37-.47A46.87,46.87,0,0,0,118.54,58l-.66-.59c-.3-.27-.62-.53-.93-.79a16.41,16.41,0,0,1-1.86-1.69A14.42,14.42,0,0,1,113,52c-.12-.24-.25-.49-.37-.76a7.61,7.61,0,0,1-.36-1.11l.27-.07a7.36,7.36,0,0,0,.34,1.06c.12.27.25.52.36.75a15.33,15.33,0,0,0,2,2.89,18,18,0,0,0,1.84,1.66l.94.79.65.59a47.49,47.49,0,0,1,4.71,5.27l.37.48.36.47a12.49,12.49,0,0,1,.92,1.4A11.82,11.82,0,0,1,126.69,74a6,6,0,0,1-.51,1.36A3.33,3.33,0,0,1,122.92,76.9Z"/><path class="cls-5" d="M105.51,67.07l-2.89-3.15a8.38,8.38,0,0,1-2.15-3.44L100.3,60a1,1,0,0,0-.24.82l.15.76-.41-.66a2.91,2.91,0,0,1,.13-3.12.84.84,0,0,1-.4-.26,1.09,1.09,0,0,1-.15-1.12,2,2,0,0,1,1.08-.87.54.54,0,0,1-.15-.15,1,1,0,0,1-.1-1,1.86,1.86,0,0,1,1.1-.77,2.27,2.27,0,0,0-.41-.22,1.28,1.28,0,0,1-.68-.51.94.94,0,0,1-.06-.15c-.11-.48.37-1,.84-1.38l.17-.15.16-.14a4,4,0,0,1-.2-2.2l0-.33.28,0c0,.1,0,.21,0,.34a3.53,3.53,0,0,0,.2,2.09l.07.09-.07.09a2,2,0,0,1-.26.25l-.16.14c-.23.2-.85.74-.76,1.12a.24.24,0,0,0,0,.07,1,1,0,0,0,.55.4,1.56,1.56,0,0,1,.66.45l.11.16-.18.06a1.89,1.89,0,0,0-1.15.71.66.66,0,0,0,.08.67.33.33,0,0,0,.35.16l.07.27a2.22,2.22,0,0,0-1.32.88.8.8,0,0,0,.12.82.39.39,0,0,0,.42.17l.45-.11-.31.34a2.64,2.64,0,0,0-.49,2.55,1.26,1.26,0,0,1,.45-.65l.14-.11.07.16c.1.23.17.45.25.67a8.1,8.1,0,0,0,2.09,3.34l2.89,3.15Z"/><path class="cls-13" d="M121.73,65.05a6.37,6.37,0,0,0-4.2.18,5.5,5.5,0,0,0-2.85,3.91,7.51,7.51,0,0,0-.06,3.06,9.16,9.16,0,0,0,1.31,2.93,4.51,4.51,0,0,1-2.08-2,7.25,7.25,0,0,1,.46-7.31,5.27,5.27,0,0,1,5-2.07A3.48,3.48,0,0,1,121.73,65.05Z"/><path class="cls-5" d="M115.93,75.35a.13.13,0,0,0,.12-.08.14.14,0,0,0-.06-.19c-2.2-1.12-3-3.91-2.72-6a6.77,6.77,0,0,1,1.17-3.17A4.76,4.76,0,0,1,117.25,64c1.42-.35,3.36-.11,4.3,1.06a.14.14,0,1,0,.22-.18c-1.06-1.31-3.12-1.51-4.59-1.15a5,5,0,0,0-3,2A7.23,7.23,0,0,0,113,69c-.24,2.21.56,5.12,2.88,6.31Z"/><path class="cls-9" d="M115.19,74.39s-4.12,1.18-1.34,3.27c0,0,1,.48,1.29-.21l8.35-.65a2.62,2.62,0,0,0-.64-2.14C122,73.91,115.19,74.39,115.19,74.39Z"/><path class="cls-5" d="M114.41,77.89a1.13,1.13,0,0,0,.79-.31l8.3-.64a.14.14,0,0,0,.13-.15.15.15,0,0,0-.14-.13h0l-8.4.64,0,0a1.26,1.26,0,0,1-1.73-1.76c.91-1,2.5-1.12,3.94-1a.16.16,0,0,0,.15-.14.14.14,0,0,0-.14-.14c-1.5-.07-3.17,0-4.16,1.15a1.39,1.39,0,0,0,.19,2A1.73,1.73,0,0,0,114.41,77.89Z"/><path class="cls-5" d="M99.63,75.38h0a.13.13,0,0,0,.13-.14,1.13,1.13,0,0,1,.43-.86,2.79,2.79,0,0,1,.94-.48.13.13,0,0,0,.08-.17.13.13,0,0,0-.17-.09,3.26,3.26,0,0,0-1,.53,1.38,1.38,0,0,0-.52,1.08A.13.13,0,0,0,99.63,75.38Z"/><path class="cls-5" d="M100.94,76.21h0a.12.12,0,0,0,.11-.12c0-.44.47-.87.93-1.07a.12.12,0,0,0-.09-.22c-.41.19-1.11.67-1.08,1.3A.13.13,0,0,0,100.94,76.21Z"/><path class="cls-5" d="M103.59,77.64h0a.15.15,0,0,0,.13-.16,1.15,1.15,0,0,1,.35-1,3.2,3.2,0,0,1,.94-.6.14.14,0,1,0-.12-.26,3.22,3.22,0,0,0-1,.66,1.46,1.46,0,0,0-.43,1.19A.15.15,0,0,0,103.59,77.64Z"/><path class="cls-5" d="M105.05,78.37h0a.12.12,0,0,0,.1-.14c-.06-.46.41-1,.88-1.23a.12.12,0,0,0,0-.17.12.12,0,0,0-.16,0c-.42.24-1.09.82-1,1.47A.12.12,0,0,0,105.05,78.37Z"/><path class="cls-5" d="M105.88,78.63a3.33,3.33,0,0,0,1.21-.22,4.1,4.1,0,0,0,2.6-3.41c0-.54.13-1.56.27-2.74.45-3.85,1.07-6.44,1.79-7.49a.14.14,0,1,0-.22-.16c-1,1.38-1.53,4.9-1.84,7.62-.14,1.18-.23,2.2-.28,2.75A3.83,3.83,0,0,1,107,78.16a3.23,3.23,0,0,1-3.33-.67,2.29,2.29,0,0,1-.51-.81c-.24-.68.48-1.48.7-1.71a1.67,1.67,0,0,1,1.49-.44h.28v-.15c-.05-1.08,0-4.08.06-6.72V67c0-1.43.06-3,0-3.58a3.07,3.07,0,0,0-.81-2.22.14.14,0,0,0-.2,0,.14.14,0,0,0,0,.19,2.8,2.8,0,0,1,.72,2c0,.59,0,2.13,0,3.57v.69c0,2.53-.11,5.39-.07,6.58a1.9,1.9,0,0,0-1.69.53c-.32.33-1.05,1.18-.76,2a2.48,2.48,0,0,0,.57.91A3.47,3.47,0,0,0,105.88,78.63Z"/><path class="cls-5" d="M115.19,77.47a.17.17,0,0,0,.13-.09c.19-.49.85-.63,1.36-.6a.15.15,0,0,0,.15-.13.13.13,0,0,0-.13-.14,1.56,1.56,0,0,0-1.64.77.14.14,0,0,0,.08.18Z"/><path class="cls-5" d="M113.36,77.19a.14.14,0,0,0,.13-.1,2.34,2.34,0,0,1,2.07-1.46.14.14,0,0,0,.12-.15.14.14,0,0,0-.16-.12A2.58,2.58,0,0,0,113.23,77a.15.15,0,0,0,.09.18Z"/><path class="cls-14" d="M111.93,38.66l-5.29-1.53a.31.31,0,0,1,0-.09A5.41,5.41,0,0,1,107.78,33,4.32,4.32,0,0,1,111,31.7a.93.93,0,0,1,.68.29.91.91,0,0,1,.25.6,16.34,16.34,0,0,0,.32,2.72A5,5,0,0,1,111.93,38.66Z"/><path class="cls-8" d="M111.72,32h0c-5.1-.14-4.73,4.92-4.73,4.92l-.31.13A5.41,5.41,0,0,1,107.78,33,4.32,4.32,0,0,1,111,31.7.93.93,0,0,1,111.72,32Z"/><path class="cls-5" d="M106.51,37.15a5.48,5.48,0,0,1,1.17-4.27A4.39,4.39,0,0,1,111,31.56a1.08,1.08,0,0,1,1.11,1.06,16.9,16.9,0,0,0,.31,2.66,5,5,0,0,1-.37,3.45l0,.09-5.48-1.58Zm5.64-1.81a15.33,15.33,0,0,1-.31-2.71.83.83,0,0,0-.83-.8,4.21,4.21,0,0,0-3.13,1.23,5.31,5.31,0,0,0-1.11,4l5.09,1.47A5,5,0,0,0,112.15,35.34Z"/><path class="cls-15" d="M111.2,36.78a25.3,25.3,0,0,0-.38-3.12c0-.45.07-.74-.43-.62a2.49,2.49,0,0,0-.77.37,5,5,0,0,0-2,2.8c-.2.79-.15,2.11.78,2.43,1.52.52,2.72-.15,2.8-1.82Z"/><path class="cls-9" d="M113.51,39.31c2.24-.58,4,.28,6.14,1.35a8.4,8.4,0,0,1-1,3.06,5.51,5.51,0,0,1-2.58,2c-.48.24-1,.46-1.46.67"/><path class="cls-9" d="M101.71,48.78c.16-.44.48-.84.4-1.28s-.55-.92-.59-1.51a.46.46,0,0,0-.35-.42l-.22-.06a5.61,5.61,0,0,1-1.66-.78,4.71,4.71,0,0,1-1.45-1.53A4.23,4.23,0,0,1,97.76,39a1.49,1.49,0,0,1,1.6-.81c.77.22,1.34.87,2.09,1.14,1.48.55,3.21-1.42,4.47-2l.1,0a6.61,6.61,0,0,1,6.62,1,7.62,7.62,0,0,1,1.94,2.18,7,7,0,0,1,.72,5.38,16.74,16.74,0,0,1-2,3.32,6.07,6.07,0,0,0-.63,1.34c-.17.5,0,.75-.56.85C108.68,51.93,103.84,50.33,101.71,48.78Z"/><path class="cls-16" d="M104.26,44.84c-.38-.62,0-1.44,0-2.1a1.28,1.28,0,0,0,0-.27,1.91,1.91,0,0,0-.17-.62,3.39,3.39,0,0,0-.41-.65,3.49,3.49,0,0,0-1.42-1c-.3-.1-.35-.09-.37-.28v-.12a2.2,2.2,0,0,0-.11-.46c1.17.19,2.47-1,3.55-1.73,0,.64.06,1.38,0,1.6-.11,1.44.65,2.78,1,4.2l0,0a2.79,2.79,0,0,1,0,1.15C106.16,45.57,104.73,45.59,104.26,44.84Z"/><path class="cls-17" d="M112.73,40.85a1.7,1.7,0,0,1-.59.19,1.65,1.65,0,0,0-1,.94,5.53,5.53,0,0,1-1.8-2.25,1.67,1.67,0,0,0-.93-.88h-.05a2.32,2.32,0,0,0-1.18.21,1,1,0,0,1-1-.06,1.4,1.4,0,0,1-.33-1,2.48,2.48,0,0,1,.05-.72l.1-.05a6.61,6.61,0,0,1,6.62,1,5.61,5.61,0,0,1,.44,1.46A1.14,1.14,0,0,1,112.73,40.85Z"/><path class="cls-18" d="M114.53,40.43s0,0,0,0a.92.92,0,0,1-.27.16,1.65,1.65,0,0,1-2-.44c-.28-.36-.4-.83-.66-1.19a2,2,0,0,0-.66-.58,3.91,3.91,0,0,0-2-.48c-.69,0-1.69.16-1.89.95a2.2,2.2,0,0,0,.1.91l.18,1.15a18.09,18.09,0,0,0,.58,2.19.59.59,0,0,1,0,.52c-.15.25-.52.18-.79.08l-.79-.3-1.31-.5a2,2,0,0,1-.78-.45A.63.63,0,0,1,104,42a.22.22,0,0,1,0-.11c0-.12.07-.25,0-.37s-.42-.31-.52-.54c-.19-.39.4-.71.3-1.08-.07-.19-.62-.08-.84-.07-.39.06-.78.1-1.17.15a.38.38,0,0,0-.33.12c-.12.15,0,.36.07.52.38.62.76,1.23,1.13,1.85a1.67,1.67,0,0,1,.31.74.63.63,0,0,1-.35.67,3.62,3.62,0,0,1-2.12-.09c-.15-.07-.16.17-.18.26a1,1,0,0,1-1.1.69,4.55,4.55,0,0,1-1.45-1.51A4.23,4.23,0,0,1,97.72,39a1.47,1.47,0,0,1,1.59-.81l.11,0c.72.25,1.27.85,2,1.1a1.57,1.57,0,0,0,.31.08c1.17.18,2.48-1,3.55-1.74a4,4,0,0,1,.71-.4C109.16,35.84,112.83,37.58,114.53,40.43Z"/><path class="cls-8" d="M114.53,40.43s0,0,0,0a.92.92,0,0,1-.27.16c-.09-.08-.17-.18-.27-.29-1.61-1.89-4-3.69-6.65-3a9.6,9.6,0,0,0-2.6,1.2,4.67,4.67,0,0,1-2.8,1.21,3.55,3.55,0,0,1-2.48-1.29v-.26c.72.25,1.27.85,2,1.1a1.57,1.57,0,0,0,.31.08c1.17.18,2.48-1,3.55-1.74a4,4,0,0,1,.71-.4C109.16,35.84,112.83,37.58,114.53,40.43Z"/><path class="cls-5" d="M110.48,51.61a17.33,17.33,0,0,1-8.85-2.72l-.09-.06,0-.1c0-.13.11-.26.17-.38a1.38,1.38,0,0,0,.22-.82,2.07,2.07,0,0,0-.25-.61,2.26,2.26,0,0,1-.34-.92.31.31,0,0,0-.24-.29l-.23-.07a5.65,5.65,0,0,1-1.7-.8,5,5,0,0,1-1.49-1.57,4.4,4.4,0,0,1-.08-4.37A1.62,1.62,0,0,1,99.4,38a4,4,0,0,1,1.15.61,4.48,4.48,0,0,0,1,.53c1,.36,2.08-.45,3.06-1.17a10,10,0,0,1,1.3-.84l.11,0a6.73,6.73,0,0,1,2.84-.48,7.11,7.11,0,0,1,2.76.8,7.89,7.89,0,0,1,2.26,1.8l-.2.19a7.84,7.84,0,0,0-2.18-1.75,7,7,0,0,0-2.66-.76,6.31,6.31,0,0,0-2.72.46l-.07,0a9.27,9.27,0,0,0-1.27.82c-1,.76-2.24,1.62-3.33,1.21a4.66,4.66,0,0,1-1-.56,4.2,4.2,0,0,0-1.08-.58,1.36,1.36,0,0,0-1.44.75A4.07,4.07,0,0,0,98,43.13a4.52,4.52,0,0,0,1.41,1.48,5.27,5.27,0,0,0,1.62.77l.22.06a.59.59,0,0,1,.45.54,1.94,1.94,0,0,0,.3.81,2.18,2.18,0,0,1,.28.69,1.58,1.58,0,0,1-.24,1l-.12.26c2,1.41,6.69,3.08,10.17,2.48.31-.06.32-.13.36-.38a3.34,3.34,0,0,1,.09-.39,6.45,6.45,0,0,1,.64-1.36c.24-.38.49-.71.73-1a7.07,7.07,0,0,0,1.17-2l.27.09a7.36,7.36,0,0,1-1.22,2.08,11.9,11.9,0,0,0-.71,1,5.51,5.51,0,0,0-.62,1.3,3.21,3.21,0,0,0-.08.34c0,.28-.08.52-.59.61A9.29,9.29,0,0,1,110.48,51.61Z"/><path class="cls-19" d="M117.68,42.87a4,4,0,0,1-1.6,1.59c-1.09.58-3,.69-3.48,2,0,0-.06,0-.07,0a2.35,2.35,0,0,0-1.69-1.65s0-.1,0-.23c0-.43,0-1.28,0-1.39a5.21,5.21,0,0,1,0-.55,3.39,3.39,0,0,1,.22-1,2.45,2.45,0,0,1,2.4-1.4h.43a13.17,13.17,0,0,1,2.07.19,9,9,0,0,1,1,.23,3.46,3.46,0,0,1,.54.19C118.43,41.21,118,42.26,117.68,42.87Z"/><path class="cls-20" d="M113.47,40.21s-.23.23-.27.27l-.36.24c-.25.14-.51.25-.75.4-.61.37-.83,1-1.24,1.53a3.39,3.39,0,0,1,.22-1A2.45,2.45,0,0,1,113.47,40.21Z"/><path class="cls-21" d="M108,52.64a16.89,16.89,0,0,1-3.83-.94,8.7,8.7,0,0,1-2.84-1.62,1.75,1.75,0,0,1-.47-1.67,1.21,1.21,0,0,1,1.08-.82,1.67,1.67,0,0,1,.76.36,13.5,13.5,0,0,0,1.56.8,16.83,16.83,0,0,0,5.71,1.3,22.12,22.12,0,0,0,2.82,0c.44,0,.61.55.67.88a2,2,0,0,1,0,.6c0,.1,0,.63-.1.68C112,53,109.85,52.89,108,52.64Z"/><path class="cls-22" d="M99,42.89A3,3,0,0,0,100.8,44a3,3,0,0,0,2-.19,4.25,4.25,0,0,1-1,.07,5.37,5.37,0,0,1-1-.15,4.47,4.47,0,0,1-.94-.3A3.47,3.47,0,0,1,99,42.89Z"/><path class="cls-23" d="M103.39,49.37a18.56,18.56,0,0,0,8.31,1.79.15.15,0,0,0,.14-.15.16.16,0,0,0-.15-.13,18.66,18.66,0,0,1-9.57-2.49.14.14,0,0,0-.19,0,.14.14,0,0,0,0,.19A14.45,14.45,0,0,0,103.39,49.37Z"/><path class="cls-23" d="M104,50.65h0a.14.14,0,0,1-.07-.18.14.14,0,0,1,.18-.08,18.47,18.47,0,0,0,7.12,1.34.14.14,0,0,1,.15.12.14.14,0,0,1-.13.15C108.07,52.29,104.06,50.66,104,50.65Z"/><path class="cls-24" d="M99.44,38.17a1.35,1.35,0,0,1-.21.52.6.6,0,0,1-.23.19,3.33,3.33,0,0,1-1.33.21s-.75-1.12-.49-1.77a.56.56,0,0,1,.18-.26C98,36.51,99.44,38.17,99.44,38.17Z"/><path class="cls-8" d="M99.44,38.17a1.35,1.35,0,0,1-.21.52c-.86-1.27-1.61-1.43-2-1.37a.56.56,0,0,1,.18-.26C98,36.51,99.44,38.17,99.44,38.17Z"/><path class="cls-5" d="M97.56,39.17c0-.06-1.06-1.6-.29-2.22s2.12,1,2.27,1.14l0,0v.06s-.11.64-.52.81a3.63,3.63,0,0,1-1.38.22H97.6Zm-.11-2c-.46.36,0,1.36.3,1.79a3.22,3.22,0,0,0,1.19-.21c.2-.08.31-.37.35-.53C98.91,37.78,97.9,36.8,97.45,37.17Z"/><path class="cls-5" d="M119.5,40.74A8.07,8.07,0,0,1,118,44.35a8,8,0,0,1-3.45,1.83.14.14,0,0,0,0,.26.17.17,0,0,0,.1,0,8.17,8.17,0,0,0,3.58-1.91,8.65,8.65,0,0,0,1.56-3.86v-.09l-.09-.05c-2.11-1.06-3.93-2-6.24-1.36l0,0a1.08,1.08,0,0,1,.19.22C115.77,38.9,117.5,39.75,119.5,40.74Z"/><path class="cls-5" d="M112.59,46.51a3.33,3.33,0,0,1,1.79-1.36,12.26,12.26,0,0,0,2.2-.87,3.6,3.6,0,0,0,1.6-1.86,1.36,1.36,0,0,0-1.11-2.07,12.34,12.34,0,0,0-2.35-.35,5.58,5.58,0,0,0-2.39.28,2.28,2.28,0,0,0-1,.7,2.33,2.33,0,0,0-.49,1.1,8.41,8.41,0,0,0,0,2.35,9.33,9.33,0,0,1,.17-2.31,2,2,0,0,1,1.46-1.52,6.25,6.25,0,0,1,2.25-.13,11.54,11.54,0,0,1,2.25.4,1.21,1.21,0,0,1,.8.46,1.16,1.16,0,0,1,0,.91,3.24,3.24,0,0,1-1.35,1.66,14.26,14.26,0,0,1-2.08,1A3.21,3.21,0,0,0,112.59,46.51Z"/><path class="cls-8" d="M107.54,41.74a1.84,1.84,0,0,1-2.37,1,1.41,1.41,0,0,1-.7-1.17,2.37,2.37,0,0,1,1.27-2.31,1.41,1.41,0,0,1,1.38,0A1.84,1.84,0,0,1,107.54,41.74Z"/><path class="cls-21" d="M106.48,41.15a1.3,1.3,0,0,1-1.69.7.84.84,0,0,1-.32-.3,2.37,2.37,0,0,1,1.27-2.31.85.85,0,0,1,.44.11A1.31,1.31,0,0,1,106.48,41.15Z"/><path class="cls-5" d="M105.11,42.82a1.56,1.56,0,0,1-.76-1.26,2.44,2.44,0,0,1,.31-1.42,2.37,2.37,0,0,1,1-1,1.58,1.58,0,0,1,1.4-.08l.09,0a2,2,0,0,1,.46,2.69h0a2,2,0,0,1-2.44,1.07Zm.68-3.48a2.28,2.28,0,0,0-1.21,2.2,1.35,1.35,0,0,0,.64,1.09l.08,0a2,2,0,0,0,1.77-3.36l-.08,0A1.35,1.35,0,0,0,105.79,39.34Z"/><circle class="cls-8" cx="105.77" cy="40.14" r="0.32"/><path class="cls-5" d="M100.56,42.48v.12a.07.07,0,0,1,0,.06.09.09,0,0,1-.05,0,.08.08,0,0,1-.09-.08v-.12a.14.14,0,0,1,0-.06l.06,0a.09.09,0,0,1,.09.08Z"/><path class="cls-5" d="M101.38,42.34l.05,0a.08.08,0,0,1-.07.15l0,0a.08.08,0,0,1,.07-.15Z"/><path class="cls-5" d="M100.66,41.28c-.1,0,0-.19.07-.15a.08.08,0,1,1-.07.15Z"/><path class="cls-5" d="M98.65,41.81c-.1,0,0-.19.07-.15s0,.2-.07.15Z"/><path class="cls-5" d="M99.59,41.87l0,0a.07.07,0,0,1,0-.11.08.08,0,0,1,.11,0l0,0a.08.08,0,1,1-.07.15Z"/><path class="cls-5" d="M99.54,40.72a.08.08,0,1,1,.07-.15c.09,0,0,.19-.07.15Z"/><path class="cls-5" d="M100.81,39.81c-.09-.05,0-.2.07-.15s0,.19-.07.15Z"/><path class="cls-5" d="M100.87,40.51c-.1,0,0-.19.07-.15a.08.08,0,1,1-.07.15Z"/><path class="cls-5" d="M99.38,39.53a.08.08,0,1,1,.07-.15c.1,0,0,.19-.07.15Z"/><path class="cls-5" d="M99.94,38.92l0,0a.08.08,0,0,1,0,.11.08.08,0,0,1-.11,0l0,0a.08.08,0,0,1,0-.11.08.08,0,0,1,.11,0Z"/><path class="cls-5" d="M99.85,40.42a.17.17,0,0,1,.14-.3.17.17,0,0,1-.14.3Z"/><path class="cls-5" d="M102.11,42.3a.17.17,0,0,1,.14-.3.17.17,0,0,1-.14.3Z"/><path class="cls-5" d="M98.77,40.22a.17.17,0,0,1,.14-.3.17.17,0,0,1-.14.3Z"/><path class="cls-5" d="M100.15,41.57a.17.17,0,0,1,.14-.31c.19.09,0,.4-.14.31Z"/><path class="cls-5" d="M101.26,41.13l0-.05a.08.08,0,0,1,.15.07l0,.05a.08.08,0,1,1-.15-.07Z"/><path class="cls-5" d="M110.28,53a17.24,17.24,0,0,1-2.26-.17,17.72,17.72,0,0,1-3.86-1,8.74,8.74,0,0,1-2.89-1.65,1.86,1.86,0,0,1-.49-1.82,1.37,1.37,0,0,1,1.22-.91,1.45,1.45,0,0,1,.67.29l.14.09a11.82,11.82,0,0,0,1.55.79A16.69,16.69,0,0,0,110,49.91a20.24,20.24,0,0,0,2.8,0h.05c.37,0,.64.35.77,1a2.37,2.37,0,0,1,0,.64v.07c0,.5-.06.66-.17.72A6.73,6.73,0,0,1,110.28,53Zm-8.35-5.23a1.1,1.1,0,0,0-.89.74,1.59,1.59,0,0,0,.42,1.52,8.71,8.71,0,0,0,2.8,1.59,16.65,16.65,0,0,0,3.8.93h0a9.15,9.15,0,0,0,5.29-.44,1.78,1.78,0,0,0,.05-.5v-.08a2.21,2.21,0,0,0,0-.56c-.06-.3-.2-.78-.5-.78h0a19.31,19.31,0,0,1-2.84,0,16.74,16.74,0,0,1-5.75-1.3,13.71,13.71,0,0,1-1.58-.81l-.16-.1a1.16,1.16,0,0,0-.54-.25Z"/><path class="cls-25" d="M72.5,63c-2-.17-44.79-3.92-48.1-5.49A5.32,5.32,0,0,1,22,55.75l0,0a4.34,4.34,0,0,1-1.48-3.44,4.42,4.42,0,0,1-2.86.73,4.36,4.36,0,0,1-3.93-4A5.61,5.61,0,0,1,3.47,47.4a5.26,5.26,0,0,1,3-9.87A5.25,5.25,0,0,1,8.2,38,6.08,6.08,0,0,1,14,28.73a5.93,5.93,0,0,1,2.19.65l.39.22c0-.12.09-.24.13-.35a14.13,14.13,0,0,1,9.4-8.89,14,14,0,0,1,5.3-.48A14.11,14.11,0,0,1,44,35.31a16,16,0,0,1-.34,1.9,4.58,4.58,0,0,1,1,0,4.32,4.32,0,0,1,2.43,1.06,4.46,4.46,0,0,1,1.39,2.29,5.73,5.73,0,0,1,.92,0,6.05,6.05,0,0,1,5.05,8.27,3.47,3.47,0,0,1,1.64-.23,3.58,3.58,0,0,1,3.21,3.93v.06a3.55,3.55,0,0,1,4.36-.3.61.61,0,0,1,.12.05c3.43,1.52,4.4,8.8,4.4,8.8s0,0,0,0C69,62.58,71.92,62.92,72.5,63Z"/><path class="cls-26" d="M22,55.75l0,0a4.34,4.34,0,0,1-1.48-3.44,4.42,4.42,0,0,1-2.86.73,4.36,4.36,0,0,1-3.93-4A5.61,5.61,0,0,1,3.47,47.4a5.26,5.26,0,0,1,3-9.87A5.25,5.25,0,0,1,8.2,38,6.08,6.08,0,0,1,14,28.73c.33,0,.68.1.68.1a6.15,6.15,0,0,1,1.9.77c-3.16,2.18-4.31,6-3,8.92s4.66,3.69,5,3.77A5,5,0,0,0,24.44,47C26.1,49.89,24.66,53.68,22,55.75Z"/><path class="cls-27" d="M42.29,40a19.46,19.46,0,0,1-3.87,4.6c2.77-4.25,2.78-9.07.37-11.75a7.16,7.16,0,0,0-4.06-2.15,5.66,5.66,0,0,1,5.78-.81A16.35,16.35,0,0,0,23.16,23.3l.93-.86c-.25-.16-.49-.32-.75-.47a11,11,0,0,1,2.74-1.61,13.76,13.76,0,0,1,5.3-.48A14.09,14.09,0,0,1,44,35.31a14.49,14.49,0,0,1-.33,1.9A20.33,20.33,0,0,1,42.29,40Z"/><path class="cls-27" d="M72.5,63l-5.26-.47a.16.16,0,0,1,0-.07.05.05,0,0,1,0-.05s-1-7.28-4.41-8.8l-.12,0A3.46,3.46,0,0,0,61,53a3.54,3.54,0,0,0-2.73.9V53.8a3.61,3.61,0,0,0-3.22-3.94,3.47,3.47,0,0,0-1.64.24,5.81,5.81,0,0,0,.4-1.63,6.08,6.08,0,0,0-5.45-6.65,5.66,5.66,0,0,0-.92,0,4.47,4.47,0,0,0-1.38-2.29,4.31,4.31,0,0,0-2.44-1.06,4.58,4.58,0,0,0-1,0,16.75,16.75,0,0,0,.34-1.9A14.1,14.1,0,0,0,18.52,25.71a14,14,0,0,1,7.56-5.35,13.76,13.76,0,0,1,5.3-.48A14.09,14.09,0,0,1,44,35.31a14.49,14.49,0,0,1-.33,1.9,4,4,0,0,1,1,0,4.3,4.3,0,0,1,2.44,1,4.51,4.51,0,0,1,1.38,2.29,5.68,5.68,0,0,1,.92,0,6.05,6.05,0,0,1,5.05,8.27,3.47,3.47,0,0,1,1.64-.23,3.58,3.58,0,0,1,3.21,3.93v.06a3.54,3.54,0,0,1,4.35-.3l.12.05c3.43,1.51,4.41,8.8,4.41,8.8a.05.05,0,0,0,0,0C69,62.59,71.92,62.93,72.5,63Z"/><path class="cls-1" d="M72.25,63.17h0l-.32,0-.27,0-.37,0L70.79,63,70.12,63l-2.06-.18-.84-.08c-1.74-.15-5.22-.49-9-.86-6.71-.65-15-1.45-15.68-1.45h0a.21.21,0,0,1-.24-.16.21.21,0,0,1,.16-.25c.19-.06,4.32.34,15.82,1.45l9,.86.83.08,1.53.13A3.15,3.15,0,0,1,68,61.3l0-.06a.19.19,0,0,1,0-.07c0-.07-1-7.19-4.28-8.64l-.07,0-.05,0a3.38,3.38,0,0,0-4.14.26.2.2,0,0,1-.23,0,.21.21,0,0,1-.11-.21V52.5a3.4,3.4,0,0,0-3-3.69,3.2,3.2,0,0,0-1.55.22.2.2,0,0,1-.22-.05.22.22,0,0,1-.05-.23,5.8,5.8,0,0,0-4.87-8,4.44,4.44,0,0,0-.89,0,.21.21,0,0,1-.21-.16A4.28,4.28,0,0,0,47,38.41a4.14,4.14,0,0,0-2.32-1,3.72,3.72,0,0,0-.94,0,.22.22,0,0,1-.18-.07.25.25,0,0,1-.05-.19,14,14,0,0,0,.34-1.87A13.91,13.91,0,0,0,31.36,20.08a14,14,0,0,0-5.22.48c-.25.07-.49.14-.74.23l-.08,0c-.27.1-.52.19-.75.29s-.62.28-.91.43l-.12.06-.36.2-.13.07a10.26,10.26,0,0,0-1.31.87,6.39,6.39,0,0,0-.52.39c-.27.23-.54.46-.82.73a5.18,5.18,0,0,0-.4.41,12.84,12.84,0,0,0-1,1.11l0,.06a.6.6,0,0,0-.09.13l-.15.2s0,0,0,0a13.58,13.58,0,0,0-1.84,3.51,2.92,2.92,0,0,0-.13.34.18.18,0,0,1-.12.13.22.22,0,0,1-.18,0,1.71,1.71,0,0,0-.23-.13l-.12-.07a5.36,5.36,0,0,0-.66-.29l-.33-.12a5.16,5.16,0,0,0-.5-.13l-.13,0a4.62,4.62,0,0,0-.53-.07,5.88,5.88,0,0,0-5.58,9,.21.21,0,0,1,0,.25.2.2,0,0,1-.24,0,4.92,4.92,0,0,0-1.67-.48,5,5,0,0,0-2.87,9.47.21.21,0,0,1,.1.14,5.4,5.4,0,0,0,9.9,1.57.23.23,0,0,1,.23-.09A.2.2,0,0,1,14,49a4.93,4.93,0,0,0,1.83,3.09.21.21,0,0,1-.26.33,5.65,5.65,0,0,1-1.9-2.85,5.82,5.82,0,0,1-10.34-2,5.46,5.46,0,0,1,3.2-10.21,5.22,5.22,0,0,1,1.23.28,6.24,6.24,0,0,1-.63-3.44A6.32,6.32,0,0,1,14,28.52a5.3,5.3,0,0,1,.57.09l.12,0,.56.14.35.13c.27.1.5.21.71.31l.12.08h0l0-.09a13.75,13.75,0,0,1,1.92-3.65h0v0l.14-.19s.07-.1.11-.16l0-.05a13.73,13.73,0,0,1,1-1.15c.13-.14.28-.29.42-.42s.55-.51.82-.74l.52-.39.06-.05a12.55,12.55,0,0,1,1.32-.87l.14-.08.37-.19.11-.06c.31-.16.62-.31.95-.45l.75-.29.13-.05c.22-.08.48-.16.73-.23A14.31,14.31,0,0,1,44.23,35.33,12.94,12.94,0,0,1,44,37a3.65,3.65,0,0,1,.74,0,4.51,4.51,0,0,1,2.55,1.11,4.57,4.57,0,0,1,1.4,2.22,5.37,5.37,0,0,1,.79,0A6.25,6.25,0,0,1,54.8,48.5a3.9,3.9,0,0,1,1.32-.11,3.82,3.82,0,0,1,3.42,3.75,3.72,3.72,0,0,1,4.23,0,.27.27,0,0,1,.12,0c3.35,1.48,4.38,8.15,4.49,8.9l0,0c.63,1.14,2.92,1.55,3.87,1.67a.22.22,0,0,1,.18.23A.21.21,0,0,1,72.25,63.17ZM68.3,61Z"/><path class="cls-28" d="M61.89,82.15h99.32l.15,0a7.88,7.88,0,0,0,4-2.33c1.76-1.94,2.45-5.8,1.76-8.33-.39-1.44-1.17-2.92-2.67-3a5,5,0,0,0-3.53-3.88,5.44,5.44,0,0,0-2.44-.11,4.34,4.34,0,0,0-2.57,1.41,10.3,10.3,0,0,0-.19-10.49,11.56,11.56,0,0,0-9.18-5.28,13.14,13.14,0,0,0-9.9,4.05c-1.79,1.85-3.11,4.87-2,7.17a6.12,6.12,0,0,0-4.15.35,4.81,4.81,0,0,0-2.57,3.2,3.83,3.83,0,0,0,.92,3.83,12.31,12.31,0,0,0-4.64-.16A4,4,0,0,0,121,71.47a3.93,3.93,0,0,0-3.4,0,3.79,3.79,0,0,0-2.11,2.62,1.83,1.83,0,0,0-1-1.69,3.68,3.68,0,0,0-2-.34,5.55,5.55,0,0,0-3.16,1.16,5.91,5.91,0,0,0-1.55,3.84s0,.07,0,.12c-2.23-3.54-6.55-6.63-10.71-6.21-1.56.16-3.16.73-3.69,2.2a8.84,8.84,0,0,0-7.22-3.86,8.62,8.62,0,0,0-7,4,6.4,6.4,0,0,0-.41-2.07,6.56,6.56,0,0,0-11-2.34c-1-2.86-4.3-4.48-7.33-4.33a13.78,13.78,0,0,0-8.11,3.75,1.8,1.8,0,0,0-.4.49c-.84,1.41.41,3.6,1.61,5C56,76.63,58.81,80.06,61.89,82.15Z"/><path class="cls-26" d="M161.21,82.15l.15,0a4.25,4.25,0,0,0-4-2.73,9,9,0,0,0,1-8.07,7,7,0,0,0-5.83-4.12A4.32,4.32,0,0,0,151,62.62a6,6,0,0,0-4.9-1,5,5,0,0,0-3.19,2,3,3,0,0,0,.16,3.57,3.23,3.23,0,0,0-5,4.06,2.84,2.84,0,0,0-4.19,3.68c-1-.13-2.07,1.51-2.69,2.38A9,9,0,0,0,130,80.23a3.87,3.87,0,0,0-6.33,1.92Z"/><path class="cls-29" d="M167,82.15c.9-1.65.87-4.63,1-6.56.19-2.73.42-4.46-1.07-7a18.05,18.05,0,0,0-2.52-3.54,6.09,6.09,0,0,0-3.8-1.92,5.32,5.32,0,0,0-4.76,2.76,7.57,7.57,0,0,0-.57,5.61,6.29,6.29,0,0,0-5.81.36c-1.71,1.06-2.84,4-2.9,6-1.75-1.58-4.34-3.17-6.61-2.52s-4.14,3.53-4.79,5.8a3.74,3.74,0,0,0-3.88-.62,3.28,3.28,0,0,0-1.57,1.55Z"/><path class="cls-30" d="M132,82.15a1.62,1.62,0,0,1,.18-.1,3.67,3.67,0,0,1,3.09.1h1a7,7,0,0,1,11.21-2.76c.06-2,1.19-5,2.91-6a6.24,6.24,0,0,1,5.8-.35,7.59,7.59,0,0,1,.57-5.62,5.3,5.3,0,0,1,4.76-2.75,6,6,0,0,1,3.8,1.92,17.76,17.76,0,0,1,2.52,3.54l.15.24a9,9,0,0,0-.8-1.68,17.25,17.25,0,0,0-2.53-3.54,6,6,0,0,0-3.8-1.93,5.29,5.29,0,0,0-4.75,2.76,7.52,7.52,0,0,0-.58,5.61,6.23,6.23,0,0,0-5.81.36c-1.71,1.06-2.83,4-2.89,6-1.76-1.58-4.34-3.17-6.62-2.52s-4.13,3.53-4.78,5.81a3.72,3.72,0,0,0-3.89-.63A3.33,3.33,0,0,0,130,82.15Z"/><path class="cls-26" d="M78.71,71.27l0,0a12.52,12.52,0,0,0-6.12-2.5,5.81,5.81,0,0,0-5.63,2.84,5,5,0,0,0-6.16.69c-.65.68-1.18,1.58-2.07,1.86-1.19.35-2.35-.58-3.23-1.47q-1.84-1.87-3.57-3.9a1.8,1.8,0,0,1,.4-.49,13.78,13.78,0,0,1,8.11-3.75c3-.15,6.28,1.47,7.33,4.33a6.56,6.56,0,0,1,11,2.34Z"/><path class="cls-30" d="M158.47,64.51c-.94,1.89-2,1.89-2.95,7a48.13,48.13,0,0,0-1.68-9A9.64,9.64,0,0,0,150,57a7.73,7.73,0,0,0-8.6.45,8.51,8.51,0,0,0-3.06,8.15,4.26,4.26,0,0,0-5.76-2.25c-2.06,1.1-3.19,5-1.78,6.86a6.35,6.35,0,0,0-9.16,2.62,4.41,4.41,0,0,0-3.53-.07,4.55,4.55,0,0,0-2.37,4.85,3.89,3.89,0,0,0-7.67-.1,1.48,1.48,0,0,1-.29-.37,5.91,5.91,0,0,1,1.55-3.84,5.55,5.55,0,0,1,3.16-1.16,3.68,3.68,0,0,1,2,.34,1.83,1.83,0,0,1,1,1.69,3.79,3.79,0,0,1,2.11-2.62,3.93,3.93,0,0,1,3.4,0,4,4,0,0,1,3.21-2.88,12.31,12.31,0,0,1,4.64.16,3.83,3.83,0,0,1-.92-3.83,4.81,4.81,0,0,1,2.57-3.2,6.12,6.12,0,0,1,4.15-.35c-1.14-2.3.18-5.32,2-7.17a13.14,13.14,0,0,1,9.9-4.05,11.56,11.56,0,0,1,9.18,5.28,10.3,10.3,0,0,1,.19,10.49A4.34,4.34,0,0,1,158.47,64.51Z"/><path class="cls-29" d="M108.7,82.15H60.82c0-.06,0-.12.07-.18a21.87,21.87,0,0,1,2.62-4.57A9.12,9.12,0,0,1,64.87,76a6,6,0,0,1,1-.7l.29-.14a4.59,4.59,0,0,1,1.08-.31C69,74.58,71,76.36,71.77,78A10.39,10.39,0,0,1,74.88,75a3.34,3.34,0,0,1,1.64-.48c1.84,0,3.67,1.87,4.8,3.33,1.18-1.83,3.4-3.93,5.57-3.75s4.18,2.64,5,4.64a10.51,10.51,0,0,1,4.52-.28,3.56,3.56,0,0,1,2.9,3.09,7.66,7.66,0,0,1,5.24.55,3.09,3.09,0,0,1,3-.66A3,3,0,0,1,108.7,82.15Z"/><path class="cls-1" d="M59.53,73.15a.21.21,0,0,1-.15-.35,3.76,3.76,0,0,1,1.88-1.12.22.22,0,0,1,.25.16.21.21,0,0,1-.15.25,3.3,3.3,0,0,0-1.68,1A.23.23,0,0,1,59.53,73.15Z"/><path class="cls-1" d="M78.68,71.54a.16.16,0,0,1-.09,0,.21.21,0,0,1-.11-.26,6.35,6.35,0,0,0-10.59-2.18.25.25,0,0,1-.2.06.24.24,0,0,1-.15-.13c-1.07-2.93-4.39-4.32-7.12-4.19a11.73,11.73,0,0,0-5.88,2.09.2.2,0,0,1-.28-.06.19.19,0,0,1,.06-.28,12.09,12.09,0,0,1,6.08-2.17c2.81-.13,6.16,1.25,7.41,4.17a6.78,6.78,0,0,1,11.1,2.64.2.2,0,0,1,0,.17l0,0A.21.21,0,0,1,78.68,71.54Z"/><path class="cls-1" d="M108.7,82.36H69.14a.2.2,0,0,1-.2-.16,25.23,25.23,0,0,0-1.27-4.09,14.76,14.76,0,0,1-.43-1.44A9.62,9.62,0,0,0,66.71,75a.2.2,0,0,1,0-.17.2.2,0,0,1,.13-.12,3,3,0,0,1,.41-.08c1.71-.25,3.63,1.27,4.55,2.93,1-1.31,2.83-3.21,4.72-3.23h0c1.8,0,3.55,1.68,4.75,3.18,1.34-2,3.53-3.77,5.6-3.59s4.16,2.42,5.15,4.61a10.19,10.19,0,0,1,4.44-.25,3.84,3.84,0,0,1,3.05,3,7.85,7.85,0,0,1,5,.57,3.25,3.25,0,0,1,3.08-.61,3.36,3.36,0,0,1,1.21.72.22.22,0,0,1,0,.23A.21.21,0,0,1,108.7,82.36Zm-3.51-.42h2.9a3.15,3.15,0,0,0-.59-.27A2.93,2.93,0,0,0,105.19,81.94Zm-35.89,0h34.28a7.43,7.43,0,0,0-4.18-.16.21.21,0,0,1-.25-.2,3.43,3.43,0,0,0-2.76-2.89A10.3,10.3,0,0,0,92,79a.22.22,0,0,1-.24-.13c-.88-2.06-2.88-4.35-4.86-4.51S82.74,76.05,81.49,78a.2.2,0,0,1-.17.09.18.18,0,0,1-.17-.08c-.94-1.21-2.78-3.25-4.6-3.25h0c-1.84,0-3.67,2.1-4.59,3.33a.23.23,0,0,1-.19.09.22.22,0,0,1-.16-.12c-.79-1.64-2.69-3.25-4.27-3l-.12,0a14.65,14.65,0,0,1,.45,1.5A12.69,12.69,0,0,0,68.06,78,25.2,25.2,0,0,1,69.3,81.94Z"/><path class="cls-1" d="M130,82.36H108.7a.2.2,0,0,1-.14-.06,2.82,2.82,0,0,0-1.06-.63,2.89,2.89,0,0,0-2.78.62.2.2,0,0,1-.23,0,7.39,7.39,0,0,0-5.09-.54.21.21,0,0,1-.25-.2,3.43,3.43,0,0,0-2.76-2.89A10.3,10.3,0,0,0,92,79a.22.22,0,0,1-.24-.13c-.88-2.06-2.88-4.35-4.86-4.51S82.74,76.05,81.49,78a.2.2,0,0,1-.17.09.18.18,0,0,1-.17-.08c-.94-1.21-2.78-3.25-4.6-3.25h0c-1.84,0-3.67,2.1-4.59,3.33a.23.23,0,0,1-.19.09.22.22,0,0,1-.16-.12c-.79-1.64-2.69-3.25-4.27-3l-.36.07a.21.21,0,0,1-.23-.09,5.73,5.73,0,0,0-2.83-2.59l-.1,0-.06,0a3.26,3.26,0,0,0-2.36-.3.24.24,0,0,1-.25-.11.22.22,0,0,1,.07-.26,5.3,5.3,0,0,1,5.66-.35,6.09,6.09,0,0,1,5.72-2.76,12.8,12.8,0,0,1,6.1,2.46h0a.22.22,0,0,1,.19.14,7,7,0,0,1,.37,1.54,8.81,8.81,0,0,1,6.88-3.61,9,9,0,0,1,7.17,3.65c.58-1.11,1.85-1.79,3.72-2,4.21-.42,8.29,2.57,10.52,5.72a4.86,4.86,0,0,1,1.59-3.26,5.18,5.18,0,0,1,4.24-1.33,3.32,3.32,0,0,1,2.14,1,1.18,1.18,0,0,1,.11.19,4,4,0,0,1,1.86-1.84,4.12,4.12,0,0,1,3.35-.14,4.29,4.29,0,0,1,3.31-2.79,11,11,0,0,1,4.12.06,4.33,4.33,0,0,1-.56-3.57,5,5,0,0,1,2.69-3.34,6.12,6.12,0,0,1,3.89-.46c-.89-2.36.46-5.25,2.17-7a13.39,13.39,0,0,1,10.06-4.12,12.07,12.07,0,0,1,9.35,5.38c3.32,5.08.42,10.65.39,10.71a6.36,6.36,0,0,0-.81,2.89,8,8,0,0,0,.25,2.56.23.23,0,0,1-.06.22.22.22,0,0,1-.22,0,6,6,0,0,0-5.62.35c-1.6,1-2.73,3.83-2.79,5.87a.21.21,0,0,1-.13.18.2.2,0,0,1-.22,0c-1.09-1-3.91-3.2-6.42-2.48-2.14.62-4,3.38-4.64,5.66a.2.2,0,0,1-.14.14.19.19,0,0,1-.19,0,3.56,3.56,0,0,0-3.67-.59,3.09,3.09,0,0,0-1.47,1.45A.22.22,0,0,1,130,82.36Zm-21.18-.42h21.05a3.55,3.55,0,0,1,1.62-1.52,3.9,3.9,0,0,1,3.86.45c.75-2.32,2.64-5,4.84-5.65,2.49-.71,5.18,1.18,6.49,2.29.19-2.09,1.31-4.76,3-5.78a6.43,6.43,0,0,1,5.63-.54,8.17,8.17,0,0,1-.18-2.29,6.94,6.94,0,0,1,.87-3.08s2.8-5.41-.38-10.28a11.62,11.62,0,0,0-9-5.18,12.81,12.81,0,0,0-9.74,4c-1.71,1.76-3,4.68-1.94,6.93a.2.2,0,0,1-.23.29,6,6,0,0,0-4,.34A4.58,4.58,0,0,0,128.14,65c-.16.74-.4,2.57.86,3.62a.21.21,0,0,1,.05.25.21.21,0,0,1-.22.12,11.82,11.82,0,0,0-4.56-.16,3.76,3.76,0,0,0-3.06,2.71.21.21,0,0,1-.11.15.28.28,0,0,1-.18,0,3.71,3.71,0,0,0-3.22,0,3.59,3.59,0,0,0-2,2.44.2.2,0,0,1-.24.16.2.2,0,0,1-.16-.25,1,1,0,0,0-.13-.83,2.93,2.93,0,0,0-1.86-.88,4.78,4.78,0,0,0-3.9,1.22A4.42,4.42,0,0,0,108,77.08a.78.78,0,0,1,0,.13.19.19,0,0,1-.15.19.2.2,0,0,1-.23-.08c-2-3.25-6.21-6.55-10.52-6.11-1.31.13-3,.61-3.52,2.06a.2.2,0,0,1-.17.14.21.21,0,0,1-.2-.09,8.67,8.67,0,0,0-7-3.77,8.43,8.43,0,0,0-6.87,3.9.21.21,0,0,1-.23.09.21.21,0,0,1-.15-.2,5.86,5.86,0,0,0-.34-1.84h0a12.55,12.55,0,0,0-6-2.46,5.6,5.6,0,0,0-5.43,2.72.2.2,0,0,1-.13.11.2.2,0,0,1-.17,0,4.86,4.86,0,0,0-4.58-.27A3.81,3.81,0,0,1,63.9,72l.13,0a6,6,0,0,1,3,2.63l.26,0c1.71-.25,3.63,1.27,4.55,2.93,1-1.31,2.83-3.21,4.72-3.23h0c1.8,0,3.55,1.68,4.75,3.18,1.34-2,3.53-3.77,5.6-3.59s4.16,2.42,5.15,4.61a10.19,10.19,0,0,1,4.44-.25,3.84,3.84,0,0,1,3.05,3,7.85,7.85,0,0,1,5,.57,3.22,3.22,0,0,1,4.23,0Z"/><path class="cls-31" d="M44.91,32.5a.34.34,0,0,0,.3.44l-.29,0a4.84,4.84,0,0,1-3.69-1l-.37-.34a.8.8,0,0,0-.13-.13,1.26,1.26,0,0,0-.27-.2l-.1,0a.61.61,0,0,0-.49.08,1.07,1.07,0,0,0-.34.25A2.37,2.37,0,0,0,39,34,2.41,2.41,0,0,0,41,35.54a3.43,3.43,0,0,1-3.19-1.23,3.58,3.58,0,0,1-.28-.37h0s-.05-.07-.06-.1a2.85,2.85,0,0,1-.36-1,2.61,2.61,0,0,0-.36-1.29c-.54-.69-1.89-.53-2.15-1.37a1.56,1.56,0,0,0,1.51.27A1.72,1.72,0,0,0,36.42,29a6.67,6.67,0,0,0-.55-1.49,5.5,5.5,0,0,1-.57-2.84h0a3.09,3.09,0,0,1,.31-1,.91.91,0,0,1,.09-.17,4.2,4.2,0,0,1,.61-.9,3,3,0,0,1,.41-.46,5.36,5.36,0,0,1,.8-.67,4.67,4.67,0,0,1,4.24-.52c1.93.75,3.11,2.67,4.14,4.47.28.49.56,1,.85,1.47l3.31,5.78A9,9,0,0,1,44.91,32.5Z"/><path class="cls-32" d="M40.75,24.23c-.11.22-.37.32-.59.44a3.23,3.23,0,0,0-1.5,4.24.92.92,0,0,1-.72-1.05,12.06,12.06,0,0,0-.61,4.36,5.5,5.5,0,0,0,.16,1.72,3.19,3.19,0,0,1-.42-1.07,2.61,2.61,0,0,0-.36-1.29c-.54-.69-1.89-.53-2.15-1.37a1.56,1.56,0,0,0,1.51.27A1.72,1.72,0,0,0,36.42,29l-.09-.39c-.1-.28-.21-.54-.34-.82l-.12-.28a5.5,5.5,0,0,1-.57-2.84h0a3.39,3.39,0,0,1,1.05-1.22,3.75,3.75,0,0,1,3.77-.3,1.48,1.48,0,0,1,.56.43A.68.68,0,0,1,40.75,24.23Z"/><path class="cls-32" d="M35.28,25.08a1.8,1.8,0,0,1-.14.68,1.43,1.43,0,0,1-.3.35c-.07.06-.33.28-.42.25.56.16.89-.5,1-.93a5.54,5.54,0,0,0,.21-.8c0-.07.07-.26,0-.33s-.33.27-.36.36A2.07,2.07,0,0,0,35.28,25.08Z"/><path class="cls-31" d="M78.92,18.73c-1.43,1.75-4.23-1.58-4.23-1.58.86,2.54,0,3.8-1,4.44a5,5,0,0,1-2.32.64l.39-6.13-1.23-2.81-.3-.68v1.31l-3.14,4.65L61.47,21l-4.85-.8,2.24-2.88-9.79,4.34s-1.31,2.82-2.4,3.68-5.3-3.16-6.13-3.07c-.59.07-3.59.89-6.13-.14a5.31,5.31,0,0,1-2.5-2.06c-2-3.15,3.93-9.51,7.23-12.73.7-.68,1.27-1.22,1.64-1.56s.59-.54.93-.82a15.34,15.34,0,0,1,2.87-1.9h0A28.8,28.8,0,0,1,54,.37a17.41,17.41,0,0,1,7.3.56,20.35,20.35,0,0,1,2.09.74s0,0,0,0A19.71,19.71,0,0,1,66.07,3h0c.71.44,1.24.81,1.59,1.08l0,0,.4.33c2.91-.6,5.11,4.75,5.11,4.75s-1.47.22-.11,1.48,3,4.9,3.16,5.13l-1.59-1.14C76.15,18.73,78.92,18.73,78.92,18.73Z"/><path class="cls-33" d="M78.92,18.73c-1.43,1.75-4.23-1.58-4.23-1.58.86,2.54,0,3.8-1,4.44,2-3.14-1.24-6.21-1.24-6.21l-1.92-2.09-.3-.33-.27-.3L67.56,6.5l.16-2.36.4.33.15,0c2.84-.38,5,4.78,5,4.78s-1.47.22-.11,1.48a6.45,6.45,0,0,1,.88,1c.29.43.59.91.86,1.38.76,1.29,1.36,2.58,1.42,2.71l-1.36-1-.23-.16C76.15,18.73,78.92,18.73,78.92,18.73Z"/><path class="cls-34" d="M69.43,13.9l-2.34,4.67-6.4-4.81-.76.8c-2.26,3-10.86,6-10.86,6l4.09-3.25s-2.56-.14-2.8-.11c-3,.48,0-.66,0-.66-1.28-.23,1.38-2.37,1.38-2.37s-1.57-.25-1.8-1.12,1.86-.94,1.86-.94c-2.4,0-1.82-.92-1.86-1.49s-2.4-.31-2.67-1.16c-.16-.5,2.13-1.34,4-1.93L46.83,8.77c-3.89-.85,3.72-3,3.72-3-5.89.84-6.86.19-6.86.19s2.82-2,4.05-3c.8-.65-1.46-.24-3.15.14A28.8,28.8,0,0,1,54,.37a17.41,17.41,0,0,1,7.3.56,20.35,20.35,0,0,1,2.09.74s0,0,0,0A19.71,19.71,0,0,1,66.07,3h0l2.79,3Z"/><path class="cls-33" d="M70.4,10.07c.21,2.7-3.44,4.74-3.67,4.86,2.29-3.14.49-5.43.49-5.43.13.89-2,3.79-2,3.79l1-4.07.38-2.67-.63.34L66,6.37l-.47-.16.61.06-.42-.93L62,2l-.7-1a20.35,20.35,0,0,1,2.09.74s0,0,0,0a19.64,19.64,0,0,1,4.26,2.42C68.59,5.42,70.26,8.05,70.4,10.07Z"/><path class="cls-35" d="M37.77,34.31a3.58,3.58,0,0,1-.28-.37h0s-.05-.07-.06-.1c-.74-5.09.51-6,.51-6A18.79,18.79,0,0,0,37.77,34.31Z"/><path class="cls-35" d="M40.8,24.08a3.83,3.83,0,0,0-5.19-.44.91.91,0,0,1,.09-.17,4.2,4.2,0,0,1,.61-.9l4.33-.67,1.17.69S44.15,27.26,40.8,24.08Z"/><path class="cls-35" d="M36.9,22.86a.5.5,0,0,0-.53-.2,1.19,1.19,0,0,0-.51.29c-.94.86-1.19,2.34-2.25,3a1.09,1.09,0,0,1-.55.21.57.57,0,0,1-.51-.24.8.8,0,0,0,1,.29,1.66,1.66,0,0,0,.85-.74c.21-.33.35-.69.55-1A3.6,3.6,0,0,1,36.9,22.86Z"/><path class="cls-35" d="M44.91,32.5a.34.34,0,0,0,.3.44l-.29,0a1.29,1.29,0,0,1-.3-.35c-.54-.84,0-2.07-.55-2.9a.62.62,0,0,1-.26.67,3.79,3.79,0,0,0-.46-3.82c-.32-.4-.71-.73-1.05-1.11a2.41,2.41,0,0,1-.66-1.33,1.17,1.17,0,0,1,.71-1.22,1.66,1.66,0,0,1,1.49.52,17.05,17.05,0,0,1,2.91,3.42l3.31,5.78A9,9,0,0,1,44.91,32.5Z"/><path class="cls-35" d="M45.38,33.36A6.38,6.38,0,0,1,43.94,33a2.07,2.07,0,0,1-1.08-1,2.82,2.82,0,0,1-.08-1.63,6.49,6.49,0,0,0,0-3.65,13,13,0,0,0-.92-1.44,2,2,0,0,1-.35-1.62,3,3,0,0,0,.66,2,7.18,7.18,0,0,1,1.05,1.84,4.89,4.89,0,0,1,0,1.83,7.22,7.22,0,0,0-.1,1.85,2.09,2.09,0,0,0,.89,1.55,7.59,7.59,0,0,0,.77.35C45.13,33.13,45.29,33.09,45.38,33.36Z"/><path class="cls-35" d="M66.62,6.23s1.27,6.34-5.71,8.12l-3.12,2.49,2.9-3.08S66.75,11.9,66.62,6.23Z"/><path class="cls-35" d="M65.9,9.9,66.16,9a2.23,2.23,0,0,1,.16.45,4.71,4.71,0,0,1-.45,3.09A13.06,13.06,0,0,1,65,14c-.84,1.21-2.51,2.87-6.83,4.94C58.2,18.9,65.22,13.14,65.9,9.9Z"/><path class="cls-35" d="M69.84,12.39l.61-1.56s.81,3.47,2.07,4.35,3.17,4.86.88,6.56c0,0,2.24-2.89-1-5.9S69.84,12.39,69.84,12.39Z"/><path class="cls-35" d="M70.41,10.07c0,.13,1.2,4.2-12.32,8.66l-.31.47.42-.3s7-2.08,9.93-4.49,2.29-4.48,2.29-4.48Z"/><path class="cls-35" d="M46.63,18a53,53,0,0,1,6.71-1.33A14.81,14.81,0,0,0,60.4,12.5,13,13,0,0,1,56.32,16a14.09,14.09,0,0,1-3.17,1.48c-1.13.36-2.31.48-3.45.83-2.51.79-5.44,1.9-5.69,2l6.32-2.53-.55.08c-3.66.53-6.06,1.36-6.08,1.26A13.53,13.53,0,0,1,46.63,18Z"/><path class="cls-35" d="M45.3,21.32a10.57,10.57,0,0,1,2.4-1.6,11.44,11.44,0,0,1,3.7-1.46l-2.63,1.53a14.89,14.89,0,0,0-3.31,2.34,15.06,15.06,0,0,0-1.38,1.72c.09-.12,0-.53,0-.7a2.24,2.24,0,0,1,.24-.55A5.54,5.54,0,0,1,45.3,21.32Z"/><path class="cls-35" d="M41.14,20.94l-.25.28S36.81,21,36,21.43l-1.54.69a5.31,5.31,0,0,1-2.5-2.06c-2-3.15,3.93-9.51,7.23-12.73l1.32-.63s-4.91,4.7-5,4.79,2.71-1.78,3-2A10.89,10.89,0,0,0,35,13.08,12.25,12.25,0,0,0,33.48,18a3,3,0,0,0,.06,1.48A3.21,3.21,0,0,0,35,21.17a1.11,1.11,0,0,1-1-.14,2.49,2.49,0,0,1-1-1.69,5.29,5.29,0,0,1,.11-2,13.34,13.34,0,0,1,1.83-4.49,9.55,9.55,0,0,0-1.27,2.07,10.49,10.49,0,0,0-.71,2.36,5.52,5.52,0,0,0-.18,1.89,2.71,2.71,0,0,0,.74,1.73,1.58,1.58,0,0,0,1.77.28,5.31,5.31,0,0,1-1.07-1.11,2.5,2.5,0,0,1-.46-.87,2.58,2.58,0,0,1-.06-1.08,3.24,3.24,0,0,1,.5-1.46A6.59,6.59,0,0,0,33.83,18,2.65,2.65,0,0,0,34,19.21a3.13,3.13,0,0,0,.41.67c.17.22.33.45.51.66a2.89,2.89,0,0,0,.29.32c.09.09.2.22.34.22L35,20.37a4.17,4.17,0,0,0,.65.37,4.07,4.07,0,0,0,.54.2Z"/><path class="cls-35" d="M38.89,9.22A35.4,35.4,0,0,0,36.49,13,12.24,12.24,0,0,0,35,17.18a3,3,0,0,0,.41,2,3.06,3.06,0,0,0,1.82,1.11,12.48,12.48,0,0,0,4.48.11,12.48,12.48,0,0,1-4.52.07,3.43,3.43,0,0,1-2-1.11,3.22,3.22,0,0,1-.63-2.26,10,10,0,0,1,1.62-4.29A22.59,22.59,0,0,1,38.89,9.22Z"/><path class="cls-35" d="M40.78,8.29A11.73,11.73,0,0,0,39.49,11a5.93,5.93,0,0,0-.29,2.85,4.64,4.64,0,0,0,1.31,2.5,2.55,2.55,0,0,0,.54.5l.58.47c.41.28.85.52,1.27.8-.46-.2-.93-.4-1.38-.63-.22-.13-.43-.28-.64-.42a3.09,3.09,0,0,1-.6-.48,4.52,4.52,0,0,1-1.52-2.66,5.51,5.51,0,0,1,.37-3.06A8.12,8.12,0,0,1,40.78,8.29Z"/><path class="cls-35" d="M40,9.47a11.12,11.12,0,0,0-1.19,2.63,6.66,6.66,0,0,0-.26,2.8,4.64,4.64,0,0,0,1.17,2.5,6.83,6.83,0,0,0,1,1c.37.3,1.74,1.1,2.14,1.4-.44-.21-1.86-.95-2.28-1.21a6.46,6.46,0,0,1-1.14-.95,5.59,5.59,0,0,1-.87-1.23,5.87,5.87,0,0,1-.4-1.46A6.13,6.13,0,0,1,38.59,12,8.74,8.74,0,0,1,40,9.47Z"/><path class="cls-35" d="M39,10.49a12.12,12.12,0,0,0-1.14,2.65,6.75,6.75,0,0,0-.26,2.78,4.53,4.53,0,0,0,1.17,2.46,6.67,6.67,0,0,0,1,.95c.37.28,1,.66,1.35.93v.34c-.43-.24-1.22-.61-1.63-.89a6.33,6.33,0,0,1-1.13-1,5.35,5.35,0,0,1-.86-1.25A5.53,5.53,0,0,1,37.11,16a6.2,6.2,0,0,1,.39-3A8.16,8.16,0,0,1,39,10.49Z"/><path class="cls-35" d="M38.33,9.93a31.7,31.7,0,0,0-2.46,3.63,11.43,11.43,0,0,0-1.57,4,2.44,2.44,0,0,0,.51,1.93,3.28,3.28,0,0,0,1.77,1,10.42,10.42,0,0,0,4.27,0l0,.43A5.67,5.67,0,0,1,37,19.83,3.06,3.06,0,0,1,36,18a8.74,8.74,0,0,1,0-2,9.32,9.32,0,0,1,1.32-3.82,11.5,11.5,0,0,1,2.76-2.89,12.87,12.87,0,0,0-2.55,3A9.26,9.26,0,0,0,36.44,16a8.41,8.41,0,0,0,0,1.94,2.65,2.65,0,0,0,.85,1.6,5.57,5.57,0,0,0,3.64,1l0,.44a10.81,10.81,0,0,1-4.46,0,3.67,3.67,0,0,1-2-1.16A2.85,2.85,0,0,1,34,17.54a11.27,11.27,0,0,1,1.72-4.08A31.4,31.4,0,0,1,38.33,9.93Z"/><path class="cls-35" d="M40.94,7.94s-2.85,3.48.2,6a7.25,7.25,0,0,0,7.65,1.22s-4.54,1.58-7.1-1.38A5,5,0,0,1,40.94,7.94Z"/><path class="cls-35" d="M41.83,7.55a3.92,3.92,0,0,0-.06,5.5,5.85,5.85,0,0,0,1.73,1.28A5.45,5.45,0,0,0,48.06,14c.41-.2.66-.66,1-1a4.89,4.89,0,0,1-3.68.89,4.54,4.54,0,0,1-3.31-1.3,3.64,3.64,0,0,1-.88-2.73A3.85,3.85,0,0,1,42,7.68Z"/><path class="cls-35" d="M50.75,14.41c.17-.08,12.67-3.36,15.21-7.71,0,0-1.23,3.53-9.63,6.48L49.61,15Z"/><path class="cls-35" d="M44.84,12.24a6.53,6.53,0,0,0,4,.62,8.41,8.41,0,0,1-4.2-.28A4.6,4.6,0,0,1,43,11.44c-.27-.29-1.08-1.27-.75-1.66A7.38,7.38,0,0,0,44.84,12.24Z"/><path class="cls-35" d="M46.35,10.68,45.29,9.46a9.74,9.74,0,0,0,2.37.51,3.27,3.27,0,0,0,2.27-.67c-.35.3-1.63.16-2.06.15a11.19,11.19,0,0,1-2.15-.27,14.89,14.89,0,0,1-3.9-1.75c-.33.76,1.18,1.06,1.64,1.33A27.85,27.85,0,0,1,46.35,10.68Z"/><path class="cls-35" d="M48,6.25a32.14,32.14,0,0,1,5-.32,17,17,0,0,0-8.48,2.19,2.82,2.82,0,0,1-.71.32c-.35.07-.94-.08-.6-.41a3.42,3.42,0,0,1,.61-.28l.77-.44A12.39,12.39,0,0,1,48,6.25Z"/><path class="cls-35" d="M46.52,5.08A11,11,0,0,1,51.2,3.57a27.28,27.28,0,0,1,4.95.05,20.73,20.73,0,0,0-9,1.61c-.75.3-1.47.71-2.21,1A6.61,6.61,0,0,1,46.52,5.08Z"/><path class="cls-35" d="M53.9,6.82a9.47,9.47,0,0,0-3.56.68,10.15,10.15,0,0,0-1.66.8c-.5.29-1.32,1.15-1.82,1.38-.39-.54,2.76-2.08,3.19-2.24A10.51,10.51,0,0,1,53.9,6.82Z"/><path class="cls-35" d="M49.18,11.84a11.92,11.92,0,0,0,2.69-1.52,6.67,6.67,0,0,1,2.81-1.23,4.23,4.23,0,0,0-2.47.69c-.76.43-1.45,1-2.23,1.36a6.35,6.35,0,0,1-1.57.54A7.36,7.36,0,0,0,47,11.9,3.39,3.39,0,0,0,49.18,11.84Z"/><path class="cls-35" d="M53,18.2a18.33,18.33,0,0,1,4.27-1.49c-1.39.74-2.79,1.44-4.21,2.12l-2.15,1c-.49.23-1.28.77-1.83.7C50.44,19.84,51.64,18.92,53,18.2Z"/><path class="cls-35" d="M52.28,16a13.1,13.1,0,0,0,3.89-2.38,7.56,7.56,0,0,1-2.61,2.06,9.54,9.54,0,0,0,4.23-2.41,8.63,8.63,0,0,1-3.19,2.39,20.93,20.93,0,0,1-2.23.44c-.77.17-1.5.46-2.27.6a3.24,3.24,0,0,1-2-.17A9.75,9.75,0,0,0,52.28,16Z"/><path class="cls-35" d="M59.35,7.42a7.77,7.77,0,0,1,6.65-1c-3.21-.29-6,1.1-8.88,2.39C57.85,8.29,58.61,7.87,59.35,7.42Z"/><path class="cls-35" d="M65.87,5.7a.13.13,0,0,0,.19,0A7,7,0,0,0,63.12,4.1a22.05,22.05,0,0,0-3.33-.56A57.83,57.83,0,0,1,65.87,5.7Z"/><path class="cls-35" d="M63.55,3.45a33.41,33.41,0,0,0-7.4-2.16C55.46,1.18,54.68,1.2,54,1a39.28,39.28,0,0,1,7.48,1.68C62.18,2.94,62.87,3.18,63.55,3.45Z"/><path class="cls-35" d="M40.81,35.56A3.68,3.68,0,0,1,38.32,34a3.74,3.74,0,0,1-.14-3.21c.33-.75.89-1.36,1.26-2.09a4.44,4.44,0,0,0,.33-3.06,4.38,4.38,0,0,1,.13,3c-.25.65-.51.7-.9,1.48a4.43,4.43,0,0,0-.44,3.58A3.64,3.64,0,0,0,40.81,35.56Z"/><path class="cls-35" d="M36.08,27.52l.25,1.08c-.1-.28-.21-.54-.34-.82a3.13,3.13,0,0,1,.21-1.87c.64-1.37,1.51-1.5,1.66-1.51A3.07,3.07,0,0,0,36.08,27.52Z"/><path class="cls-36" d="M74,11.74a3.73,3.73,0,0,1-1.13-.93,4.94,4.94,0,0,0-1.54-1.35l1,0A.32.32,0,0,0,72,9.26l.34-.1A10.06,10.06,0,0,1,69.82,7l2.33,1.58a13.71,13.71,0,0,0-2.72-2.82l1.35.61L68.29,4.45h0c2.84-.38,5,4.78,5,4.78s-1.47.22-.11,1.48A6.45,6.45,0,0,1,74,11.74Z"/><path class="cls-37" d="M61.76,1.44l1,.88a17.34,17.34,0,0,1,1.74,1.47,8.18,8.18,0,0,1,.69.75L66,5.62a4.07,4.07,0,0,1-1.6-1.17,15.36,15.36,0,0,0-2.08-1.69,11.21,11.21,0,0,0-1.44-.9,9.34,9.34,0,0,0-3-1A22.05,22.05,0,0,0,54.55.73c-.72,0-1.44.08-2.15.17A24.92,24.92,0,0,0,47.66,2a26.46,26.46,0,0,0-3.55,1.51,19.73,19.73,0,0,0-2,1.19L41.71,5C43.8,3.21,47,1.36,54,.37a17.62,17.62,0,0,1,9.4,1.32c1.13.78,2.92,2.18,2.63,3.77a1.53,1.53,0,0,0-.15-.63c-.5-1.54-1.93-2.26-3.27-3C62.34,1.72,62.05,1.57,61.76,1.44Z"/><path class="cls-38" d="M94.37,74.53,92,74.4s-9.84-8.15-11.65-14.1l-7.69,1.34,1.39-6.44,4-1.15.17,0a8.31,8.31,0,0,1,2.82-.56,4,4,0,0,1,3.12,1.24c.1.12.2.25.29.38,2,2.83,7.58,13.71,9.85,15.46a2.86,2.86,0,0,1,.79.94,1.92,1.92,0,0,1,.22.78A3.45,3.45,0,0,1,94.37,74.53Z"/><path class="cls-39" d="M95.33,72.24a7.4,7.4,0,0,1-3.68-1.46,16.62,16.62,0,0,1-4.26-5.61,26.33,26.33,0,0,0-3.83-6c-.26-.27-.55-.6-.46-1a1.06,1.06,0,0,1,.49-.56c1-.59.28-2,.12-3a1.23,1.23,0,0,1,.47,0c.1.12.2.25.29.38,2,2.83,7.58,13.71,9.85,15.46A2.39,2.39,0,0,1,95.33,72.24Z"/><path class="cls-40" d="M95.11,71.46c-3.15-.66-5.39-4.44-6.91-7-.93-1.55-1.79-3.14-2.64-4.74A15.48,15.48,0,0,0,83,55.67a6.24,6.24,0,0,1-1.93-2.13.12.12,0,0,1,0-.1,4,4,0,0,1,3.12,1.24c.1.12.2.25.29.38,2,2.83,7.58,13.71,9.85,15.46A2.86,2.86,0,0,1,95.11,71.46Z"/><path class="cls-1" d="M94.37,74.74h0L92,74.61a.21.21,0,0,1-.12,0c-.4-.33-9.73-8.1-11.66-14l-7.51,1.3a.22.22,0,0,1-.19-.06.25.25,0,0,1,0-.19l1.39-6.44A.19.19,0,0,1,74,55l4.18-1.2a8.45,8.45,0,0,1,2.87-.57,4.18,4.18,0,0,1,3.27,1.31c.11.12.21.26.31.39.7,1,1.81,2.93,3.09,5.16,2.35,4.08,5.27,9.15,6.71,10.27a3.08,3.08,0,0,1,.86,1,2.38,2.38,0,0,1,.24.86,3.58,3.58,0,0,1-1,2.44A.21.21,0,0,1,94.37,74.74ZM92.1,74.2l2.19.12a3.16,3.16,0,0,0,.83-2.07,1.77,1.77,0,0,0-.19-.69,2.71,2.71,0,0,0-.74-.87c-1.51-1.17-4.33-6.07-6.81-10.39-1.29-2.23-2.39-4.15-3.08-5.13a3.07,3.07,0,0,0-.28-.35,3.78,3.78,0,0,0-3-1.17,8.33,8.33,0,0,0-2.73.54l-4.08,1.17-1.3,6,7.38-1.28a.21.21,0,0,1,.24.14C82.27,65.84,91.33,73.55,92.1,74.2Z"/><path class="cls-41" d="M93.78,74.5,92,74.4s-9.84-8.15-11.65-14.1l-7.69,1.34,1.39-6.44,4-1.15c-1,1.12-2.64,3.36-2.66,5.82l4.73,0,.59,0S86.34,70.2,91.4,72.89A12.43,12.43,0,0,1,93.78,74.5Z"/><path class="cls-42" d="M69.14,64.53l1.43,1.78s3.48,1.12,5-4.13-1-5.58-1.75-5.62S68.6,58.85,69.14,64.53Z"/><path class="cls-1" d="M71.36,66.62a3,3,0,0,1-.85-.11.23.23,0,0,1-.1-.07L69,64.66a.22.22,0,0,1,0-.11A8,8,0,0,1,71.06,58a5.12,5.12,0,0,1,2.73-1.64,2.33,2.33,0,0,1,1.87.95c.69,1,.72,2.64.07,4.94a6.06,6.06,0,0,1-2.67,3.95A3.57,3.57,0,0,1,71.36,66.62Zm-.67-.49a3.25,3.25,0,0,0,2.19-.31,5.71,5.71,0,0,0,2.45-3.69c.61-2.18.61-3.72,0-4.59a1.94,1.94,0,0,0-1.55-.78h0a5,5,0,0,0-2.39,1.52,7.58,7.58,0,0,0-2,6.17Z"/><path class="cls-38" d="M91,77.18H88.64s-10.27-8.6-12.4-14.45l-7.6,1.75,1-6.5,3.92-1.36.18-.06a8.3,8.3,0,0,1,2.78-.71,4,4,0,0,1,3.18,1.06c.11.11.21.24.31.36C82.19,60,88.37,70.55,90.72,72.18a3,3,0,0,1,.85.9,2.08,2.08,0,0,1,.26.76A8.64,8.64,0,0,1,91,77.18Z"/><path class="cls-39" d="M91.83,73.84a7.37,7.37,0,0,1-3.76-1.26,16.7,16.7,0,0,1-4.56-5.37,26.05,26.05,0,0,0-4.14-5.75c-.28-.25-.58-.57-.52-.94a1,1,0,0,1,.47-.59c1-.64.16-2,0-3a1.24,1.24,0,0,1,.47-.05c.11.11.21.24.31.36C82.19,60,88.37,70.55,90.72,72.18A2.4,2.4,0,0,1,91.83,73.84Z"/><path class="cls-40" d="M91.57,73.08c-3.18-.49-5.63-4.15-7.28-6.59-1-1.49-2-3-2.9-4.59A14.93,14.93,0,0,0,78.62,58a6.48,6.48,0,0,1-2-2,.15.15,0,0,1,0-.09,4,4,0,0,1,3.18,1.06c.11.11.21.24.31.36C82.19,60,88.37,70.55,90.72,72.18A3,3,0,0,1,91.57,73.08Z"/><path class="cls-41" d="M90.4,77.18H88.64s-10.27-8.6-12.4-14.45l-7.6,1.75,1-6.5,3.92-1.36c-.92,1.16-2.45,3.49-2.33,6L76,62.29l.59,0S82.74,72.29,87.94,74.7C88.94,75.17,89.74,76.67,90.4,77.18Z"/><path class="cls-1" d="M91,77.39H88.64a.21.21,0,0,1-.13,0C88.09,77,78.36,68.8,76.11,63l-7.42,1.71a.22.22,0,0,1-.19-.06.2.2,0,0,1-.07-.18l1-6.51a.21.21,0,0,1,.14-.16l4.1-1.42a8.23,8.23,0,0,1,2.83-.72,4.17,4.17,0,0,1,3.35,1.13,3.87,3.87,0,0,1,.32.37c.75,1,2,2.82,3.37,5C86.15,66.07,89.34,71,90.84,72a3.07,3.07,0,0,1,.91,1,2,2,0,0,1,.28.84,8.46,8.46,0,0,1-.85,3.45A.2.2,0,0,1,91,77.39ZM88.72,77h2.14a7.73,7.73,0,0,0,.76-3.1,1.66,1.66,0,0,0-.23-.68,2.6,2.6,0,0,0-.79-.84c-1.57-1.09-4.65-5.82-7.36-10-1.4-2.15-2.61-4-3.35-5a3.31,3.31,0,0,0-.3-.34,3.76,3.76,0,0,0-3-1,8.37,8.37,0,0,0-2.7.69l-4,1.39-1,6.08,7.3-1.68a.2.2,0,0,1,.24.13C78.44,68.16,87.89,76.27,88.72,77Z"/><path class="cls-43" d="M93.91,79.66l.93,1.74c7.92-.84,14.08-12.11,14.1-12.33s0-.76-1.06-1.29l-.19-.1c-1.21-.57-1.92,0-4.67,2l-.16.1c-2.75,1.78-6.85,0-8.54.24a1.94,1.94,0,0,0-.45.14h0a7.85,7.85,0,0,0-2.69,3,.83.83,0,0,0,0,.93C91.86,75,93.06,78.1,93.91,79.66Z"/><path class="cls-44" d="M103.91,75.46a29.31,29.31,0,0,0,5-6.39c0-.2,0-.76-1.06-1.29a16.64,16.64,0,0,1-2.59,4,24.42,24.42,0,0,1-11.38,7.92l.93,1.74C98.32,81,101.48,77.83,103.91,75.46Z"/><path class="cls-45" d="M108.94,69.08a29.65,29.65,0,0,1-5,6.38s0,0,0,0a5.64,5.64,0,0,0,1.3-3.57,1,1,0,0,0,.11-.15,16.64,16.64,0,0,0,2.59-4C108.91,68.31,109,68.87,108.94,69.08Z"/><path class="cls-46" d="M94.63,80.15a.11.11,0,0,1-.09-.08.09.09,0,0,1,.07-.12c10.5-3,13.29-11.36,13.32-11.43a.11.11,0,0,1,.13-.07.11.11,0,0,1,.06.14c0,.07-2.85,8.5-13.45,11.55Z"/><path class="cls-44" d="M102.86,69.75a.56.56,0,0,1-.14.29L102,71a1.19,1.19,0,0,1-.65.54c-.29,0-.61-.69-.48-.94-.11.21-.21.85-.44.95-.52.24-.88-.52-.76-.95a3,3,0,0,1-.41,1c-.22.29-.88.47-.92-.07a4.6,4.6,0,0,1,.08-.91c-.06.42-.51,1-1,1s-.49-.76-.29-1.15c-.12.19-.28.69-.46.81s-.57.2-.68-.09a1.42,1.42,0,0,1,.1-.93c-.75,1.81-1.45.85-1.14-.16-.08.56-.67,1-1,.82a.57.57,0,0,1-.15-.79,1.94,1.94,0,0,1,.45-.14C96,69.71,100.11,71.53,102.86,69.75Z"/><path class="cls-1" d="M103.85,75.72a.2.2,0,0,1-.16-.07.21.21,0,0,1,0-.28.26.26,0,0,1,.19-.12.21.21,0,0,1,.2.13.19.19,0,0,1,0,.22.38.38,0,0,1-.09.09A.27.27,0,0,1,103.85,75.72Z"/><path class="cls-1" d="M94.83,81.61a.21.21,0,0,1-.18-.11s-.39-.75-.93-1.74a.23.23,0,0,1,0-.18.24.24,0,0,1,.14-.12c5.28-1.59,8.67-4.86,11.28-7.85a16.5,16.5,0,0,0,2.56-3.92.24.24,0,0,1,.13-.11.18.18,0,0,1,.16,0c1.14.6,1.19,1.26,1.16,1.51,0,0,0,.08-.3.57l-.08.13a28.56,28.56,0,0,1-2.16,3l-.45.55c-.66.79-1.37,1.55-2.09,2.26l0,0,0,0c-.42.41-.87.91-1.34,1.43A14.39,14.39,0,0,1,99,80.32l-.55.26c-.22.1-.44.2-.67.28h0l-.72.26c-.23.08-.47.14-.73.21s-.46.11-.7.15-.55.09-.8.12Zm-.62-1.83c.35.65.62,1.17.74,1.4a5,5,0,0,0,.62-.1h0l.67-.15a5.15,5.15,0,0,0,.7-.2c.23-.07.45-.15.68-.24s.47-.19.69-.29l.53-.25a14.05,14.05,0,0,0,3.51-3.14c.47-.53.92-1,1.35-1.44a.23.23,0,0,1,.07-.07c.71-.7,1.4-1.44,2-2.22q.24-.27.45-.54a27.74,27.74,0,0,0,2.12-3l.08-.13a4.56,4.56,0,0,0,.25-.43c0-.17-.07-.55-.75-1a16.82,16.82,0,0,1-2.54,3.82C102.83,74.87,99.46,78.13,94.21,79.78Z"/><path class="cls-1" d="M93.91,79.87a.21.21,0,0,1-.19-.11c-.37-.7-.82-1.7-1.25-2.67a21.56,21.56,0,0,0-1.42-2.89A1,1,0,0,1,91,73,8.39,8.39,0,0,1,93.73,70l0,0a2.16,2.16,0,0,1,.5-.15,8.31,8.31,0,0,1,2.43.21c1.91.32,4.28.72,6-.42l.15-.1.43-.31c2.46-1.74,3.2-2.27,4.44-1.67l.19.08a.23.23,0,0,1,.12.12.22.22,0,0,1,0,.16,16.85,16.85,0,0,1-2.63,4c-2.65,3-6.09,6.35-11.47,8ZM94,70.3l0,0a7.89,7.89,0,0,0-2.59,2.93.59.59,0,0,0,0,.69,22.13,22.13,0,0,1,1.46,3c.4.9.81,1.82,1.16,2.49,5.19-1.61,8.54-4.84,11.12-7.8a17.16,17.16,0,0,0,2.48-3.73h0c-1-.49-1.66,0-4,1.64l-.43.31-.16.11c-1.9,1.23-4.36.81-6.34.48a8.29,8.29,0,0,0-2.29-.22C94.25,70.22,94.12,70.25,94,70.3Z"/><path class="cls-47" d="M91.06,81.86c.07.1.13.2.2.29h4.42c5.82-3.34,9.52-12,9.52-12.15s-.09-.75-1.16-1.2l-.2-.07c-1.25-.47-1.91.18-4.48,2.36l-.15.12c-2.58,2-6.83.55-8.49,1a1.89,1.89,0,0,0-.44.19h0c-1.07.61-2,3.34-2.42,4.24a.82.82,0,0,0,.13.92C88.7,78.34,90.08,80.38,91.06,81.86Z"/><path class="cls-48" d="M95.67,82.15a20.12,20.12,0,0,0,5.08-4.35A26.86,26.86,0,0,0,105.2,70c0-.2-.09-.75-1.16-1.2A16.65,16.65,0,0,1,101.8,73a24.74,24.74,0,0,1-10.74,8.88c.07.1.13.2.2.29Z"/><path class="cls-45" d="M105.2,70a26.86,26.86,0,0,1-4.45,7.8s0,0,0,0a8.88,8.88,0,0,0,1-4.66s.05-.1.09-.16A16.65,16.65,0,0,0,104,68.8C105.11,69.25,105.2,69.8,105.2,70Z"/><path class="cls-47" d="M92.17,82.15c10-4,12.16-12.48,12.18-12.56a.11.11,0,0,0-.07-.13.11.11,0,0,0-.13.08c0,.07-2.17,8.62-12.36,12.54a.11.11,0,0,0-.06.07Z"/><path class="cls-48" d="M99.21,71.21a.69.69,0,0,1-.11.29l-.63,1a1.21,1.21,0,0,1-.6.6c-.28.07-.67-.63-.56-.9-.09.22-.13.86-.36,1-.5.28-.92-.45-.83-.88a3,3,0,0,1-.33,1.05c-.19.3-.84.54-.92,0a4,4,0,0,1,0-.91c0,.42-.43,1-.87,1s-.55-.71-.39-1.12c-.1.19-.22.71-.39.84s-.55.25-.68,0a1.35,1.35,0,0,1,0-.93c-.59,1.87-1.37,1-1.15-.06,0,.56-.59,1-.91.9a.58.58,0,0,1-.23-.77,1.89,1.89,0,0,1,.44-.19C92.38,71.76,96.63,73.22,99.21,71.21Z"/><path class="cls-1" d="M95.66,82.36h-4.4a.24.24,0,0,1-.18-.09l-.19-.3a.26.26,0,0,1,0-.17.25.25,0,0,1,.13-.14,24.33,24.33,0,0,0,10.64-8.8,16.21,16.21,0,0,0,2.21-4.13.25.25,0,0,1,.11-.12.25.25,0,0,1,.17,0c1.12.47,1.29,1.08,1.29,1.39a21.24,21.24,0,0,1-2.2,3.92c-.13.19-.26.38-.41.58a11.27,11.27,0,0,0-.72,1.38,10.28,10.28,0,0,1-1.17,2.06,20,20,0,0,1-5.14,4.39A.23.23,0,0,1,95.66,82.36Zm-4.26-.42h4.21a19.64,19.64,0,0,0,5-4.27,9.67,9.67,0,0,0,1.1-2,12.27,12.27,0,0,1,.76-1.44c.15-.2.28-.38.4-.57A25.31,25.31,0,0,0,105,70c0-.12-.09-.51-.85-.88a16.17,16.17,0,0,1-2.19,4A24.68,24.68,0,0,1,91.4,81.94Z"/><path class="cls-1" d="M91.06,82.06a.21.21,0,0,1-.17-.09,48,48,0,0,0-3.06-4.3,1,1,0,0,1-.15-1.15c.08-.17.18-.42.3-.7.5-1.22,1.25-3,2.16-3.6l0,0a2,2,0,0,1,.49-.21,8.86,8.86,0,0,1,2.43,0c1.93.16,4.32.36,6-.94l.13-.09.43-.37c2.28-1.94,3-2.53,4.27-2l.2.08a.2.2,0,0,1,.12.26A16.59,16.59,0,0,1,102,73.1a24.67,24.67,0,0,1-10.82,9Zm-.63-9.54-.05,0c-.8.45-1.56,2.3-2,3.41-.12.3-.23.55-.31.73a.62.62,0,0,0,.09.69,51.08,51.08,0,0,1,3,4.21,24.35,24.35,0,0,0,10.49-8.74,16.48,16.48,0,0,0,2.14-3.94h0c-1.07-.39-1.66.11-3.86,2l-.42.35a1.31,1.31,0,0,1-.16.13c-1.78,1.38-4.26,1.18-6.26,1a8,8,0,0,0-2.3,0A1.71,1.71,0,0,0,90.43,72.52Z"/><path class="cls-49" d="M49.07,62.29a12.55,12.55,0,0,0,7.73,6.15c5.31,1.23,9.12-2,13.77-2.13a8.32,8.32,0,0,1,3.21-9.75l-6.66-2.22-2.39-1.78Z"/><path class="cls-1" d="M59.25,68.93a10.48,10.48,0,0,1-2.49-.29c-5.34-1.23-7.85-6.2-7.88-6.25a.21.21,0,0,1,.08-.27l15.66-9.74a.23.23,0,0,1,.24,0l2.35,1.76,6.63,2.21a.21.21,0,0,1,.06.37,8,8,0,0,0-3.13,9.5.24.24,0,0,1,0,.19.21.21,0,0,1-.17.1,19.31,19.31,0,0,0-5.3,1.17A19.56,19.56,0,0,1,59.25,68.93Zm-9.91-6.56a12.38,12.38,0,0,0,7.51,5.87c3.11.72,5.75-.12,8.3-.94a20.91,20.91,0,0,1,5.14-1.18,8.52,8.52,0,0,1,3-9.49l-6.28-2.09-.06,0-2.27-1.7Z"/><path class="cls-50" d="M56.68,58.88l-2,3.06a10.35,10.35,0,0,1,4.41-3.77c-.16.27-.64.89-.61,1.06a7.88,7.88,0,0,1,2.87-2.38,8.32,8.32,0,0,1,2.17-.69,17.54,17.54,0,0,1,2.61-.2l4.61-.13A2.66,2.66,0,0,0,69.14,54a5.8,5.8,0,0,0-2.52-.3,14.88,14.88,0,0,0-4.29.87,25.91,25.91,0,0,0-7.85,5,5,5,0,0,0-1,1c.46-.27.87-.63,1.34-.89.29-.16.59-.3.89-.43S56.6,59,56.68,58.88Z"/><polygon class="cls-51" points="62.09 44.78 63.95 49.48 61.42 50.95 60.36 45.3 62.09 44.78"/><path class="cls-1" d="M61.42,51.06h0a.16.16,0,0,1-.06-.08l-1.06-5.66a.09.09,0,0,1,.07-.11l1.73-.52a.1.1,0,0,1,.13.06l1.86,4.7a.11.11,0,0,1,0,.13L61.48,51Zm-.94-5.69,1,5.42,2.33-1.36L62,44.9Z"/><path class="cls-52" d="M66.46,54.86s-10.06,2.9-10.9,3.83-6.1,5.3-6.1,5.3S46,62.46,44.32,57.37c-1.3-3.87.18-11.7,1-15.19a10.16,10.16,0,0,1,1.92-4.08l.12-.14a18.08,18.08,0,0,1,1.76-1.9,11.81,11.81,0,0,1,1.08-.91,4,4,0,0,1,3.24-1c.21.06.09.07,1.39.73l.72.36c.44.21.81.39,1.11.52h0a6.84,6.84,0,0,1,.69.33c1.31.86,2.83,2.45,4.28,5.87L63,44.75,60.82,45.9s.24,2.64.68,4.77c.07.29.13.58.2.85a3.35,3.35,0,0,0,.82,1.76A29.48,29.48,0,0,0,66.46,54.86Z"/><path class="cls-53" d="M66.46,54.86s-10.06,2.9-10.9,3.83-6.1,5.3-6.1,5.3S46,62.46,44.32,57.37c-1.3-3.87.18-11.7,1-15.19a10.16,10.16,0,0,1,1.92-4.08l.12-.14a18.08,18.08,0,0,1,1.76-1.9,11.81,11.81,0,0,1,1.08-.91l1.06,2.22a7.62,7.62,0,0,0-3.4,4.44c-.79,2.87,1.64,3.88,1.89,4.33.64-.14,1.54.76,3.84,1.89a7.9,7.9,0,0,1,3.79,4.11l4.37-.62a4.24,4.24,0,0,0,.82,1.76A4.89,4.89,0,0,0,66.46,54.86Z"/><path class="cls-54" d="M61.43,50.28c0,.14,0,.27.07.39l-.18.64-1.56.32-2.67.57h0l-3,.63-.4-.44,0,0,0,0a5.63,5.63,0,0,1-.38-.45,3.83,3.83,0,0,1-.54-.75c-.33-.62,2.05-.72,1.31-2.74-.24-.66-.37-.95-.42-1.1-.11-.33.11,0,.33-1.2.3-1.69-2.23-3.82-3-4.91s.78-.8.78-.8c4.33-.6,4.26-3.54,3.86-5.17.44.21.81.39,1.11.52h0a6.84,6.84,0,0,1,.69.33c1.31.86,2.83,2.45,4.28,5.87L63,44.75,60.82,45.9l0,.23v0C60.91,46.82,61.11,48.64,61.43,50.28Z"/><path class="cls-55" d="M61.43,50.28a.56.56,0,0,1,0,.12,1.7,1.7,0,0,1-.67.74,4,4,0,0,1-1,.49,11,11,0,0,1-2.67.57h0c-.91.1-1.79.21-2.69.33a.88.88,0,0,1-.75-.14l0,0,0,0c-.06-.09-.09-.19-.16-.28a.52.52,0,0,0-.22-.17,3.83,3.83,0,0,1-.54-.75c-.33-.62,2.05-.72,1.31-2.74-.24-.66-.37-.95-.42-1.1.45.1.87.87,1.17,1.18s.62.53.92.35.27-.36.4-.56a2.92,2.92,0,0,1,.94-.67A2.94,2.94,0,0,0,58,46.09a9.15,9.15,0,0,0,.32-1.87l.42.05c.13-.66.28-1.34.44-2l.27-1.07c.45,1.65.91,3.31,1.37,5v0c.19,1.06.36,2.12.54,3.17A2.41,2.41,0,0,1,61.43,50.28Z"/><path class="cls-1" d="M49.46,64.19a.15.15,0,0,1-.09,0c-.14-.06-3.55-1.62-5.25-6.73-1.32-4,.22-12,1-15.3A10.12,10.12,0,0,1,47,38l0-.07.07-.09a22,22,0,0,1,1.77-1.91c1.77-1.65,3.29-2.32,4.53-2a1.17,1.17,0,0,1,.28.13c.14.08.42.25,1.14.62s1.21.59,1.63.78l.2.09,0,0h0a5.92,5.92,0,0,1,.63.31c1.7,1.12,3.13,3.07,4.35,6l1.37,2.77a.21.21,0,0,1-.08.28L61,46c.24,2.57.87,6.65,1.59,7.08a29.7,29.7,0,0,0,3.89,1.56.21.21,0,0,1,.15.2.23.23,0,0,1-.15.2c-4,1.16-10.22,3.12-10.81,3.77-.85.93-5.91,5.14-6.12,5.31A.18.18,0,0,1,49.46,64.19ZM52.8,34.27c-1.23,0-2.6,1-3.59,1.94a18.67,18.67,0,0,0-1.74,1.88l-.12.15a9.81,9.81,0,0,0-1.88,4c-.72,3.25-2.24,11.22-1,15.07a11.07,11.07,0,0,0,4.92,6.44c.74-.62,5.21-4.36,6-5.19s8-3,10.36-3.71a22.17,22.17,0,0,1-3.36-1.39c-1.15-.69-1.73-6.83-1.79-7.53a.21.21,0,0,1,.1-.21l2-1.05-1.28-2.61c-1.2-2.82-2.58-4.71-4.22-5.79-.06,0-.3-.15-.57-.27l-.09,0-.05,0-.15-.06c-.42-.2-1-.46-1.65-.79s-1-.54-1.16-.63l-.18-.09A2,2,0,0,0,52.8,34.27Z"/><path class="cls-56" d="M67.77,37.47A1.88,1.88,0,0,1,69.14,37C69.9,37.15,79.35,42,79.35,42l.71,1.42-1.25.33Z"/><path class="cls-56" d="M79.74,43.15,79.35,42s5-4.59,6-4.64a2.5,2.5,0,0,1,1.46.26l-2.45,3.59-4.21,2.54Z"/><path class="cls-57" d="M86.83,37.58c0,.15-5.65,12.35-7.6,16.54l-.29.63-.35.76-1.11.24-.9.19-1.41.31-.48.11-.91.2a13.15,13.15,0,0,1-2.16-.25,62.63,62.63,0,0,1-9.51-3l5.33-16,.33.15,6.5,3.09,5.31,2.52.16.07.16-.09.15-.09c.4-.23.82-.5,1.26-.8.9-.63,1.85-1.39,2.71-2.11,1.25-1,2.31-2,2.81-2.47Z"/><path class="cls-58" d="M86.83,37.58c0,.15-5.65,12.35-7.6,16.54l-.29.63-.35.76-1.11.24-.9.19,4.35-12.7.38-1.07c.9-.63,1.85-1.39,2.71-2.11,1.25-1,2.31-2,2.81-2.47Z"/><path class="cls-59" d="M80.05,43l-.19.56L75.17,56.25l-.48.11,4.78-13,.11-.31.16.07A2.48,2.48,0,0,0,80.05,43Z"/><path class="cls-60" d="M72.84,44.9a16.27,16.27,0,0,0-2.2,7.68A8.56,8.56,0,0,0,71,54.83c.11.41.47,1,.65,1.48-.67-.13-1.37-.29-2.09-.49a70.24,70.24,0,0,1-7.42-2.49l5.33-16,5.36,2.54,1.47.7C74.41,42.09,73.56,43.53,72.84,44.9Z"/><path class="cls-61" d="M71.23,43.75a18.16,18.16,0,0,0-2.48,8.62,9.79,9.79,0,0,0,.37,2.53,4.44,4.44,0,0,0,.41.92,70.24,70.24,0,0,1-7.42-2.49l5.33-16,5.36,2.54A12.53,12.53,0,0,1,71.23,43.75Z"/><path class="cls-62" d="M86.83,37.58c0,.15-5.65,12.35-7.6,16.54l-.29.63-.35.76-1.11.24,5.81-13.91L84,40.06c1.25-1,2.31-2,2.81-2.47Z"/><path class="cls-1" d="M73.8,56.66a13.44,13.44,0,0,1-2.2-.25,63,63,0,0,1-9.52-3A.1.1,0,0,1,62,53.3l5.32-16a.11.11,0,0,1,.06-.07h.08L79.73,43l.07,0,0,0,.09,0,.06,0c.37-.21.79-.48,1.25-.8C82,41.53,83,40.82,84,40c1.27-1.06,2.36-2.06,2.78-2.45a.09.09,0,0,1,.1-.06.12.12,0,0,1,.1.11.14.14,0,0,1,0,.06C86.51,38.71,79.4,54,79.33,54.17l-.29.62-.36.77a.11.11,0,0,1-.07.06ZM62.24,53.27a62.48,62.48,0,0,0,9.4,2.94,11.8,11.8,0,0,0,2.14.24l4.73-1,.34-.71.29-.63C81.05,50,85.6,40.15,86.56,38c-.54.49-1.44,1.31-2.47,2.16s-1.92,1.55-2.72,2.11q-.7.48-1.26.81l-.07,0-.1.06,0,0-.1.06a.12.12,0,0,1-.1,0l-.16-.08-12-5.71Z"/><path class="cls-63" d="M84.6,44.05c-.28-.23-.53-.43-.79-.34a.58.58,0,0,0-.36.46.66.66,0,0,0,.22.55.49.49,0,0,0-.49.85.68.68,0,0,0-.57.42.69.69,0,0,0,.14.7.36.36,0,0,0-.46.16.57.57,0,0,0,0,.53c.17.36.8.49,1,.25s0-.63-.06-.65a.69.69,0,0,0,.58-.41.77.77,0,0,0-.07-.65.45.45,0,0,0,.63-.13.53.53,0,0,0,0-.53c.33.1.58.1.75-.1a.58.58,0,0,0,.11-.26C85.19,44.53,84.82,44.23,84.6,44.05Z"/><path class="cls-1" d="M82.92,47.86h-.1a.87.87,0,0,1-.67-.43.69.69,0,0,1,0-.62.54.54,0,0,1,.35-.26.76.76,0,0,1,0-.59.8.8,0,0,1,.46-.44.66.66,0,0,1-.12-.27.59.59,0,0,1,.11-.45.55.55,0,0,1,.46-.23.7.7,0,0,1-.07-.4.69.69,0,0,1,.42-.55c.32-.11.6.12.9.36h0l-.07.08.07-.08c.22.18.63.52.58.94a.62.62,0,0,1-.13.31.64.64,0,0,1-.65.19.67.67,0,0,1,0,.42.5.5,0,0,1-.3.25.62.62,0,0,1-.23,0,.77.77,0,0,1-.55,1,.66.66,0,0,1,0,.64A.53.53,0,0,1,82.92,47.86Zm-.27-1.13a.35.35,0,0,0-.27.17.51.51,0,0,0,0,.44.62.62,0,0,0,.5.3.4.4,0,0,0,.33-.07c.11-.14,0-.45-.07-.55a.08.08,0,0,1,0-.09.12.12,0,0,1,.08-.06.56.56,0,0,0,.49-.34.6.6,0,0,0-.06-.55.12.12,0,0,1,0-.13.11.11,0,0,1,.13,0,.42.42,0,0,0,.31,0,.3.3,0,0,0,.17-.14.38.38,0,0,0,0-.41.09.09,0,0,1,0-.12.11.11,0,0,1,.12-.05c.33.1.52.08.64-.07a.32.32,0,0,0,.08-.2c0-.31-.3-.59-.5-.76l.06-.08-.06.08h0c-.27-.21-.49-.39-.7-.32a.49.49,0,0,0-.29.38.52.52,0,0,0,.19.45.11.11,0,0,1,0,.14.11.11,0,0,1-.14,0,.41.41,0,0,0-.5.1.37.37,0,0,0-.06.29.39.39,0,0,0,.18.28.12.12,0,0,1,0,.11.09.09,0,0,1-.09.08.57.57,0,0,0-.48.36.55.55,0,0,0,.13.56.09.09,0,0,1,0,.13.11.11,0,0,1-.13,0Z"/><path class="cls-1" d="M84.29,45.36a.08.08,0,0,1-.07,0l-.62-.54a.11.11,0,0,1,.14-.16l.62.54a.12.12,0,0,1,0,.15A.11.11,0,0,1,84.29,45.36Z"/><path class="cls-1" d="M83.7,46l-.06,0-.52-.36a.1.1,0,0,1,0-.14.11.11,0,0,1,.15,0l.52.36a.1.1,0,0,1,0,.14A.1.1,0,0,1,83.7,46Z"/><path class="cls-1" d="M83.18,47.05l-.06,0-.52-.36a.1.1,0,0,1,0-.14.11.11,0,0,1,.15,0l.52.36a.1.1,0,0,1,0,.14A.1.1,0,0,1,83.18,47.05Z"/><path class="cls-1" d="M79.74,43.26h0l-.16-.08-11.82-5.6a.1.1,0,0,1,0-.08.08.08,0,0,1,0-.09,1.94,1.94,0,0,1,1.45-.46c.75.11,9.28,4.44,10.18,4.9.57-.52,5.06-4.58,6-4.63a2.55,2.55,0,0,1,1.53.29.1.1,0,0,1,0,.08.15.15,0,0,1,0,.09c-.42.38-1.51,1.39-2.81,2.47-1,.84-1.92,1.55-2.72,2.11q-.7.48-1.26.81l-.07,0-.1.06,0,0-.1.06ZM68,37.46,79.73,43l.07,0,0,0,.09,0,.06,0c.37-.21.79-.48,1.25-.8C82,41.53,83,40.82,84,40c1.2-1,2.23-1.93,2.7-2.37a2.76,2.76,0,0,0-1.29-.19c-.78,0-4.56,3.35-6,4.62a.1.1,0,0,1-.12,0c-3.26-1.66-9.59-4.82-10.18-4.9A1.68,1.68,0,0,0,68,37.46Z"/><path class="cls-64" d="M54.57,39.5a3.83,3.83,0,0,1-1.07-.13c-2-.47-3.58-2.25-4.43-3.31,1.23-1.15,2.89-2.32,4.32-1.92a6.56,6.56,0,0,1,.87.47l.52.26c.74.38,1.38.67,1.83.88h0C57.76,37.15,57.82,39.45,54.57,39.5Z"/><path class="cls-65" d="M54.57,39.5a7.36,7.36,0,0,1-1-.14,1.68,1.68,0,0,0,1.41-.48,2.89,2.89,0,0,0,.53-.62c.09-.15.16-.49.3-.61a1.91,1.91,0,0,1-1.66.54,4.09,4.09,0,0,1-1-.27,1.81,1.81,0,0,1-.66-.38s-.28-.53-.17-.51c.34.07.6.33,1,.16a1.48,1.48,0,0,0,.62-.79,5.84,5.84,0,0,0,.42-1.79l.52.26c.74.38,1.38.67,1.84.89a2.31,2.31,0,0,1,.45,2.68,2.44,2.44,0,0,1-1.61,1A4.44,4.44,0,0,1,54.57,39.5Z"/><path class="cls-66" d="M51.56,33.57a1.78,1.78,0,0,1-.45,1.74.45.45,0,0,0,0,.53,3.49,3.49,0,0,0,1.32,1.21,2.93,2.93,0,0,0,2,.26c.83-.29.18-1.39-.11-1.86a2.19,2.19,0,0,1,0-1.32C54.51,33.49,51.56,33.57,51.56,33.57Z"/><path class="cls-1" d="M53.79,37.49a3.43,3.43,0,0,1-1.44-.35A3.64,3.64,0,0,1,51,35.9a.56.56,0,0,1,0-.65,1.67,1.67,0,0,0,.43-1.64.09.09,0,0,1,0-.09.11.11,0,0,1,.09-.05c.4,0,2.43,0,2.77.42a.28.28,0,0,1,0,.28,1.75,1.75,0,0,0,0,1.08c.07.2.16.39.24.58s.19.42.27.64a.72.72,0,0,1-.44.93A1.87,1.87,0,0,1,53.79,37.49ZM51.7,33.67a2,2,0,0,1-.51,1.71.35.35,0,0,0,0,.41A3.49,3.49,0,0,0,52.45,37a2.81,2.81,0,0,0,1.86.25.53.53,0,0,0,.31-.68c-.07-.2-.16-.41-.25-.61a6.5,6.5,0,0,1-.25-.61,1.87,1.87,0,0,1,.05-1.21.09.09,0,0,0,0-.09C54,33.73,52.59,33.65,51.7,33.67Z"/><path class="cls-1" d="M54.5,39.6c-2.71,0-4.82-2.61-5.51-3.48A.1.1,0,0,1,49,36c1.73-1.62,3.22-2.27,4.42-1.94a.85.85,0,0,1,.26.12c.14.08.42.25,1.15.62s1.21.59,1.63.79l.19.09h0l0,0a2.62,2.62,0,0,1,.57,2.66c-.26.56-.94,1.22-2.7,1.25H54.5Zm-5.29-3.53C50,37,52,39.39,54.5,39.39h.07c1.31,0,2.18-.41,2.51-1.13a2.39,2.39,0,0,0-.53-2.42l-.18-.09c-.42-.19-1-.46-1.64-.79s-1-.53-1.16-.62a.6.6,0,0,0-.2-.1C52.26,33.94,50.83,34.57,49.21,36.07Z"/><path class="cls-63" d="M70.19,28.38a3.94,3.94,0,0,0,0,.9,4.33,4.33,0,0,1-2.13,3.79,9.55,9.55,0,0,1-3,1.4,21.5,21.5,0,0,1-7,.79h0A22.76,22.76,0,0,1,52,34.13a16.93,16.93,0,0,1-3.15-1.4,11.73,11.73,0,0,1-2.55-1.93,6.83,6.83,0,0,1-1.89-3.64c-.06-.47,0-1.82-.64-2a3.6,3.6,0,0,1-2.25-1.31,3.9,3.9,0,0,1-.33-3.82c.94-1.73,2.91-.8,3.45.75v0c0,.2.21,3.79,1.93,3.5a.09.09,0,0,0,.08-.1A2.87,2.87,0,0,1,49.12,21,25.64,25.64,0,0,0,60.7,14.26l0,0c.33-.1,4.35-1.4,5.25-4.33,0-.1.18-.09.17,0,0,1.46-.68,4.88-5.37,7.27h0L58.2,18.9s7.7-1.15,8.75-2.36a8.74,8.74,0,0,1-1.81,1.79,9.78,9.78,0,0,1-3.35,1.6,11.56,11.56,0,0,0,3.67-1.42l.24-.16,0,0a11.8,11.8,0,0,0,4.55-6.6.09.09,0,0,1,.18,0A7.33,7.33,0,0,0,72,15.38l.36.46s.54,1.25-1,6.39A24,24,0,0,0,70.19,28.38Z"/><path class="cls-67" d="M68.09,33.07a2.7,2.7,0,0,1-2.24-2,2.17,2.17,0,0,1,.24-1.6,3.16,3.16,0,0,1,2.22-1.16,3.58,3.58,0,0,1,1.34-.1,1.78,1.78,0,0,1,.54.21,3.94,3.94,0,0,0,0,.9A4.33,4.33,0,0,1,68.09,33.07Z"/><path class="cls-68" d="M71.37,22.23c-1.53,5.14-1.15,7.05-1.15,7.05s.44,3.55-5.13,5.19a21.5,21.5,0,0,1-7,.79c11.83-2.11,10.82-5.1,11-6.75.15-1.18-.53-1.18-.92-1.08A1.77,1.77,0,0,0,69.34,26a36.93,36.93,0,0,1,2.44-7A6.83,6.83,0,0,0,72,15.38l.36.46S72.9,17.09,71.37,22.23Z"/><path class="cls-69" d="M65.14,18.33a9.78,9.78,0,0,1-3.35,1.6,11.56,11.56,0,0,0,3.67-1.42l.24-.16a7,7,0,0,1-1.3.92c-2,1.09-4.38,1.16-6.63,1.57a10,10,0,0,0-2.94,1,5.67,5.67,0,0,0-2,1.36,2,2,0,0,0-.35,1.14c0,1.43,1.56,1.77,1.88,3.4A3.31,3.31,0,0,1,54,30.07c-.34.54-.5.52-1.36,1.45a3,3,0,0,0-.88,1.74,1.51,1.51,0,0,0,.22.87,16.93,16.93,0,0,1-3.15-1.4c-.19-.1-.38-.22-.57-.34a11.6,11.6,0,0,1-2-1.59,6.83,6.83,0,0,1-1.89-3.64c-.06-.47,0-1.82-.64-2a3.6,3.6,0,0,1-2.25-1.31l-.17-.26a3.9,3.9,0,0,1-.16-3.56c.94-1.73,2.92-.8,3.45.76a8.64,8.64,0,0,0,.26,1.7c.25,1,.76,2,1.76,1.79A2.87,2.87,0,0,1,49.12,21a25.6,25.6,0,0,0,11.59-6.78S65.08,13,66,9.87a.09.09,0,0,1,.17,0c0,1.45-.65,4.9-5.39,7.31L58.2,18.9s6.62-1,8.42-2.1a1.31,1.31,0,0,0,.33-.26A8.74,8.74,0,0,1,65.14,18.33Z"/><path class="cls-70" d="M66.62,16.8a7,7,0,0,1-1,.74C63.42,19,60.6,19,58,19.72A28.18,28.18,0,0,0,52.77,22a11,11,0,0,0-3.11,2.07,8.16,8.16,0,0,0-1.8,3.58,8.22,8.22,0,0,0-.19,3.59,5.27,5.27,0,0,0,.56,1.17,11.6,11.6,0,0,1-2-1.59,6.83,6.83,0,0,1-1.89-3.64c-.06-.47,0-1.82-.64-2a3.6,3.6,0,0,1-2.25-1.31l-.17-.26.12.09a1.84,1.84,0,0,0,1.86.29c.61-.3.93-1,1.47-1.41l.13.05c.26.93.74,1.85,1.65,1.69a.08.08,0,0,0,.07-.09A2.88,2.88,0,0,1,49.12,21,25.59,25.59,0,0,0,60.7,14.26l0,0c.3-.09,4.41-1.41,5.27-4.4a.08.08,0,0,1,.16,0c0,1.42-.62,4.91-5.38,7.34h0L58.2,18.9S64.82,17.91,66.62,16.8Z"/><path class="cls-1" d="M40.41,35.79a3.68,3.68,0,0,1-2.8-1.35,2.77,2.77,0,0,1-.28-.37l0,0h0c0-.06,0-.08-.06-.1a3.1,3.1,0,0,1-.37-1,2.89,2.89,0,0,1,0-.29,1.84,1.84,0,0,0-.28-.9,2,2,0,0,0-1-.52c-.51-.17-1.05-.35-1.23-.91a.21.21,0,0,1,.09-.24.2.2,0,0,1,.24,0A1.36,1.36,0,0,0,36,30.3,1.51,1.51,0,0,0,36.21,29a4.68,4.68,0,0,0-.43-1.2l-.1-.23a5.91,5.91,0,0,1-.59-3,3.12,3.12,0,0,1,.34-1.08,1.54,1.54,0,0,1,.08-.19,5,5,0,0,1,.64-.91.19.19,0,0,1,.17-.07,13.58,13.58,0,0,0,3.78-.25l.42-.07a.74.74,0,0,1,.43.1.24.24,0,0,1,.11.15,3.5,3.5,0,0,0,.58,1.44A3.39,3.39,0,0,0,43.77,25c.66.17.73,1.18.77,1.85,0,.12,0,.23,0,.31a6.75,6.75,0,0,0,1.84,3.52,11.63,11.63,0,0,0,2.5,1.89l.21.11a.22.22,0,0,1,.12.22.19.19,0,0,1-.17.17,9,9,0,0,1-3.66-.19.14.14,0,0,1,0,.06.2.2,0,0,1-.17.22l-.31,0a5.07,5.07,0,0,1-3.84-1l-.39-.36a1.14,1.14,0,0,0-.11-.11.74.74,0,0,0-.23-.17l-.06,0a.46.46,0,0,0-.35.06,1.17,1.17,0,0,0-.29.22A2.11,2.11,0,0,0,41,35.33a.21.21,0,0,1,0,.41A2.94,2.94,0,0,1,40.41,35.79Zm-2.75-2v0a2.3,2.3,0,0,0,.25.34,3.35,3.35,0,0,0,1.87,1.14,2.49,2.49,0,0,1-1-1.21,2.55,2.55,0,0,1,.55-2.62,1.57,1.57,0,0,1,.39-.3.85.85,0,0,1,.65-.09.39.39,0,0,1,.13.06,1,1,0,0,1,.32.23l.13.12q.18.18.36.33a4.64,4.64,0,0,0,3.36,1,.5.5,0,0,1,0-.38A.22.22,0,0,1,45,32.3a8.45,8.45,0,0,0,3.39.42A12.57,12.57,0,0,1,46.1,31a7.16,7.16,0,0,1-2-3.76,3.11,3.11,0,0,1,0-.34c0-.48-.09-1.38-.46-1.47A3.77,3.77,0,0,1,41.31,24a3.84,3.84,0,0,1-.64-1.5l-.1,0-.4.07a13.86,13.86,0,0,1-3.78.26,4.57,4.57,0,0,0-.51.76l-.07.15a2.87,2.87,0,0,0-.31,1,5.49,5.49,0,0,0,.56,2.75l.1.23a5.15,5.15,0,0,1,.46,1.3,1.92,1.92,0,0,1-.4,1.67l-.08.05a1.71,1.71,0,0,1-.49.1l.08,0a2.4,2.4,0,0,1,1.15.65,2.12,2.12,0,0,1,.36,1.1,2.36,2.36,0,0,0,0,.28,2.51,2.51,0,0,0,.33.9Z"/><path class="cls-1" d="M46.33,24.54a1.23,1.23,0,0,1-.79-.28c-1-.8-1.14-3.1-1.16-3.4a2.2,2.2,0,0,0-1.74-1.53,1.36,1.36,0,0,0-1.32.82,3.45,3.45,0,0,0-.23.59,3.74,3.74,0,0,0,0,1.57.22.22,0,0,1-.31.22c-.1-.06-.17-.07-.18-.06l-.4.07a14,14,0,0,1-3.89.25,7.05,7.05,0,0,1-2-.48,5.45,5.45,0,0,1-2.6-2.14c-1.94-3,2.88-8.72,7.27-13,.7-.68,1.27-1.22,1.64-1.56s.6-.55.93-.83a15.71,15.71,0,0,1,2.92-1.93h0A29.53,29.53,0,0,1,54,.17a17.51,17.51,0,0,1,7.38.56,21.82,21.82,0,0,1,2.11.75h0l0,0a21.71,21.71,0,0,1,2.64,1.33c.79.49,1.31.87,1.62,1.1l0,0,.34.26c3-.49,5.15,4.68,5.24,4.9a.21.21,0,0,1,0,.19.21.21,0,0,1-.15.1c-.11,0-.44.11-.5.29s.13.48.5.83c1.29,1.17,2.9,4.53,3.21,5.19a.2.2,0,0,1-.06.25.21.21,0,0,1-.25,0l-1-.73c1.42,3.2,3.67,3.25,3.77,3.25a.22.22,0,0,1,.19.12.22.22,0,0,1,0,.22,1.49,1.49,0,0,1-1.18.59h0a4.77,4.77,0,0,1-2.77-1.55c.49,2.2-.42,3.31-1.32,3.87a5.22,5.22,0,0,1-2.43.67.21.21,0,0,1-.19-.27c1.35-4.58,1-6,1-6.23a4.7,4.7,0,0,1-.34-.44,7.88,7.88,0,0,1-1.51-3.23,11.87,11.87,0,0,1-4.48,6.22l0,0h0l-.15.1-.09.06a11.65,11.65,0,0,1-3.74,1.45.21.21,0,0,1-.09-.41A9.57,9.57,0,0,0,65,18.17a8.4,8.4,0,0,0,1-.83,46.58,46.58,0,0,1-7.75,1.76A.2.2,0,0,1,58,19a.21.21,0,0,1,.08-.25L60.66,17c3.9-2,5-4.69,5.21-6.31-1.26,2.43-4.52,3.54-5,3.71a26.06,26.06,0,0,1-11.66,6.8,2.66,2.66,0,0,0-2.36,3,.3.3,0,0,1-.25.32A.93.93,0,0,1,46.33,24.54Zm-1.55-3.81a.29.29,0,0,1,0,.09s.11,2.4,1,3.12a.87.87,0,0,0,.59.19,3.07,3.07,0,0,1,2.69-3.3,25.6,25.6,0,0,0,11.46-6.7l.09-.07c.22-.07,4.28-1.35,5.15-4.21a.3.3,0,0,1,.35-.21.29.29,0,0,1,.23.3c0,1.41-.66,5-5.49,7.44l-1.76,1.16c2.52-.42,7-1.31,7.68-2.13a.21.21,0,0,1,.32.26,8.8,8.8,0,0,1-1,1.16,12.12,12.12,0,0,0,4-6.17.29.29,0,0,1,.31-.21.3.3,0,0,1,.26.27,7.32,7.32,0,0,0,1.51,3.54l.35.45,0,0c0,.05.53,1.33-.89,6.25a4.74,4.74,0,0,0,1.92-.59c1.29-.79,1.59-2.21.91-4.21a.2.2,0,0,1,.1-.24.21.21,0,0,1,.26,0s1.71,2,3,2h0a1.06,1.06,0,0,0,.55-.15c-.89-.19-2.81-.95-4-4.12a.19.19,0,0,1,.07-.24.2.2,0,0,1,.24,0l.93.66A18.78,18.78,0,0,0,73,10.85c-.52-.48-.73-.89-.62-1.25a.9.9,0,0,1,.58-.52c-.44-1-2.4-4.91-4.78-4.41a.23.23,0,0,1-.18,0s-.13-.12-.39-.32l.11-.17-.15.14c-.3-.22-.82-.6-1.57-1.06a19.75,19.75,0,0,0-2.64-1.33l-.05,0a19.35,19.35,0,0,0-2-.72A17,17,0,0,0,54.05.58a28.78,28.78,0,0,0-9.36,2.65l0,0a15,15,0,0,0-2.81,1.86c-.33.27-.63.54-.92.81S40,6.8,39.29,7.48c-6,5.88-8.6,10.3-7.21,12.47a5.09,5.09,0,0,0,2.41,2,7,7,0,0,0,1.84.45,13.57,13.57,0,0,0,3.77-.25l.42-.07h.08a4.14,4.14,0,0,1,.09-1.42A3.71,3.71,0,0,1,41,20a1.76,1.76,0,0,1,1.71-1,2.65,2.65,0,0,1,2.11,1.81Zm25.71-9h0Zm-.24,0ZM66,9.92h0Z"/><path class="cls-1" d="M59.15,35.49l-1.07,0a23.31,23.31,0,0,1-6.19-1.14,17,17,0,0,1-3-1.3l-.2-.1a12.59,12.59,0,0,1-2.62-2,7.16,7.16,0,0,1-2-3.76,3.11,3.11,0,0,1,0-.34c0-.48-.09-1.38-.46-1.47A3.77,3.77,0,0,1,41.31,24a3.87,3.87,0,0,1-.66-1.61,4.1,4.1,0,0,1,0-1.75A3.71,3.71,0,0,1,41,20a1.76,1.76,0,0,1,1.71-1,2.65,2.65,0,0,1,2.11,1.81h0a.29.29,0,0,1,0,.09s.11,2.4,1,3.12a.84.84,0,0,0,.59.19,3.07,3.07,0,0,1,2.69-3.3,25.6,25.6,0,0,0,11.46-6.7l.09-.07c.22-.07,4.28-1.35,5.15-4.21a.3.3,0,0,1,.35-.21.29.29,0,0,1,.23.3c0,1.41-.66,5-5.49,7.44l-1.76,1.16c2.52-.42,7-1.31,7.68-2.13a.21.21,0,0,1,.32.26,8.8,8.8,0,0,1-1,1.16,12.12,12.12,0,0,0,4-6.17.29.29,0,0,1,.31-.21.3.3,0,0,1,.26.27,7.32,7.32,0,0,0,1.51,3.54l.35.45,0,0c0,.05.55,1.38-1,6.53a23.15,23.15,0,0,0-1.17,6.09h0a4,4,0,0,0,0,.84c0,.11.25,2.25-2.21,4a9.77,9.77,0,0,1-3.06,1.43A21.43,21.43,0,0,1,59.15,35.49ZM42.53,19.33a1.37,1.37,0,0,0-1.21.82,3.45,3.45,0,0,0-.23.59,3.74,3.74,0,0,0,0,1.57,3.5,3.5,0,0,0,.58,1.44A3.39,3.39,0,0,0,43.77,25c.66.17.73,1.18.77,1.85,0,.12,0,.23,0,.31a6.75,6.75,0,0,0,1.84,3.52,11.63,11.63,0,0,0,2.5,1.89l.21.11A17,17,0,0,0,52,33.94a22.48,22.48,0,0,0,6.07,1.11A21.39,21.39,0,0,0,65,34.27,9.23,9.23,0,0,0,68,32.91a4.15,4.15,0,0,0,2-3.61h0a4.42,4.42,0,0,1,0-.92,24,24,0,0,1,1.2-6.21c1.35-4.58,1-6,1-6.23a4.7,4.7,0,0,1-.34-.44,7.88,7.88,0,0,1-1.51-3.23,11.87,11.87,0,0,1-4.48,6.22l0,0h0l-.15.1-.09.06a11.65,11.65,0,0,1-3.74,1.45.21.21,0,0,1-.09-.41A9.57,9.57,0,0,0,65,18.17a8.4,8.4,0,0,0,1-.83,46.58,46.58,0,0,1-7.75,1.76A.2.2,0,0,1,58,19a.21.21,0,0,1,.08-.25L60.66,17c3.9-2,5-4.69,5.21-6.31-1.26,2.43-4.52,3.54-5,3.71a26.06,26.06,0,0,1-11.66,6.8,2.65,2.65,0,0,0-2.36,3,.3.3,0,0,1-.25.32,1.21,1.21,0,0,1-1-.26c-1-.8-1.14-3.1-1.16-3.4a2.2,2.2,0,0,0-1.74-1.53Zm27.66,9.05Zm.3-16.6h0Zm-.24,0ZM66,9.92h0Z"/><path class="cls-71" d="M44.86,11.74c0,.1,0,.21-.06.31A3.25,3.25,0,0,1,40,14.31a5,5,0,0,1-1.9-2,4.49,4.49,0,0,1-.42-2.71,1.87,1.87,0,0,1,.08-.32A2.29,2.29,0,0,1,39.6,7.44a3.56,3.56,0,0,1,1.95.86C42.73,9.09,45.18,9.59,44.86,11.74Z"/><path class="cls-72" d="M43.36,11.54a.37.37,0,0,0-.09.16.16.16,0,0,0,.18.17c.08,0,.15-.09.21-.16A3.42,3.42,0,0,1,42.93,13a.32.32,0,0,0,.35,0,.87.87,0,0,0,.3-.25,3.09,3.09,0,0,0,.71-1.94C43.9,10.67,43.6,11.25,43.36,11.54Z"/><path class="cls-72" d="M41.51,9.72c-.07.14.05.28.21.32a1.42,1.42,0,0,0,.58,0,4,4,0,0,1,.77,0c.17,0,.32.1.48.13s.29-.13,0-.28c-.54-.31-1.43-.69-2-.26A.28.28,0,0,0,41.51,9.72Z"/><path class="cls-72" d="M42.18,11.05a.13.13,0,0,0,0,.12c.09.2.55-.05.67-.13.36-.25.74-.47,1.09-.74-.13-.1-.18,0-.28.07a3.27,3.27,0,0,1-.51.22C42.89,10.69,42.35,10.75,42.18,11.05Z"/><path class="cls-71" d="M50.55,9.72c0,1-.54,2-1.3,2.17s-1.51-.47-2.3-.57a8,8,0,0,0-1,0h-.06c-.93,0-1.51-.73-1.1-1.84S45.53,7,46.06,5.79a5.46,5.46,0,0,1,.49-.89,1.65,1.65,0,0,1,.71-.63A1.54,1.54,0,0,1,49,4.9a6.3,6.3,0,0,1,1,2A7.59,7.59,0,0,1,50.55,9.72Z"/><path class="cls-72" d="M46.16,7.38a7.46,7.46,0,0,1-.6,1.9,8.39,8.39,0,0,1,.93-.92s-1.18,1.33-1,1.6,1.45-.54,1.48-.46-1.18.77-1.12,1,1.34-.15,1.35-.07-.16.14-.44.2-2.41.84-1.94-.44c.17-.46.41-.89.59-1.34a5.4,5.4,0,0,1,.36-.77C45.8,7.94,46.11,7.34,46.16,7.38Z"/><path class="cls-73" d="M45.52,11.51a.76.76,0,0,1-.29.3.8.8,0,0,1-.88,0,2.14,2.14,0,0,1-.74-1.29,2.39,2.39,0,0,1-.06-1A1,1,0,0,1,43.74,9a.61.61,0,0,1,.33-.27c.56-.17.87.41,1.1.9S45.88,10.83,45.52,11.51Z"/><path class="cls-71" d="M45.23,11.81a.8.8,0,0,1-.88,0,2.14,2.14,0,0,1-.74-1.29,2.39,2.39,0,0,1-.06-1A1,1,0,0,1,43.74,9c0,.05,0,.1,0,.15a2.33,2.33,0,0,0,.18,1.36,2.44,2.44,0,0,0,1.27,1.26Z"/><path class="cls-73" d="M50.55,9.72c0,1-.54,2-1.3,2.17s-1.51-.47-2.3-.57a8,8,0,0,0-1,0h-.06c.24-1,1.89-.28,2.34-.2a1.41,1.41,0,0,0,1.22-.31,1.27,1.27,0,0,0,.25-1.41A3.75,3.75,0,0,0,49.37,9a2.65,2.65,0,0,1-.32-1.14,5.74,5.74,0,0,0-.53-1.93,1.53,1.53,0,0,0-1.35-1c-.22,0-.47.09-.62-.07a1.65,1.65,0,0,1,.71-.63A1.54,1.54,0,0,1,49,4.9a6.3,6.3,0,0,1,1,2A7.59,7.59,0,0,1,50.55,9.72Z"/><path d="M41.6,14.84a3.3,3.3,0,0,1-1.67-.45A5.06,5.06,0,0,1,38,12.34a4.54,4.54,0,0,1-.43-2.76,3.38,3.38,0,0,1,.08-.34,2.37,2.37,0,0,1,2-1.89h.06a3.51,3.51,0,0,1,1.84.8l.1.07a10.16,10.16,0,0,0,.95.52,9,9,0,0,1,1.06.57.07.07,0,0,1,0,.1l0,.07a3.36,3.36,0,0,0,0,.36,2.45,2.45,0,0,0,0,.27v0l0,.11,0,.15v.06a.11.11,0,0,1,0,0c0,.15.09.3.15.46a1.93,1.93,0,0,0,.37.59l.18.15a.77.77,0,0,0,.42.13.09.09,0,0,1,.08,0,.11.11,0,0,1,0,.08.09.09,0,0,0,0,0,.25.25,0,0,0,0,.07,3.56,3.56,0,0,1-2,2.51A3.21,3.21,0,0,1,41.6,14.84Zm-1.94-7.3h0a2.17,2.17,0,0,0-1.78,1.75c0,.11,0,.21-.08.32a4.4,4.4,0,0,0,.41,2.65,4.91,4.91,0,0,0,1.87,2,3.1,3.1,0,0,0,2.75.19A3.39,3.39,0,0,0,44.71,12v0a.89.89,0,0,1-.41-.15l-.2-.17a2.21,2.21,0,0,1-.41-.64,3.6,3.6,0,0,1-.16-.5v0l0-.09c0-.06,0-.1,0-.15a.5.5,0,0,1,0-.12v0a2.83,2.83,0,0,1,0-.29,1.54,1.54,0,0,1,0-.4h0c-.32-.2-.66-.36-1-.53a7.85,7.85,0,0,1-1-.52l-.11-.07A3.32,3.32,0,0,0,39.66,7.54Z"/><path d="M49,12a3,3,0,0,1-1.11-.31,3.05,3.05,0,0,0-.9-.29,3.11,3.11,0,0,0-.61,0l-.36,0h-.06a1.18,1.18,0,0,1-.34,0s0,0-.06,0a.11.11,0,0,1,0-.08,1,1,0,0,0,.05-.4,2.65,2.65,0,0,0-.33-.94l-.14-.28,0,0L45,9.5a2.71,2.71,0,0,0-.16-.27.12.12,0,0,1,0-.08c.14-.41.27-.83.39-1.23A17.41,17.41,0,0,1,46,5.75a5.13,5.13,0,0,1,.5-.9,1.78,1.78,0,0,1,.74-.67,1.63,1.63,0,0,1,1.85.66,6.6,6.6,0,0,1,1,2.06,7.59,7.59,0,0,1,.56,2.83h0c0,1-.54,2-1.37,2.25A1.75,1.75,0,0,1,49,12Zm-2.21-.8H47a3.71,3.71,0,0,1,1,.31,2.1,2.1,0,0,0,1.31.26c.74-.19,1.18-1.19,1.23-2.08A7.67,7.67,0,0,0,49.91,7a6.66,6.66,0,0,0-1-2,1.49,1.49,0,0,0-1.64-.61,1.54,1.54,0,0,0-.66.6,5.52,5.52,0,0,0-.48.88A16.4,16.4,0,0,0,45.41,8c-.12.39-.24.8-.38,1.2a1.57,1.57,0,0,1,.14.25.61.61,0,0,1,.07.14l0,0c0,.09.09.18.13.28a2.65,2.65,0,0,1,.35,1,1.14,1.14,0,0,1,0,.37H46l.34,0Zm3.81-1.5Z"/><path d="M44.83,12a1,1,0,0,1-.53-.16l-.2-.17a2.21,2.21,0,0,1-.41-.64,3.6,3.6,0,0,1-.16-.5v0l0-.09c0-.06,0-.1,0-.15a.5.5,0,0,1,0-.12v0a2.83,2.83,0,0,1,0-.29,1.54,1.54,0,0,1,0-.4l0-.08a1.14,1.14,0,0,1,.19-.42.72.72,0,0,1,.37-.3c.37-.12.7,0,1,.49a1.71,1.71,0,0,1,.16.29.61.61,0,0,1,.07.14l0,0c0,.09.09.18.13.28a2.65,2.65,0,0,1,.35,1,.93.93,0,0,1-.06.47.76.76,0,0,1-.08.2.81.81,0,0,1-.32.34A.84.84,0,0,1,44.83,12Zm-.56-3.23-.17,0a.51.51,0,0,0-.28.23.9.9,0,0,0-.16.36l0,.07a3.36,3.36,0,0,0,0,.36,2.45,2.45,0,0,0,0,.27v0l0,.11,0,.15v.06a.11.11,0,0,1,0,0c0,.15.09.3.15.46a1.93,1.93,0,0,0,.37.59l.18.15a.71.71,0,0,0,.78,0,.66.66,0,0,0,.25-.27,1,1,0,0,0,.07-.17,1,1,0,0,0,.05-.4h0a2.65,2.65,0,0,0-.33-.94l-.14-.28,0,0L45,9.5a2.71,2.71,0,0,0-.16-.27C44.67,8.93,44.48,8.79,44.27,8.79Z"/><path class="cls-74" d="M57.55,20.08a2.89,2.89,0,0,1,1.21.09c.58.21.72.72.08.95a9.18,9.18,0,0,1-2.1.07,23.77,23.77,0,0,1-2.72.46A5.5,5.5,0,0,1,57.55,20.08Z"/><path class="cls-74" d="M69.09,21.73a1,1,0,0,1-.61-.13c-.35-.23-.22-.54.11-.68a1.48,1.48,0,0,1,1.18.15c.3.18.77.58.8.93A9.7,9.7,0,0,0,69.09,21.73Z"/><path class="cls-75" d="M58.38,25a2.71,2.71,0,0,1,0,.29s0,0,0,.07,0,.2,0,.29a3.34,3.34,0,0,1-1.24,1.89,4.54,4.54,0,0,1-.81-.19h0a4.34,4.34,0,0,1-1.79-1.2l0,0c-.25-.46-.51-.92-.75-1.39-.06-.11-.13-.22-.19-.34a0,0,0,0,1,0,0h.14a13.19,13.19,0,0,1,2,.07,14.2,14.2,0,0,1,2.15.41Z"/><path class="cls-56" d="M58.36,25.33c0,.1,0,.2,0,.29l0,0-4.59-.9c-.06-.11-.13-.22-.19-.34l.13,0h0a13.19,13.19,0,0,1,2,.07,14.2,14.2,0,0,1,2.15.41,2.39,2.39,0,0,1,.46.44Z"/><path class="cls-76" d="M58.38,25a1.58,1.58,0,0,1,0,.31,4.2,4.2,0,0,1-.29,1.59c-.37.8-1.07.76-1.81.46h0a1,1,0,0,1-.53-.55.19.19,0,0,0,0-.07,5.45,5.45,0,0,1-.05-2.31,7.75,7.75,0,0,1,1.52.19A9,9,0,0,1,58.38,25Z"/><path class="cls-77" d="M58.08,26.86c-.37.8-1.07.76-1.81.46h0a1,1,0,0,1-.53-.55.19.19,0,0,0,0-.07.8.8,0,0,1,0-.53.48.48,0,0,1,.61-.17.79.79,0,0,1,.4.54.41.41,0,0,1,.27-.48.52.52,0,0,1,.54.2.65.65,0,0,1,.06.59.32.32,0,0,1,.45,0A.1.1,0,0,1,58.08,26.86Z"/><path class="cls-78" d="M67,25a4.67,4.67,0,0,1,3.43-.58A3.92,3.92,0,0,1,70,25.87a3.6,3.6,0,0,1-2.2,1.78,1.25,1.25,0,0,1-1,0C66.3,27.3,66.36,26.24,67,25Z"/><path class="cls-76" d="M69.17,26.65l0,.05a1.27,1.27,0,0,1-.26.36,1.37,1.37,0,0,1-.25.23,1.48,1.48,0,0,1-.84.25,1,1,0,0,1-.41-.14.5.5,0,0,1-.21-.36.87.87,0,0,1,0-.28,2.91,2.91,0,0,1,0-.78.34.34,0,0,1,0-.14,1.58,1.58,0,0,1,.32-.78,1,1,0,0,1,.18-.17,1.11,1.11,0,0,1,1.43.24A1.44,1.44,0,0,1,69.17,26.65Z"/><path class="cls-79" d="M69.5,26.64a5,5,0,0,0,.55-1.71,4.56,4.56,0,0,0-3.26.47A3.36,3.36,0,0,1,67,25a4.68,4.68,0,0,1,3.44-.59A4.94,4.94,0,0,1,69.5,26.64Z"/><path class="cls-77" d="M69.14,26.7a1.27,1.27,0,0,1-.26.36,1.37,1.37,0,0,1-.25.23,1.48,1.48,0,0,1-.84.25,1,1,0,0,1-.41-.14.5.5,0,0,1-.21-.36.87.87,0,0,1,0-.28.63.63,0,0,1,.21-.35.27.27,0,0,1,.19-.08.22.22,0,0,1,.19.15.51.51,0,0,1,.05.25.63.63,0,0,1,.17-.37.39.39,0,0,1,.37-.11.29.29,0,0,1,.2.32.4.4,0,0,1,.38-.05A.44.44,0,0,1,69.14,26.7Z"/><path class="cls-80" d="M58.38,25a7.41,7.41,0,0,0-5.28-.65h0l1.37,1.81-.9-1.69a11.81,11.81,0,0,1,4.81.53Z"/><path class="cls-81" d="M64,28.84a1,1,0,0,1-.43,1,1.05,1.05,0,0,1-1.12,0,.68.68,0,0,1-.34-.57,1,1,0,0,1,.36-.61c.21-.21.55-.6.88-.51A.92.92,0,0,1,64,28.84Z"/><path class="cls-82" d="M63.58,29.86A1,1,0,0,1,63,30a.91.91,0,0,0,.47-.16,1,1,0,0,0,.44-1,.93.93,0,0,0-.66-.69h0a.37.37,0,0,1,.18,0,.93.93,0,0,1,.65.69A1,1,0,0,1,63.58,29.86Z"/><path class="cls-68" d="M68.22,27.43a.82.82,0,0,1-.2.06A1,1,0,0,1,68.22,27.43Z"/><path class="cls-70" d="M42.54,21a1.16,1.16,0,0,1,.81.6,2.53,2.53,0,0,1,.31,1.95A2.2,2.2,0,0,0,42.71,22a2,2,0,0,0-1.23-.15A1,1,0,0,1,42.54,21Z"/><path class="cls-67" d="M57.45,31.67a4.88,4.88,0,0,1-3.78.42c-1.45-.42-3.94-2.59-2.47-4.17a2,2,0,0,1,1.3-.59,13.91,13.91,0,0,1,1.82.07,6.78,6.78,0,0,1,2.1.33c1.08.39,2.25,1.5,1.9,2.75A2.08,2.08,0,0,1,57.45,31.67Z"/><path class="cls-79" d="M60.54,31.61a4.26,4.26,0,0,0,3.1.15,2.68,2.68,0,0,1-3.1-.15Z"/><path class="cls-63" d="M69.19,47a17.1,17.1,0,0,0-2.67,1.07,1.71,1.71,0,0,0,1,.06,1,1,0,0,1,.91.28c-.28.34-.84.11-1.25.27s-.54.58-.73.94a3.45,3.45,0,0,1-1.82,1.65,2.09,2.09,0,0,1-.43.11l-.22.23c-2.43,2.24-9.91,6.08-13.21,5-3.46-1.1-4.35-10.18-4.35-10.18,1.07.68,3.75.24,4.69.07l.33-.07c.1.73.22,1.36.34,1.93A9.89,9.89,0,0,0,53.1,52c4.2-.11,6.71-1,8.17-1.78l.37-.21,0,0a4.23,4.23,0,0,0,1.49-1.37c.22-.43.51-.84.73-1.28a6.7,6.7,0,0,1,2.79-2.86.33.33,0,0,1,.27,0c.17.09.06.34-.06.48-.51.59-1,1.18-1.54,1.78L67.6,45.6a1,1,0,0,1,.44-.13c.15,0,.22.11.24.26s0,.24-.07.32a1.42,1.42,0,0,1-.36.14,3.2,3.2,0,0,0-1.52,1l2.18-.53a.79.79,0,0,1,.48,0A.3.3,0,0,1,69.19,47Z"/><path class="cls-51" d="M64,51.63c-2.43,2.24-9.91,6.08-13.21,5-3.46-1.1-4.35-10.18-4.35-10.18,1.31.82,5,0,5,0,.1.73.22,1.36.34,1.93l-3,.37s.28,6.57,1.54,7,9.6-1.08,13.62-4.12A.08.08,0,0,1,64,51.63Z"/><path class="cls-51" d="M61.64,50c-2.41,2.41-9.45,2.58-10.22,2.37s-.6-1.81-.38-3a13.65,13.65,0,0,0,.05-2.78l.33-.07c.1.73.22,1.36.34,1.93A9.89,9.89,0,0,0,53.1,52c4.2-.11,6.71-1,8.17-1.78Z"/><path class="cls-1" d="M69,46.71c-.59-.23-1.9.48-2.59.59-.1,0-.21-.08-.12-.19a3.31,3.31,0,0,1,1.25-.88L68,46c.19-.06.21-.13.16-.29s-.6,0-.83.08l-1.94,1a.1.1,0,0,1-.13-.15l1.58-1.86c.1-.17.09-.29,0-.23a6.61,6.61,0,0,0-2.9,3c-1.84,4-6.94,4.36-10.8,4.59-1.19-1.55-1.42-3.68-1.78-5.56l.12.09c-1.66.26-3.5.71-5.1,0l.16-.1c.31,1.06.43,2.14.66,3.21.63,2.43,1.2,5.61,3.66,6.78,2.66.57,5.33-.65,7.76-1.69a23.38,23.38,0,0,0,5.59-3.48,3.23,3.23,0,0,0,2.09-1.56c.26-.55.6-1.29,1.35-1.22.2,0,.63.11.62-.12s-.49-.15-.77-.15l-.95,0a.09.09,0,0,1-.09-.11,9.08,9.08,0,0,1,2.29-1c.23-.08.44-.16.26-.38Zm.15-.15c.51.67-.63.77-1.1,1s-1,.41-1.45.65l0-.2.91.06c.33,0,.71-.08,1,.25s-.17.46-.33.45c-.44,0-.93-.1-1.21.3a6.45,6.45,0,0,1-1,1.55,3.16,3.16,0,0,1-1.6.87,22.09,22.09,0,0,1-5.54,3.63c-2.64,1.08-6,2.87-8.8,1.37a7.57,7.57,0,0,1-2.3-3.5,19.71,19.71,0,0,1-1.33-6.47.11.11,0,0,1,.12-.1c1.54.69,3.38.26,5,0a.1.1,0,0,1,.12.09,17.87,17.87,0,0,0,1.57,5.38c3.18-.15,6.67-.49,9.25-2.52,1.47-1.42,1.82-3.62,3.83-4.71a5,5,0,0,1,.56-.31c.35-.14.51.27.3.53l-1.6,1.88-.13-.16,2-1a1.57,1.57,0,0,1,.85-.2.42.42,0,0,1,.25.59.43.43,0,0,1-.26.2l-.49.23a3,3,0,0,0-1.1.72l-.09.1v0c0-.06,0-.08,0-.1s0,0,0,0c.54-.13,1.07-.35,1.61-.49s.77-.32,1.15,0Z"/><path class="cls-83" d="M51.86,46.83c-4.53,1.64-7.38-.57-7.38-.57,1.48-9.45,3.76-8.83,5.17-7.51a9,9,0,0,1,.68.75c1,1.19,1.37,5.27,1.49,6.77C51.85,46.62,51.86,46.83,51.86,46.83Z"/><path class="cls-53" d="M51.86,46.83c-4.53,1.64-7.38-.57-7.38-.57,1.48-9.45,3.76-8.83,5.17-7.51a3.44,3.44,0,0,0-2.43,2.55,14.84,14.84,0,0,0-.5,4.87c.14.48,3.63.49,5.1.1C51.85,46.62,51.86,46.83,51.86,46.83Z"/><path class="cls-1" d="M50.33,39.5c.86,1,1,2.34,1.25,3.55s.39,2.5.49,3.76a.2.2,0,0,1-.14.21,8.48,8.48,0,0,1-7.58-.6,14.6,14.6,0,0,1,.9-4.93c.55-1.25,1.18-3.77,2.93-3.51a0,0,0,0,1,0,.06c-2.61.21-3.38,6.12-3.48,8.24,0,0-.09-.19-.08-.18a8.1,8.1,0,0,0,7.18.53l-.14.21c-.28-2.45-.23-5.09-1.32-7.34Z"/><path class="cls-1" d="M60.62,46,59.26,40.4,61,45.84a.21.21,0,1,1-.4.11Z"/><path class="cls-50" d="M55.51,64.67s3.18.94,4.85.29,3.27-1.66,3.84-1.51a11.82,11.82,0,0,1,1.39.54,3.34,3.34,0,0,0-2.62.28C61.7,65,59.92,66.73,55.51,64.67Z"/><path class="cls-36" d="M76.28,15.83l-1.36-1c-.24-.45-.45-.9-.67-1.25-1-1.57-3-2.4-3.81-4.12l1.45,1.09c.69.54,1.4,1.06,2,1.65a11.18,11.18,0,0,1,.92.9C75.62,14.41,76.22,15.7,76.28,15.83Z"/><path class="cls-32" d="M41.24,28.87a7.82,7.82,0,0,1-.57,1A2.3,2.3,0,0,0,40.39,31a2.44,2.44,0,0,0,.07.38l-.1,0a.61.61,0,0,0-.49.08,1,1,0,0,1,0-.73,12.75,12.75,0,0,1,.7-1.1,2.71,2.71,0,0,0,.2-1.86,7.55,7.55,0,0,0-.69-1.78,5.86,5.86,0,0,1,1,1.35A2,2,0,0,1,41.24,28.87Z"/><path class="cls-32" d="M41.05,30.41a2.45,2.45,0,0,0,.13,1.11c0,.14.14.39,0,.48l-.37-.34a.8.8,0,0,0-.13-.13A2.27,2.27,0,0,1,41,30.25a10.42,10.42,0,0,1,.67-.82,1.93,1.93,0,0,0,.22-.36,2.3,2.3,0,0,1-.23.4A2.83,2.83,0,0,0,41.05,30.41Z"/><path class="cls-28" d="M75.47,79.93a4.63,4.63,0,0,1-2.23,2.22H39.78a3.91,3.91,0,0,1-.3-.41,1.75,1.75,0,0,1-.18-.29,4.25,4.25,0,0,1-.37-1,3,3,0,0,1-.07-.32c0-.11,0-.23,0-.35s0-.23,0-.33a4,4,0,0,1,.07-.78,2.74,2.74,0,0,1,.15-.51,4.23,4.23,0,0,1,5.11-2.59A8.47,8.47,0,0,1,48,64.52c.12,0,.24-.11.36-.15a7.5,7.5,0,0,1,3.35-.5,8.47,8.47,0,0,1,7.22,4.95c2.78-1.68,6-1.6,8,.11a5.91,5.91,0,0,1,1.86,3.46,7.38,7.38,0,0,1,2.84.39,7,7,0,0,1,2.08,1A5.29,5.29,0,0,1,74.88,75a5.08,5.08,0,0,1,.59,1.08A4.89,4.89,0,0,1,75.47,79.93Z"/><path class="cls-26" d="M71.07,82.15H42.62a5,5,0,0,1,1.63-2.8h0a4,4,0,0,1,2.9-.63l.2,0a.5.5,0,0,1,0-.12,3.82,3.82,0,0,1,2.24-3.1,3.89,3.89,0,0,1,4.58,1.35,4.51,4.51,0,0,1,7.45.73,2.23,2.23,0,0,1,1.86-.19l.05,0a2.06,2.06,0,0,1,.82.69,5.09,5.09,0,0,1,1.54-.51,4.62,4.62,0,0,1,1.35,0l.3.07a2.08,2.08,0,0,1,.41.11A4.93,4.93,0,0,1,71.07,82.15Z"/><path class="cls-30" d="M73.67,73.83a8.78,8.78,0,0,0-6.4,0,3.69,3.69,0,0,0-1.17-4.2,5.12,5.12,0,0,0-4.45-.78,8,8,0,0,0-3.52,2.17l-.34.37a2.38,2.38,0,0,0,.15-.52,3,3,0,0,0-2.07-3,4.53,4.53,0,0,0-1.46-.26,7.58,7.58,0,0,0-1.34.07c-.53.07-1.07.17-1.59.28l1-1.29.13-.18-.33-.07A6.66,6.66,0,0,0,45.54,77a5.78,5.78,0,0,0-3.84,2.12,4.28,4.28,0,0,0-.43.72,4.72,4.72,0,0,0-.43,2.31H39.78a3.91,3.91,0,0,1-.3-.41,1.75,1.75,0,0,1-.18-.29,4.25,4.25,0,0,1-.37-1,3,3,0,0,1-.07-.32c0-.11,0-.23,0-.35s0-.23,0-.33a4,4,0,0,1,.07-.78,2.74,2.74,0,0,1,.15-.51,4.23,4.23,0,0,1,5.11-2.59A8.47,8.47,0,0,1,48,64.52c.12,0,.24-.11.36-.15a7.5,7.5,0,0,1,3.35-.5,8.47,8.47,0,0,1,7.22,4.95c2.78-1.68,6-1.6,8,.11a5.91,5.91,0,0,1,1.86,3.46,7.38,7.38,0,0,1,2.84.39A7,7,0,0,1,73.67,73.83Z"/><path class="cls-1" d="M73.24,82.36H39.78a.22.22,0,0,1-.16-.07,4.48,4.48,0,0,1-.32-.44,2.1,2.1,0,0,1-.19-.31,4.25,4.25,0,0,1-.38-1,2.21,2.21,0,0,1-.07-.3,3.55,3.55,0,0,1-.06-.4,1,1,0,0,0,0-.18V79.5a4.11,4.11,0,0,1,.07-.82,2.73,2.73,0,0,1,.17-.55,4.45,4.45,0,0,1,4.93-2.81,8.7,8.7,0,0,1,4.12-11l.13,0,.25-.11a7.76,7.76,0,0,1,3.43-.51A8.73,8.73,0,0,1,59,68.52c2.8-1.59,6-1.5,8,.25a6,6,0,0,1,1.9,3.41,7.32,7.32,0,0,1,2.74.41,7,7,0,0,1,2.13,1.08,5.71,5.71,0,0,1,1.26,1.24A5.5,5.5,0,0,1,75.66,76a5,5,0,0,1,0,4,4.9,4.9,0,0,1-2.33,2.32Zm-33.36-.42H73.19a4.39,4.39,0,0,0,2.09-2.1h0a5,5,0,0,0-.57-4.69A5.28,5.28,0,0,0,73.55,74a6.79,6.79,0,0,0-2-1,6.93,6.93,0,0,0-2.76-.38.25.25,0,0,1-.22-.17,5.63,5.63,0,0,0-1.79-3.34C64.81,67.41,61.69,67.37,59,69a.2.2,0,0,1-.17,0,.18.18,0,0,1-.12-.12,8.26,8.26,0,0,0-7.05-4.82,7.29,7.29,0,0,0-3.25.48l-.24.1-.12,0a7.89,7.89,0,0,0-4,4.64,8,8,0,0,0,.3,6.18.2.2,0,0,1,0,.22.19.19,0,0,1-.22.07,4,4,0,0,0-4.86,2.46,2.86,2.86,0,0,0-.14.49,3.93,3.93,0,0,0-.07.73s0,.1,0,.15v.18c0,.1,0,.21.05.32a1.77,1.77,0,0,0,.07.29,4.08,4.08,0,0,0,.35.92,1.53,1.53,0,0,0,.16.25A2.8,2.8,0,0,0,39.88,81.94Z"/><path class="cls-84" d="M69.1,82.15h-46a2.31,2.31,0,0,1-.38-.4,4.2,4.2,0,0,1-.7-.63,4.28,4.28,0,0,1-.56-.78l-.21-.43a4.59,4.59,0,0,1-.33-1.44h0a.76.76,0,0,1-.19.12c-.73.39-1.61-.12-2.58-.12a4.34,4.34,0,0,1-4.3-3.55h0a5.63,5.63,0,0,1-1.12,1.57,5.59,5.59,0,0,1-7.9,0,4.93,4.93,0,0,1-.56-.65,6,6,0,0,1-.46-.73,6.41,6.41,0,0,1-.34-.8A5.25,5.25,0,0,1,.21,69.46,5.18,5.18,0,0,1,1.55,66a3.83,3.83,0,0,1,.28-.29c.12-.11.24-.22.37-.32A3.89,3.89,0,0,1,3,64.85a4,4,0,0,1,.46-.23,5.3,5.3,0,0,1,1-.3,3.35,3.35,0,0,1,.44-.07,4.21,4.21,0,0,1,.62,0,5.19,5.19,0,0,1,1.77.32,6.45,6.45,0,0,1-.54-.82A6,6,0,0,1,6,60.81a6.08,6.08,0,0,1,8.75-5.49h0a1,1,0,0,1,0-.17,1.46,1.46,0,0,1,.05-.2c.08-.33.17-.65.28-1a8.7,8.7,0,0,1,.32-.9c.12-.32.26-.63.41-.94s.3-.6.47-.89l.15-.26.12-.2,0,0h0a.41.41,0,0,1,.05-.09l.27-.4q.14-.21.3-.42l0-.06.32-.4.43-.51a6.14,6.14,0,0,1,.43-.45c.16-.17.32-.33.49-.48l.13-.12c.12-.11.24-.22.37-.32l.16-.14.08-.06.05,0,.13-.1L20,47l.06,0,.14-.11.05,0,0,0,.19-.14.15-.1.25-.16.46-.28.36-.21h0l.6-.31.14-.07h0l.76-.33A14.12,14.12,0,0,1,42.61,58.28a13.56,13.56,0,0,1-.15,1.92,4.61,4.61,0,0,1,1-.12A4.25,4.25,0,0,1,46,60.9l.29.23.19.17a2.83,2.83,0,0,1,.24.25,4.73,4.73,0,0,1,.43.57l.15.25a4,4,0,0,1,.3.67,5.52,5.52,0,0,1,.92-.08,6.08,6.08,0,0,1,.61,0l.51.07a3.54,3.54,0,0,1,.44.11s0,0,0,0a2.65,2.65,0,0,1,.37.12,1.72,1.72,0,0,1,.29.11,2.65,2.65,0,0,1,.42.18l.31.16a1.48,1.48,0,0,1,.21.13,5.81,5.81,0,0,1,1.55,1.37,4.22,4.22,0,0,1,.27.36c.08.12.16.24.23.36s.11.19.16.28.14.29.2.43a5.37,5.37,0,0,1,.21.56c0,.15.08.29.11.44a.19.19,0,0,1,0,.07,4.72,4.72,0,0,1,.1.64,4.87,4.87,0,0,1,0,.66,6.11,6.11,0,0,1-.24,1.66,3.52,3.52,0,0,1,1.61-.4,3.6,3.6,0,0,1,2,.6l.19.15a3.6,3.6,0,0,1,1.4,2.85v0a2.44,2.44,0,0,1,.29-.27.75.75,0,0,1,.17-.14,2.71,2.71,0,0,1,.35-.24,3.45,3.45,0,0,1,.47-.24,4.16,4.16,0,0,1,.5-.16l.42-.08a3.11,3.11,0,0,1,.43,0,3.57,3.57,0,0,1,1.67.43l.13,0a1,1,0,0,1,.22.09,4.9,4.9,0,0,1,2,1.8,13.54,13.54,0,0,1,1.36,2.49,32.71,32.71,0,0,1,1.48,4.3A1.08,1.08,0,0,0,69.1,82.15Z"/><path class="cls-27" d="M41.35,63.13a19.57,19.57,0,0,1-3.39,5c2.32-4.5,1.86-9.29-.8-11.72a7.13,7.13,0,0,0-4.26-1.74,5.66,5.66,0,0,1,5.68-1.38,16.37,16.37,0,0,0-17.92-4.86c.27-.32.55-.63.83-1l-.78-.39a11,11,0,0,1,2.56-1.88A14.12,14.12,0,0,1,42.61,58.28a15.22,15.22,0,0,1-.15,1.92A19.48,19.48,0,0,1,41.35,63.13Z"/><path class="cls-25" d="M55.88,82.15H23.11a2.31,2.31,0,0,1-.38-.4,4.2,4.2,0,0,1-.7-.63,4.28,4.28,0,0,1-.56-.78l-.21-.43a4.6,4.6,0,0,1-.34-1.43h0l-.19.13c-.73.39-1.61-.12-2.58-.12A4.4,4.4,0,0,1,14.2,76a4.81,4.81,0,0,1-.36-1.07,6.06,6.06,0,0,1-1.12,1.57,5.59,5.59,0,0,1-7.9,0,4.93,4.93,0,0,1-.56-.65,6,6,0,0,1-.46-.73,6.41,6.41,0,0,1-.34-.8A5.25,5.25,0,0,1,.21,69.46,5.18,5.18,0,0,1,1.55,66a3.83,3.83,0,0,1,.28-.29c.12-.11.24-.22.37-.32A3.89,3.89,0,0,1,3,64.85a4,4,0,0,1,.46-.23,5.3,5.3,0,0,1,1-.3,3.35,3.35,0,0,1,.44-.07,4.21,4.21,0,0,1,.62,0,5.19,5.19,0,0,1,1.77.32,6.45,6.45,0,0,1-.54-.82A6,6,0,0,1,6,60.81a6.08,6.08,0,0,1,8.75-5.49.84.84,0,0,1,.05-.17,1.46,1.46,0,0,1,.05-.2A11.1,11.1,0,0,1,17,57.51a6.09,6.09,0,0,1,.38,2.72L17.35,64a9.65,9.65,0,0,1,8.2,6.69,3.05,3.05,0,0,1,3.61-1.81,6.28,6.28,0,0,1,3.47,2.63c.87,1.2,1.54,2.55,2.48,3.7a11.42,11.42,0,0,0,3.91,3,10.88,10.88,0,0,0,2.68.91,10.05,10.05,0,0,0,2.55.23,8.21,8.21,0,0,0,2.91-.64l.22-.1a6.51,6.51,0,0,0,1.36-.81A19.52,19.52,0,0,0,55.88,82.15Z"/><path class="cls-26" d="M39.18,82.15H23.1a2.65,2.65,0,0,1-.37-.4,4.36,4.36,0,0,1-1.81-3.28c-.76.62-1.71,0-2.77,0a4.39,4.39,0,0,1-4.31-3.55,5.6,5.6,0,0,1-10.38-.61,5.24,5.24,0,0,1-1.63-8.64A4.44,4.44,0,0,1,5,65.74a4.92,4.92,0,0,1,2.85,3.61c.7-1.64,3-2,4.6-1.16a8.61,8.61,0,0,1,3.3,4.08,2,2,0,0,1,3.87.14,1.64,1.64,0,0,1,1.47-1.84,2.26,2.26,0,0,1,2.13,1.32,3.72,3.72,0,0,1,.1,2.61,2.89,2.89,0,0,1,3.13.08A1.26,1.26,0,0,1,26.54,73a1.74,1.74,0,0,1,2-.28A3.29,3.29,0,0,1,30,74.18a6.06,6.06,0,0,1,.58,4.12,2.85,2.85,0,0,1,2.66.88,2.9,2.9,0,0,1,.56,2.74,3,3,0,0,1,2.91-1.21A4.06,4.06,0,0,1,39.18,82.15Z"/><path class="cls-27" d="M69.1,82.15H67.79a30.81,30.81,0,0,0-1.87-4.55,10.65,10.65,0,0,0-1-1.61,4,4,0,0,0-1.8-1.37l-.12,0a3.54,3.54,0,0,0-4.31.73v-.06a3.57,3.57,0,0,0-5.19-3.2,5.93,5.93,0,0,0-.38-4.31,5.47,5.47,0,0,0-.62-1,2.43,2.43,0,0,0-.2-.25,6,6,0,0,0-3.92-2.11,4.4,4.4,0,0,0-.73-.05,5.62,5.62,0,0,0-.92.08,4.35,4.35,0,0,0-1.6-2.14,4.25,4.25,0,0,0-2.53-.82,4.07,4.07,0,0,0-.5,0l-.47.09a15.22,15.22,0,0,0,.15-1.92A14.11,14.11,0,0,0,27.62,45.53a14,14,0,0,0-5.23,1,11.78,11.78,0,0,0-1.39.66,13.87,13.87,0,0,0-4.72,4.06l.15-.26.12-.2,0,0,.06-.09.27-.4q.14-.21.3-.42l0-.06.32-.4.43-.51a6.14,6.14,0,0,1,.43-.45c.16-.17.32-.33.49-.48l.13-.12c.12-.11.24-.22.37-.32l0,0,.13-.11.08-.06.05,0,.13-.1L20,47l.06,0,.14-.11.05,0,0,0,.19-.14.15-.1.25-.16.46-.28.36-.21h0l.6-.31.14-.07h0l.76-.33A14.12,14.12,0,0,1,42.61,58.28a13.56,13.56,0,0,1-.15,1.92,4.61,4.61,0,0,1,1-.12A4.25,4.25,0,0,1,46,60.9l.29.23.19.17a2.83,2.83,0,0,1,.24.25,4.73,4.73,0,0,1,.43.57l.15.25a4,4,0,0,1,.3.67,5.52,5.52,0,0,1,.92-.08,6.08,6.08,0,0,1,.61,0l.51.07a3.54,3.54,0,0,1,.44.11s0,0,0,0a2.65,2.65,0,0,1,.37.12,1.72,1.72,0,0,1,.29.11,2.65,2.65,0,0,1,.42.18l.31.16a1.48,1.48,0,0,1,.21.13,5.81,5.81,0,0,1,1.55,1.37,4.22,4.22,0,0,1,.27.36c.08.12.16.24.23.36s.11.19.16.28.14.29.2.43a5.37,5.37,0,0,1,.21.56c0,.15.08.29.11.44a.19.19,0,0,1,0,.07,4.72,4.72,0,0,1,.1.64,4.87,4.87,0,0,1,0,.66,6.11,6.11,0,0,1-.24,1.66,3.52,3.52,0,0,1,1.61-.4,3.6,3.6,0,0,1,2,.6l.19.15a3.6,3.6,0,0,1,1.4,2.85v0a2.44,2.44,0,0,1,.29-.27.75.75,0,0,1,.17-.14,2.71,2.71,0,0,1,.35-.24,3.45,3.45,0,0,1,.47-.24,4.16,4.16,0,0,1,.5-.16l.42-.08a3.11,3.11,0,0,1,.43,0,3.57,3.57,0,0,1,1.67.43l.13,0a1,1,0,0,1,.22.09,4.9,4.9,0,0,1,2,1.8,13.54,13.54,0,0,1,1.36,2.49,32.71,32.71,0,0,1,1.48,4.3A1.08,1.08,0,0,0,69.1,82.15Z"/><path class="cls-1" d="M69.1,82.36h-46a.24.24,0,0,1-.14,0,2.8,2.8,0,0,1-.39-.41,4.06,4.06,0,0,1-.71-.64,4.67,4.67,0,0,1-.58-.81L21.07,80a5.32,5.32,0,0,1-.32-1.18,2.47,2.47,0,0,1-1.59,0,4.91,4.91,0,0,0-1-.14A4.59,4.59,0,0,1,14,76.1q-.13-.3-.24-.6a5.42,5.42,0,0,1-.91,1.16,5.79,5.79,0,0,1-8.19,0A4.72,4.72,0,0,1,4.09,76a6.89,6.89,0,0,1-.48-.75c-.11-.22-.21-.46-.32-.74a5.46,5.46,0,0,1-1.9-8.65c.1-.1.19-.21.3-.3s.25-.23.38-.33a3.52,3.52,0,0,1,.79-.53,4.16,4.16,0,0,1,.47-.24,5.74,5.74,0,0,1,1-.31A3.08,3.08,0,0,1,4.82,64a5.6,5.6,0,0,1,.64,0,5.36,5.36,0,0,1,1.25.16l-.21-.35a6.32,6.32,0,0,1,5.55-9.32,6.16,6.16,0,0,1,2.51.54l0-.11c.09-.38.19-.7.29-1a7.92,7.92,0,0,1,.33-.91c.1-.28.23-.57.41-1s.3-.59.48-.9c.06-.12.11-.2.15-.27l.12-.19,0,0c.22-.32.42-.63.64-.93l0-.06.17-.22.19-.23.4-.48c.15-.16.29-.31.45-.46a5.55,5.55,0,0,1,.49-.48l.12-.11c.13-.12.26-.24.39-.34l.13-.12a.59.59,0,0,1,.11-.08s0,0,0,0l.15-.12a1.81,1.81,0,0,1,.19-.15l.08,0,.1-.07a.19.19,0,0,1,.07-.06h0l.17-.13.05,0a.57.57,0,0,0,.13-.08l.46-.29.27-.17.36-.21.05,0,.58-.3.12-.06h0l.14-.06.63-.27a14.09,14.09,0,0,1,5.31-1A14.34,14.34,0,0,1,42.81,58.28a12.37,12.37,0,0,1-.11,1.66,5.1,5.1,0,0,1,.74-.07,4.49,4.49,0,0,1,2.65.86,3.61,3.61,0,0,1,.3.25,1.12,1.12,0,0,1,.2.18l.06.05a2.09,2.09,0,0,1,.2.22,4.17,4.17,0,0,1,.44.58l.16.26a3.38,3.38,0,0,1,.25.54,5.66,5.66,0,0,1,1.42,0l.52.07.43.1h.06a2.09,2.09,0,0,1,.4.12,1.7,1.7,0,0,1,.3.12,2.12,2.12,0,0,1,.42.18l.32.16a1.46,1.46,0,0,1,.24.15,6.13,6.13,0,0,1,1.58,1.4c.1.12.19.25.28.38l.24.37c0,.06.08.14.12.21l0,.07c.07.15.14.31.21.45a5,5,0,0,1,.21.58l0,.08.09.38s0,0,0,.11a3.64,3.64,0,0,1,.1.62,4.61,4.61,0,0,1,0,.68,5.94,5.94,0,0,1-.14,1.3,3.76,3.76,0,0,1,3.42.39l.21.16a3.8,3.8,0,0,1,1.45,2.6l.16-.12a2.8,2.8,0,0,1,.36-.25,3.89,3.89,0,0,1,.5-.25,4.74,4.74,0,0,1,.53-.17l.44-.08s.22,0,.45,0h0a5.61,5.61,0,0,1,2.47.77c1.64,1,2.64,3.16,3.18,4.32a22.5,22.5,0,0,1,1.49,4.44.21.21,0,0,1-.2.25Zm-45.91-.42H68.84a22,22,0,0,0-1.41-4.09c-.52-1.12-1.48-3.21-3-4.15a5.28,5.28,0,0,0-2.26-.7h0a3.58,3.58,0,0,0-.41,0l-.4.07a3.71,3.71,0,0,0-.47.16,2.25,2.25,0,0,0-.44.22,3.62,3.62,0,0,0-.32.22l-.14.11a2.86,2.86,0,0,0-.3.28.2.2,0,0,1-.23,0,.2.2,0,0,1-.13-.19A3.38,3.38,0,0,0,58,71.22c-.06-.06-.12-.1-.18-.15a3.38,3.38,0,0,0-3.4-.18.22.22,0,0,1-.22,0,.19.19,0,0,1-.07-.21A5.9,5.9,0,0,0,54.36,69a4,4,0,0,0,0-.63,4.59,4.59,0,0,0-.09-.62l0-.08c0-.12-.05-.23-.08-.35l0-.07c-.06-.18-.13-.36-.2-.54l-.2-.42,0-.06a2,2,0,0,0-.12-.19,3.17,3.17,0,0,0-.23-.36,3.79,3.79,0,0,0-.25-.35,5.68,5.68,0,0,0-1.5-1.32.59.59,0,0,0-.16-.1l0,0a2.64,2.64,0,0,0-.29-.15,2.28,2.28,0,0,0-.4-.17,1.46,1.46,0,0,0-.28-.11,3.3,3.3,0,0,0-.34-.11.08.08,0,0,1-.07,0,3.11,3.11,0,0,0-.41-.11l-.5-.06a5.28,5.28,0,0,0-1.47,0,.22.22,0,0,1-.23-.14,4.24,4.24,0,0,0-.28-.64l-.15-.24a4.77,4.77,0,0,0-.41-.54,1.49,1.49,0,0,0-.17-.18l-.06-.06c0-.06-.12-.11-.17-.16l-.28-.22a4.06,4.06,0,0,0-2.41-.78,4.86,4.86,0,0,0-.94.11.17.17,0,0,1-.18,0,.2.2,0,0,1-.07-.18,13.16,13.16,0,0,0,.15-1.89A13.93,13.93,0,0,0,23.34,45.36l-.61.27-.12,0,0,0-.1,0c-.24.12-.43.21-.62.32l0,0-.33.19-.26.16-.14.09-.07,0-.23.15-.15.09-.17.13-.05,0a.09.09,0,0,1-.06.06l-.12.08-.1.07L20,47.3a.58.58,0,0,0-.13.1l-.05,0,0,0-.05,0-.12.1-.05,0c-.12.09-.24.2-.35.3l-.14.13c-.16.14-.32.3-.47.46a6,6,0,0,0-.43.45l-.39.46-.19.24-.16.2,0,.05-.61.9a.24.24,0,0,1-.06.08l-.09.16-.13.22c-.2.34-.35.64-.49.92s-.3.65-.4.92a8.68,8.68,0,0,0-.31.89A7.79,7.79,0,0,0,15,55a1.32,1.32,0,0,0-.05.18l0,.17a.21.21,0,0,1-.3.16,5.88,5.88,0,0,0-7.74,8.1,5.66,5.66,0,0,0,.52.79.21.21,0,0,1-.23.33,4.9,4.9,0,0,0-1.7-.31,3.42,3.42,0,0,0-.59,0,2.52,2.52,0,0,0-.41.06,4.93,4.93,0,0,0-1,.29,4.51,4.51,0,0,0-.44.22,3.58,3.58,0,0,0-.73.49c-.13.1-.25.21-.36.31a3.57,3.57,0,0,0-.27.28,5,5,0,0,0,1.84,8,.22.22,0,0,1,.11.12A7.64,7.64,0,0,0,4,75a6.93,6.93,0,0,0,.44.7,5.2,5.2,0,0,0,.54.62,5.4,5.4,0,0,0,7.61,0,5.52,5.52,0,0,0,1.08-1.52.1.1,0,0,1,0,0,.19.19,0,0,1,.21-.06.19.19,0,0,1,.15.15,4.26,4.26,0,0,0,.33,1,4.19,4.19,0,0,0,3.77,2.35,5.51,5.51,0,0,1,1.1.15,2,2,0,0,0,1.38,0,.57.57,0,0,0,.13-.08.22.22,0,0,1,.37.12,4.47,4.47,0,0,0,.32,1.37l.2.42a4.16,4.16,0,0,0,.53.73,4.37,4.37,0,0,0,.66.6s0,0,.06,0A1.56,1.56,0,0,0,23.19,81.94ZM20.39,47h0Z"/><path class="cls-1" d="M20,47.2a.2.2,0,0,1-.17-.09.17.17,0,0,1,0-.12.23.23,0,0,1,.08-.17l.2-.15.12-.07h0a.22.22,0,0,1,.28.1.15.15,0,0,1,0,.09.19.19,0,0,1-.11.18.2.2,0,0,1-.07.06l-.18.13h0A.21.21,0,0,1,20,47.2Z"/><path class="cls-1" d="M167.21,82.36H130a.19.19,0,0,1-.17-.1.18.18,0,0,1,0-.2,3.45,3.45,0,0,1,1.67-1.64,3.9,3.9,0,0,1,3.86.45c.75-2.32,2.64-5,4.84-5.65,2.49-.71,5.18,1.18,6.49,2.29.19-2.09,1.31-4.76,3-5.78a6.43,6.43,0,0,1,5.63-.54,8.17,8.17,0,0,1-.18-2.29,6.94,6.94,0,0,1,.87-3.08,4.22,4.22,0,0,1,.36-.54A5.39,5.39,0,0,1,160.86,63c6.61.41,7.48,8.52,7.59,11,0,.61,0,1.12,0,1.62,0,1.09-.07,4.78-1.09,6.66A.21.21,0,0,1,167.21,82.36Zm-36.89-.42h36.77c.92-1.82,1-5.31,1-6.35,0-.49,0-1,0-1.6-.11-2.39-.94-10.22-7.21-10.61a4.93,4.93,0,0,0-4.22,2.15,3.59,3.59,0,0,0-.33.5,6.36,6.36,0,0,0-.81,2.89,8,8,0,0,0,.25,2.56.23.23,0,0,1-.06.22.22.22,0,0,1-.22,0,6,6,0,0,0-5.62.35c-1.6,1-2.73,3.83-2.79,5.87a.21.21,0,0,1-.13.18.2.2,0,0,1-.22,0c-1.09-1-3.91-3.2-6.42-2.48-2.14.62-4,3.38-4.64,5.66a.2.2,0,0,1-.14.14.19.19,0,0,1-.19,0,3.56,3.56,0,0,0-3.67-.59A3,3,0,0,0,130.32,81.94Z"/></g></g></svg>