<svg xmlns="http://www.w3.org/2000/svg" viewBox="0 0 153.16 239.69"><defs><style>.cls-1{isolation:isolate;}.cls-12,.cls-2,.cls-3{fill:#fceaee;}.cls-11,.cls-2,.cls-7{mix-blend-mode:multiply;}.cls-10,.cls-3,.cls-6,.cls-8,.cls-9{stroke:#80433b;stroke-miterlimit:10;}.cls-4,.cls-8{fill:#f69363;}.cls-5,.cls-6{fill:#80433b;}.cls-7{opacity:0.23;}.cls-9{fill:#f4a9bc;}.cls-10{fill:#f7d080;}.cls-13{fill:#fff;}</style></defs><title>Asset 1k1</title><g class="cls-1"><g id="Layer_2" data-name="Layer 2"><g id="OBJECTS"><ellipse class="cls-2" cx="71.24" cy="230.58" rx="58.81" ry="9.12"/><path class="cls-3" d="M68.73,194.25,58.24,224.16l-2,5.69h0A2.25,2.25,0,0,1,54,232.09H41.27s.27-6.44,6.18-7.23l-.11-1.49L45,190Z" transform="translate(-0.49 -0.02)"/><path class="cls-4" d="M58.24,224.16l-2,5.69h0A2.25,2.25,0,0,1,54,232.09H41.27s.27-6.44,6.18-7.23l-.11-1.49.82,0Q53.22,223.6,58.24,224.16Z" transform="translate(-0.49 -0.02)"/><path class="cls-5" d="M57.75,224l-1.43,4.1a14.76,14.76,0,0,0-.55,1.58,2.27,2.27,0,0,1-.59,1.43,1.86,1.86,0,0,1-1.23.46c-3,.11-6.11,0-9.16,0H41.27l.5.5a8.29,8.29,0,0,1,.78-3,6.33,6.33,0,0,1,5-3.73.51.51,0,0,0,.37-.48l-.11-1.49-.5.5a107.53,107.53,0,0,1,10.9.79c.64.07.63-.93,0-1a107.53,107.53,0,0,0-10.9-.79.5.5,0,0,0-.5.5l.11,1.49.36-.49a7.25,7.25,0,0,0-5.58,4.1,9.45,9.45,0,0,0-1,3.62.5.5,0,0,0,.5.5h9.1c1.19,0,2.4,0,3.6,0a2.79,2.79,0,0,0,2.48-1.51,4.77,4.77,0,0,0,.31-1.18,8.19,8.19,0,0,1,.27-.79l1.69-4.82C58.93,223.68,58,223.42,57.75,224Z" transform="translate(-0.49 -0.02)"/><path class="cls-6" d="M74.12,184.8,73.53,189l-2,14.54-1.38,9.95c-15.26.83-32.78-6.8-32.78-6.8l1.87-10.44,2.05-11.46Z" transform="translate(-0.49 -0.02)"/><path class="cls-3" d="M87.42,229.85h0l-1.94-5.54L74.94,194.25,98.72,190l-2.4,33.38-.1,1.44c5.92.79,6.18,7.23,6.18,7.23H89.66A2.24,2.24,0,0,1,87.42,229.85Z" transform="translate(-0.49 -0.02)"/><path class="cls-4" d="M87.42,229.85h0l-1.94-5.54c3.6-.43,7.22-.73,10.84-.89l-.1,1.44c5.92.79,6.18,7.23,6.18,7.23H89.66A2.24,2.24,0,0,1,87.42,229.85Z" transform="translate(-0.49 -0.02)"/><path class="cls-5" d="M87.9,229.71,86,224.17l-.48.64q5.4-.65,10.84-.89l-.5-.5-.1,1.44a.49.49,0,0,0,.36.48,6.35,6.35,0,0,1,5,3.73,8.76,8.76,0,0,1,.78,3l.5-.5H89.68a1.77,1.77,0,0,1-1.76-1.74c0-.65-1-.65-1,0a2.8,2.8,0,0,0,2.84,2.74H102.4a.51.51,0,0,0,.5-.5,9.51,9.51,0,0,0-1-3.62,7.23,7.23,0,0,0-5.58-4.1l.37.49.1-1.44a.5.5,0,0,0-.5-.5q-5.44.24-10.84.89a.51.51,0,0,0-.49.63L86.93,230C87.15,230.58,88.11,230.32,87.9,229.71Z" transform="translate(-0.49 -0.02)"/><path class="cls-6" d="M109.71,206.7s-17.52,7.63-32.78,6.8l-1.35-9.76-2-14.73L73,184.8h32.84l2.6,14.54Z" transform="translate(-0.49 -0.02)"/><g class="cls-7"><path class="cls-5" d="M108.39,199.34c-.37.13-.75.25-1.13.36a103.47,103.47,0,0,1-31.68,4l-2-14.73-2,14.54a104.79,104.79,0,0,1-32.29-7.29l2.05-11.46h64.52Z" transform="translate(-0.49 -0.02)"/><path class="cls-5" d="M108.25,198.85a78.18,78.18,0,0,1-12.55,3,102.21,102.21,0,0,1-12.83,1.35q-3.65.15-7.29.06l.48.36-1.8-12.89L74,188.87a.51.51,0,0,0-1,0l-1.76,12.74-.26,1.8.49-.36a105.58,105.58,0,0,1-25.34-4.81c-2.3-.74-4.58-1.57-6.82-2.47l.35.62,1.79-10,.26-1.44-.48.37h63.54a6.17,6.17,0,0,0,.86,0,.48.48,0,0,1,.12,0l-.49-.37,2.28,12.75.32,1.79c.12.63,1.08.36,1-.27l-2.28-12.75-.32-1.79a.5.5,0,0,0-.48-.36H43.88c-.82,0-1.67-.06-2.5,0h-.11a.51.51,0,0,0-.49.36l-1.79,10-.26,1.43a.53.53,0,0,0,.35.62,105.15,105.15,0,0,0,25.14,6.58q3.63.5,7.29.73a.51.51,0,0,0,.48-.37L73.76,191l.25-1.81H73L74.84,202l.25,1.84a.52.52,0,0,0,.49.37,104.94,104.94,0,0,0,25.78-2.51,68,68,0,0,0,7.16-1.91C109.12,199.61,108.86,198.64,108.25,198.85Z" transform="translate(-0.49 -0.02)"/></g><path class="cls-8" d="M86.2,130.26H57.63c-8.6,1.91-23.85,40.08-22.1,56.61A3.68,3.68,0,0,0,37,189.4c5.24,4,27.67,17.88,69.9-.1a3,3,0,0,0,1.75-3.17C107.33,178,101.93,150,86.2,130.26Z" transform="translate(-0.49 -0.02)"/><path class="cls-3" d="M71.09,141.33h0A8.35,8.35,0,0,1,62.74,133v-8.35h16.7V133A8.35,8.35,0,0,1,71.09,141.33Z" transform="translate(-0.49 -0.02)"/><polygon class="cls-9" points="60.64 137.55 63.27 142.88 69.16 143.74 64.9 147.89 65.91 153.75 60.64 150.98 55.38 153.75 56.38 147.89 52.13 143.74 58.01 142.88 60.64 137.55"/><polygon class="cls-9" points="90.15 170.38 92.61 175.37 98.12 176.17 94.13 180.05 95.07 185.54 90.15 182.95 85.22 185.54 86.16 180.05 82.17 176.17 87.68 175.37 90.15 170.38"/><polygon class="cls-10" points="76.59 148.63 79 159.97 89.71 164.41 79.67 170.2 78.76 181.75 70.14 174 58.88 176.7 63.59 166.11 57.54 156.23 69.06 157.44 76.59 148.63"/><path class="cls-3" d="M35.39,167.05s-1.08,4.2,4,9.32a33.35,33.35,0,0,0,4.63-13.46Z" transform="translate(-0.49 -0.02)"/><path class="cls-5" d="M43.67,164.07a41.84,41.84,0,0,1-7.44,16.09c-.38.51.48,1,.87.5a42.79,42.79,0,0,0,7.54-16.32c.14-.63-.83-.9-1-.27Z" transform="translate(-0.49 -0.02)"/><path class="cls-3" d="M108.44,167.05s1.08,4.2-4,9.32a20.12,20.12,0,0,1-4.63-13.46Z" transform="translate(-0.49 -0.02)"/><path class="cls-5" d="M98.62,164.34a42.65,42.65,0,0,0,7.54,16.32c.38.51,1.25,0,.86-.5a42.13,42.13,0,0,1-7.44-16.09c-.14-.63-1.1-.36-1,.27Z" transform="translate(-0.49 -0.02)"/><path class="cls-8" d="M57.63,130.26s-31.47,4.6-24.9,36.79a19.45,19.45,0,0,0,14.06-6.7l-1-3.81Z" transform="translate(-0.49 -0.02)"/><path class="cls-8" d="M86.2,130.26s31.47,4.6,24.9,36.79A19.45,19.45,0,0,1,97,160.35l1-3.81Z" transform="translate(-0.49 -0.02)"/><path class="cls-3" d="M129.32,109.26c-.87,7.4-6.3,12.84-12.14,12.16s-9.85-7.24-9-14.64,6.3-12.84,12.13-12.16S130.18,101.86,129.32,109.26Z" transform="translate(-0.49 -0.02)"/><path class="cls-3" d="M35.68,106c3,6.85,1,14.28-4.43,16.6s-12.15-1.34-15.1-8.19-1-14.27,4.43-16.59S32.73,99.17,35.68,106Z" transform="translate(-0.49 -0.02)"/><path class="cls-3" d="M132.53,81.7c-1.1,12.49-6.81,23.54-15.19,32.23-.33.36-.68.71-1,1.06a4.38,4.38,0,0,0-1.31,3.25,23.25,23.25,0,0,1-.11,2.8,9.58,9.58,0,0,1-3.44,6.66c-3.37,2.88-7.8,4.15-12,5.24a100.1,100.1,0,0,1-25.16,3,120.22,120.22,0,0,1-29.55-3.51c-5.77-1.51-13-4.35-15.19-10.24a9.56,9.56,0,0,1-.41-1.44,10.8,10.8,0,0,1-.22-2.09v-.13a4.71,4.71,0,0,0-1.2-3.12A59.9,59.9,0,0,1,15.53,94.59a61.37,61.37,0,0,1-2.82-27c3.86-32.82,32.68-56.41,64.36-52.69,14.94,1.76,29,6.72,39.3,16.2C127.88,41.74,134.64,58,132.53,81.7Z" transform="translate(-0.49 -0.02)"/><g class="cls-11"><path class="cls-12" d="M144.4,71.66a10.37,10.37,0,0,1-8.52,1.81,8.47,8.47,0,0,1-.86-.25,46.72,46.72,0,0,1-6.83,28.54v0c-.65,1-1.34,2.08-2.08,3.08-4.27,5.74-9.8,10.4-15.28,15a14.68,14.68,0,0,1,1.25-11.11l-2,.32h0l-2.71.44a131.87,131.87,0,0,0-.08-24.09v-.07q-.51-5.39-1.47-10.72a53.79,53.79,0,0,1-1.68,16.66h0c-.31,1.19-.67,2.38-1.06,3.55A39.86,39.86,0,0,0,88.74,80.6c-.33-.2-.67-.38-1-.57.61,1.89,1.23,3.78,1.84,5.67C79.12,86.34,69.11,77.05,69,66.58c-.08.16-.16.32-.25.47s0,0,0,0a0,0,0,0,0,0,0A32.44,32.44,0,0,1,45.94,83.92l.07-.25h0a20.69,20.69,0,0,0-.68-12.21c2,5.62-.84,11.67-3.24,17.12s-4.31,12.21-.82,17.06a5.8,5.8,0,0,1-3.57.12,7,7,0,0,1-3.32-2A5.87,5.87,0,0,1,32.92,101a19.83,19.83,0,0,1-3.09,13.76,38.11,38.11,0,0,1-7.76-11.5c-.28-.64-.55-1.3-.79-2a28.75,28.75,0,0,1-4.15.15,27.64,27.64,0,0,1-7.34-1.28c3.38-3,4.36-7.87,4-12.33s-1.87-8.77-2.57-13.19A38.6,38.6,0,0,1,29.12,36.42l-6.83-2.15c15.51-3.66,27.28-18,43.1-19.8C75,13.4,84.45,17.23,93.39,21c11.29,4.74,23.09,9.86,30.6,19.53C131.68,50.39,134.27,64.3,144.4,71.66Z" transform="translate(-0.49 -0.02)"/></g><path class="cls-5" d="M52.63,114.15a4.83,4.83,0,0,0,5-1.19,5.3,5.3,0,0,0-2.34-8.57c-4-1.14-8.06,3.27-6,7.08A5.65,5.65,0,0,0,52.63,114.15Z" transform="translate(-0.49 -0.02)"/><path class="cls-5" d="M90.08,114.65a4.83,4.83,0,0,0,5-1.19,5.3,5.3,0,0,0-2.34-8.57c-4-1.14-8.06,3.27-6,7.08A5.69,5.69,0,0,0,90.08,114.65Z" transform="translate(-0.49 -0.02)"/><path class="cls-5" d="M78.21,106.21a.94.94,0,0,0-1.12-.64.92.92,0,0,0-.64,1.12,4.92,4.92,0,0,1-2.13,6.25,4.8,4.8,0,0,1-6.4-2,5,5,0,0,1-.28-3.94c.39-1.11-1.37-1.58-1.75-.48A6.58,6.58,0,0,0,78,111.63,6.82,6.82,0,0,0,78.21,106.21Z" transform="translate(-0.49 -0.02)"/><path class="cls-9" d="M34,119.87a8.08,8.08,0,1,0,6.41-9.45A8.07,8.07,0,0,0,34,119.87Z" transform="translate(-0.49 -0.02)"/><path class="cls-13" d="M44.45,113.38a.7.7,0,0,1,.9.31l2,3a.67.67,0,0,1-.3.9.69.69,0,0,1-.9-.3l-2-3.06A.67.67,0,0,1,44.45,113.38Z" transform="translate(-0.49 -0.02)"/><path class="cls-13" d="M41,114.13a.69.69,0,0,1,.95.06l2.2,3a.67.67,0,0,1-1,.88c-.74-1-1.47-2-2.2-3A.69.69,0,0,1,41,114.13Z" transform="translate(-0.49 -0.02)"/><path class="cls-13" d="M37.73,114.49a.68.68,0,0,1,.9.3l1.71,3a.68.68,0,0,1-.31.9.69.69,0,0,1-.9-.31l-1.71-3A.68.68,0,0,1,37.73,114.49Z" transform="translate(-0.49 -0.02)"/><path class="cls-9" d="M95.47,118.63a8.08,8.08,0,1,0,6.42-9.46A8.08,8.08,0,0,0,95.47,118.63Z" transform="translate(-0.49 -0.02)"/><path class="cls-13" d="M106,112.14a.69.69,0,0,1,.9.3l2,3.06a.67.67,0,0,1-.31.9.69.69,0,0,1-.9-.31l-2-3A.67.67,0,0,1,106,112.14Z" transform="translate(-0.49 -0.02)"/><path class="cls-13" d="M102.48,112.89a.69.69,0,0,1,1,.06l2.19,3a.67.67,0,1,1-1,.89c-.73-1-1.46-2-2.2-3A.7.7,0,0,1,102.48,112.89Z" transform="translate(-0.49 -0.02)"/><path class="cls-13" d="M99.24,113.24a.69.69,0,0,1,.9.31l1.71,3a.67.67,0,0,1-.3.9.69.69,0,0,1-.9-.31l-1.71-3A.67.67,0,0,1,99.24,113.24Z" transform="translate(-0.49 -0.02)"/><path class="cls-5" d="M98.63,93.53a10.78,10.78,0,0,0-3-5.14,4.66,4.66,0,0,0-5.53-.52A.91.91,0,1,0,91,89.44,2.49,2.49,0,0,1,92.72,89a3.4,3.4,0,0,1,1.85.9A9.25,9.25,0,0,1,96.87,94a.93.93,0,0,0,1.12.63A.92.92,0,0,0,98.63,93.53Z" transform="translate(-0.49 -0.02)"/><path class="cls-5" d="M47.37,93.53c.66-1.88,1.43-3.86,3-5.14a4.68,4.68,0,0,1,5.54-.52.93.93,0,0,1,.32,1.24.91.91,0,0,1-1.24.33A2.53,2.53,0,0,0,53.28,89a3.4,3.4,0,0,0-1.85.9A9.44,9.44,0,0,0,49.13,94a.91.91,0,0,1-1.76-.49Z" transform="translate(-0.49 -0.02)"/><path class="cls-5" d="M153.19,65.37a11.7,11.7,0,0,1-9.63,2c-.33-.08-.65-.17-1-.28a52.84,52.84,0,0,1-7.72,32.27v0c-.74,1.19-1.52,2.35-2.36,3.48-4.82,6.49-11.08,11.76-17.27,17a16.61,16.61,0,0,1,1.41-12.56l-2.26.37h0l-3.06.49a149.2,149.2,0,0,0-.09-27.23v-.08c-.39-4.06-.94-8.11-1.67-12.12a60.7,60.7,0,0,1-1.9,18.83h0c-.35,1.35-.75,2.7-1.2,4A44.94,44.94,0,0,0,90.26,75.47c-.37-.22-.75-.43-1.13-.64.69,2.14,1.39,4.27,2.08,6.41-11.82.72-23.14-9.78-23.3-21.62-.09.18-.18.36-.28.54,0,0,0,0,0,0a0,0,0,0,0,0,0,36.73,36.73,0,0,1-25.74,19c0-.09,0-.19.07-.28h0a23.5,23.5,0,0,0-.76-13.81c2.26,6.35-.95,13.19-3.67,19.36s-4.87,13.8-.92,19.28a6.56,6.56,0,0,1-4,.14,8,8,0,0,1-3.76-2.29,6.75,6.75,0,0,1-1.65-3.08,22.38,22.38,0,0,1-3.49,15.56,43.13,43.13,0,0,1-8.77-13c-.32-.73-.62-1.47-.9-2.21a31.93,31.93,0,0,1-4.69.17A31.16,31.16,0,0,1,1,97.61c3.82-3.33,4.93-8.89,4.51-13.94S3.4,73.76,2.61,68.76C0,52.07,8.34,34.17,22.86,25.52l-7.72-2.43C32.67,19,46,2.72,63.87.71,74.76-.5,85.42,3.83,95.52,8.07c12.77,5.36,26.11,11.15,34.6,22.08C138.81,41.32,141.74,57.05,153.19,65.37Z" transform="translate(-0.49 -0.02)"/><path class="cls-5" d="M152.93,64.93a11.21,11.21,0,0,1-10.21,1.71.51.51,0,0,0-.63.49,52.52,52.52,0,0,1-3.37,23.41,56.13,56.13,0,0,1-13.42,19.74c-3.32,3.25-6.88,6.24-10.43,9.23l.84.22a16.22,16.22,0,0,1,1.36-12.17.52.52,0,0,0-.57-.74l-5.33.86.64.49a150.35,150.35,0,0,0-.48-30.88q-.52-4.35-1.3-8.69c-.1-.55-1-.42-1,.14A60.64,60.64,0,0,1,106,91.46l.92-.12a46.16,46.16,0,0,0-17.5-17,.51.51,0,0,0-.74.57c.69,2.14,1.39,4.27,2.08,6.41l.49-.63c-9,.5-17.68-5.52-21.2-13.72a19.86,19.86,0,0,1-1.6-7.4.51.51,0,0,0-.94-.26l-.3.6c-.19.39.18-.22-.09.19s-.55,1-.83,1.49c-.56,1-1.17,1.88-1.82,2.77a35.45,35.45,0,0,1-4.35,5A36.57,36.57,0,0,1,49,76.62a35.42,35.42,0,0,1-7.22,2.12l.62.62A24.55,24.55,0,0,0,41.67,65c-.22-.59-1.18-.34-1,.27,1.95,5.65-.36,11.54-2.63,16.73-2,4.62-4.14,9.37-4.14,14.52A12.93,12.93,0,0,0,36.16,104l.3-.74a7,7,0,0,1-8.83-4.88c-.16-.64-1.05-.35-1,.27a22,22,0,0,1-3.44,15.17l.79-.1a43.62,43.62,0,0,1-9.54-15,.49.49,0,0,0-.48-.36A31.62,31.62,0,0,1,1.13,97.12l.22.84c3.85-3.43,5-8.88,4.69-13.84C5.65,78,3.3,72.14,2.77,66a43.36,43.36,0,0,1,8-28.52A41,41,0,0,1,23.11,26,.51.51,0,0,0,23,25L15.27,22.6v1C25.63,21.1,34.33,14.64,43.33,9.26A64.82,64.82,0,0,1,57.46,2.57a36.94,36.94,0,0,1,18-.78C82,3,88.13,5.52,94.21,8.05c5.35,2.24,10.71,4.5,15.87,7.16a67.54,67.54,0,0,1,14.23,9.47,48.54,48.54,0,0,1,9.91,12.7c4.95,8.84,8.35,19,15.92,26.11a30.8,30.8,0,0,0,2.79,2.31c.52.38,1-.49.51-.87-8.57-6.28-12.36-16.72-17.13-25.79a54.63,54.63,0,0,0-9-13,59.86,59.86,0,0,0-13.46-10A151,151,0,0,0,98.14,8.63,144.19,144.19,0,0,0,79.85,1.79,41.51,41.51,0,0,0,61.29.59a49.66,49.66,0,0,0-14.43,5.5c-9.37,5.08-17.88,12-28.07,15.42A38.15,38.15,0,0,1,15,22.6a.51.51,0,0,0,0,1L22.72,26l-.12-.92A43.88,43.88,0,0,0,4.2,47.89,43.47,43.47,0,0,0,1.62,62.57a41.75,41.75,0,0,0,.75,7.73c.6,3.2,1.49,6.33,2.1,9.53,1.12,5.94,1,13.08-3.83,17.42a.51.51,0,0,0,.22.84A32.42,32.42,0,0,0,14,99.39L13.5,99a45,45,0,0,0,9.8,15.43.51.51,0,0,0,.79-.1A23.12,23.12,0,0,0,27.63,98.4l-1,.27a8,8,0,0,0,10.07,5.58.51.51,0,0,0,.3-.74c-3-4.25-2.29-9.66-.78-14.34,1.67-5.2,4.58-10,5.73-15.34A16.49,16.49,0,0,0,41.67,65l-1,.27a23.49,23.49,0,0,1,.69,13.83.51.51,0,0,0,.62.62A37.42,37.42,0,0,0,66.82,62.64c.55-.9,1.12-2,1.52-2.77l-.93-.25c.18,9.45,7.09,18,15.91,21a20.92,20.92,0,0,0,7.89,1.12.51.51,0,0,0,.48-.64C91,79,90.3,76.83,89.61,74.69l-.74.57A45.06,45.06,0,0,1,106,91.85a.51.51,0,0,0,.92-.12,61.66,61.66,0,0,0,3.12-23l-1,.13a146.86,146.86,0,0,1,2.26,30.48c-.08,2.94-.26,5.88-.51,8.82,0,.35.34.53.63.48,1.77-.3,3.55-.58,5.33-.86l-.57-.74a17.33,17.33,0,0,0-1.46,13,.51.51,0,0,0,.84.22c6.35-5.34,12.78-10.76,17.68-17.53a53.28,53.28,0,0,0,9.83-35.56l-.64.48a12.23,12.23,0,0,0,11-1.81C154,65.42,153.45,64.55,152.93,64.93Z" transform="translate(-0.49 -0.02)"/><g class="cls-7"><path class="cls-5" d="M28.8,101.62a80.45,80.45,0,0,1,9.36-55.23,171.42,171.42,0,0,0-5.6,57.52Z" transform="translate(-0.49 -0.02)"/></g><g class="cls-7"><path class="cls-5" d="M70.1,26.59c0,11.24,0,22.64-2.47,33.57,0,0,0,0,0,0a0,0,0,0,0,0,0,36.73,36.73,0,0,1-25.74,19c0-.09,0-.19.07-.28h0A87.14,87.14,0,0,0,70.1,26.59Z" transform="translate(-0.49 -0.02)"/></g><g class="cls-7"><path class="cls-5" d="M107.65,87.57h0c-.35,1.35-.75,2.7-1.2,4A44.94,44.94,0,0,0,90.26,75.47a119.29,119.29,0,0,0-13.37-25.6c8.48,5,16.74,10.72,22.75,18.51A38.41,38.41,0,0,1,107.65,87.57Z" transform="translate(-0.49 -0.02)"/></g><g class="cls-7"><path class="cls-5" d="M117.74,93.22c-.12,4.52-.49,9.18-2.6,13.18a12.68,12.68,0,0,1-.76,1.28h0l-3.06.49a149.2,149.2,0,0,0-.09-27.23v-.08c0-1.66-.11-3.31-.23-5-.79-11.17-3.19-22.17-5.58-33.12a20.75,20.75,0,0,1,7,8.94,48.05,48.05,0,0,1,3,11.07A149.94,149.94,0,0,1,117.74,93.22Z" transform="translate(-0.49 -0.02)"/></g><g class="cls-7"><path class="cls-5" d="M142.59,67.13a52.84,52.84,0,0,1-7.72,32.27,65.78,65.78,0,0,0,.57-16.05,101.91,101.91,0,0,0-11.47-40,144.86,144.86,0,0,0,19.59,24.07C143.23,67.33,142.91,67.24,142.59,67.13Z" transform="translate(-0.49 -0.02)"/></g><g class="cls-7"><path class="cls-5" d="M14.89,101.1c-.32-.73-.62-1.47-.9-2.21a31.93,31.93,0,0,1-4.69.17c2.56-2.21,3.43-15.55,3.59-23.08.21-10.19.65-20.61,5.32-29.66A43.27,43.27,0,0,1,40.1,26C23.36,42.27,15.42,97.16,14.89,101.1Z" transform="translate(-0.49 -0.02)"/></g></g></g></g></svg>