<svg xmlns="http://www.w3.org/2000/svg" viewBox="0 0 141.61 235.43"><defs><style>.cls-1{isolation:isolate;}.cls-11,.cls-2,.cls-9{fill:#fceaee;}.cls-10,.cls-13,.cls-16,.cls-2,.cls-4,.cls-8{mix-blend-mode:multiply;}.cls-3,.cls-4{fill:#b13dcd;}.cls-14,.cls-17,.cls-3,.cls-7,.cls-9{stroke:#80433b;}.cls-14,.cls-3,.cls-7,.cls-9{stroke-miterlimit:10;}.cls-4{opacity:0.67;}.cls-5,.cls-7,.cls-8{fill:#d0e4e9;}.cls-6{fill:#80433b;}.cls-12{fill:#f7d080;}.cls-13{opacity:0.5;}.cls-14,.cls-16{fill:#f4a9bc;}.cls-15{fill:#fff;}.cls-16{opacity:0.46;}.cls-17{fill:none;stroke-linecap:round;stroke-linejoin:round;}</style></defs><title>k2k1</title><g class="cls-1"><g id="Layer_2" data-name="Layer 2"><g id="OBJECTS"><ellipse class="cls-2" cx="70.8" cy="226.31" rx="58.81" ry="9.12"/><path class="cls-3" d="M68.6,187.2,52,219.48l-1.84,3.59v4.73H36.31c-.36-3.35,4.83-4.73,4.83-4.73v-4.28l.08-33.56,20.55,1.48Z"/><path class="cls-4" d="M61.78,186.71l-20.55-1.48,0,9.11a32.09,32.09,0,0,0,3.68,1.8A39.74,39.74,0,0,0,51.57,198q2.31.45,4.65.81l-9.25,20v4.28s-5.19,1.38-4.83,4.73h8.06v-4.73L52,219.48,68.6,187.2Z"/><path class="cls-5" d="M52,219.48l-1.84,3.59v4.73H36.31c-.36-3.35,4.83-4.73,4.83-4.73v-4.28a91.74,91.74,0,0,1,10.36.62Z"/><path class="cls-6" d="M51.6,219.23l-1.06,2.07a6.1,6.1,0,0,0-.85,1.81,23.35,23.35,0,0,0,0,2.51v2.18l.5-.5H36.31l.5.5c-.2-2.35,2.53-3.73,4.46-4.25a.5.5,0,0,0,.37-.48v-4.28l-.5.5A96.45,96.45,0,0,1,52,220c.64.08.63-.92,0-1a96.45,96.45,0,0,0-10.88-.69.51.51,0,0,0-.5.5v4.28l.37-.48c-2.36.63-5.44,2.38-5.2,5.21a.51.51,0,0,0,.5.5H50.19a.51.51,0,0,0,.5-.5v-3.61a4.43,4.43,0,0,0,0-1c0-.18-.07.13,0,.12s.13-.26.16-.31l.63-1.22,1-2C52.75,219.16,51.89,218.66,51.6,219.23Z"/><path class="cls-3" d="M101.27,227.8H87.39v-4.73L85.29,219,69.8,188.8,69,187.2l6.47-.47h0l20.86-1.5.07,33.11v4.73S101.63,224.45,101.27,227.8Z"/><path class="cls-4" d="M91.48,222.06l-10.32-22.8a139.75,139.75,0,0,0,15.22-3.51l0-10.52-20.86,1.5h0L69,187.2l.82,1.6,5.67,11h0L85.29,219l2.1,4.09v4.73h6.49a11.26,11.26,0,0,0-2.39-1Z"/><path class="cls-5" d="M101.27,227.8H87.39v-4.73L85.29,219c3.72-.29,7.53-.67,11.14-.64v4.73S101.63,224.45,101.27,227.8Z"/><path class="cls-6" d="M101.27,227.3H87.39l.5.5v-2.43a13.4,13.4,0,0,0,0-2.37,3.12,3.12,0,0,0-.35-.74l-.7-1.38-1.11-2.15-.43.75c3.71-.29,7.42-.66,11.14-.64l-.5-.5v4.73a.49.49,0,0,0,.37.48c1.93.52,4.66,1.9,4.46,4.25-.06.64.94.64,1,0,.24-2.83-2.84-4.58-5.2-5.21l.37.48v-4.73a.51.51,0,0,0-.5-.5c-3.72,0-7.43.35-11.14.64a.5.5,0,0,0-.43.75l1,2.05.72,1.4c.08.16.15.32.24.47.19.33,0-.09,0-.07a16.26,16.26,0,0,1,0,2.42v2.3a.51.51,0,0,0,.5.5h13.88A.5.5,0,0,0,101.27,227.3Z"/><path class="cls-7" d="M85.47,126.5l-29.78-1S33.84,163.35,34,186.41c0,0,27.28,17.34,69.9-1.18C103.94,185.23,96.27,145.91,85.47,126.5Z"/><path class="cls-8" d="M55.69,125.51l3.72.12c-.9,2.39-15,40.45-15.48,65A45.16,45.16,0,0,1,34,186.41C33.84,163.35,55.69,125.51,55.69,125.51Z"/><path class="cls-8" d="M104,185.23q-5.22,2.27-10.13,3.85c-1.14-8.38-6.21-43.83-13-62.49l-14.14-.72,18.8.63C96.27,145.91,104,185.23,104,185.23Z"/><path class="cls-7" d="M66.67,125.87l-7.26-.24a.64.64,0,0,1,0-.12Z"/><path class="cls-9" d="M126,104.71c-.87,7.4-6.3,12.84-12.13,12.16s-9.85-7.24-9-14.64,6.3-12.85,12.13-12.16S126.87,97.31,126,104.71Z"/><path class="cls-9" d="M32.37,101.46c2.94,6.85,1,14.28-4.43,16.6s-12.15-1.34-15.1-8.19-1-14.27,4.43-16.59S29.42,94.62,32.37,101.46Z"/><path class="cls-9" d="M129.21,77.15c-1.1,12.49-6.81,23.53-15.19,32.23-.32.36-.67.71-1,1.06a4.41,4.41,0,0,0-1.32,3.25,21.24,21.24,0,0,1-.1,2.79,9.62,9.62,0,0,1-3.44,6.67c-3.38,2.88-7.8,4.15-12,5.24a100.56,100.56,0,0,1-25.16,3,120.16,120.16,0,0,1-29.55-3.51c-5.77-1.51-13-4.35-15.19-10.24a8.52,8.52,0,0,1-.41-1.44,10.8,10.8,0,0,1-.22-2.09v-.14a4.71,4.71,0,0,0-1.2-3.11A59.83,59.83,0,0,1,12.22,90a61.37,61.37,0,0,1-2.82-27C13.26,30.26,42.07,6.67,73.76,10.39c14.94,1.76,29,6.72,39.3,16.19C124.57,37.19,131.33,53.44,129.21,77.15Z"/><g class="cls-10"><path class="cls-11" d="M131.79,56a57.73,57.73,0,0,0-11.74-22.46C106.68,17.88,80.13,10,59.76,12.2a65.13,65.13,0,0,0-19,5.09C12.6,29.65-1.42,65.58,15.46,94.11c.26-1.4.45-2.81.62-4.23a30.44,30.44,0,0,0,2,6.37l.52,1.12c2.37,4.91,6,9.16,8.57,14a13.1,13.1,0,0,0,1.29-5.91,4.58,4.58,0,0,0,4.12,3.21,21.75,21.75,0,0,1-1.88-6.93,31.26,31.26,0,0,1,.26-8.31A50.88,50.88,0,0,1,32.14,88a9.54,9.54,0,0,0,5.57,3.72l.3.06c.26-4.51,1.45-9.29,5-12.4a14.52,14.52,0,0,0,.45,2.37C44.94,87,49.53,92.21,55.28,91.8h.2c-.6-4.06-1.17-8.35.3-12.31a20,20,0,0,1,2.09,2.8,41.09,41.09,0,0,1,4.25,10.37c.21.71.41,1.41.62,2.11,6.25-2.37,9.74-9.14,11.05-15.32.07-.29.12-.57.17-.86,3.67,2.29,4.74,7.06,4,11.1,0,.31-.11.61-.19.92,4.82-.82,8.45-4.53,10.59-8.75A23.72,23.72,0,0,0,89.58,79c2.67,3.4,3.45,7.67,3.67,11.87,0,.55,0,1.1.06,1.65,4.57-.39,8.45-3.95,10.76-7.74.17.52.33,1,.49,1.55.21,3.46.17,7,.59,10.4,0,.29.06.57.11.86a11.49,11.49,0,0,0,1.41-.56c0,.92.07,1.84,0,2.76a23.12,23.12,0,0,1-2,8.9,4.59,4.59,0,0,0,4.11-3.21,13.1,13.1,0,0,0,1.29,5.91c1.59-3,3.58-5.76,5.44-8.6a48.19,48.19,0,0,0,3.42-6A16.6,16.6,0,0,0,121.87,95a35.41,35.41,0,0,0,3.51-3.53C133.84,81.61,135,68.38,131.79,56Z"/></g><path class="cls-12" d="M25.74,101.39a24.5,24.5,0,0,0,2.11,7.78,5.14,5.14,0,0,1-4.62-3.6,14.59,14.59,0,0,1-1.45,6.63c-2.87-5.42-7-10.19-9.61-15.7-.21-.42-.4-.84-.59-1.26-2.88-6.6-3.38-14-2.81-21.18.09-1.19.21-2.37.36-3.55l1.38.31L31,75.38c-2,5.45-4.08,11-5,16.69A35.07,35.07,0,0,0,25.74,101.39Z"/><path class="cls-6" d="M25.24,101.39a25.74,25.74,0,0,0,2.18,8l.43-.75a4.67,4.67,0,0,1-4.14-3.23.5.5,0,0,0-1,.13A14.5,14.5,0,0,1,21.35,112h.86c-2.68-5-6.35-9.47-9-14.52A38.07,38.07,0,0,1,9.08,80.57a66.33,66.33,0,0,1,.55-10.06L9,71l7.15,1.6L28,75.22l2.87.64-.35-.61c-3.12,8.36-6.27,17.06-5.31,26.14.07.63,1.07.64,1,0-.95-9,2.19-17.59,5.27-25.88a.5.5,0,0,0-.35-.61l-7.73-1.72-11.24-2.5L9.26,70a.5.5,0,0,0-.63.48,56,56,0,0,0,.29,17.86,34.63,34.63,0,0,0,2.77,8.28,63.37,63.37,0,0,0,4.47,7.52c1.8,2.72,3.65,5.4,5.19,8.28a.5.5,0,0,0,.86,0,15.6,15.6,0,0,0,1.52-6.88l-1,.13a5.7,5.7,0,0,0,5.1,4,.5.5,0,0,0,.43-.75,24.33,24.33,0,0,1-2-7.53C26.17,100.76,25.17,100.75,25.24,101.39Z"/><g class="cls-13"><path class="cls-12" d="M26,92.07a35.07,35.07,0,0,0-.3,9.32,21.78,21.78,0,0,1-12.66-10.1c.08,2,.17,3.92.25,5.88-.39-.21-.78-.44-1.16-.67-.21-.42-.4-.84-.59-1.26-2.88-6.6-3.38-14-2.81-21.18l1.74-3.24L31,75.38C29,80.83,27,86.33,26,92.07Z"/></g><path class="cls-12" d="M125.09,95.24a49.55,49.55,0,0,1-4.11,7.31c-2.08,3.19-4.32,6.29-6.1,9.65a14.72,14.72,0,0,1-1.45-6.63,5.14,5.14,0,0,1-4.61,3.6,26,26,0,0,0,2.27-10,36.74,36.74,0,0,0-.46-7.11c-.92-5.74-3-11.24-5-16.69l21.89-4.87C128.57,78.83,128.43,87.55,125.09,95.24Z"/><path class="cls-6" d="M124.66,95c-2.68,6.07-7.1,11.13-10.21,17h.86a14.64,14.64,0,0,1-1.38-6.38.5.5,0,0,0-1-.13,4.68,4.68,0,0,1-4.13,3.23l.43.75c3.9-8.53,2.34-18.12-.47-26.72-.82-2.51-1.74-5-2.66-7.45l-.35.61,7.42-1.65,11.75-2.61,2.72-.61-.63-.48c1,8.18.94,16.79-2.37,24.48-.25.58.61,1.09.86.5,3.39-7.86,3.55-16.6,2.51-25a.51.51,0,0,0-.63-.48L120,71.68l-11.75,2.61-2.72.61a.5.5,0,0,0-.35.61c3.1,8.32,6.31,17,5.24,26.08a24.36,24.36,0,0,1-2,7.33.5.5,0,0,0,.43.75,5.7,5.7,0,0,0,5.09-4l-1-.13a15.74,15.74,0,0,0,1.52,6.88.5.5,0,0,0,.86,0c3.11-5.83,7.54-10.88,10.21-17C125.78,94.91,124.92,94.4,124.66,95Z"/><g class="cls-13"><path class="cls-12" d="M125.09,95.24a49.55,49.55,0,0,1-4.11,7.31,20.29,20.29,0,0,1-1-8.61,21,21,0,0,1-8.89,5.24,36.74,36.74,0,0,0-.46-7.11c-.92-5.74-3-11.24-5-16.69l21.89-4.87C128.57,78.83,128.43,87.55,125.09,95.24Z"/></g><path class="cls-12" d="M132.05,89.92a39.85,39.85,0,0,1-3.94,4c-1.48,1.29-5.77,2.81-6.86,4.24.17-.3.35-.6.51-.92,2.85-5.43,3.11-12.56-.7-17.58l-.29-.37c-.25,6.91-4.17,15.27-11.3,17.45q-.07-.48-.12-1c-.5-4-.41-8.2-.69-12.27,0-.6-.09-1.19-.15-1.78C106,86.19,101.44,90.56,96.06,91c0-.62,0-1.24-.07-1.86-.24-4.71-1.12-9.5-4.12-13.32a24.22,24.22,0,0,1-1.34,3.23c-2.4,4.74-6.48,8.9-11.89,9.82.09-.34.16-.68.22-1,.81-4.53-.4-9.88-4.51-12.45-.06.32-.12.64-.2,1-1.47,6.94-5.38,14.53-12.4,17.19q-.34-1.17-.69-2.37a46.24,46.24,0,0,0-4.77-11.63A22.86,22.86,0,0,0,54,76.43c-1.66,4.44-1,9.25-.34,13.81h-.23c-6.45.46-11.6-5.44-13.25-11.33a15.14,15.14,0,0,1-.5-2.66c-4,3.49-5.34,8.85-5.63,13.91l-.33-.07c-5.83-1.21-9.43-7.81-9.18-13.39l-.26.46c-2.79,5-3.54,10.46-4.14,16L19.62,93c-5.31-2.54-8.56-8.86-9.17-14.5-.63,4.76-.88,9.64-1.75,14.35C-10.25,60.83,5.49,20.5,37,6.64A73,73,0,0,1,58.41.92c22.86-2.52,52.65,6.38,67.66,24a64.76,64.76,0,0,1,13.17,25.21C142.89,64,141.54,78.81,132.05,89.92Z"/><path class="cls-6" d="M131.7,89.57a21.23,21.23,0,0,1-5.79,5.11c-1,.51-1.92,1-2.86,1.5a7.07,7.07,0,0,0-2.15,1.6l.78.6c3.44-6,3.94-13.85-.56-19.47-.29-.36-.83,0-.85.35-.28,6.85-4,14.78-10.93,17l.61.35c-.73-4.92-.45-9.93-.94-14.88a.5.5,0,0,0-.93-.25c-2.51,4.4-6.74,8.57-12,9.08l.5.5c-.11-5.46-.9-11.1-4.34-15.53-.24-.32-.73-.1-.83.22-2,5.9-6.46,11.56-12.88,12.7l.61.61c1.27-5,.07-11.1-4.52-14a.5.5,0,0,0-.73.3c-1.35,7.15-5,15-12.25,17.8l.61.35C60.43,87.31,58.64,81,54.3,76.08a.5.5,0,0,0-.83.22c-1.66,4.54-1,9.4-.34,14.07l.48-.63a10.48,10.48,0,0,1-5-.87,13.26,13.26,0,0,1-4-2.92,16.9,16.9,0,0,1-4.51-9.69.5.5,0,0,0-.85-.35c-4.06,3.59-5.47,9-5.78,14.26l.63-.48c-5.84-1.11-9.35-7.35-9.14-13a.5.5,0,0,0-.93-.25c-3,5.09-3.85,11-4.47,16.75l.75-.43c-5.5-2.46-8.74-8.49-9.39-14.29a.5.5,0,0,0-1,0C9.33,83.22,9.07,88,8.22,92.71l.91-.12A58.21,58.21,0,0,1,1.35,69.42,60.1,60.1,0,0,1,3.4,46.24,63,63,0,0,1,13.82,25.62,60.44,60.44,0,0,1,31.23,10.16,68.91,68.91,0,0,1,59.62,1.3,83.75,83.75,0,0,1,84.78,3a88,88,0,0,1,24.52,9.11,59.48,59.48,0,0,1,19.19,16.6A63,63,0,0,1,140,56.42c1.39,9.29.31,19.09-4.32,27.37a36.17,36.17,0,0,1-4,5.78c-.42.49.29,1.2.7.7a40.28,40.28,0,0,0,9.21-26.4A60.64,60.64,0,0,0,133.68,35a61.78,61.78,0,0,0-8.59-12,58.22,58.22,0,0,0-9.43-8.1A82.57,82.57,0,0,0,91.8,3.77,90.78,90.78,0,0,0,65.76,0,73.11,73.11,0,0,0,36.14,6.5,60.36,60.36,0,0,0,16.88,20.44a63.88,63.88,0,0,0-12.54,20A61.82,61.82,0,0,0,0,63.71,59.07,59.07,0,0,0,8.27,93.09.5.5,0,0,0,9.18,93c.87-4.79,1.14-9.66,1.77-14.48H10C10.64,84.62,14,91,19.84,93.64a.5.5,0,0,0,.75-.43C21.19,87.61,22,81.9,24.92,77L24,76.71c-.23,6.05,3.62,12.76,9.88,13.94a.5.5,0,0,0,.63-.48c.3-5,1.62-10.13,5.48-13.56l-.85-.35a18,18,0,0,0,4.81,10.4,13.67,13.67,0,0,0,4.34,3.15,11.57,11.57,0,0,0,5.33.93.5.5,0,0,0,.48-.63c-.66-4.5-1.25-9.17.34-13.55l-.83.22c4.21,4.75,5.92,11,7.67,16.92a.5.5,0,0,0,.61.35c7.56-2.92,11.53-11,12.95-18.5l-.73.3c4.2,2.69,5.21,8.36,4.06,12.92a.5.5,0,0,0,.61.61c6.77-1.2,11.49-7.18,13.58-13.4l-.83.22c3.25,4.21,3.94,9.67,4,14.83a.5.5,0,0,0,.5.5c5.65-.54,10.18-4.83,12.88-9.58L108,81.7c.5,5,.23,10.13,1,15.14a.49.49,0,0,0,.61.35c5.8-1.81,9.46-7.37,10.93-13a23.41,23.41,0,0,0,.74-4.92l-.85.35c4.2,5.26,3.59,12.69.4,18.27-.27.47.42,1.06.78.6a7.07,7.07,0,0,1,2.18-1.56c1-.53,2-1,2.93-1.53a21.69,21.69,0,0,0,5.69-5.12C132.82,89.79,132.12,89.08,131.7,89.57Z"/><g class="cls-13"><path class="cls-12" d="M27.58,51.36c-1.58,8.5-3.15,17.2-3.35,25.81-2.79,5-3.54,10.46-4.14,16L19.62,93A47.72,47.72,0,0,1,27.58,51.36Z"/></g><g class="cls-13"><path class="cls-12" d="M44.07,51.36a89.66,89.66,0,0,0-3.94,27.56,15.14,15.14,0,0,1-.5-2.66c-4,3.49-5.34,8.85-5.63,13.91l-.33-.07A43.21,43.21,0,0,1,32.52,72,33.15,33.15,0,0,1,44.07,51.36Z"/></g><g class="cls-13"><path class="cls-12" d="M54,76.43c-1.66,4.44-1,9.25-.34,13.81h-.23a41.26,41.26,0,0,1,2-37.3q.46,13.3.95,26.62A22.86,22.86,0,0,0,54,76.43Z"/></g><g class="cls-13"><path class="cls-12" d="M74.15,76.38c-1.47,6.94-5.38,14.53-12.4,17.19q-.34-1.17-.69-2.37a62.46,62.46,0,0,0,9.56-36.51c2.11,4.25,2.55,9.11,3,13.84C73.81,71.14,74,73.76,74.15,76.38Z"/></g><g class="cls-13"><path class="cls-12" d="M90.53,79.08c-2.4,4.74-6.48,8.9-11.89,9.82.09-.34.16-.68.22-1a32.21,32.21,0,0,0,6-14.94c1.09-7.27.31-14.68-.46-22,3.22,8.89,6,18.11,6.1,27.57C90.52,78.7,90.53,78.89,90.53,79.08Z"/></g><g class="cls-13"><path class="cls-12" d="M108.66,83.48c0-.6-.09-1.19-.15-1.78C106,86.19,101.44,90.56,96.06,91c0-.62,0-1.24-.07-1.86a41.41,41.41,0,0,0,6.57-19.78c.73-9-.87-18.12-3-26.95a92.49,92.49,0,0,1,8.61,28.25A57.67,57.67,0,0,1,108.66,83.48Z"/></g><g class="cls-13"><path class="cls-12" d="M121.06,79.63l-.29-.37c-.25,6.91-4.17,15.27-11.3,17.45q-.07-.48-.12-1c4.29-4.67,6.63-11.12,7.28-17.51.82-8-.67-16-2.16-23.89A39.78,39.78,0,0,1,121.06,79.63Z"/></g><g class="cls-13"><path class="cls-12" d="M132.05,89.92a39.85,39.85,0,0,1-3.94,4c-1.48,1.29-5.77,2.81-6.86,4.24.17-.3.35-.6.51-.92a41.47,41.47,0,0,0,8.94-35.62A50.6,50.6,0,0,1,132.05,89.92Z"/></g><path class="cls-6" d="M49.32,109.6a4.81,4.81,0,0,0,5-1.19A5.29,5.29,0,0,0,52,99.84c-4-1.14-8.05,3.27-6,7.08A5.68,5.68,0,0,0,49.32,109.6Z"/><path class="cls-6" d="M86.77,110.1a4.81,4.81,0,0,0,5-1.19,5.3,5.3,0,0,0-2.34-8.58c-4-1.14-8,3.28-6,7.09A5.68,5.68,0,0,0,86.77,110.1Z"/><path class="cls-6" d="M74.9,101.66a.94.94,0,0,0-1.12-.64.92.92,0,0,0-.64,1.12A4.91,4.91,0,0,1,71,108.38a4.8,4.8,0,0,1-6.41-2,5,5,0,0,1-.27-3.94c.39-1.11-1.37-1.59-1.75-.48a6.7,6.7,0,0,0,3.51,8.2,6.63,6.63,0,0,0,8.58-3.08A6.78,6.78,0,0,0,74.9,101.66Z"/><path class="cls-14" d="M30.64,115.32a8.08,8.08,0,1,0,6.42-9.46A8.08,8.08,0,0,0,30.64,115.32Z"/><path class="cls-15" d="M41.13,108.83a.7.7,0,0,1,.91.31l2,3a.67.67,0,0,1-.31.9.7.7,0,0,1-.9-.31l-2-3A.67.67,0,0,1,41.13,108.83Z"/><path class="cls-15" d="M37.65,109.58a.69.69,0,0,1,1,.06l2.2,3a.7.7,0,0,1-.07.95.69.69,0,0,1-.95-.06c-.73-1-1.46-2-2.2-3A.7.7,0,0,1,37.65,109.58Z"/><path class="cls-15" d="M34.42,109.93a.69.69,0,0,1,.9.31l1.71,3a.68.68,0,0,1-.31.9.69.69,0,0,1-.9-.31l-1.71-3A.67.67,0,0,1,34.42,109.93Z"/><path class="cls-14" d="M92.16,114.08a8.08,8.08,0,1,0,6.42-9.46A8.09,8.09,0,0,0,92.16,114.08Z"/><path class="cls-15" d="M102.65,107.59a.7.7,0,0,1,.9.3l2,3.06a.68.68,0,0,1-.31.9.69.69,0,0,1-.9-.31l-2-3.05A.67.67,0,0,1,102.65,107.59Z"/><path class="cls-15" d="M99.16,108.34a.68.68,0,0,1,1,.06l2.2,3a.67.67,0,1,1-1,.89c-.73-1-1.47-2-2.2-3A.69.69,0,0,1,99.16,108.34Z"/><path class="cls-15" d="M95.93,108.69a.69.69,0,0,1,.9.31l1.71,3a.67.67,0,0,1-.3.9.7.7,0,0,1-.91-.31l-1.71-3A.68.68,0,0,1,95.93,108.69Z"/><path class="cls-6" d="M95.32,89c-.66-1.88-1.43-3.86-3-5.15a4.69,4.69,0,0,0-5.53-.52.94.94,0,0,0-.33,1.25.91.91,0,0,0,1.24.33,2.53,2.53,0,0,1,1.74-.44,3.46,3.46,0,0,1,1.85.89,9.54,9.54,0,0,1,2.3,4.13A.91.91,0,0,0,95.32,89Z"/><path class="cls-6" d="M44.06,89a10.85,10.85,0,0,1,3-5.15,4.69,4.69,0,0,1,5.53-.52A.94.94,0,0,1,53,84.56a.92.92,0,0,1-1.25.33A2.49,2.49,0,0,0,50,84.45a3.46,3.46,0,0,0-1.85.89,9.34,9.34,0,0,0-2.3,4.13.93.93,0,0,1-1.12.63A.92.92,0,0,1,44.06,89Z"/><path class="cls-7" d="M42.43,152.88l6.12,2.93-1.89,10.05c-1.33.23-2.58.4-3.76.52-11.64,1.19-18.67-12.51-10.82-21.19,8.27-9.15,21.07-15.05,21.07-15.05l3,.38"/><path class="cls-8" d="M53.38,130.17a11,11,0,0,1-3.33,2.12c-1.93.93-3.9,1.8-5.77,2.85-1.24.81-2.54,1.69-3.86,2.66a13.83,13.83,0,0,0-4.23,5.62c-1.23,3.39-.41,7.4,3.17,8.82a16.55,16.55,0,0,0,3.59.89l-.52-.25,13.7-22.36Z"/><path class="cls-7" d="M87.58,143.63l7.21,5.87,3.5,3.38-6.11,2.93,1.88,10.05c1.33.23,2.59.4,3.77.52,11.64,1.19,18.66-12.51,10.81-21.19-8.27-9.15-21.06-15.05-21.06-15.05l-2.64.37"/><path class="cls-8" d="M98.16,152.75a5.17,5.17,0,0,0,3.24-2.52c1.31-2.66-.39-6-1.88-8.21a24.43,24.43,0,0,0-7.87-7.2,58.6,58.6,0,0,0-6.44-3l2.37,11.78,7.21,5.87Z"/><circle class="cls-14" cx="69.29" cy="161.22" r="26.27"/><path class="cls-16" d="M79.57,137.05a39.89,39.89,0,0,1,.79,6.95c.14,6.59-1.38,13.6-5.29,19A32.33,32.33,0,0,1,62.33,173.1a45.17,45.17,0,0,1-14,3.92,26.27,26.27,0,1,0,31.27-40Z"/><path class="cls-9" d="M39.94,160.77a4.83,4.83,0,0,1,.85-3.44,7.22,7.22,0,0,1,3.82-2.72,12.51,12.51,0,0,1,3.87-.75s2.48,1.93-1.68,3.71a19.63,19.63,0,0,0,5.62-1,2.18,2.18,0,0,1,2.79,2.31c-.4,3.51-2.5,8.3-11.5,5.87A5,5,0,0,1,39.94,160.77Z"/><path class="cls-17" d="M55.12,158.41A9.93,9.93,0,0,1,48.31,160"/><path class="cls-17" d="M54.74,161.07s-2.1,1.71-6.45,1.32"/><path class="cls-9" d="M100.76,160.77a4.83,4.83,0,0,0-.86-3.44,7.14,7.14,0,0,0-3.82-2.72,12.46,12.46,0,0,0-3.87-.75s-2.48,1.93,1.68,3.71a19.63,19.63,0,0,1-5.62-1,2.18,2.18,0,0,0-2.78,2.31c.39,3.51,2.49,8.3,11.5,5.87A5,5,0,0,0,100.76,160.77Z"/><path class="cls-17" d="M85.57,158.41A10,10,0,0,0,92.39,160"/><path class="cls-17" d="M86,161.07s2.1,1.71,6.45,1.32"/></g></g></g></svg>