<svg xmlns="http://www.w3.org/2000/svg" viewBox="0 0 147.78 237.69"><defs><style>.cls-1{isolation:isolate;}.cls-14,.cls-2,.cls-6{fill:#fceaee;}.cls-10,.cls-12,.cls-2,.cls-5{mix-blend-mode:multiply;}.cls-13,.cls-3{fill:#f7d080;}.cls-4{fill:#80433b;}.cls-11,.cls-13,.cls-6,.cls-8,.cls-9{stroke:#80433b;}.cls-11,.cls-13,.cls-6,.cls-9{stroke-miterlimit:10;}.cls-7{fill:#fff;}.cls-8{fill:none;stroke-linecap:round;stroke-linejoin:round;}.cls-10,.cls-9{fill:#f4a9bc;}.cls-11,.cls-12{fill:#b13dcd;}</style></defs><title>k4</title><g class="cls-1"><g id="Layer_2" data-name="Layer 2"><g id="OBJECTS"><ellipse class="cls-2" cx="71.52" cy="228.57" rx="58.81" ry="9.12"/><path class="cls-3" d="M142.58,130.68c-5.25-4.17-9.31-10.88-11.23-18.57A44.9,44.9,0,0,1,132,88.34L73.55,96.2l0-.81L11.45,87.05a45,45,0,0,1,.67,23.77c-1.92,7.69-6,14.4-11.23,18.57a25.26,25.26,0,0,0,9.55,3.24c-3.1,5.58-2.2,14.32,1.91,18.61,1.62,1.7,3.59,2.7,5.43,4a11.29,11.29,0,0,1,4.54,5.4c.89,2.48.52,5.91-1.26,7.3,6.32-.34,12.53-3.8,17.12-9.56a7.94,7.94,0,0,0,1.66,6.5,10.59,10.59,0,0,0,4.88,3.09c4.27,1.5,49.76,2.8,54,1.29a10.64,10.64,0,0,0,4.88-3.09,8,8,0,0,0,1.65-6.5c4.6,5.76,10.81,9.22,17.13,9.56-1.79-1.39-2.16-4.82-1.26-7.3a11.29,11.29,0,0,1,4.54-5.4,31.5,31.5,0,0,0,5.43-4c4.11-4.29,5-13,1.91-18.61A25.31,25.31,0,0,0,142.58,130.68Z" transform="translate(-0.39 -0.02)"/><path class="cls-4" d="M142.93,130.32C133.74,123,130,110.4,130.63,99a43.27,43.27,0,0,1,1.87-10.53c.13-.4-.26-.66-.62-.61l-5.81.78-14,1.87L95.22,92.78l-14.61,2-4.81.64a12.61,12.61,0,0,0-2.29.31l-.09,0,.63.48,0-.81a.51.51,0,0,0-.37-.48l-6.18-.83-14.84-2-17.87-2.4L19.24,87.6c-2.51-.34-5-.78-7.55-1h-.11c-.35,0-.74.21-.61.61,3.58,11.55,2.33,25-4.42,35.21a28.63,28.63,0,0,1-6,6.64.51.51,0,0,0,.11.79,26.42,26.42,0,0,0,9.8,3.31l-.43-.76a18.21,18.21,0,0,0-.63,15A13.2,13.2,0,0,0,14,153.27c2.46,1.8,5.32,3.08,7,5.73,1.51,2.34,2.18,6.54-.27,8.54a.51.51,0,0,0,.36.86c7-.41,13.16-4.35,17.48-9.71l-.84-.48a8.41,8.41,0,0,0,1.21,6.21,10.24,10.24,0,0,0,5,3.73,14.52,14.52,0,0,0,3.8.78c4.61.52,9.27.72,13.91.92q9,.41,18.1.51c4.95.06,9.91.1,14.85-.15a23.39,23.39,0,0,0,4-.41,9.5,9.5,0,0,0,7.24-7.09,8.07,8.07,0,0,0,0-3.21l-.84.48c4.31,5.36,10.5,9.3,17.48,9.71a.51.51,0,0,0,.35-.86c-2.1-1.72-1.89-5.33-.82-7.55,1.38-2.86,4.06-4.37,6.6-6a13.85,13.85,0,0,0,5.2-5.74,18.42,18.42,0,0,0,1.63-7.49,16.92,16.92,0,0,0-1.91-8.35l-.43.76a26.42,26.42,0,0,0,9.8-3.31.5.5,0,0,0-.5-.86,25.36,25.36,0,0,1-9.3,3.17.5.5,0,0,0-.43.75,17.14,17.14,0,0,1,0,15.41,11.45,11.45,0,0,1-2.27,3,28.08,28.08,0,0,1-4,2.85c-2.44,1.57-4.67,3.48-5.67,6.29-.86,2.43-.75,6,1.4,7.78l.35-.85c-6.72-.4-12.63-4.27-16.77-9.41-.34-.42-.93,0-.84.48.89,4.31-2.42,7.93-6.36,9a15.9,15.9,0,0,1-3.34.39c-4.54.27-9.1.23-13.65.2-5.79,0-11.58-.2-17.37-.42-4.82-.19-9.64-.4-14.45-.83a36.53,36.53,0,0,1-4-.5,8.71,8.71,0,0,1-6.77-5.81,7,7,0,0,1-.15-3.35c.09-.44-.5-.91-.84-.48-4.14,5.14-10,9-16.77,9.41l.35.85c1.92-1.57,2.16-4.58,1.66-6.84a11.21,11.21,0,0,0-4.95-6.58c-2.48-1.72-5.16-3.08-6.79-5.74a17.43,17.43,0,0,1-.46-16.21.5.5,0,0,0-.43-.75A25.36,25.36,0,0,1,1.14,129l.1.78c9.38-7.5,13.21-20.4,12.6-32a44.35,44.35,0,0,0-1.91-10.79l-.61.61,6.18.83,14.83,2,17.88,2.4,15.52,2.08,5.1.69,1.61.22a4,4,0,0,0,.84.11s.07,0,.1,0L73,95.39l0,.81a.5.5,0,0,0,.63.48l5.82-.78,14-1.88,16.89-2.27,14.6-2,4.82-.65a10.89,10.89,0,0,0,2.28-.31h.1l-.61-.61c-3.66,11.78-2.38,25.59,4.52,36a29.77,29.77,0,0,0,6.17,6.84C142.72,131.43,143.44,130.73,142.93,130.32Z" transform="translate(-0.39 -0.02)"/><g class="cls-5"><path class="cls-3" d="M127.74,125.77c-4.24-3.36-7.52-8.79-9.06-15a36.32,36.32,0,0,1,.53-19.19L72,97.93l0-.65L21.87,90.54a36.22,36.22,0,0,1,.54,19.19c-1.55,6.21-4.83,11.63-9.06,15a20.4,20.4,0,0,0,7.71,2.61c-2.5,4.51-1.78,11.57,1.54,15a25.37,25.37,0,0,0,4.39,3.2,9.13,9.13,0,0,1,3.66,4.36c.72,2,.42,4.77-1,5.89,5.11-.28,10.11-3.07,13.83-7.72a6.45,6.45,0,0,0,1.33,5.25,8.57,8.57,0,0,0,3.94,2.49c3.45,1.22,40.18,2.26,43.63,1a8.57,8.57,0,0,0,3.94-2.49,6.44,6.44,0,0,0,1.33-5.25c3.71,4.65,8.72,7.45,13.83,7.72-1.44-1.12-1.74-3.89-1-5.89a9.13,9.13,0,0,1,3.66-4.36,25.37,25.37,0,0,0,4.39-3.2c3.32-3.46,4-10.52,1.54-15A20.28,20.28,0,0,0,127.74,125.77Z" transform="translate(-0.39 -0.02)"/></g><path class="cls-6" d="M30.1,161.43a11.27,11.27,0,0,1-1.81,1.11,5.43,5.43,0,0,1-3.16.57,6,6,0,0,1-2.85-1.48,1.44,1.44,0,0,0-1-.48.92.92,0,0,0-.7,1.07c.06.48.53.72.83,1.09a4.15,4.15,0,0,0-1.25-.79,1.32,1.32,0,0,0-1.37,0,.81.81,0,0,0,0,1.25,1.15,1.15,0,0,0,.19,1.41,3.31,3.31,0,0,0,1.33.75l3.17,1.2c.37.14.81.4.74.79a.61.61,0,0,1-.56.42,1.92,1.92,0,0,1-.74-.15,9.65,9.65,0,0,0-1.84-.43,1.37,1.37,0,0,0-1,.14,1,1,0,0,0,0,1.37,2.55,2.55,0,0,0,1.36.7,17.46,17.46,0,0,0,3.2.57c1.21.1,2.56.15,3.4,1a5.87,5.87,0,0,1,1,1.82A2.75,2.75,0,0,0,30.25,175c.35.15.86.11,1-.25A.77.77,0,0,0,31,174a2.57,2.57,0,0,1-.57-.67c-.23-.54.19-1.13.66-1.48a4.08,4.08,0,0,0,1.32-1.11c.38-.69.09-1.54.13-2.32a2.8,2.8,0,0,1,1.73-2.44l.36-.32A46.9,46.9,0,0,1,30.1,161.43Z" transform="translate(-0.39 -0.02)"/><path class="cls-7" d="M25.12,161.19a1.76,1.76,0,0,1,1.24-1.6,2.87,2.87,0,0,1,2.11.2A8.33,8.33,0,0,1,30.26,161l4.52,5.77a6,6,0,0,1-.31,2.87,2.09,2.09,0,0,1-2.34,1.28A1.88,1.88,0,0,1,31,169.54a3,3,0,0,1,.26-1.85,1.75,1.75,0,1,1-2.35-2.57,5,5,0,0,1-1.85-.07,1.82,1.82,0,0,1-1.32-1.2,1.14,1.14,0,0,1,.85-1.41A1.29,1.29,0,0,1,25.12,161.19Z" transform="translate(-0.39 -0.02)"/><path class="cls-4" d="M25.62,161.19c.05-1.19,1.46-1.37,2.35-1.07a5.39,5.39,0,0,1,2,1.27,21.33,21.33,0,0,1,1.32,1.69l3.18,4-.15-.35c.07,1.23.17,3-1.18,3.59a1.11,1.11,0,0,1-1.48-.49,2.31,2.31,0,0,1,.08-2c.21-.49-.5-.8-.83-.49a1.25,1.25,0,1,1-1.64-1.86.51.51,0,0,0-.36-.86,3.24,3.24,0,0,1-2.25-.31c-.48-.35-.71-1.24.07-1.39.54-.1.43-1-.14-1a.79.79,0,0,1-.93-.75c-.05-.63-1.06-.64-1,0a1.8,1.8,0,0,0,1.93,1.75l-.13-1a1.67,1.67,0,0,0-1,2.5c.7,1.21,2.21,1.27,3.45,1.16l-.35-.85a2.25,2.25,0,1,0,3.06,3.28l-.84-.49a3,3,0,0,0,.38,3.3A2.17,2.17,0,0,0,34,171a3.79,3.79,0,0,0,1.29-3.13,2.57,2.57,0,0,0-.18-1.43l-.19-.24-2.45-3.13c-.61-.78-1.19-1.66-1.87-2.38a5.31,5.31,0,0,0-3.49-1.7,2.39,2.39,0,0,0-2.51,2.22C24.59,161.84,25.59,161.84,25.62,161.19Z" transform="translate(-0.39 -0.02)"/><path class="cls-8" d="M21.35,163.17a8.19,8.19,0,0,0,4.19,1.26" transform="translate(-0.39 -0.02)"/><path class="cls-8" d="M18.75,163.85a.75.75,0,0,1,.73-.22,2.29,2.29,0,0,1,.74.31,11.19,11.19,0,0,0,5.16,1.34" transform="translate(-0.39 -0.02)"/><path class="cls-9" d="M60.89,127.8l-3,28.89s-15,8.42-24,11.42l-4.64-7.3S38.79,136.88,60.89,127.8Z" transform="translate(-0.39 -0.02)"/><path class="cls-10" d="M46.42,151.87c-3,2.79-5.74,5.83-8.45,8.89a47.76,47.76,0,0,0-4.84,6.18l.74,1.17c9-3,24-11.42,24-11.42l1.53-14.76A88.23,88.23,0,0,0,46.42,151.87Z" transform="translate(-0.39 -0.02)"/><path class="cls-11" d="M72.73,189.48l-5.87,11.45-9.52,18.54-3,5.88v4.73H40.44c-.36-3.35,4.83-4.73,4.83-4.73v-5.88l0-21.68,0-10.28Z" transform="translate(-0.39 -0.02)"/><path class="cls-12" d="M45.36,187.51l27.37,2-5.87,11.45a96.4,96.4,0,0,1-21.53-3.14Z" transform="translate(-0.39 -0.02)"/><path class="cls-13" d="M45.28,219.47H57.34l-3,5.88v4.73H40.44c-.36-3.35,4.83-4.73,4.83-4.73Z" transform="translate(-0.39 -0.02)"/><path class="cls-11" d="M105.4,230.08H91.52v-4.73l-3-5.88-9.6-18.71-5.79-11.28,27.37-2,0,9.27.06,22.69v5.88S105.76,226.73,105.4,230.08Z" transform="translate(-0.39 -0.02)"/><path class="cls-12" d="M100.5,196.78a90.07,90.07,0,0,1-21.6,4l-5.79-11.28,27.37-2Z" transform="translate(-0.39 -0.02)"/><path class="cls-13" d="M105.4,230.08H91.52v-4.73l-3-5.88h12.06v5.88S105.76,226.73,105.4,230.08Z" transform="translate(-0.39 -0.02)"/><path class="cls-9" d="M108.07,187.51c-42.62,18.52-69.9,1.18-69.9,1.18a52.6,52.6,0,0,1,1.14-10.64,108.74,108.74,0,0,1,4-14.3,240.14,240.14,0,0,1,16.51-36l.5,0,25,.83,4.32.14c5.14,9.23,9.57,23,12.8,34.83,1.48,5.45,2.71,10.5,3.64,14.54C107.35,183.82,108.07,187.51,108.07,187.51Z" transform="translate(-0.39 -0.02)"/><path class="cls-13" d="M85.41,130.49a12.69,12.69,0,1,1-25.36,0,13.1,13.1,0,0,1,.27-2.68l25,.83A12.59,12.59,0,0,1,85.41,130.49Z" transform="translate(-0.39 -0.02)"/><path class="cls-13" d="M106,178.15c-21.74,5.45-44,5.34-66.73-.1a108.74,108.74,0,0,1,4-14.3c20.54-2.31,40.21-2.51,59.09-.14C103.88,169.06,105.11,174.11,106,178.15Z" transform="translate(-0.39 -0.02)"/><path class="cls-6" d="M72.92,139.2h0a8.35,8.35,0,0,1-8.34-8.34v-8.35H81.27v8.35A8.35,8.35,0,0,1,72.92,139.2Z" transform="translate(-0.39 -0.02)"/><path class="cls-10" d="M85.46,141.81a82.51,82.51,0,0,1,4.72,17.74,156.45,156.45,0,0,1,1.6,18.59c.13,5,0,10.06-.3,15.08a108.6,108.6,0,0,0,16.6-5.71S100.4,148.2,89.6,128.78l-9.46-.31C81.81,133,83.73,137.34,85.46,141.81Z" transform="translate(-0.39 -0.02)"/><polyline class="cls-9" points="100.22 159.01 123.25 135.69 119.08 127.15 87.83 132.15"/><path class="cls-10" d="M123.64,135.71,100.6,159,88.22,132.17l.63-.1c4.49,2.64,10.52,1.89,15.51,1.79a34.66,34.66,0,0,0,16.15-4.55Z" transform="translate(-0.39 -0.02)"/><path class="cls-6" d="M119.47,127.17l4.44,8.27s11.12-3.11,13-7.72L130.57,120S125.36,118.87,119.47,127.17Z" transform="translate(-0.39 -0.02)"/><path class="cls-9" d="M135.69,118.07a3.9,3.9,0,1,1-4.36-3.37A3.9,3.9,0,0,1,135.69,118.07Z" transform="translate(-0.39 -0.02)"/><circle class="cls-9" cx="137.61" cy="117.75" r="3.9"/><path class="cls-9" d="M146.84,121.13a3.9,3.9,0,1,1-4.36-3.38A3.89,3.89,0,0,1,146.84,121.13Z" transform="translate(-0.39 -0.02)"/><path class="cls-9" d="M147.64,127.31a3.9,3.9,0,1,1-4.37-3.37A3.91,3.91,0,0,1,147.64,127.31Z" transform="translate(-0.39 -0.02)"/><path class="cls-9" d="M141.77,130.36a3.9,3.9,0,1,1-4.36-3.37A3.9,3.9,0,0,1,141.77,130.36Z" transform="translate(-0.39 -0.02)"/><path class="cls-9" d="M135.17,129.5a3.9,3.9,0,1,1-4.36-3.37A3.9,3.9,0,0,1,135.17,129.5Z" transform="translate(-0.39 -0.02)"/><path class="cls-9" d="M133.56,124.07a3.9,3.9,0,1,1-4.36-3.37A3.91,3.91,0,0,1,133.56,124.07Z" transform="translate(-0.39 -0.02)"/><path class="cls-13" d="M142.46,123.74a6,6,0,1,1-6.71-5.18A6,6,0,0,1,142.46,123.74Z" transform="translate(-0.39 -0.02)"/><path class="cls-6" d="M130.13,107c-.86,7.4-6.3,12.85-12.13,12.16s-9.85-7.24-9-14.64,6.3-12.84,12.13-12.16S131,99.59,130.13,107Z" transform="translate(-0.39 -0.02)"/><path class="cls-6" d="M36.5,103.75c3,6.84,1,14.27-4.43,16.59S19.92,119,17,112.15,16,97.88,21.4,95.56,33.55,96.9,36.5,103.75Z" transform="translate(-0.39 -0.02)"/><path class="cls-6" d="M133.35,79.44c-1.11,12.48-6.82,23.53-15.19,32.22-.33.36-.68.71-1,1.06a4.38,4.38,0,0,0-1.31,3.25,23.25,23.25,0,0,1-.11,2.8,9.61,9.61,0,0,1-3.44,6.66c-3.38,2.88-7.8,4.16-12,5.24a100.1,100.1,0,0,1-25.16,3,120.16,120.16,0,0,1-29.55-3.51c-5.77-1.51-13-4.35-15.19-10.24a9.56,9.56,0,0,1-.41-1.44,10.8,10.8,0,0,1-.22-2.09v-.13a4.71,4.71,0,0,0-1.2-3.12A59.74,59.74,0,0,1,16.35,92.32a61.34,61.34,0,0,1-2.82-26.95C17.39,32.54,46.2,9,77.89,12.67c14.94,1.76,29,6.72,39.3,16.2C128.7,39.48,135.46,55.72,133.35,79.44Z" transform="translate(-0.39 -0.02)"/><g class="cls-5"><path class="cls-14" d="M127.74,52C119,37.9,104,28.54,87.88,24.52c-.73-.76-1.48-1.5-2.26-2.2A18.12,18.12,0,0,1,98.82,22a18.77,18.77,0,0,0-28.76-2.32A21,21,0,0,0,57.85,14c-5.22-.7-10.52.1-15.68,1.18a26.87,26.87,0,0,1,13.26,4.91,5.61,5.61,0,0,1,2.4,2.9,3.78,3.78,0,0,1-.14,2.18C42.49,29.47,28.46,38.59,20.18,52,11,66.83,10,87.09,19.89,101.49c4.57,6.65,11,11.72,17.39,16.68A24.8,24.8,0,0,0,35.4,99.65l8.72,7.27a37.54,37.54,0,0,1,2.25-32.84,13.26,13.26,0,0,1-.62,7.58A26.46,26.46,0,0,0,61.1,70.29,36.7,36.7,0,0,0,84,81.79c-2.55-1.06-3.75-4.19-3.29-6.91A12.94,12.94,0,0,1,84.93,68l.36-.32a26.89,26.89,0,0,0,16.88,14,13.26,13.26,0,0,1-.62-7.58,37.58,37.58,0,0,1,2.26,32.84l8.71-7.27a24.8,24.8,0,0,0-1.88,18.52c6.36-5,12.82-10,17.39-16.68C137.9,87.09,136.92,66.83,127.74,52Z" transform="translate(-0.39 -0.02)"/></g><path class="cls-4" d="M53.45,111.89a4.84,4.84,0,0,0,5-1.2,5.29,5.29,0,0,0-2.34-8.57c-4-1.14-8,3.28-6,7.08A5.69,5.69,0,0,0,53.45,111.89Z" transform="translate(-0.39 -0.02)"/><path class="cls-4" d="M90.9,112.38a4.81,4.81,0,0,0,5-1.19,5.29,5.29,0,0,0-2.34-8.57c-4-1.14-8,3.27-6,7.08A5.68,5.68,0,0,0,90.9,112.38Z" transform="translate(-0.39 -0.02)"/><path class="cls-4" d="M79,103.94a.94.94,0,0,0-1.12-.64.92.92,0,0,0-.64,1.12,4.92,4.92,0,0,1-2.13,6.25,4.81,4.81,0,0,1-6.41-2,5,5,0,0,1-.27-3.94c.39-1.11-1.37-1.58-1.75-.48a6.69,6.69,0,0,0,3.52,8.2,6.62,6.62,0,0,0,8.57-3.07A6.8,6.8,0,0,0,79,103.94Z" transform="translate(-0.39 -0.02)"/><path class="cls-9" d="M34.77,117.6a8.08,8.08,0,1,0,6.42-9.45A8.08,8.08,0,0,0,34.77,117.6Z" transform="translate(-0.39 -0.02)"/><path class="cls-7" d="M45.26,111.11a.7.7,0,0,1,.91.31l2,3a.68.68,0,0,1-.3.9.71.71,0,0,1-.91-.3L45,112A.68.68,0,0,1,45.26,111.11Z" transform="translate(-0.39 -0.02)"/><path class="cls-7" d="M41.78,111.86a.69.69,0,0,1,.95.06l2.2,3a.67.67,0,0,1-1,.88l-2.19-3A.69.69,0,0,1,41.78,111.86Z" transform="translate(-0.39 -0.02)"/><path class="cls-7" d="M38.55,112.22a.68.68,0,0,1,.9.3l1.71,3a.68.68,0,0,1-.31.9.7.7,0,0,1-.9-.3l-1.71-3A.68.68,0,0,1,38.55,112.22Z" transform="translate(-0.39 -0.02)"/><path class="cls-9" d="M96.29,116.36a8.08,8.08,0,1,0,6.42-9.46A8.08,8.08,0,0,0,96.29,116.36Z" transform="translate(-0.39 -0.02)"/><path class="cls-7" d="M106.78,109.87a.69.69,0,0,1,.9.31c.67,1,1.33,2,2,3a.67.67,0,0,1-.31.9.69.69,0,0,1-.9-.31c-.67-1-1.33-2-2-3A.68.68,0,0,1,106.78,109.87Z" transform="translate(-0.39 -0.02)"/><path class="cls-7" d="M103.3,110.62a.69.69,0,0,1,1,.06l2.19,3a.67.67,0,1,1-1,.89l-2.2-3A.68.68,0,0,1,103.3,110.62Z" transform="translate(-0.39 -0.02)"/><path class="cls-7" d="M100.06,111a.69.69,0,0,1,.9.31l1.71,3a.67.67,0,0,1-.3.9.69.69,0,0,1-.9-.31l-1.71-3A.67.67,0,0,1,100.06,111Z" transform="translate(-0.39 -0.02)"/><path class="cls-4" d="M99.45,91.27a10.76,10.76,0,0,0-3-5.15,4.66,4.66,0,0,0-5.53-.52.91.91,0,1,0,.92,1.57,2.49,2.49,0,0,1,1.73-.44,3.4,3.4,0,0,1,1.85.9,9.35,9.35,0,0,1,2.3,4.12,1,1,0,0,0,1.12.64A.93.93,0,0,0,99.45,91.27Z" transform="translate(-0.39 -0.02)"/><path class="cls-4" d="M48.19,91.27a10.76,10.76,0,0,1,3-5.15,4.66,4.66,0,0,1,5.53-.52.91.91,0,0,1-.91,1.57,2.53,2.53,0,0,0-1.74-.44,3.4,3.4,0,0,0-1.85.9A9.35,9.35,0,0,0,50,91.75a1,1,0,0,1-1.12.64A.93.93,0,0,1,48.19,91.27Z" transform="translate(-0.39 -0.02)"/><path class="cls-3" d="M134.87,99.37c-5.14,7.5-12.42,13.21-19.58,18.8A27.94,27.94,0,0,1,117.4,97.3l-.94.78-7.72,6.45-1.16,1a42.35,42.35,0,0,0-2.53-37c0,.11,0,.23-.06.34a14.8,14.8,0,0,0,.76,8.2,25.33,25.33,0,0,1-3.06-1,30.81,30.81,0,0,1-16-14.8c-.14.12-.28.23-.42.36a15.91,15.91,0,0,0-4.41,6.32,8.94,8.94,0,0,0-.38,1.46c-.52,3.06.84,6.59,3.7,7.79a38.45,38.45,0,0,1-5.13-.88A41.86,41.86,0,0,1,59.47,64.23c-.22.35-.46.69-.7,1A29.66,29.66,0,0,1,42.63,76.9l-.46.13a14.91,14.91,0,0,0,.7-8.54,42.49,42.49,0,0,0-4.55,30.72,41.09,41.09,0,0,0,2,6.29l-9.81-8.2A25.72,25.72,0,0,1,32,100.52a27.92,27.92,0,0,1,.67,17.65c-7.16-5.59-14.44-11.3-19.59-18.8C1.92,83.15,3,60.32,13.36,43.59c9.33-15.08,25.15-25.35,42.27-30.22a4.4,4.4,0,0,0,.16-2.46,6.33,6.33,0,0,0-2.71-3.26A30.37,30.37,0,0,0,38.14,2.12C44,.9,49.93,0,55.81.79A23.69,23.69,0,0,1,69.57,7.2,21.16,21.16,0,0,1,102,9.81a20.46,20.46,0,0,0-14.87.36c.87.8,1.72,1.63,2.54,2.49,18.13,4.52,35.11,15.07,44.91,30.93C144.9,60.32,146,83.15,134.87,99.37Z" transform="translate(-0.39 -0.02)"/><path class="cls-4" d="M134.44,99.12c-5.16,7.49-12.4,13.16-19.5,18.7l.83.22a27.6,27.6,0,0,1,2.06-20.48.5.5,0,0,0-.78-.61c-3.28,2.73-6.54,5.48-9.82,8.2l.83.49A42.88,42.88,0,0,0,109,76a40.92,40.92,0,0,0-3.51-7.78.5.5,0,0,0-.91.12,15.77,15.77,0,0,0,.7,8.81l.61-.62C97.7,74.46,91,68.44,87.16,61a.5.5,0,0,0-.78-.1c-2.71,2.28-5.2,5.61-5.45,9.25-.2,3,1.21,6.23,4,7.47l.25-.94a40.69,40.69,0,0,1-20.79-8.57,42,42,0,0,1-4.61-4.23A.5.5,0,0,0,59,64,29.4,29.4,0,0,1,42,76.55l.61.62a15.58,15.58,0,0,0,.7-8.81.5.5,0,0,0-.91-.12,43.06,43.06,0,0,0-5.1,28.61,41.43,41.43,0,0,0,2.51,8.79l.83-.49Q35.79,101,30.87,97a.5.5,0,0,0-.78.61A27.65,27.65,0,0,1,32.15,118l.83-.22c-8.83-6.9-17.87-14.1-22.82-24.44A50.22,50.22,0,0,1,6.47,63.23,56.34,56.34,0,0,1,19.82,35.74,72.38,72.38,0,0,1,44.7,17.85Q48.3,16.26,52,15c.58-.2,1.17-.39,1.76-.57a18.43,18.43,0,0,0,2-.58c.5-.23.54-1,.6-1.49a4.12,4.12,0,0,0-.28-2.14,7,7,0,0,0-2.43-2.77,26.69,26.69,0,0,0-3.51-2.23,31.15,31.15,0,0,0-12-3.61l.13,1c8.4-1.76,17.6-2.87,25.57,1.1a20.28,20.28,0,0,1,5.38,3.85.5.5,0,0,0,.7,0A21.24,21.24,0,0,1,82.77,1.44,20.9,20.9,0,0,1,95.93,4.73a20.67,20.67,0,0,1,5.61,5.34l.56-.74A21,21,0,0,0,87,9.69a.51.51,0,0,0-.22.84c.4.37.81.75,1.2,1.14A17.07,17.07,0,0,0,89.29,13a3.29,3.29,0,0,0,1.15.36l1.41.38c1.83.52,3.65,1.09,5.44,1.73a80.69,80.69,0,0,1,10.54,4.58,71.34,71.34,0,0,1,18.23,13.47,57.37,57.37,0,0,1,12.41,19,55.16,55.16,0,0,1,3.75,22.48,46.6,46.6,0,0,1-6.28,21.71c-.47.81-1,1.59-1.5,2.36-.36.53.5,1,.86.51A46.78,46.78,0,0,0,143,78.32a55.29,55.29,0,0,0-2.46-23,57.57,57.57,0,0,0-11.35-19.89,69.84,69.84,0,0,0-17.78-14.55A80.13,80.13,0,0,0,101,15.83q-2.7-1.1-5.47-2c-.92-.3-1.85-.59-2.78-.86l-1.3-.36a7.51,7.51,0,0,1-1.5-.39,6.18,6.18,0,0,1-1.13-1.1c-.45-.45-.91-.88-1.38-1.31l-.22.84a20.18,20.18,0,0,1,14.61-.36.51.51,0,0,0,.56-.74A22.11,22.11,0,0,0,90.85,1.29a21.36,21.36,0,0,0-14.55.79,22.43,22.43,0,0,0-7.08,4.77h.7C63.68.57,54.41-.63,46,.31c-2.68.3-5.34.78-8,1.33-.59.12-.4.94.13,1a30.16,30.16,0,0,1,10.55,3,27,27,0,0,1,4.56,2.8A6.37,6.37,0,0,1,55,10.27a3.7,3.7,0,0,1,.15,3l.35-.35A81.36,81.36,0,0,0,31.16,24.33,65.41,65.41,0,0,0,12.78,43.59,56.22,56.22,0,0,0,4.77,69a49.77,49.77,0,0,0,5,25.86c4.47,8.81,12,15.39,19.61,21.42,1,.77,1.93,1.52,2.9,2.28a.51.51,0,0,0,.83-.22A28.67,28.67,0,0,0,31,97.05l-.78.61,9.81,8.2c.33.28,1,0,.83-.49a42.19,42.19,0,0,1-.9-29.13,40.08,40.08,0,0,1,3.39-7.49l-.91-.12a14.69,14.69,0,0,1-.7,8.27.5.5,0,0,0,.61.62,30.47,30.47,0,0,0,17.6-13l-.78.1A42.54,42.54,0,0,0,78.27,76.34a41.21,41.21,0,0,0,7,1.34.5.5,0,0,0,.25-.93C82.89,75.62,81.7,72.68,82,70c.3-3.3,2.68-6.31,5.13-8.37l-.78-.1A31.74,31.74,0,0,0,99.89,75.34a27.74,27.74,0,0,0,5.73,2.18c.34.08.76-.25.61-.62a14.87,14.87,0,0,1-.7-8.27l-.91.12a42,42,0,0,1,4.85,28.66,40.93,40.93,0,0,1-2.37,8c-.21.51.5.76.83.49,3.29-2.72,6.55-5.47,9.82-8.2l-.78-.61a28.62,28.62,0,0,0-2.16,21.26.51.51,0,0,0,.83.22c7.18-5.61,14.45-11.33,19.66-18.9C135.67,99.09,134.8,98.59,134.44,99.12Z" transform="translate(-0.39 -0.02)"/><g class="cls-5"><path class="cls-3" d="M30.52,97.3A25.72,25.72,0,0,1,32,100.52a45.8,45.8,0,0,1-5.45-16.74A40.92,40.92,0,0,1,33,56.4a80.54,80.54,0,0,0,5.37,42.81,41.09,41.09,0,0,0,2,6.29Z" transform="translate(-0.39 -0.02)"/><path class="cls-3" d="M59.18,63.06c-.11.73-.24,1.46-.41,2.19A29.66,29.66,0,0,1,42.63,76.9a49.46,49.46,0,0,0,9-18.56c2-7.53,2.78-15.32,3.54-23.07C58.42,44.15,60.58,53.7,59.18,63.06Z" transform="translate(-0.39 -0.02)"/><path class="cls-3" d="M85.22,77.18a38.45,38.45,0,0,1-5.13-.88A35.89,35.89,0,0,1,67,35.37c1.44,10.69,6.32,20.69,12.59,29.48.74,1,1.51,2.07,2.29,3.08a8.94,8.94,0,0,0-.38,1.46C81,72.45,82.36,76,85.22,77.18Z" transform="translate(-0.39 -0.02)"/><path class="cls-3" d="M105.75,77a25.33,25.33,0,0,1-3.06-1,44.84,44.84,0,0,1-5.06-37.7c-.5,6.37,1.31,12.67,3.4,18.7,1.36,3.91,2.86,7.8,4,11.78A14.8,14.8,0,0,0,105.75,77Z" transform="translate(-0.39 -0.02)"/><path class="cls-3" d="M119.39,86.53a49.45,49.45,0,0,1-2.93,11.55l-7.72,6.45a51,51,0,0,0,6.66-19.89c1.09-7.9.88-15.9.66-23.86C120.74,68.28,120.7,77.79,119.39,86.53Z" transform="translate(-0.39 -0.02)"/></g></g></g></g></svg>