<svg xmlns="http://www.w3.org/2000/svg" viewBox="0 0 196.82 337.31"><defs><style>.cls-1{fill:#dba7d2;}.cls-18,.cls-2{fill:#7187b0;}.cls-10,.cls-11,.cls-2,.cls-20,.cls-24,.cls-4,.cls-5,.cls-6,.cls-7{stroke:#693c3c;}.cls-10,.cls-11,.cls-14,.cls-16,.cls-2,.cls-24,.cls-4,.cls-5,.cls-6,.cls-7{stroke-linecap:round;}.cls-11,.cls-2,.cls-24,.cls-4,.cls-5,.cls-6{stroke-linejoin:round;}.cls-10,.cls-11,.cls-16,.cls-2,.cls-24,.cls-4,.cls-5,.cls-6,.cls-7{stroke-width:2px;}.cls-3{fill:#693c3c;}.cls-4{fill:#695b5b;}.cls-5,.cls-8{fill:#ffe3d8;}.cls-12,.cls-6{fill:#d85461;}.cls-7,.cls-9{fill:#ffc9ba;}.cls-10,.cls-14,.cls-16,.cls-20,.cls-7{stroke-miterlimit:10;}.cls-10,.cls-11,.cls-14,.cls-16,.cls-20{fill:none;}.cls-13{fill:#ffb0a4;}.cls-14{stroke:#a13e49;}.cls-15{fill:#fff;}.cls-16{stroke:#ba7366;}.cls-17{fill:#ed9087;}.cls-19{fill:#495873;}.cls-20{stroke-width:1.5px;}.cls-21{fill:#414e66;}.cls-22{fill:#8099c7;}.cls-23{fill:#617396;}.cls-24{fill:#ffc069;}</style></defs><title>Asset 2</title><g id="Layer_2" data-name="Layer 2"><g id="BACKGROUND"><path class="cls-1" d="M189.19,327.64c0,5.34-24.65,9.67-55.07,9.67S79.06,333,79.06,327.64,103.71,318,134.12,318,189.19,322.3,189.19,327.64Z"/></g><g id="OBJECTS"><path class="cls-2" d="M96.34,312.58s-1,11.13-1.17,12.45,1.17,3.42,3.88,2.69,13.48-8.58,16.83-11.62,4.72-6.58,4-7.83-6.37-9.68-6.37-9.68-8.18-2.17-14.21,3.28C94.4,306.28,96.34,312.58,96.34,312.58Z"/><path class="cls-2" d="M154.58,313.58s-2.77,6.28-3.29,9.43c-.22,1.33-.73,3.53,2,4.28s11.92.17,16.35-.74,7.41-3.26,7.42-4.71-1-16.26-1-16.26a33.9,33.9,0,0,0-13.49.28C156.12,307.17,154.58,313.58,154.58,313.58Z"/><path class="cls-3" d="M152.34,317.09s.27-.13.71-.29a15.52,15.52,0,0,1,1.84-.57,17.63,17.63,0,0,1,2.64-.48,19.3,19.3,0,0,1,3.06-.12c.52,0,1,.08,1.55.12s1,.15,1.48.22.93.21,1.36.31a11.38,11.38,0,0,1,1.2.36c.36.13.7.21,1,.34l.75.32.65.27a.45.45,0,0,1-.32.84h0l-.63-.22-.74-.25c-.28-.11-.61-.16-1-.26a9.26,9.26,0,0,0-1.15-.26c-.42-.06-.85-.16-1.3-.21s-.92-.1-1.4-.11-1,0-1.44,0a18.18,18.18,0,0,0-2.82.3,16.65,16.65,0,0,0-2.37.6,14,14,0,0,0-1.6.62c-.37.17-.53.26-.55.27a1,1,0,0,1-1.34-.43A1,1,0,0,1,152.34,317.09Z"/><path class="cls-4" d="M159.18,247.54H82.31l-5.23,7s-11.21,16.35-9.77,26.35,13.81,20.68,26.44,28.25c.12,2,1.31,3.87,2.12,3.75C106.5,311.23,117,304.11,117,303s-4.07-13-5.38-15.31a30.23,30.23,0,0,0,7.5-2.19S150.31,312,150.5,312.23s1.06,5.69,1.93,5.75A40.9,40.9,0,0,0,169,312.23c7.25-4.56,9.37-6.25,9.31-6.87S171.93,271.67,159.18,247.54Z"/><path class="cls-3" d="M118.5,286.27s-.25-.17-.69-.52-1.07-.84-1.78-1.46-1.53-1.37-2.39-2.19l-1.28-1.3c-.43-.45-.89-.88-1.3-1.37-.82-1-1.69-1.88-2.4-2.83-.37-.46-.7-.93-1-1.36s-.64-.84-.89-1.24c-1-1.6-1.67-2.68-1.67-2.68a.18.18,0,0,1,.06-.26.2.2,0,0,1,.24,0h0s.88.9,2.13,2.28c.61.7,1.43,1.42,2.22,2.27s1.73,1.66,2.62,2.51,1.82,1.67,2.67,2.46,1.66,1.49,2.38,2.08l2.34,2a1,1,0,0,1,.11,1.41,1,1,0,0,1-1.33.18Z"/><path class="cls-3" d="M111.76,288.66l-.59.09a15.88,15.88,0,0,1-1.6.18c-.67,0-1.45.13-2.28.13s-1.72,0-2.6,0l-1.32,0c-.43,0-.86-.09-1.27-.12l-2.24-.32c-1.31-.2-2.17-.36-2.17-.36a.32.32,0,0,1-.27-.39.33.33,0,0,1,.31-.28h0l2.18-.08,2.21,0c.4,0,.81,0,1.24,0l1.28-.1c.85-.08,1.71-.11,2.51-.16.4,0,.78-.1,1.14-.12l1-.1c.63-.06,1.16-.09,1.55-.15l.59-.06h0a1,1,0,0,1,.27,2Z"/><path class="cls-3" d="M149.62,311.75l.21-.31c.14-.22.35-.49.6-.81s.56-.67.9-1,.7-.76,1.11-1.11a13.77,13.77,0,0,1,1.17-1c.39-.3.74-.6,1.08-.81l1.09-.73a.41.41,0,0,1,.57.11.4.4,0,0,1-.07.53l0,0-.93.84a11.12,11.12,0,0,0-.9.91,13.21,13.21,0,0,0-1,1.11c-.32.37-.6.79-.87,1.16s-.48.74-.67,1.06-.34.58-.42.75l-.14.29,0,0a1,1,0,0,1-1.8-.88Z"/><path class="cls-5" d="M49.25,226.84a18.24,18.24,0,0,1-11.09,3c-2.69-.37-3.56-1.36-5-3.38S30.51,219,31,217.9s3-1.35,3.55-1.33c-.25-.62-.17-2.26.6-2.74s5.1.45,6.34.67a9.4,9.4,0,0,1,5.17,4.17C48.24,221.17,50.42,226,49.25,226.84Z"/><path class="cls-3" d="M35.28,215.86l1.13,1.81h0a.57.57,0,0,1-.18.77.54.54,0,0,1-.6,0l-1.77-1.16h0A1,1,0,0,1,35,215.55,1.14,1.14,0,0,1,35.28,215.86Z"/><path class="cls-5" d="M186.64,208.61a18.17,18.17,0,0,1,8.49,7.76c1.12,2.48.74,3.74-.21,6s-5,6.28-6.14,6.41-2.74-1.82-3-2.3c-.39.55-1.83,1.35-2.64.95s-2.34-4.56-2.81-5.72a9.41,9.41,0,0,1,.79-6.6C182.38,212.48,185.27,208.09,186.64,208.61Z"/><path class="cls-3" d="M184.79,226.28l.92-1.92h0a.55.55,0,0,1,.74-.26.57.57,0,0,1,.32.51l0,2.12v0a1,1,0,0,1-1.05,1,1,1,0,0,1-1-1A1,1,0,0,1,184.79,226.28Z"/><path class="cls-6" d="M88.85,168c-5.92,1.75-17.92,10.92-21.83,19S56.6,206.42,56.6,206.42c-4.17,2.5-13,6.87-13.29,7.44s-.44,13.5,3.37,17.68c14.94,3.07,21.07,1.44,22.5.82s8.07-4.82,8.07-4.82l.93,2.75S74.81,243.11,76,254.11c12.62,4.81,30,9.81,52.06,6.68s34.12-12.12,34.5-13-1.94-22.12-5.56-30.18c9.18,1.81,20.12,5.81,21.12,5.81s11.44-8.44,11.06-17.88c-11.93-12.43-22.68-20.87-32.75-26.18s-17.31-6.57-17.31-6.57S118.58,158,88.85,168Z"/><path class="cls-7" d="M117.6,170.73c-1.94,6.11-9.9,11.06-17.77,11.06s-12.67-4.95-10.73-11.06,9.9-11.06,17.78-11.06S119.55,164.62,117.6,170.73Z"/><path class="cls-8" d="M163.21,122.83c2.1,8.06,3,16.2.87,21.86-7,18.31-37.69,30.77-65.39,30-20.16-.58-49-13.75-55.16-24.1-9.64-6.78-26.6-43.44-15-74.79S69.76,32.45,108.66,36.4,160,56.21,165,79.53C169.28,99.73,163.33,118.66,163.21,122.83Z"/><ellipse class="cls-9" cx="74.81" cy="134.34" rx="13.56" ry="18.44" transform="translate(-61.62 205.26) rotate(-88.36)"/><path class="cls-9" d="M138.44,136.17c.21-7.49,8.64-13.32,18.82-13a24.41,24.41,0,0,1,6.28,1c1.86,7.62,2.6,15.19.54,20.54a26.49,26.49,0,0,1-2.73,5.21,25.06,25.06,0,0,1-4.87.35C146.3,150,138.22,143.65,138.44,136.17Z"/><path class="cls-10" d="M163.21,122.83c2.1,8.06,3,16.2.87,21.86-7,18.31-37.69,30.77-65.39,30-20.16-.58-49-13.75-55.16-24.1-9.64-6.78-26.6-43.44-15-74.79S69.76,32.45,108.66,36.4,160,56.21,165,79.53C169.28,99.73,163.33,118.66,163.21,122.83Z"/><path class="cls-8" d="M24.49,120.52c3-3.12,10.84-3.26,15.81,2.39l4.78,27.33c-7.2,2.61-16.41-1-20.86-9.6C19.36,131.27,20.56,124.59,24.49,120.52Z"/><path class="cls-11" d="M29.47,127.85s5.6,1,8.35,9.56c-3-3-7.76-1.85-8.65.81"/><path class="cls-10" d="M40.3,122.91c-5-5.65-12.81-5.51-15.81-2.39-3.93,4.07-5.13,10.75-.27,20.12,4.45,8.57,13.66,12.21,20.86,9.6"/><path class="cls-12" d="M129.25,152.78c.15-.65-.83-2.94-4.55-4s-20.27-5.42-23.85-5.61-8.14,1.6-10.07,7.88,3.17,12.5,11.92,14.85C112.79,168.57,126,166.86,129.25,152.78Z"/><path class="cls-13" d="M90.64,151.62c13.71-2.08,26.26,6.37,29.9,13.11-5.35,2.78-12.1,2.67-17.84,1.13C94.23,163.59,89.2,157.69,90.64,151.62Z"/><path class="cls-14" d="M90.64,151.62c13.71-2.08,26.26,6.37,29.9,13.11"/><path class="cls-15" d="M124.7,148.74a8.4,8.4,0,0,1,3.34,1.79c-5.89,1.71-23.78-.61-31.29-6.7a9.45,9.45,0,0,1,4.1-.7C104.43,143.32,121,147.63,124.7,148.74Z"/><path class="cls-14" d="M128,150.53c-5.89,1.71-23.78-.61-31.29-6.7"/><path class="cls-14" d="M129.25,152.78c.15-.65-.83-2.94-4.55-4s-20.27-5.42-23.85-5.61-8.14,1.6-10.07,7.88,3.17,12.5,11.92,14.85C112.79,168.57,126,166.86,129.25,152.78Z"/><path class="cls-16" d="M128.52,133.69s3.12,2.72-1,5.23"/><path class="cls-17" d="M81,130.89a3.51,3.51,0,0,0-.42-.25c-.25-.16-.66-.34-1.13-.58s-1-.47-1.68-.68-1.29-.45-2-.62l-1-.27-1-.19-.93-.17c-.3-.06-.58-.07-.85-.11l-1.74-.18h-.06a.75.75,0,1,1,.16-1.49h.06l1.81.34c.27.06.57.09.87.18l1,.26,1,.28,1,.37a18,18,0,0,1,2,.81c.63.26,1.19.59,1.68.84s.86.51,1.13.7.41.29.41.29h0a.28.28,0,0,1-.33.46Z"/><path class="cls-17" d="M77.44,132.6l-.29-.13c-.18-.08-.46-.17-.79-.29s-.72-.24-1.14-.35-.88-.23-1.34-.31a13.43,13.43,0,0,0-1.35-.21,11.34,11.34,0,0,0-1.17-.12l-1.15-.05h-.06a.76.76,0,1,1,.07-1.51h.09l1.22.21c.37.05.78.16,1.23.27s.92.25,1.38.4.93.33,1.35.49.81.36,1.15.51.59.3.78.41l.29.17a.28.28,0,0,1,.1.39.29.29,0,0,1-.35.12Z"/><path class="cls-17" d="M73.92,134.33a4.8,4.8,0,0,0-.59-.05c-.36,0-.83,0-1.3,0-.23,0-.46,0-.68,0l-.58.08-.55.07h-.1a.76.76,0,1,1-.19-1.5h.18l.64.07.66.08a6.77,6.77,0,0,1,.73.15c.49.1,1,.23,1.33.34s.58.2.58.2h0a.29.29,0,0,1,.16.37A.28.28,0,0,1,73.92,134.33Z"/><path class="cls-17" d="M151.31,132.47a2.38,2.38,0,0,1,.23-.24,7.21,7.21,0,0,1,.66-.61c.13-.13.3-.24.46-.37s.34-.27.54-.39a10.79,10.79,0,0,1,1.25-.73l.66-.33a4.62,4.62,0,0,1,.67-.26,7.49,7.49,0,0,1,1.22-.4l1.23-.27a.75.75,0,0,1,.33,1.47h-.18l-1.11.11a6.77,6.77,0,0,0-1.13.22c-.2.05-.42.08-.63.15l-.64.23a10.59,10.59,0,0,0-1.23.53c-.2.09-.37.21-.54.3s-.34.19-.48.29-.52.35-.67.48a2.27,2.27,0,0,0-.24.2.28.28,0,0,1-.4,0,.28.28,0,0,1,0-.37Z"/><path class="cls-17" d="M153.46,134.31l.16-.15c.11-.09.27-.22.47-.36a9.24,9.24,0,0,1,1.54-.89,8.44,8.44,0,0,1,.9-.36,7,7,0,0,1,.82-.23l.83-.16a.76.76,0,0,1,.88.61.75.75,0,0,1-.6.88h-.92a5.11,5.11,0,0,0-.73.07,5,5,0,0,0-.83.15,8.76,8.76,0,0,0-1.53.53l-.47.24-.18.11a.28.28,0,0,1-.34-.45Z"/><path class="cls-17" d="M155.68,136.13A1.39,1.39,0,0,1,156,136a5.23,5.23,0,0,1,.85-.29,4.21,4.21,0,0,1,.48-.12l.45,0,.45,0a.77.77,0,0,1,.12,1.54.7.7,0,0,1-.29,0l-.12,0-.29-.09-.32-.1a2.13,2.13,0,0,0-.39-.06,5.59,5.59,0,0,0-.77,0,3.31,3.31,0,0,0-.37,0,.28.28,0,0,1-.32-.24.27.27,0,0,1,.13-.28Z"/><path class="cls-3" d="M103,101.43c1.37.09-1.4-6.54-3.37-7.35-4.58-1.89-13.75-.23-13.19.54S96.39,101,103,101.43Z"/><path class="cls-3" d="M136.28,102.38c-1.08,0,1.44-6.45,3-7.16,3.71-1.65,10.87.48,10.39,1.21S141.49,102.28,136.28,102.38Z"/><path class="cls-15" d="M150,104.5c-4.92-.44-8.55,3.58-10.46,6.13s-3.47,7.29-2,13.91c2.66,4.47,10.45,5.6,15.58,4.68s7.44-6.51,7.85-10.59S159.69,105.38,150,104.5Z"/><path class="cls-3" d="M135.87,120c.81-4.09,5.22-14.06,13.66-14s11.9,7.41,11.22,13.63c1.56-.38,3.42-2.63,3.42-2.63s-1.68-11.67-11.17-13.5C142.62,101.48,136.62,109.54,135.87,120Z"/><ellipse class="cls-18" cx="151.65" cy="116.91" rx="8.78" ry="11.72"/><path class="cls-19" d="M160.25,114.52c-.83-5.33-4.36-9.34-8.6-9.34-4.84,0-8.77,5.25-8.77,11.73v.1A29.06,29.06,0,0,1,160.25,114.52Z"/><ellipse class="cls-20" cx="151.65" cy="116.91" rx="8.78" ry="11.72"/><path class="cls-21" d="M156.75,116.91c0,2.83-1.72,5.13-3.85,5.13s-3.84-2.3-3.84-5.13,1.72-5.14,3.84-5.14S156.75,114.07,156.75,116.91Z"/><path class="cls-15" d="M140.31,116.91c2.15-1.12,7.81-1.11,8,0s-4.07,4.67-6.63,5.13S138.34,117.92,140.31,116.91Z"/><path class="cls-15" d="M158.71,118.39c-.58-1-2.87-1.25-3-.78s1.75,3.09,2.32,3.06S159.15,119.17,158.71,118.39Z"/><path class="cls-15" d="M69.35,122.58c3.9,3.23,12.87,7.89,19.81,7.61s9.13-3.5,9.13-3.5,2.87-9,.4-14.22-9.22-11.6-19.8-8S67.8,117.7,69.35,122.58Z"/><path class="cls-18" d="M98.29,117.61c0,6.47-4.31,11.72-9.62,11.72s-9.61-5.25-9.61-11.72,4.3-11.72,9.61-11.72S98.29,111.14,98.29,117.61Z"/><path class="cls-19" d="M98.09,115.22c-.91-5.33-4.78-9.33-9.42-9.33-5.31,0-9.61,5.25-9.61,11.72v.1A34.71,34.71,0,0,1,98.09,115.22Z"/><path class="cls-20" d="M98.29,117.61c0,6.47-4.31,11.72-9.62,11.72s-9.61-5.25-9.61-11.72,4.3-11.72,9.61-11.72S98.29,111.14,98.29,117.61Z"/><path class="cls-21" d="M94.26,117.61c0,2.84-1.89,5.14-4.22,5.14s-4.21-2.3-4.21-5.14,1.88-5.14,4.21-5.14S94.26,114.77,94.26,117.61Z"/><path class="cls-15" d="M76.24,117.61c2.36-1.11,8.56-1.11,8.73,0s-4.45,4.67-7.25,5.14S74.09,118.63,76.24,117.61Z"/><path class="cls-15" d="M96.41,119.09c-.65-1-3.15-1.25-3.29-.78s1.92,3.09,2.53,3.06S96.88,119.87,96.41,119.09Z"/><path class="cls-3" d="M100.56,123s-2-16-13.46-17.88-18.5,9.08-17.75,17.5c-3-1-6.41-4.51-6.41-4.51s6.09-16,18.81-16.61C95,100.79,102.06,111.8,100.56,123Z"/><path class="cls-18" d="M27.13,118.91c5.14-1.57,11.55,1.93,14.05,6.68,4.25,3.33,11.34,7.81,12.17,7.44s2-11.67-5.33-20.56C58.43,106,77.6,82.59,79.6,66.84c6.17,12.16,37.67,35.25,38.83,33.58s1-11.75,0-17c11.75,8.17,28.09,9.42,28.25,8.25S137.85,75,137.85,75c9.08,7.67,24.35,17.25,28.67,18.21.5,6-1.73,21.82-2.87,26.51,6.78,5.12,16.53,7.45,16.53,6.62s-3.41-12.75-9.25-19c9.92-.67,19.84-4.66,19.75-5.91s-6.41-16.18-13.41-22.68c7.5-3.91,14.58-15,13.91-16.5S175.35,53,175.27,52.67c-6-7.75-19.5-17-30.75-20.17,4.33-5.33,6.91-15.58,6.16-16.16S132.52,18,132.52,18c-13.75-1.91-29.67-4.16-44.09.75C91.52,13.5,97.68,1.17,96.27,1S78.52,7.84,75.43,9.75A139,139,0,0,0,58.77,26.92c-1.34-4.67-3.09-12.67-3.42-12.25s-4.92,7.67-2.83,15.75c-8.59,3.83-24.34,12.33-28.5,17S8.85,69.34,6.43,71.84.35,77,1.1,77.5a23.06,23.06,0,0,0,11.42,1.25c-2.42,9.5-4.17,18.67-4.17,20.34s.92,23.74,2.17,23.66,5.41-3.5,5.41-3.5c1.42,3,5.89,5.52,5.89,5.52S22.84,120.12,27.13,118.91Z"/><path class="cls-22" d="M118.06,54.67c-3.09-3-20.69-9.88-20-5.13s13.34,13.75,18,12.88S121.93,58.42,118.06,54.67Z"/><path class="cls-22" d="M174.93,52.27c-5.48-6.84-16.58-14.71-26.76-18.55C133,39.46,112.6,44.38,113.81,46.79,115.11,49.39,153.1,60.81,174.93,52.27Z"/><path class="cls-22" d="M59.93,59c1.36-2.36-16.24-10.36-29.29-16.75A35.58,35.58,0,0,0,24,47.42C21.67,50,17.17,56.65,13.24,62.37,28.88,66.51,58.37,61.73,59.93,59Z"/><path class="cls-23" d="M53.31,133C49.3,115,30.06,99.8,30.06,99.8a45.36,45.36,0,0,1-.89,6.62c-2.39-4-9.49-13.75-13-13.21-1.77.27-5,3.67-7.8,7,.16,4.78,1,22.66,2.14,22.59s5.41-3.5,5.41-3.5c1.42,3,5.89,5.52,5.89,5.52s1-4.65,5.31-5.86c5.14-1.57,11.55,1.93,14.05,6.68C45.39,128.88,52.35,133.29,53.31,133Z"/><path class="cls-23" d="M190.68,101.43c-.08-1.26-6.41-16.18-13.41-22.68,5.46-2.85,10.69-9.49,12.87-13.48-4.15,3-13.84,9.11-25.34,9.73,0,0,2.6,11.47,1.67,18.19l.05,0c.5,6-1.73,21.82-2.87,26.51,6.78,5.12,16.53,7.45,16.53,6.62s-3.41-12.75-9.25-19C180.85,106.67,190.77,102.68,190.68,101.43Z"/><path class="cls-3" d="M42.14,86.09s.22.36.56,1c.17.33.4.74.6,1.22L44,89.94c.27.59.49,1.25.77,1.93s.57,1.4.8,2.17.5,1.56.75,2.36S46.8,98,47,98.87s.41,1.67.61,2.49.29,1.65.43,2.44.26,1.57.38,2.3a20.27,20.27,0,0,1,.23,2.06l.35,4.3a1,1,0,0,1-2,.16v-.13s-.07-1.67-.17-4.18a16.25,16.25,0,0,0-.13-2c-.09-.71-.18-1.46-.28-2.24s-.18-1.59-.32-2.4-.33-1.63-.49-2.45-.31-1.66-.55-2.45-.44-1.58-.64-2.33-.47-1.48-.7-2.17-.43-1.33-.67-1.92-.45-1.11-.64-1.59-.39-.87-.54-1.2c-.29-.66-.5-1-.5-1a.43.43,0,0,1,.17-.58.42.42,0,0,1,.57.15Z"/><path class="cls-3" d="M34.8,91.33s.18.16.49.47.75.75,1.24,1.29,1,1.21,1.65,1.91L39,96.15c.28.39.6.77.85,1.2s.53.84.79,1.26a8.18,8.18,0,0,1,.71,1.25c.41.84.86,1.6,1.12,2.31.51,1.43.86,2.38.86,2.38a1,1,0,0,1-1.88.68s0,0,0-.06l0-.13s-.25-.89-.64-2.22c-.18-.68-.57-1.41-.89-2.23a8,8,0,0,0-.59-1.22l-.66-1.24c-.21-.43-.5-.81-.74-1.21l-.75-1.16c-.53-.71-1-1.41-1.46-2s-.82-1-1.1-1.32L34.15,92a.46.46,0,0,1,0-.66.49.49,0,0,1,.64,0Z"/><path class="cls-3" d="M31.38,97.92l.21.08a5.58,5.58,0,0,1,.54.25,9.94,9.94,0,0,1,1.52,1,6.54,6.54,0,0,1,.74.64,5.84,5.84,0,0,1,.61.61l.55.65A1,1,0,0,1,34,102.43a.74.74,0,0,1-.14-.22l0-.08-.3-.63a4.5,4.5,0,0,0-.35-.62,6.12,6.12,0,0,0-.47-.7A9.11,9.11,0,0,0,31.63,99l-.4-.33a1.07,1.07,0,0,0-.16-.12.35.35,0,0,1-.11-.49.34.34,0,0,1,.4-.15Z"/><path class="cls-3" d="M78.71,67.29l-.31-.66c-.19-.43-.46-1-.77-1.77-.62-1.46-1.39-3.44-2.1-5.43-.32-1-.68-2-1-3q-.19-.72-.39-1.38c-.12-.44-.25-.84-.33-1.23l-.58-2.59a.47.47,0,0,1,.35-.55.46.46,0,0,1,.54.32v0l.72,2.49c.11.37.27.77.41,1.19s.31.86.47,1.32c.33.92.74,1.87,1.12,2.84.82,1.91,1.7,3.79,2.41,5.18.34.7.64,1.27.85,1.66l.34.63v0a1,1,0,0,1-1.76.95Z"/><path class="cls-3" d="M137,75.56l-1-1.66c-.62-1-1.42-2.3-2.29-3.58l-1.26-1.9c-.2-.31-.42-.57-.61-.84l-.56-.75-1.15-1.55,0,0a.42.42,0,0,1,.64-.53l1.32,1.46.64.71c.22.26.48.51.7.8.47.57,1,1.18,1.45,1.79,1,1.21,1.94,2.47,2.66,3.4l1.17,1.57a1,1,0,1,1-1.6,1.2.35.35,0,0,1-.05-.08Z"/><path class="cls-3" d="M163.06,66.68s.15.39.38,1.1.55,1.71.9,2.92.69,2.65,1.1,4.18c.16.78.33,1.58.5,2.39s.37,1.63.48,2.47.27,1.67.4,2.5c.06.41.13.82.19,1.22s.07.81.11,1.2c.07.8.15,1.56.21,2.29a18.92,18.92,0,0,1,.14,2l.05,4.26a1,1,0,0,1-2,0v-.13l.1-4.12a19.72,19.72,0,0,0-.06-2c0-.71-.08-1.46-.12-2.23l-.06-1.18c0-.4-.1-.8-.14-1.21-.1-.81-.2-1.63-.29-2.46s-.25-1.64-.38-2.45-.28-1.6-.41-2.36c-.34-1.52-.61-3-.93-4.16s-.57-2.22-.77-2.91-.33-1.1-.33-1.1a.48.48,0,0,1,.91-.33Z"/><path class="cls-11" d="M27.13,118.91c5.14-1.57,11.55,1.93,14.05,6.68,4.25,3.33,11.34,7.81,12.17,7.44s2-11.67-5.33-20.56C58.43,106,77.6,82.59,79.6,66.84c6.17,12.16,37.67,35.25,38.83,33.58s1-11.75,0-17c11.75,8.17,28.09,9.42,28.25,8.25S137.85,75,137.85,75c9.08,7.67,24.35,17.25,28.67,18.21.5,6-1.73,21.82-2.87,26.51,6.78,5.12,16.53,7.45,16.53,6.62s-3.41-12.75-9.25-19c9.92-.67,19.84-4.66,19.75-5.91s-6.41-16.18-13.41-22.68c7.5-3.91,14.58-15,13.91-16.5S175.35,53,175.27,52.67c-6-7.75-19.5-17-30.75-20.17,4.33-5.33,6.91-15.58,6.16-16.16S132.52,18,132.52,18c-13.75-1.91-29.67-4.16-44.09.75C91.52,13.5,97.68,1.17,96.27,1S78.52,7.84,75.43,9.75A139,139,0,0,0,58.77,26.92c-1.34-4.67-3.09-12.67-3.42-12.25s-4.92,7.67-2.83,15.75c-8.59,3.83-24.34,12.33-28.5,17S8.85,69.34,6.43,71.84.35,77,1.1,77.5a23.06,23.06,0,0,0,11.42,1.25c-2.42,9.5-4.17,18.67-4.17,20.34s.92,23.74,2.17,23.66,5.41-3.5,5.41-3.5c1.42,3,5.89,5.52,5.89,5.52S22.84,120.12,27.13,118.91Z"/><path class="cls-3" d="M76.34,228s-.4-1.63-.92-4.08-1.16-5.74-1.68-9c-.29-1.65-.54-3.3-.76-4.86s-.39-3-.54-4.26-.23-2.29-.31-3-.08-1.16-.08-1.16a.33.33,0,0,1,.64-.12s.13.4.34,1.11.52,1.71.82,2.93.7,2.64,1.05,4.17.72,3.16,1.06,4.8c.71,3.27,1.29,6.57,1.72,9s.63,4.14.63,4.14a1,1,0,0,1-.86,1.12,1,1,0,0,1-1.1-.75Z"/><path class="cls-3" d="M67.28,211.61s.13.25.37.67.58,1,1,1.72.95,1.51,1.49,2.39c.29.42.58.86.89,1.3s.59.91.94,1.33c.69.84,1.27,1.77,2,2.5.34.38.67.75,1,1.1a10.57,10.57,0,0,0,.88,1c1.16,1.12,1.9,1.9,1.9,1.9l.08.08a1,1,0,0,1-1.4,1.42s-.84-.78-2.06-2a10.74,10.74,0,0,1-.91-1c-.31-.37-.63-.78-1-1.2a13.29,13.29,0,0,1-1-1.33L70.54,220c-.32-.47-.57-1-.85-1.46s-.53-1-.78-1.43c-.46-1-.9-1.83-1.22-2.62s-.57-1.43-.73-1.9a7.2,7.2,0,0,1-.25-.73h0a.32.32,0,0,1,.21-.39A.31.31,0,0,1,67.28,211.61Z"/><path class="cls-3" d="M141.14,208.59l-.51-.7c-.32-.45-.79-1.09-1.31-1.94-.26-.42-.56-.86-.82-1.35l-.85-1.53-.81-1.68c-.29-.56-.52-1.16-.77-1.76s-.51-1.18-.7-1.78-.41-1.19-.6-1.76-.33-1.13-.49-1.66-.28-1-.41-1.49c-.41-1.87-.68-3.12-.68-3.12a.34.34,0,0,1,.26-.39.33.33,0,0,1,.38.23v0s.34,1.21.87,3c.15.45.32.93.5,1.44s.34,1.05.58,1.59l.7,1.67c.22.57.53,1.12.79,1.68s.54,1.13.86,1.66.6,1,.88,1.56l.92,1.41c.27.45.58.84.85,1.21.52.74,1,1.36,1.38,1.78l.55.68a1,1,0,1,1-1.54,1.27Z"/><path class="cls-3" d="M141.18,214.67l-1.16-.89a6.39,6.39,0,0,1-.56-.46l-.61-.58c-.2-.21-.42-.41-.64-.62a6.35,6.35,0,0,1-.6-.68l-1.12-1.37c-.18-.21-.3-.46-.45-.67l-.39-.61-.79-1.25a.33.33,0,0,1,.11-.45.32.32,0,0,1,.42.06l0,0,.93,1.09.45.53a5.47,5.47,0,0,0,.52.57l1.23,1.13a3.93,3.93,0,0,0,.63.53l.65.47.59.43a5.17,5.17,0,0,0,.59.36l1.27.71a1,1,0,1,1-1,1.75Z"/><path class="cls-11" d="M157,217.61l-5.48-1.69s-4.77-2-9.59-7.93"/><polygon class="cls-24" points="102.56 200.23 109.42 208.6 119.55 212.05 114.08 220.68 114.52 231.19 104.28 228.14 94.41 231.19 93.55 220.68 87.02 212.05 96.73 208.6 102.56 200.23"/></g></g></svg>