<svg xmlns="http://www.w3.org/2000/svg" viewBox="0 0 222.36 346.58"><defs><style>.cls-1{fill:#dba7d2;}.cls-2{fill:#ffc069;}.cls-10,.cls-11,.cls-14,.cls-17,.cls-2,.cls-23,.cls-26,.cls-3,.cls-5,.cls-7,.cls-8,.cls-9{stroke:#693c3c;}.cls-10,.cls-11,.cls-14,.cls-17,.cls-19,.cls-2,.cls-21,.cls-26,.cls-3,.cls-5,.cls-7,.cls-8,.cls-9{stroke-linecap:round;}.cls-2,.cls-26,.cls-3,.cls-5,.cls-7,.cls-8,.cls-9{stroke-linejoin:round;}.cls-10,.cls-11,.cls-14,.cls-17,.cls-2,.cls-21,.cls-26,.cls-3,.cls-5,.cls-7,.cls-8,.cls-9{stroke-width:2px;}.cls-3{fill:#695b5b;}.cls-4{fill:#693c3c;}.cls-15,.cls-5{fill:#ffe3d8;}.cls-6,.cls-8{fill:#7187b0;}.cls-17,.cls-19,.cls-21,.cls-23,.cls-7{fill:none;}.cls-10,.cls-20,.cls-9{fill:#fff;}.cls-10,.cls-11,.cls-14,.cls-17,.cls-19,.cls-21,.cls-23{stroke-miterlimit:10;}.cls-11,.cls-16{fill:#ffc9ba;}.cls-12,.cls-26{fill:#ffb0a4;}.cls-13{fill:#f2918a;}.cls-14,.cls-18{fill:#d85461;}.cls-19{stroke:#a13e49;}.cls-21{stroke:#ba7366;}.cls-22{fill:#ed9087;}.cls-23{stroke-width:1.5px;}.cls-24{fill:#ab5e59;}.cls-25{fill:#ffc1b8;}</style></defs><title>Asset 4</title><g id="Layer_2" data-name="Layer 2"><g id="BACKGROUND"><path class="cls-1" d="M166.78,336.92c0,5.34-24.66,9.66-55.07,9.66s-55.07-4.32-55.07-9.66,24.66-9.67,55.07-9.67S166.78,331.58,166.78,336.92Z"/></g><g id="OBJECTS"><path class="cls-2" d="M117.26,312.65s7.17,10.41,7.93,11.72,3.48,2.15,5.32-.43,5.61-17.19,6.36-22.24-.61-9.15-2.14-9.72-12.51-3.88-12.51-3.88-8.71,4-10.07,13.07C111,308.54,117.26,312.65,117.26,312.65Z"/><path class="cls-3" d="M57.77,254.2c1.25,13.12,17.73,41.87,22.55,46s26.2,12.62,38.57,13.5c5.66-8.25,7.28-20.88,7.7-23.88-2.45-2.87-8.45-7.5-8.45-7.5a99.65,99.65,0,0,0-5.75-28.12Z"/><path class="cls-2" d="M91,320.49S82.2,331.08,81,332.27s-1.21,4.27,2,5.43,19.65.79,25.17.07,9.4-3.34,9.54-5.11.35-14.26.35-14.26-6.75-7.94-16.67-6.67C93.43,312.76,91,320.49,91,320.49Z"/><path class="cls-3" d="M101.27,257.61s-10.19,19.84-11.66,29.21-3.22,33.5-2.84,34.63,17.37,4.41,32.87,1.91c4-.64,10.17-21.16,10.17-21.16,9.08-4.67,19.67-12.67,23.58-21.75s3.84-22.84,3.84-22.84Z"/><path class="cls-4" d="M129.71,303.19l-.51-.08c-.32,0-.81-.15-1.38-.28s-1.26-.24-1.95-.45l-2.16-.66-1.09-.33c-.36-.13-.7-.28-1-.41l-1.81-.75L118,299.5a.33.33,0,0,1-.18-.43.31.31,0,0,1,.39-.19h0l1.8.52,1.84.53c.34.09.68.2,1,.29l1.1.2,2.14.4c.69.14,1.32.16,1.87.23s1,.11,1.32.12l.52,0h0a1,1,0,0,1,1,1.05,1,1,0,0,1-1.05.95Z"/><path class="cls-4" d="M128.11,299.14l-.18-.15c-.11-.08-.27-.22-.47-.39a17.3,17.3,0,0,1-1.4-1.29c-.24-.25-.5-.47-.71-.72l-.56-.68-.54-.67a.4.4,0,0,1,0-.56.41.41,0,0,1,.5,0l0,0,.64.49.64.5c.24.18.53.34.8.51.54.35,1.1.65,1.52.87l.52.26.2.1h0a1,1,0,0,1,.47,1.34,1,1,0,0,1-1.35.47A1.22,1.22,0,0,1,128.11,299.14Z"/><path class="cls-5" d="M35.74,226.41c-2.91,3.71-8.93,6.77-12.27,7.19s-4.69-.49-7-2.45-5.6-8.17-5.33-9.6,3.15-2.57,3.82-2.72c-.51-.66-.93-2.65-.16-3.47s6.24-1.09,7.79-1.22,4.84.86,7.5,3.34S36.86,225,35.74,226.41Z"/><path class="cls-4" d="M15.43,218l2,1.71h0a.54.54,0,0,1,.06.77.55.55,0,0,1-.61.16l-2.44-.91h0a1,1,0,1,1,.71-1.91A1.33,1.33,0,0,1,15.43,218Z"/><path class="cls-6" d="M82.28,181.84c-7.13-5.56-18.33-8-25.56-3.22s-35.45,28-36.2,28.79a3.94,3.94,0,0,0-.72,5.13c1.56,2.37,12.91,18.69,14.54,19.8a7.25,7.25,0,0,0,5.12,1.39C41,233.42,80.74,212,85.31,207.64S93.23,192,82.28,181.84Z"/><path class="cls-7" d="M73,177.12c-5.66-1.65-11.73-1.48-16.25,1.5-7.23,4.79-35.45,28-36.2,28.79a3.94,3.94,0,0,0-.72,5.13c1.56,2.37,12.91,18.69,14.54,19.8a7.25,7.25,0,0,0,5.12,1.39C41,233.42,80.74,212,85.31,207.64l2.56-1.37"/><path class="cls-8" d="M33.22,196.93s6.7,12,11.21,16.55c.06,2.88-1.55,8-2.55,8.63s-7.51,1-8.05.69-8.37-9-11.22-17.16c-.58-1.65-.18-2.45.41-3.11s7.24-5.9,7.92-6.39A1.45,1.45,0,0,1,33.22,196.93Z"/><path class="cls-9" d="M34.84,218.06a2.83,2.83,0,1,1,3.72-1.48A2.83,2.83,0,0,1,34.84,218.06Z"/><path class="cls-10" d="M71.39,160S57.85,195.08,53.5,257.09c.14,2,1.48,10.76,46.14,11.48s58.87-7.07,59.59-8c3.41-4.67-3-55.89-12.25-80.24-8.34-9.84-25.86-21.18-25.86-21.18S88.48,157.28,71.39,160Z"/><path class="cls-6" d="M63.77,208.45c-1.25,17.62-2.38,44.62-2.5,45.87s-.88,3.13-4,3.13a41.83,41.83,0,0,1-9.13-1.5c-1.25-.38-2.25-1.38-2.5-3.75s3.13-39.63,5.88-52.13,5.2-21.45,5.2-21.45,4.67-6.17,9.42-8.8C66.14,169.82,64.71,193.17,63.77,208.45Z"/><path class="cls-7" d="M51.52,200.07c-2.75,12.5-6.13,49.75-5.88,52.13s1.25,3.37,2.5,3.75a41.83,41.83,0,0,0,9.13,1.5c3.12,0,3.87-1.88,4-3.13s1.25-28.25,2.5-45.87c.94-15.28,2.37-38.63,2.37-38.63-4.75,2.63-9.42,8.8-9.42,8.8l-2.35,1.67"/><path class="cls-8" d="M63.77,208.45C68,189,74.89,164.19,82.27,153.57c-8-2.62-13.19-1.61-16.86,2.73S57.39,178.82,63.77,208.45Z"/><path class="cls-11" d="M105.81,169.23c-1.94,6.11-9.9,11.06-17.77,11.06s-12.67-4.95-10.73-11.06,9.9-11.06,17.77-11.06S107.75,163.12,105.81,169.23Z"/><path class="cls-5" d="M181.33,213.32c4.56,1.2,9.75,5.53,11.45,8.43s1.41,4.5.53,7.42-5.29,8.38-6.7,8.69-3.61-1.87-4-2.43c-.41.73-2.07,1.9-3.13,1.52s-3.47-5.3-4.2-6.67-1.12-4.78.1-8.21S179.57,212.86,181.33,213.32Z"/><path class="cls-4" d="M181.61,235.32l.77-2.49v0a.55.55,0,0,1,.69-.36.53.53,0,0,1,.38.5l.13,2.59v0a1,1,0,1,1-2,.1A.83.83,0,0,1,181.61,235.32Z"/><path class="cls-8" d="M106.56,203.53c1.67,19.08,8.75,50.5,9.25,52.58s2,3.17,6.92,3,26.33-3,33.83-4.33,11.83-2.25,12-4.42-9.67-57.54-10.79-61.41-15.88-16.34-18.63-17.67-13.62-.92-17.25,0S106.35,185.24,106.56,203.53Z"/><path class="cls-9" d="M108,196c4.06,10.12,8.5,19.81,9.18,21.19s5.75.22,4.63-2.42L111.77,191.2Z"/><path class="cls-8" d="M136.14,155.28c-3-1.67-5.83-8.36-10.25-7.81s-10,3.48-14.18,12.31-7.23,33-5.15,43.75c0,0,9.7-18.71,18.75-26.17a30.53,30.53,0,0,1,13.83-6.08s4.92-5.33,3.92-9.67S136.14,155.28,136.14,155.28Z"/><path class="cls-6" d="M122,188.2c-2.29,8.75-.1,20,7.15,24.75s39.75,21.48,40.75,21.86a3.94,3.94,0,0,0,5-1.36c1.56-2.38,12.06-19.25,12.44-21.19a7.29,7.29,0,0,0-.75-5.25c-.88-1.25-36.24-29.34-42.09-31.79S127,174.13,122,188.2Z"/><path class="cls-7" d="M121.34,198.62c.72,5.85,3.27,11.36,7.8,14.33,7.25,4.75,39.75,21.48,40.75,21.86a3.94,3.94,0,0,0,5-1.36c1.56-2.38,12.06-19.25,12.44-21.19a7.29,7.29,0,0,0-.75-5.25c-.88-1.25-36.24-29.34-42.09-31.79l-2.27-1.81"/><path class="cls-8" d="M155.25,227.3s8.39-10.92,10.77-16.85c2.62-1.19,8-1.75,8.93-1.07s3.88,6.5,3.82,7.13-5,11.25-11.33,17.09c-1.28,1.18-2.17,1.13-3,.85s-8.28-4.32-9-4.75A1.45,1.45,0,0,1,155.25,227.3Z"/><path class="cls-9" d="M174,217.45a2.84,2.84,0,1,1-2.84-2.84A2.84,2.84,0,0,1,174,217.45Z"/><path class="cls-7" d="M122.64,220.28h3.75s3.88,13.67,20.75,25.42l.5,4"/><path class="cls-12" d="M168.27,64.17c6.87-4.87,26.62-4.14,34,16.74,22.25,17.65,19.75,66,18,67.82s-8.38-5-8.38-5c-.87,12.9-8.75,28.54-10.5,28.16s-7.5-9.26-7.5-9.26c-1,4.25-2.12,6.25-3,6s-9.12-4.82-12.62-13.85c-2.25,3.35-8,5.8-8.63,5.1-3.5-3.73-5.1-15-6.75-39.42A175,175,0,0,1,168.27,64.17Z"/><path class="cls-13" d="M202.27,80.91c-7.38-20.88-27.13-21.61-34-16.74a175,175,0,0,0-5.38,56.33c.8,11.86,1.6,20.62,2.6,26.92C190.41,134.39,204.82,99,202.27,80.91Z"/><path class="cls-7" d="M168.27,64.17c6.87-4.87,26.62-4.14,34,16.74,22.25,17.65,19.75,66,18,67.82s-8.38-5-8.38-5c-.87,12.9-8.75,28.54-10.5,28.16s-7.5-9.26-7.5-9.26c-1,4.25-2.12,6.25-3,6s-9.12-4.82-12.62-13.85c-2.25,3.35-8,5.8-8.63,5.1-3.5-3.73-5.1-15-6.75-39.42A175,175,0,0,1,168.27,64.17Z"/><ellipse class="cls-14" cx="172.03" cy="79.14" rx="14.47" ry="15.52"/><path class="cls-15" d="M24.86,117c-2.5,8-3.84,16-1.95,21.8C29,157.39,59,171.35,86.74,171.92c20.17.42,49.58-11.31,56.29-21.34,10-6.3,28.71-42.09,18.7-74S122.65,31.3,83.6,33.33,31.4,50.59,25.26,73.63C19.94,93.59,25,112.8,24.86,117Z"/><path class="cls-16" d="M112.87,119.26c-10.18-.21-18.56,5.69-18.71,13.18s8,13.73,18.15,13.94,18.56-5.69,18.71-13.18S123.05,119.47,112.87,119.26Z"/><path class="cls-16" d="M48.94,131.51c.16-7.49-8-13.73-18.15-13.94a24,24,0,0,0-6.32.7c-2.24,7.52-3.35,15-1.56,20.49a26.69,26.69,0,0,0,2.47,5.33,23.75,23.75,0,0,0,4.85.59C40.41,144.89,48.79,139,48.94,131.51Z"/><path class="cls-17" d="M24.86,117c-2.5,8-3.84,16-1.95,21.8C29,157.39,59,171.35,86.74,171.92c20.17.42,49.58-11.31,56.29-21.34,10-6.3,28.71-42.09,18.7-74S122.65,31.3,83.6,33.33,31.4,50.59,25.26,73.63C19.94,93.59,25,112.8,24.86,117Z"/><path class="cls-12" d="M41.52,30.17c12.75-10.62,51.12-17.37,81-8.37s46.75,27.5,55.25,48.75,4.58,61.48-18.13,73.67h-8l-15-47.67S120.14,45.3,41.52,30.17Z"/><path class="cls-13" d="M136.64,96.55l15,47.67h8C179.9,133.35,185.2,100.15,180.07,78c-8.61,2.24-29,7.41-46.86,11A50.58,50.58,0,0,1,136.64,96.55Z"/><path class="cls-7" d="M41.52,30.17c12.75-10.62,51.12-17.37,81-8.37s46.75,27.5,55.25,48.75,4.58,61.48-18.13,73.67h-8l-15-47.67S120.14,45.3,41.52,30.17Z"/><path class="cls-15" d="M163.53,121.49c-2.85-3.26-10.68-3.78-15.91,1.62l-6.13,27.06c7.07,3,16.45-.22,21.31-8.56C168.12,132.49,167.25,125.76,163.53,121.49Z"/><path class="cls-7" d="M158.19,128.57s-5.64.7-8.81,9.14c3.18-2.88,7.84-1.47,8.6,1.24"/><path class="cls-17" d="M147.62,123.11c5.23-5.4,13.06-4.88,15.91-1.62,3.72,4.27,4.59,11-.73,20.12-4.86,8.34-14.24,11.52-21.31,8.56"/><path class="cls-18" d="M57.3,148.56c-.12-.66,1-2.9,4.75-3.82s20.51-4.41,24.09-4.42,8,2,9.67,8.37S92,161,83.17,162.93C73,165.13,59.84,162.78,57.3,148.56Z"/><path class="cls-12" d="M95.92,149.3c-13.59-2.76-26.54,5.07-30.51,11.62,5.21,3,12,3.26,17.76,2C91.75,161.08,97.06,155.43,95.92,149.3Z"/><path class="cls-19" d="M95.92,149.3c-13.59-2.76-26.54,5.07-30.51,11.62"/><path class="cls-20" d="M62.05,144.74a8.24,8.24,0,0,0-3.43,1.63c5.8,2,23.78.55,31.58-5.15a9.49,9.49,0,0,0-4.06-.9C82.56,140.33,65.82,143.82,62.05,144.74Z"/><path class="cls-19" d="M58.62,146.37c5.8,2,23.78.55,31.58-5.15"/><path class="cls-19" d="M57.3,148.56c-.12-.66,1-2.9,4.75-3.82s20.51-4.41,24.09-4.42,8,2,9.67,8.37S92,161,83.17,162.93C73,165.13,59.84,162.78,57.3,148.56Z"/><path class="cls-21" d="M59,129.53s-3.25,2.55.76,5.26"/><path class="cls-22" d="M106.26,128.58l.43-.27c.28-.17.68-.38,1.17-.64s1.07-.52,1.71-.76,1.32-.51,2-.71l1.05-.31,1-.23,1-.22c.31-.07.61-.09.88-.14l1.82-.25a.75.75,0,1,1,.21,1.49h-.12l-1.75.1c-.26,0-.55,0-.85.06l-.94.13-1,.14-1,.22a19.46,19.46,0,0,0-2,.52c-.64.18-1.21.42-1.71.6s-.89.38-1.16.52l-.43.22a.29.29,0,0,1-.39-.09.3.3,0,0,1,.08-.38Z"/><path class="cls-22" d="M109.8,130.44l.29-.15.81-.38c.34-.13.73-.3,1.17-.45s.89-.3,1.37-.42,1-.25,1.4-.33a11.49,11.49,0,0,1,1.24-.21l1.23-.15a.76.76,0,0,1,.18,1.5h-1.3a10,10,0,0,0-1.18.05,13.14,13.14,0,0,0-1.36.15c-.46,0-.92.16-1.35.24s-.82.2-1.16.29l-.8.26-.3.11h0a.29.29,0,0,1-.37-.17A.29.29,0,0,1,109.8,130.44Z"/><path class="cls-22" d="M113.37,132.3s.23-.08.59-.17.85-.2,1.35-.28a6.45,6.45,0,0,1,.73-.11l.66,0,.65,0a.76.76,0,1,1,.09,1.51.47.47,0,0,1-.17,0h-.1l-.56-.1-.57-.11c-.21,0-.45,0-.68-.06a12,12,0,0,0-1.29,0c-.35,0-.6,0-.6,0a.28.28,0,0,1-.31-.25.29.29,0,0,1,.19-.3Z"/><path class="cls-22" d="M35.85,127.56a2,2,0,0,0-.23-.21,7.12,7.12,0,0,0-.65-.51c-.13-.11-.3-.2-.46-.31a5.34,5.34,0,0,0-.53-.33,10.29,10.29,0,0,0-1.2-.59l-.62-.26a5.59,5.59,0,0,0-.63-.19,7.1,7.1,0,0,0-1.11-.27l-1.1-.16-.1,0a.75.75,0,0,1-.63-.85.76.76,0,0,1,.86-.64l.08,0,1.22.34A7.54,7.54,0,0,1,32,124c.21.1.44.17.65.29l.65.37a10.51,10.51,0,0,1,1.21.79c.19.13.35.29.52.42s.32.25.45.39a8.55,8.55,0,0,1,.62.64,1.91,1.91,0,0,1,.22.25l0,0a.28.28,0,0,1-.06.39A.29.29,0,0,1,35.85,127.56Z"/><path class="cls-22" d="M33.67,129.34l-.17-.11L33,129a8.19,8.19,0,0,0-1.5-.61,6.65,6.65,0,0,0-.83-.2,5,5,0,0,0-.72-.09l-.7,0h-.08a.76.76,0,0,1,.07-1.51l.14,0,.82.2a5.48,5.48,0,0,1,.81.27,5.31,5.31,0,0,1,.88.4,8.67,8.67,0,0,1,1.5,1l.45.39.15.15a.28.28,0,0,1,0,.4A.27.27,0,0,1,33.67,129.34Z"/><path class="cls-22" d="M31.55,131.15a2.23,2.23,0,0,0-.37,0,4,4,0,0,0-.77,0,1.7,1.7,0,0,0-.4,0l-.32.08-.29.08-.12,0a.76.76,0,0,1-.94-.56.77.77,0,0,1,.55-.94.72.72,0,0,1,.29,0l.45.05.45.07a4.12,4.12,0,0,1,.47.13,5.66,5.66,0,0,1,.83.34,2.46,2.46,0,0,1,.35.18l0,0a.28.28,0,0,1,.08.39A.27.27,0,0,1,31.55,131.15Z"/><path class="cls-4" d="M86.09,98.56c-1.37,0,1.72-6.46,3.73-7.18,4.66-1.65,13.75.46,13.15,1.19S92.68,98.45,86.09,98.56Z"/><path class="cls-4" d="M52.76,97.87c1.08.08-1.12-6.52-2.68-7.31-3.62-1.82-10.88,0-10.43.71S47.56,97.51,52.76,97.87Z"/><path class="cls-20" d="M38.94,99.31c4.93-.2,8.36,4,10.15,6.64s3.1,7.45,1.35,14c-2.89,4.33-10.72,5.07-15.8,3.9s-7.11-6.87-7.32-11S29.24,99.71,38.94,99.31Z"/><path class="cls-4" d="M52.31,115.47c-.61-4.13-4.52-14.3-13-14.66s-12.26,6.81-11.88,13.06c-1.54-.45-3.29-2.79-3.29-2.79S26.44,99.51,36,98.15C46.48,96.66,52.07,105,52.31,115.47Z"/><path class="cls-12" d="M27.92,111.19c-.31,6.46,3.35,11.9,8.2,12.14s9-4.81,9.34-11.28-3.35-11.9-8.19-12.14S28.24,104.72,27.92,111.19Z"/><path class="cls-13" d="M28.23,108.81c1.08-5.28,4.81-9.11,9-8.9,4.84.24,8.51,5.68,8.19,12.14,0,0,0,.07,0,.11A29,29,0,0,0,28.23,108.81Z"/><path class="cls-23" d="M27.92,111.19c-.31,6.46,3.35,11.9,8.2,12.14s9-4.81,9.34-11.28-3.35-11.9-8.19-12.14S28.24,104.72,27.92,111.19Z"/><path class="cls-24" d="M31.6,111.37c-.14,2.83,1.47,5.22,3.59,5.32s4-2.11,4.1-4.94-1.47-5.22-3.59-5.32S31.74,108.54,31.6,111.37Z"/><path class="cls-20" d="M48,112.18c-2.1-1.22-7.75-1.49-8-.39s3.82,4.86,6.36,5.45S49.94,113.29,48,112.18Z"/><path class="cls-20" d="M29.57,112.75c.64-1,2.93-1.11,3-.63s-1.9,3-2.46,2.94S29.09,113.51,29.57,112.75Z"/><path class="cls-20" d="M118.61,121.35c-4,3-13.23,7.24-20.15,6.61S89.51,124,89.51,124s-2.43-9.08.3-14.22,9.78-11.13,20.17-7S120.41,116.54,118.61,121.35Z"/><path class="cls-12" d="M90,115c-.32,6.47,3.72,11.92,9,12.19s9.86-4.77,10.18-11.24-3.72-11.92-9-12.18S90.28,108.49,90,115Z"/><path class="cls-13" d="M90.28,112.58c1.16-5.28,5.23-9.09,9.86-8.86,5.31.26,9.35,5.72,9,12.18,0,0,0,.07,0,.11A34.6,34.6,0,0,0,90.28,112.58Z"/><path class="cls-23" d="M90,115c-.32,6.47,3.72,11.92,9,12.19s9.86-4.77,10.18-11.24-3.72-11.92-9-12.18S90.28,108.49,90,115Z"/><path class="cls-24" d="M94,115.15c-.14,2.84,1.63,5.23,4,5.34s4.32-2.09,4.47-4.92-1.64-5.23-4-5.34S94.13,112.32,94,115.15Z"/><path class="cls-20" d="M112,116c-2.3-1.23-8.5-1.53-8.72-.43s4.21,4.88,7,5.49S114.08,117.16,112,116Z"/><path class="cls-20" d="M91.77,116.53c.69-1,3.2-1.1,3.32-.62s-2.07,3-2.68,2.93S91.25,117.28,91.77,116.53Z"/><path class="cls-4" d="M87.42,120.18s2.75-15.92,14.33-17.19,18,10,16.86,18.36c3-.81,6.64-4.19,6.64-4.19s-5.31-16.26-18-17.53C94.05,98.32,86.48,109,87.42,120.18Z"/><path class="cls-12" d="M72.56,53.05c7.17,31.08,39.33,56.64,40,55.16s-2.28-15.75-2.28-15.75c9.25,11.25,23.58,25.1,23.58,25.1s1.09,21.15,2,22.32,24.25-15.77,25.75-49.11c1.88,2.78,6.5,7.93,7.25,7.1s.1-38.82-19.51-54.07-48.49-22.5-73-19c-9.87-1.38-29-3-43.64,8.33s-19.61,27-20.61,39.67C5.77,82.8,0,95.67,1.14,108.05c.24,2.6,6.63-4.34,6.63-4.34.75,20.63,12.25,32,12.62,31.08s5-36.95,22.75-64c-3.08,11.6-.57,22.77,1.41,23S55,71.05,72.56,53.05Z"/><path class="cls-25" d="M109.18,66.92c-8.35-4.41-19.58-7.87-17.62-3.25S120.39,83.14,118.89,78,112.63,68.74,109.18,66.92Z"/><path class="cls-25" d="M58.89,51.42c.75-1.49-17.63-7.92-31.33-13.7A51.9,51.9,0,0,0,15.87,56C37.24,58.81,58.06,53.09,58.89,51.42Z"/><path class="cls-25" d="M165.79,72.19c-2.32-8.73-6.17-17.95-12.41-24.69-21.33,3.89-55.71,8-56.36,9.27S134,74.06,165.79,72.19Z"/><path class="cls-4" d="M165,73.05l-.36-1.42c-.24-.91-.56-2.15-1-3.66-.23-.75-.5-1.56-.79-2.41s-.63-1.75-1-2.67c-.72-1.83-1.57-3.75-2.52-5.62-.5-.92-1-1.86-1.51-2.73s-1.08-1.74-1.62-2.56-1.11-1.58-1.68-2.27-1.09-1.37-1.63-1.93a18.56,18.56,0,0,0-1.49-1.54,16.37,16.37,0,0,0-1.21-1.13l-1.09-.93,0,0a.48.48,0,0,1-.05-.68.46.46,0,0,1,.66-.06l1.16.93c.37.28.8.67,1.28,1.12s1,1,1.58,1.54,1.14,1.23,1.75,1.94,1.18,1.48,1.8,2.29,1.19,1.67,1.74,2.57,1.1,1.83,1.64,2.77c1,1.89,2,3.83,2.75,5.68.38.93.76,1.83,1.08,2.7s.63,1.68.88,2.44c.53,1.52.92,2.83,1.18,3.72s.4,1.4.4,1.4a1,1,0,1,1-1.92.56A.1.1,0,0,0,165,73.05Z"/><path class="cls-7" d="M76.39,24.8c-9.87-1.38-29-3-43.64,8.33s-19.61,27-20.61,39.67C5.77,82.8,0,95.67,1.14,108.05c.24,2.6,6.63-4.34,6.63-4.34.75,20.63,12.25,32,12.62,31.08s5-36.95,22.75-64c-3.08,11.6-.57,22.77,1.41,23S55,71.05,72.56,53.05c7.17,31.08,39.33,56.64,40,55.16s-2.28-15.75-2.28-15.75c9.25,11.25,23.58,25.1,23.58,25.1s1.09,21.15,2,22.32,24.25-15.77,25.75-49.11c1.88,2.78,6.5,7.93,7.25,7.1.41-.45.4-12.13-2.94-25.09"/><path class="cls-4" d="M132.89,117.58s0-.47,0-1.29,0-2-.1-3.38-.18-3-.28-4.8c-.06-.87-.16-1.77-.25-2.69s-.16-1.86-.29-2.78c-.28-1.85-.46-3.72-.81-5.44-.16-.87-.32-1.7-.47-2.49s-.26-1.55-.46-2.22c-.69-2.72-1.16-4.53-1.16-4.53v0a.54.54,0,0,1,1-.29l1.32,4.57c.22.68.35,1.44.54,2.23s.36,1.64.55,2.51c.4,1.74.64,3.62,1,5.49.16.93.25,1.88.38,2.8s.24,1.84.34,2.73c.15,1.77.35,3.42.43,4.84s.17,2.61.2,3.45,0,1.3,0,1.3a1,1,0,0,1-2,.08v0Z"/><path class="cls-4" d="M11.37,72.16l.33-.36c.22-.23.52-.57.9-1,.74-.78,1.76-1.79,2.82-2.76.53-.49,1.09-.94,1.6-1.39s1-.79,1.47-1.12c.22-.17.45-.29.63-.41s.36-.22.5-.3l.43-.26a.42.42,0,0,1,.59.14.43.43,0,0,1-.1.57l-.05,0-.38.29-.43.32c-.16.13-.35.26-.54.44-.38.35-.84.75-1.3,1.21s-.94,1-1.4,1.48c-.93,1.05-1.82,2.12-2.47,3l-.76,1-.29.39h0a1,1,0,0,1-1.61-1.2Z"/><path class="cls-12" d="M30,1.6c10,8.48,24,20,42.75,26.48l5.25-1C75.27,15.33,58.14-2.5,30,1.6Z"/><path class="cls-7" d="M78,27.08C75.27,15.33,58.14-2.5,30,1.6c10,8.48,24,20,42.75,26.48"/><path class="cls-26" d="M94.67,198.81a8.93,8.93,0,0,0-7.74,4.68,6.89,6.89,0,0,0-6.75-4.68,8.76,8.76,0,0,0-8.63,7.55c-.18,1.8-.69,6.58,9.43,13.33l4,2.64,4.53-2.64c11.53-6.75,12-11.53,12.23-13.33A6.81,6.81,0,0,0,94.67,198.81Z"/></g></g></svg>