<svg width="50" height="50" viewBox="0 0 50 50" fill="none" xmlns="http://www.w3.org/2000/svg">
<path fill-rule="evenodd" clip-rule="evenodd" d="M11.3479 0.288086H21.7376C23.2191 0.288086 24.4312 1.50023 24.4312 2.98169V13.3714C24.4312 14.8529 23.2191 16.065 21.7376 16.065H11.3479C9.86643 16.065 8.6543 14.8529 8.6543 13.3714V2.98169C8.6543 1.50023 9.86643 0.288086 11.3479 0.288086Z" fill="#EB4193"/>
<path fill-rule="evenodd" clip-rule="evenodd" d="M16.5428 34.0303L24.4274 49.7994H8.6582L16.5428 34.0303Z" fill="#C568AE"/>
<path fill-rule="evenodd" clip-rule="evenodd" d="M16.5428 17.1611C20.8794 17.1611 24.4274 20.7092 24.4274 25.0457C24.4274 29.3823 20.8794 32.9303 16.5428 32.9303C12.2063 32.9303 8.6582 29.3823 8.6582 25.0457C8.6582 20.7092 12.2063 17.1611 16.5428 17.1611Z" fill="#5CBDC4"/>
<path fill-rule="evenodd" clip-rule="evenodd" d="M25.0254 0.288086V32.9304C34.002 32.9304 41.3466 25.5859 41.3466 16.6092C41.3466 7.63261 34.002 0.288086 25.0254 0.288086Z" fill="#FFD74F"/>
</svg>
