<svg xmlns="http://www.w3.org/2000/svg" viewBox="0 0 775.2 258.38"><defs><style>.cls-1{fill:#c568ae;}.cls-1,.cls-2,.cls-3,.cls-4{fill-rule:evenodd;}.cls-2{fill:#78d4d7;}.cls-3{fill:#fed953;}.cls-4{fill:#eb4193;}.cls-5{fill:#050505;}</style></defs><title>Asset 1</title><g id="Layer_2" data-name="Layer 2"><g id="Layer_1-2" data-name="Layer 1"><path class="cls-1" d="M451.1,97.92c-17.91,14.81-10.94,23.22-18,30.75-4.22,4.49-8.1,6.8-6.84,16.77,1.15,9.11,6.63,10.34,10.06,14.83l18.19,4.53,42.12-.43c12.69-2.81,26.43-2.54,28.63-18.71,1.34-9.94-2.31-12.2-7-17.45-3.8-4.23-4.58-12.37-7-17.4-4-8.22-5-7.71-11.08-13,18.29-31.82,4.48-23.54,4-33.49,4.38,4.68,29.15,21.12,38.37,20.9-.89-10.7-20.37-42.35-26.15-49.45L490,44.37c-4.3,1.61-3.63,1.39-5,6.58-3.59,13.76-4.13,28.26-4.66,43.26L471,94.15c.2-19.39-2.05-39.13-8.48-55.41C457.67,26.45,445.42,3.56,437.46,0,430.78,10.94,436,65.69,446,87.56Z"/><path class="cls-2" d="M0,85.62C0,97.57,17.23,182.39,19.94,196c2.07,10.4,3.72,26.3,17.3,26.3h4.55a99.77,99.77,0,0,0,12.36-2.16c4.9-1,9.05-1.84,13.78-3,11.29-2.82,17.44-7.25,17.44-19.35,0-4.48-2.16-16-3.18-20.43,1.57-.76,10.56-2.33,20.74-7.42,16.29-8.14,28.19-22.39,30-41.23,3.73-37.75-19-69.41-58.51-69.41-10.39,0-15.14.89-24.48,2.76-3.34.67-7,1.4-10.12,2.14-8.68,2-21.15,4.79-29.27,7.52-6,2-10.6,7.49-10.6,13.92"/><path class="cls-1" d="M167.4,203.87c2.16-13.3,5.63-31.13,6.25-34.05,2.82-16.85,5.4-33,8.24-49.89.42-2.49,7.58-47.22,7.4-50.6-.3-5.91-1.55-6.22-4-10.49-3.58-6.13-13.11-7.23-20.74-8.33-13.34-1.93-27.24-3.19-32,12.34-4.5,14.75-15.27,92.93-17.91,112-1.8,13.09-6.28,30.67,7.91,36.21,3.91,2,22,4.29,27.57,5.11l3.11.45c9.16,1.63,13-5.55,14.19-12.71"/><path class="cls-3" d="M160.29,133.29A17.22,17.22,0,0,0,164,144.55c1.48,1.79,5.85,6.31,8.08,6.91-8.55,12.76-10,25.66-4.49,40.35,5,13.35,18.37,24.58,34,24.58,23,0,24.22-5.44,28.21-5.87,1.93-.22,2.54.5,4.94.46l10.4-1c6-.5,13.52-1.21,18.53-3.73,5.79-2.92,8.31-9.77,8.31-15.76,0-6.58-1.57-21.36-2.54-28.35-1.26-9.24-1.66-18.72-3.64-27.24-3.78-16.3-13.26-28.42-26.66-35.09-18.9-9.38-42.39-6.18-60.17,5.85-7.19,4.86-18.7,18-18.7,27.61"/><path class="cls-4" d="M294.86,114.32c-.43-.48,0,.14-.6-.77-9.81-15-6.36-21.8-31.07-14.94-3.3.94-6.74,2-10.1,3.21-10.57,3.76-19.19,7.69-18.93,20.55.19,8.95,36.84,69.18,36.86,70.1l-5.57,19.13c-6.81,21.94-11.67,31.74,22.67,39.56,7.27,1.66,16.57,3.65,23.43-.65s9.38-16.65,12-25.45l17-57.57c2.53-8.51,15.23-52.07,15.07-59.87.13-7.77-8.09-13.5-14.4-14.66-7.41-1.37-24.11-2.94-31.41-1.71-7,.79-10,2.4-12.77,14.44q-1.23,4.25-2.14,8.63"/><path class="cls-2" d="M367.89,88.2c-2.68.78-10.62,3.32-12.36,5.15-2.66,2.78-4.23,6.56-5.28,10.64l-1.19,5.73c-.6,3.49-1,7-1.6,10-1.14,5.79.27,6.68,1.43,11,.52,1.93.15,1.71,1.54,3.21,1.19,1.29,4,4,5.62,4.76l-6.42,26.49c-2.72,13.11,1.18,25.72,9.29,35.39,18.4,22,67.91,19.47,72-.44,1.15-5.55.27-18.27-.51-23.09a30.67,30.67,0,0,0-1.09-5.05C426,161.75,419.81,161,411,159.75l1.56-7.56c8.17,1.69,14.38,2.53,20.51-2.7a15.83,15.83,0,0,0,2.88-2.64c3.31-4.45,5.06-15.55,6.28-21.43,2.76-13.34-3.73-22.11-17.1-24.88C428,87.07,427.1,76.64,410.88,73l-1.09-.23c-3.23-.62-6.81-.86-11.08-1.4-6.26-.8-10.11-1.37-15.79-.65-7.85,1-13.05,7.93-15,17.48"/><path class="cls-1" d="M415,151c0,13.1.71,18.18,5.38,29.58,5.2,12.69,17,24.22,29.64,29.4,27.18,11.08,57.55,3.48,74.68-20.11a41.77,41.77,0,0,0,2.76-4.51A57.44,57.44,0,0,0,533.81,169a65.06,65.06,0,0,0-11.87-53.14,61.11,61.11,0,0,0-11.74-11c-21.49-15.6-56.88-14.19-76.89,5.83a65.87,65.87,0,0,0-6.87,7.67l-5.51,9c-2.69,5.48-5.9,15.51-5.9,23.62"/><path class="cls-3" d="M510.85,119.25c.76,10.85,3.22,23.72,4.22,34.31.55,5.83,2.92,17.88,3.54,24.33.26,2.73,1.16,6.83,1.55,9.47l2.77,19.34c.33,2.82,1.27,6.58,1.56,9.46l4.1,24.67c2.28,15.69,10.88,17.77,17.22,17.53l4.84-.34A118.12,118.12,0,0,0,569,254.85c4.89-1.19,8.07-1.58,11.68-4.31,9.09-6.87,8-11.8,7-22l-1.94-14.9a60.66,60.66,0,0,0,23.37-6.06,50.64,50.64,0,0,0,19.57-16.17c8.08-10.69,11.47-24.28,11.11-37.71l-.45-6.34c-1.68-14.83-7.82-28.87-17.11-37.91-5-4.91-9.06-8.44-16.08-11.35a53.7,53.7,0,0,0-21.47-4.55l-6.69.47a70,70,0,0,0-9.67,2c-10.34,2.84-5.94,4.53-12.67,2.93-4.45-1.06-11.21.62-16.61,1l-10.69,1.34c-7.26,1.49-18.08,10.1-17.53,18"/><path class="cls-2" d="M630.72,82.44c0,9.6,1.85,9.25,3.18,15a3.33,3.33,0,0,0-2,1.15c-5.38,4.87-7.52,35.24-8.67,43.55l-4.42,37.36c-1.45,11.45-1.66,9.15-.41,19.29.47,3.83,8.22,10.38,11.88,11.29,4,1,8.91,1.62,13.21,2.22,2.7.38,6.81,1.16,10.89,1.39h4c10.85-.72,14.9-8.88,16.48-18.55l11.61-76.5c.63-4.19.45-3.6-.19-7.25-.53-2.94-.9-5-1.49-7.59,1-1.47,2-2,3.09-3.71A31,31,0,0,0,692.93,85V79.8a32.61,32.61,0,0,0-3.17-11.9c-5.27-10.78-16.09-16.41-26.69-17.25h-5.58a29.39,29.39,0,0,0-10.73,2.87c-4,2-5.49,3.51-8.44,6.54-4.11,4.23-7.6,14-7.6,22.38"/><path class="cls-4" d="M675.94,119.1c-1.17,9.44,1.48,10.85,5.09,18-1.23,1.31-6.31,3.39-11.61,11.21A44,44,0,0,0,662.7,167l-.11.9c-.92,8.08.13,16.37,3.58,22.78a37.77,37.77,0,0,0,13.42,14.78c16.23,10.72,32.82,7.38,33.91,7.79,0,0,1.78,1.12,2,1.25,2.33,1.35,6.27,2.3,8.74,3,10.23,2.73,23.8,8.53,32.37-1.13,4.26-4.8,12.67-37.79,14.51-45.62,2.53-10.7,2.4-8.25,3.81-19.65,1.31-10.64-2.44-24.87-9-33.27-15.62-19.92-41.54-27.07-65.49-19.48-6.9,2.19-16,7.46-20.46,12.94-1.4,1.73-3.68,5.13-4,7.89"/><path class="cls-5" d="M707.21,171.63c0-5.64,4.6-10,11.5-10,6.55,0,11.68,3.86,11.68,10,0,5.27-3.89,9.82-11.68,9.82-6.55,0-11.5-4-11.5-9.82m-22.3-43.45c-.18,1.95,12,12.69,13.62,12.69,1.6-.18,6.73-8.09,17.7-8.09,15.93,0,15.57,10.59,15.39,18.23-3.36-2.48-8.31-4.78-16.45-4.78-17.69,0-31.67,10.09-31.67,25.92,0,15.31,8.14,26.64,27.42,26.64a30.44,30.44,0,0,0,22.65-9.73l1.59,7.6s22.3,1.07,22.83,0,1.42-30.31,1.42-49.19c0-26-17-38.93-38.93-38.93-23.72,0-35.39,16.63-35.57,19.64m-44.59-46c0,9.74,6.37,14.87,15.57,14.87,9.55,0,16.28-6,16.28-13.8,0-11-6.73-17.52-16.28-17.52-12.74,0-15.57,6.9-15.57,16.45m1.06,28.14c-1.06,2,.53,86.53.88,87.06s25.66,1.06,26.37-.18c.53-1.23,2-86.17,1.42-86.88-.71-.71-27.61-1.77-28.67,0m-44.24,44.42c0,11-6.37,18.58-17.52,18.58-8.84,0-17-7.08-17-18.76,0-10.62,5.66-18.23,17.69-18.23,9.56,0,16.81,6.37,16.81,18.41m-8.85-45.3c-15.92,0-25.3,7.78-26.54,9.9,0-1,.18-8.49.18-9.55,0,0-26.37-1.41-26.54-.88-1.6,3.89-2.66,126.69-2.13,126.87,3.36,1.77,27.61.71,29.2-.53,1.59-1.06.88-38.58.88-44.41,1.42,2.3,11.15,7.78,22.83,7.78,21.77-.18,40.88-15.92,40.88-44.24,0-29.37-17.87-44.94-38.76-44.94m-113.6.17c-27.6,0-44.59,21.77-44.59,43.89,0,28.84,19.82,46.18,44.94,46.18,28.31-.53,44.77-21,44.77-43.88,0-29.2-20-46.19-45.12-46.19m17.87,45.84c0,12.38-6.55,19.81-18.93,19.46-8.32-.18-16.28-6.9-16.28-19.29,0-11.5,6.19-19.46,18.75-19.11,8.32.35,16.46,4.78,16.46,18.94m-95-21.59c0-1.42,21.41.53,22.65-1.6,0,0,1.41-17.87-.35-20.35-1.77-2.3-21.24-1.41-21.59-1.23-.36,0,1.23-22.83.35-23.72s-25.3.71-26.9,2.3-.53,20-1.06,20.71c-.53.53-12.39,0-13.09.18-1.07.17-.89,20.7,0,21.58s12.21.71,12.21.89-1.07,30.61-1.24,38.93c0,17.34,9.91,28.31,30.26,28.31,18.4.18,25.83-8.67,25.83-8.67-.17-3.72-4.07-19.82-6.19-20.35-2.3-.35-6.73,3.89-12.92,3.89-5.66-.17-8.67-3.89-8.67-9.55.18-10.27.71-30.44.71-31.32M348,114.38c.25-1-25.66-6.38-26.72-6.19-.89.16-20.17,50.25-20.17,50.25S285,108.37,282.73,108.37c-2.12,0-26.5,3.89-26.54,5.3-.14,4.61,22.47,61.58,28.84,74.15-1.94,6-17.34,38-17.52,39.1,1.6,2,19.82,10.8,26.72,10.44,2.48-2.83,50.86-110.88,53.8-123M201.65,171.63c0-5.64,4.6-10,11.5-10,6.55,0,11.68,3.86,11.68,10,0,5.27-3.89,9.82-11.68,9.82-6.55,0-11.5-4-11.5-9.82m-22.3-43.45c-.17,1.95,12,12.69,13.63,12.69,1.59-.18,6.73-8.09,17.7-8.09,15.92,0,15.57,10.59,15.39,18.23-3.36-2.48-8.32-4.78-16.46-4.78-17.69,0-31.67,10.09-31.67,25.92,0,15.31,8.14,26.64,27.43,26.64A30.47,30.47,0,0,0,228,189.06l1.59,7.6s22.3,1.07,22.83,0,1.41-30.31,1.41-49.19c0-26-17-38.93-38.93-38.93-23.71,0-35.39,16.63-35.57,19.64m-40.69-63c-2.66,2.3-2.66,132-1.24,133.07,1.41.88,25.3.7,25.3.7.88-13.62,3.37-132.36,2.13-134.48-.53-1.24-23.72-1.59-26.19.71M61.15,197.55c1.06-3.18.71-23.53.88-35.75,2.13,0,6.55.18,9.56.18C105.21,162,124,148.89,124,117c0-27.79-18.4-43.89-52.38-43.89-13.8,0-34,.89-43,1.95-1.59,12.21-1.24,114.67-.35,123,.17,1.06,32.2.71,32.91-.53m0-63.35c0-6.55.18-26.37,0-31.5a80.39,80.39,0,0,1,9-.53c12.38,0,23,3.19,23,16.81,0,11-8.49,15.57-19.64,15.57-3.9,0-9.2-.17-12.39-.35"/></g></g></svg>