<?xml version="1.0" encoding="UTF-8"?>
<!DOCTYPE svg PUBLIC "-//W3C//DTD SVG 1.1//EN" "http://www.w3.org/Graphics/SVG/1.1/DTD/svg11.dtd">
<!-- Creator: CorelDRAW 2020 (64-Bit) -->
<svg xmlns="http://www.w3.org/2000/svg" xml:space="preserve" width="93.98mm" height="139.7mm" version="1.1" style="shape-rendering:geometricPrecision; text-rendering:geometricPrecision; image-rendering:optimizeQuality; fill-rule:evenodd; clip-rule:evenodd"
viewBox="0 0 9398 13970"
 xmlns:xlink="http://www.w3.org/1999/xlink"
 xmlns:xodm="http://www.corel.com/coreldraw/odm/2003">
 <defs>
  <style type="text/css">
   <![CDATA[
    .fil2 {fill:#5CBDC4}
    .fil1 {fill:#C568AE}
    .fil0 {fill:#EB4193}
    .fil3 {fill:#FFD74F}
   ]]>
  </style>
 </defs>
 <g id="Layer_x0020_1">
  <metadata id="CorelCorpID_0Corel-Layer"/>
  <g id="_2563306084160">
   <path class="fil0" d="M942.15 173.04l2858.92 0c407.65,0 741.18,333.54 741.18,741.19l0 2858.91c0,407.65 -333.53,741.18 -741.18,741.18l-2858.92 0c-407.64,0 -741.18,-333.53 -741.18,-741.18l0 -2858.91c0,-407.65 333.54,-741.19 741.18,-741.19z"/>
   <polygon class="fil1" points="2371.61,9457.82 4541.19,13796.97 202.04,13796.97 "/>
   <path class="fil2" d="M2371.61 4815.96l0 0c1193.3,0 2169.58,976.31 2169.58,2169.58l0 0c0,1193.29 -976.28,2169.58 -2169.58,2169.58l0 0c-1193.26,0 -2169.57,-976.29 -2169.57,-2169.58l0 0c0,-1193.27 976.31,-2169.58 2169.57,-2169.58z"/>
   <path class="fil3" d="M4705.99 173.04l0 0 0 8982.08 0 0c2470.07,0 4491.04,-2020.97 4491.04,-4491.04l0 0c0,-2470.07 -2020.97,-4491.04 -4491.04,-4491.04z"/>
  </g>
 </g>
</svg>
