<?xml version="1.0" encoding="UTF-8"?>
<!DOCTYPE svg PUBLIC "-//W3C//DTD SVG 1.1//EN" "http://www.w3.org/Graphics/SVG/1.1/DTD/svg11.dtd">
<!-- Creator: CorelDRAW 2020 (64-Bit) -->
<svg xmlns="http://www.w3.org/2000/svg" xml:space="preserve" width="304.8mm" height="101.6mm" version="1.1" style="shape-rendering:geometricPrecision; text-rendering:geometricPrecision; image-rendering:optimizeQuality; fill-rule:evenodd; clip-rule:evenodd"
viewBox="0 0 30480 10160"
 xmlns:xlink="http://www.w3.org/1999/xlink"
 xmlns:xodm="http://www.corel.com/coreldraw/odm/2003">
 <defs>
  <style type="text/css">
   <![CDATA[
    .str1 {stroke:#727271;stroke-width:200.23;stroke-linecap:round;stroke-linejoin:round;stroke-miterlimit:22.9256}
    .str0 {stroke:#2B2A29;stroke-width:352.78;stroke-linecap:round;stroke-linejoin:round;stroke-miterlimit:22.9256}
    .fil0 {fill:none}
    .fil7 {fill:none;fill-rule:nonzero}
    .fil1 {fill:#FEFEFE}
    .fil4 {fill:#FDDB4D}
    .fil5 {fill:#E6418F}
    .fil3 {fill:#BD67A5}
    .fil2 {fill:#59BFC7}
    .fil6 {fill:#57BDC6}
    .fil8 {fill:url(#id0);fill-rule:nonzero}
   ]]>
  </style>
  <linearGradient id="id0" gradientUnits="userSpaceOnUse" x1="11383.51" y1="2047.22" x2="19516.33" y2="7868.77">
   <stop offset="0" style="stop-opacity:1; stop-color:#FEFEFE"/>
   <stop offset="0.65098" style="stop-opacity:1; stop-color:#E7E7E7"/>
   <stop offset="1" style="stop-opacity:1; stop-color:#CFCFCF"/>
  </linearGradient>
 </defs>
 <g id="Layer_x0020_1">
  <metadata id="CorelCorpID_0Corel-Layer"/>
  <g id="_2563078888256">
   <g>
    <path class="fil0 str0" d="M5679.72 1467.34c-33.94,-7.9 -50.62,-27.03 -76.54,-41.99 -25.08,-14.49 -51.06,-29.94 -75.75,-42.78 -167.47,-87.17 -345.29,-160.15 -526.78,-209.82 -133.89,-36.65 -256.76,-61.93 -408.09,-82.98 -33.22,-4.61 -80.71,-9.38 -107.14,-11.39 -210.59,-16.02 -423.63,-24.18 -635.85,-1.85 -618.37,65.05 -1173.74,212.91 -1766.5,358.63l-345.73 103c-174.45,59.27 -347.34,155.27 -479.5,282.5 -110.24,106.11 -185.49,217.93 -254.6,355 -152.65,302.74 -118.18,584.57 -73.8,909.3 18.32,134.06 39.39,267.47 64.65,401.02 50.58,267.51 94.3,520.85 143.92,787.41 49.08,263.66 100.31,525.03 145.19,786.14 23.55,137.02 48.15,256.45 75,390.67 78.19,391 166.18,775.13 230.99,1166.01 38.93,234.85 100.3,530.2 184.85,746.48 172.65,441.6 560.79,801.78 1060.88,801.78 358.75,0 485.4,-18.98 834.63,-96.7 202.65,-45.1 401.53,-84.9 588.77,-139.36 306.54,-89.16 584.74,-245.32 764.46,-505.54 27.54,-39.88 47.44,-75.74 72.74,-113.53 61.64,41.28 233.37,373.15 823.37,497.43 273.68,57.65 571.93,96.04 854.49,136.11 251.49,35.67 441.47,63.91 687.27,-46.41 60.98,-27.38 101.67,-46.92 154.61,-82.46 45.61,-30.62 102.06,-64.53 130.33,-106.74 296.82,157.06 591.94,254 956.73,254 256.63,0 510.15,-24.08 723.05,-72.82 163.59,-37.44 342.61,-120.67 377.23,-122.3 33.83,-1.59 65.39,2.77 99.67,-1.92 42.91,-5.87 139.4,-14.62 188.58,-14.62 0,250.59 17.51,443.59 143.45,652.42 324.94,538.79 979.97,696.23 1566.08,813.05 667.39,133.01 1231.73,-69.7 1535.92,-616.09 111.47,-200.22 177.75,-407.63 246.39,-651.08l175.23 -612.17c7.05,-24.14 22.14,-66.95 24.4,-94.13 47.6,31.88 116,111.31 169.26,152.47 30.66,23.7 57.53,45.11 90.74,70.13 160.82,121.19 345.76,214.73 533.34,287.92 532.87,207.92 1272.03,270.34 1826.15,85.43 110.45,-36.85 194.43,-69.9 292.94,-113.46 42.83,-18.94 88.52,-46.92 130.8,-72.39 206.87,-124.61 57.46,-93.93 417.2,49.54 534.93,213.34 1113.91,258.58 1689.42,143.61 146.23,-29.22 267.73,-63.06 403.07,-113.39l91.21 -37.02c52.44,-18.66 34.88,27 56.33,154.36 8.55,50.77 16.8,109.66 26.62,168.11 63.84,379.88 109.8,684.68 343.44,985.83 205.84,265.29 543.44,440.19 897.54,440.19 142.33,0 302.1,-14.73 425.91,-31.29 268.63,-35.92 505.84,-84.04 766.3,-148.1 227.77,-56.02 443.2,-152.49 608.98,-313.89 22.84,-22.24 36.38,-27.63 59.53,-50.54 21.01,-20.79 39.35,-37.86 59.2,-59.32 22.06,-23.85 30.56,-38.45 55.03,-63.51 19.68,-20.15 35.16,-42.11 51.99,-66.55 17.69,-25.67 29.05,-39.04 44.85,-65.21 16.2,-26.83 30.44,-49.67 44.52,-74.01 115.66,-199.96 146.34,-462.09 127.86,-702.88 -3.89,-50.68 -8.97,-97.78 -8.97,-143.43 78.33,-6.52 217.41,-71.1 290.79,-107.17 40.2,-19.77 47.95,-37.38 93.14,-15 141.35,69.98 242,107.73 402.77,139.81 249.17,49.71 700.32,126.29 957.44,126.29 150.38,0 312.92,-29.11 424.47,-66.6 86.55,-29.08 173.12,-65.28 251.33,-112.73 121.73,-73.86 69.29,-54.86 219.12,4.07 268.6,105.64 560.9,159.24 857.68,158.32 110.84,-0.35 94.14,4.23 170.59,32.61 50.22,18.65 103.01,36.88 152.82,50.38 407.94,110.55 852.43,293.28 1356.5,166.07 192.82,-48.66 444.17,-186.15 569.72,-336.22 17.11,-20.45 30.17,-36.03 46.09,-55.51 218.86,-267.65 323.29,-675 417.27,-1005.13 143.77,-505.07 334.75,-1131.35 378.07,-1645.46 4.13,-49.03 3.33,-140.28 11.33,-191.92 10.01,-64.56 -4.08,-116.02 -3.49,-189.91 2.34,-294.13 -92.24,-587.17 -191.2,-824.8 -76.5,-183.7 -186.45,-344.06 -303.59,-500.75 -199.46,-266.79 -482.05,-490.8 -767.21,-655.19 -368.81,-212.61 -831.22,-355.96 -1269.64,-355.96l-228.6 0c-61.31,0 -84.79,8.47 -143.93,8.47 0,-100.42 -43.33,-270.61 -69.65,-353.68 -63.68,-200.93 -167.94,-386.71 -294.51,-552.17 -131.38,-171.74 -269.64,-281.08 -446.92,-399.74 -276.33,-184.96 -653.46,-286.15 -992.32,-286.15 -131.05,0 -268.93,17.36 -384.62,38.72 -225.25,41.6 -421.66,132.33 -602.64,252.49 -350.85,232.94 -595.22,626.88 -684.34,1034.4 -24.74,113.15 -55.6,245.27 -55.6,376.19 -71.45,-16.64 -135.05,-45.3 -204.25,-66.69 -580.19,-179.33 -1109.84,-142.99 -1667.9,48.74 -73.31,25.18 -177.54,18.13 -261.46,17.94 -91.73,-0.21 -181.82,8.43 -268.44,19.43 -310.79,39.48 -667.43,47.24 -956.46,179.03 -47.68,21.74 -42.94,2.71 -87.31,-20.74l-194.88 -93.01c-34.36,-17.4 -59.24,-28.93 -99.13,-44.8 -643.71,-256.1 -1395.47,-249.29 -2050.38,-30.45 -29.04,9.71 -83.72,28.24 -111.06,41.35 -0.99,-44.73 -28.61,-111.85 -41.04,-145.22 -18.94,-50.89 -36.25,-91.84 -60.06,-134.67l-107.04 -172.36c-17.59,-25.55 -28.56,-33.33 -45.84,-55.77 -128.37,-166.63 -363.44,-306.29 -572.52,-375.74 -282.92,-93.99 -880.35,-166.1 -1180.09,-166.1 -254.89,0 -472.87,45.65 -685.81,160.86 -179.1,96.91 -326.06,250.4 -433.45,421.68 -27.47,43.81 -54.24,86.28 -77.34,134.33 -34.91,72.61 -40.26,57.85 -115.74,95.94 -104.72,52.84 -97.71,11.49 -328.92,-26.69 -372.36,-61.49 -1019.71,-117.26 -1405.86,-6.31 -153.8,44.19 -271.33,116.95 -398.82,202.32 -139.59,-32.52 -173.87,-84.67 -414.86,-84.67 -315.74,0 -668.2,98.89 -962.03,197.92 -49.93,16.82 -71.55,36.09 -118.79,11.47 -368.41,-192 -718.03,-260.19 -1213.65,-260.19 -71.69,0 -107.73,8.47 -177.8,8.47 0,-42.93 8.47,-46.13 8.47,-93.13 0,-334.09 -17.77,-517.11 -203.29,-795.78 -39.07,-58.69 -76.51,-126.09 -124.73,-180.07 -345.55,-386.89 -775.32,-434.07 -1267.37,-502.16 -456.68,-63.2 -965.03,-25.64 -1314.96,286.39 -26.39,23.53 -42.51,33.67 -67.89,59.11 -26.36,26.42 -35.86,40.57 -59.41,67.59 -64.5,74.01 -174.12,214.79 -196.62,311.38z"/>
    <path id="1" class="fil1" d="M5679.72 1467.34c-33.94,-7.9 -50.62,-27.03 -76.54,-41.99 -25.08,-14.49 -51.06,-29.94 -75.75,-42.78 -167.47,-87.17 -345.29,-160.15 -526.78,-209.82 -133.89,-36.65 -256.76,-61.93 -408.09,-82.98 -33.22,-4.61 -80.71,-9.38 -107.14,-11.39 -210.59,-16.02 -423.63,-24.18 -635.85,-1.85 -618.37,65.05 -1173.74,212.91 -1766.5,358.63l-345.73 103c-174.45,59.27 -347.34,155.27 -479.5,282.5 -110.24,106.11 -185.49,217.93 -254.6,355 -152.65,302.74 -118.18,584.57 -73.8,909.3 18.32,134.06 39.39,267.47 64.65,401.02 50.58,267.51 94.3,520.85 143.92,787.41 49.08,263.66 100.31,525.03 145.19,786.14 23.55,137.02 48.15,256.45 75,390.67 78.19,391 166.18,775.13 230.99,1166.01 38.93,234.85 100.3,530.2 184.85,746.48 172.65,441.6 560.79,801.78 1060.88,801.78 358.75,0 485.4,-18.98 834.63,-96.7 202.65,-45.1 401.53,-84.9 588.77,-139.36 306.54,-89.16 584.74,-245.32 764.46,-505.54 27.54,-39.88 47.44,-75.74 72.74,-113.53 61.64,41.28 233.37,373.15 823.37,497.43 273.68,57.65 571.93,96.04 854.49,136.11 251.49,35.67 441.47,63.91 687.27,-46.41 60.98,-27.38 101.67,-46.92 154.61,-82.46 45.61,-30.62 102.06,-64.53 130.33,-106.74 296.82,157.06 591.94,254 956.73,254 256.63,0 510.15,-24.08 723.05,-72.82 163.59,-37.44 342.61,-120.67 377.23,-122.3 33.83,-1.59 65.39,2.77 99.67,-1.92 42.91,-5.87 139.4,-14.62 188.58,-14.62 0,250.59 17.51,443.59 143.45,652.42 324.94,538.79 979.97,696.23 1566.08,813.05 667.39,133.01 1231.73,-69.7 1535.92,-616.09 111.47,-200.22 177.75,-407.63 246.39,-651.08l175.23 -612.17c7.05,-24.14 22.14,-66.95 24.4,-94.13 47.6,31.88 116,111.31 169.26,152.47 30.66,23.7 57.53,45.11 90.74,70.13 160.82,121.19 345.76,214.73 533.34,287.92 532.87,207.92 1272.03,270.34 1826.15,85.43 110.45,-36.85 194.43,-69.9 292.94,-113.46 42.83,-18.94 88.52,-46.92 130.8,-72.39 206.87,-124.61 57.46,-93.93 417.2,49.54 534.93,213.34 1113.91,258.58 1689.42,143.61 146.23,-29.22 267.73,-63.06 403.07,-113.39l91.21 -37.02c52.44,-18.66 34.88,27 56.33,154.36 8.55,50.77 16.8,109.66 26.62,168.11 63.84,379.88 109.8,684.68 343.44,985.83 205.84,265.29 543.44,440.19 897.54,440.19 142.33,0 302.1,-14.73 425.91,-31.29 268.63,-35.92 505.84,-84.04 766.3,-148.1 227.77,-56.02 443.2,-152.49 608.98,-313.89 22.84,-22.24 36.38,-27.63 59.53,-50.54 21.01,-20.79 39.35,-37.86 59.2,-59.32 22.06,-23.85 30.56,-38.45 55.03,-63.51 19.68,-20.15 35.16,-42.11 51.99,-66.55 17.69,-25.67 29.05,-39.04 44.85,-65.21 16.2,-26.83 30.44,-49.67 44.52,-74.01 115.66,-199.96 146.34,-462.09 127.86,-702.88 -3.89,-50.68 -8.97,-97.78 -8.97,-143.43 78.33,-6.52 217.41,-71.1 290.79,-107.17 40.2,-19.77 47.95,-37.38 93.14,-15 141.35,69.98 242,107.73 402.77,139.81 249.17,49.71 700.32,126.29 957.44,126.29 150.38,0 312.92,-29.11 424.47,-66.6 86.55,-29.08 173.12,-65.28 251.33,-112.73 121.73,-73.86 69.29,-54.86 219.12,4.07 268.6,105.64 560.9,159.24 857.68,158.32 110.84,-0.35 94.14,4.23 170.59,32.61 50.22,18.65 103.01,36.88 152.82,50.38 407.94,110.55 852.43,293.28 1356.5,166.07 192.82,-48.66 444.17,-186.15 569.72,-336.22 17.11,-20.45 30.17,-36.03 46.09,-55.51 218.86,-267.65 323.29,-675 417.27,-1005.13 143.77,-505.07 334.75,-1131.35 378.07,-1645.46 4.13,-49.03 3.33,-140.28 11.33,-191.92 10.01,-64.56 -4.08,-116.02 -3.49,-189.91 2.34,-294.13 -92.24,-587.17 -191.2,-824.8 -76.5,-183.7 -186.45,-344.06 -303.59,-500.75 -199.46,-266.79 -482.05,-490.8 -767.21,-655.19 -368.81,-212.61 -831.22,-355.96 -1269.64,-355.96l-228.6 0c-61.31,0 -84.79,8.47 -143.93,8.47 0,-100.42 -43.33,-270.61 -69.65,-353.68 -63.68,-200.93 -167.94,-386.71 -294.51,-552.17 -131.38,-171.74 -269.64,-281.08 -446.92,-399.74 -276.33,-184.96 -653.46,-286.15 -992.32,-286.15 -131.05,0 -268.93,17.36 -384.62,38.72 -225.25,41.6 -421.66,132.33 -602.64,252.49 -350.85,232.94 -595.22,626.88 -684.34,1034.4 -24.74,113.15 -55.6,245.27 -55.6,376.19 -71.45,-16.64 -135.05,-45.3 -204.25,-66.69 -580.19,-179.33 -1109.84,-142.99 -1667.9,48.74 -73.31,25.18 -177.54,18.13 -261.46,17.94 -91.73,-0.21 -181.82,8.43 -268.44,19.43 -310.79,39.48 -667.43,47.24 -956.46,179.03 -47.68,21.74 -42.94,2.71 -87.31,-20.74l-194.88 -93.01c-34.36,-17.4 -59.24,-28.93 -99.13,-44.8 -643.71,-256.1 -1395.47,-249.29 -2050.38,-30.45 -29.04,9.71 -83.72,28.24 -111.06,41.35 -0.99,-44.73 -28.61,-111.85 -41.04,-145.22 -18.94,-50.89 -36.25,-91.84 -60.06,-134.67l-107.04 -172.36c-17.59,-25.55 -28.56,-33.33 -45.84,-55.77 -128.37,-166.63 -363.44,-306.29 -572.52,-375.74 -282.92,-93.99 -880.35,-166.1 -1180.09,-166.1 -254.89,0 -472.87,45.65 -685.81,160.86 -179.1,96.91 -326.06,250.4 -433.45,421.68 -27.47,43.81 -54.24,86.28 -77.34,134.33 -34.91,72.61 -40.26,57.85 -115.74,95.94 -104.72,52.84 -97.71,11.49 -328.92,-26.69 -372.36,-61.49 -1019.71,-117.26 -1405.86,-6.31 -153.8,44.19 -271.33,116.95 -398.82,202.32 -139.59,-32.52 -173.87,-84.67 -414.86,-84.67 -315.74,0 -668.2,98.89 -962.03,197.92 -49.93,16.82 -71.55,36.09 -118.79,11.47 -368.41,-192 -718.03,-260.19 -1213.65,-260.19 -71.69,0 -107.73,8.47 -177.8,8.47 0,-42.93 8.47,-46.13 8.47,-93.13 0,-334.09 -17.77,-517.11 -203.29,-795.78 -39.07,-58.69 -76.51,-126.09 -124.73,-180.07 -345.55,-386.89 -775.32,-434.07 -1267.37,-502.16 -456.68,-63.2 -965.03,-25.64 -1314.96,286.39 -26.39,23.53 -42.51,33.67 -67.89,59.11 -26.36,26.42 -35.86,40.57 -59.41,67.59 -64.5,74.01 -174.12,214.79 -196.62,311.38z"/>
   </g>
   <g id="_2563078888448">
    <path class="fil2" d="M2828.94 7632.49c253.98,0 267.21,10.78 525.72,-41.54 213.72,-43.25 636.19,-129.88 804.62,-185.98 564.74,-188.13 616.59,-592.35 532.35,-1093.31l-50.83 -304.77c20.16,-9.67 64.29,-19.61 91.36,-27.18l179.57 -57.48c87.23,-34.79 158.41,-54.18 254.13,-101.48 183.54,-90.7 288.6,-140.66 459.57,-268.56l258.02 -224.58c359.19,-363.03 535.35,-863.32 535.35,-1386.58 0,-231.1 -11.47,-366.5 -54.3,-580.71 -42.22,-211.2 -90.38,-334.51 -169.4,-524.86 -99.77,-240.33 -259.5,-439.37 -432.19,-626.15l-109.68 -101.98c-311.06,-241.62 -529.51,-368.47 -946.73,-458.74 -76.93,-16.64 -160.81,-28.99 -243.26,-36.13 -312.17,-27.03 -553,-20.82 -859,30.48 -96.14,16.11 -171.17,30.96 -263.78,49.48 -438.67,87.74 -867.86,185.52 -1294.12,306.07 -335.99,95.03 -591.7,262.14 -622.73,656.33l-0.14 2.65 0 48.79c15.22,357.96 302.55,1769.22 362.93,2133.37 50.8,306.41 147.63,760.99 209.28,1069.19 59.94,299.72 147.83,791.46 215.17,1063.29 61.71,249.07 156.73,459.94 368.74,587.99 56.44,34.08 163.64,72.39 249.35,72.39z"/>
    <path class="fil3" d="M5394.34 6472.56c0,769.14 546.43,810.4 1087.31,893.9l580.62 79.77c295.76,0 469.55,-228.66 536.83,-496.11l97.04 -537.96c39.19,-235.65 84.68,-464.92 131.67,-698.06 81.92,-406.51 167.14,-1012 237.15,-1430.78l255.18 -1615.96c38.62,-262.98 113.94,-580.73 27.99,-808.05 -24.57,-64.97 -68.63,-122.32 -105.41,-182.46 -39.01,-63.8 -73.46,-113.52 -129.25,-158.62 -172.13,-139.15 -418.93,-185.53 -646.2,-217.39 -260.78,-36.57 -629.18,-97.71 -890.24,4.41 -99.25,38.83 -187.52,86.76 -262.07,161.27 -147.09,146.98 -214.18,339.46 -262.39,584.28 -45.37,230.4 -92.09,473.97 -132.11,714.55 -181.06,1088.69 -337.99,2218.73 -491.79,3318.21 -17.06,121.95 -34.33,252.57 -34.33,389z"/>
    <path class="fil4" d="M7079.2 4355.89c0,281.04 154.36,536.91 364.07,677.33 -7.26,31.14 -24.05,47.89 -39.62,78.92 -223.95,446.44 -237.6,900.36 -51.17,1366.54 135.78,339.53 393.26,636.94 722.93,801.07 180.08,89.66 370.3,149.54 629.39,149.54 277.29,0 626.38,-28.38 855.17,-143.9 216.79,-109.46 89.89,-50.83 270.9,-50.83 105.06,0 231.03,-19.7 338.42,-25.65 134.67,-7.47 438.53,-48.01 550.6,-75.93 284.18,-70.8 435.29,-196.28 536.02,-454.58 94.01,-241.07 37.32,-607.06 13.56,-890.91 -11.95,-142.82 -31.19,-297.82 -51.55,-439.51l-110.66 -879.94c-63.25,-315.23 -180.45,-612.89 -370.45,-865.69l-113.64 -140.35c-26.09,-33.74 -88.99,-95.64 -121.38,-124.16 -327.23,-288.2 -783.05,-497.48 -1246.65,-497.48 -224.14,0 -361.49,-4.47 -585.98,49.02 -58.33,13.9 -120.39,27.55 -174.98,45.15 -256.33,82.64 -371.99,132.25 -602.66,269.41 -97.06,57.71 -291.13,207.16 -361.09,290.85 -189.79,227.04 -451.23,520.74 -451.23,861.1z"/>
    <path class="fil5" d="M11922.14 3306.02c-69.7,-51.06 -139.75,-414.86 -550.33,-414.86 -297.33,0 -819.23,171.09 -1085.03,278.1 -241.69,97.3 -447.53,225.3 -545.61,470.39 -36.65,91.58 -53,177 -54.23,259.1l0 20.28c3.69,240.81 135.84,454.54 265.29,713.44 14.57,29.14 26.16,52.3 39.45,79.08l81.78 155.29c15.96,31.45 26.67,43.96 42.53,76l422.48 754.39c31.49,53.24 55.46,98.54 86.64,150.42l173.87 300.27c200.16,367.67 200.55,231.06 131.56,467.57 -16.11,55.24 -34.38,114.5 -49.83,170.3l-198.36 665.24c-150.31,526.04 -37.91,843.45 506.76,1049.96 254.87,96.63 730.88,223.7 1012.43,223.7 732.2,0 790.36,-687.98 981.09,-1304.91l829.04 -2845.49c66.39,-242.09 247.27,-911.88 247.27,-1132.8 0,-111.99 -40.5,-218.62 -94.74,-303.19 -22.42,-34.95 -34.77,-46.83 -58.84,-76.63 -189.86,-234.94 -459.72,-276.2 -753.92,-312.88 -271.81,-33.89 -725.75,-64.2 -1003.95,0.45 -85.57,19.89 -158.47,59.16 -219.77,110.43 -46.56,38.96 -103.02,133.87 -129.29,192.45 -21.7,48.4 -74.91,191.73 -76.29,253.9z"/>
    <path class="fil2" d="M14428.27 2654.11c-74.98,6.24 -341.86,111.27 -422.51,195.55 -239.69,250.46 -249.41,628.66 -310.52,951.02 -21.03,110.92 -41.44,219.63 -8.67,331.72l93.26 279.28c37.15,56.41 137.14,153.53 191.24,189.76l-130.57 529.82c-20.27,93.13 -45.68,173.1 -64.86,265.34 -48.28,232.08 -41.64,219.74 -41.64,449.44 0,305.48 158.29,688.15 349.07,920.92 111.48,136.01 184.15,210.89 333.31,310.16 48.4,32.2 81.4,49.82 133.12,78.55 125.38,69.66 167.5,79.45 293.57,129.77 252.85,100.91 585.7,126.93 863.66,126.93 399.88,0 912.62,-147.17 1116.07,-458.72 124.92,-191.29 111.59,-363.06 111.59,-599.61 0,-136.69 -12.86,-259.62 -24.62,-381.79 -30.13,-313.15 -131,-619.5 -435.17,-741.69l-39.74 -19.52c154.52,0 262.14,-28.46 367.03,-81.71 53.54,-27.18 90.75,-56.64 136.16,-92.43 46.16,-36.37 83.19,-62.75 118.64,-109.97 128.53,-171.19 177.14,-429.94 226.95,-678.97 60.31,-301.54 96.89,-488.38 -35.92,-755.72 -92.92,-187.05 -315.79,-351.1 -516.53,-397.87 15.05,-31.37 25.4,-208.17 25.4,-262.46 0,-358.25 -193.66,-579.18 -452.16,-682.37 -221.98,-88.62 -479.32,-102.1 -723.15,-131.98 -264.14,-32.37 -644.88,-66.68 -854.58,130.64 -9.11,8.57 -11.73,12.49 -21.59,20.75 -15.99,13.42 -14.07,8.45 -28.92,21.88l-80.31 97.49c-59.55,88.04 -158.78,259.66 -167.61,365.79z"/>
    <path class="fil3" d="M16070.79 4914.69c0,530.46 5.74,694.17 201.99,1169.6 326.79,791.66 1161.33,1294.2 2041.68,1294.2 310.7,0 697.94,-65.71 973.76,-203.11 251.14,-125.1 276.83,-136.57 516.45,-321.75 28.21,-21.81 47.05,-42.35 77.38,-66.55 25.31,-20.19 48.8,-47.08 72.83,-71.11 405.54,-405.54 606.38,-896.51 637.08,-1479.58 1.76,-33.6 6.81,-60.17 8.5,-95.52l0 -48.14c-15.97,-454.15 -148.23,-912.39 -394.43,-1290.68 -151.16,-232.27 -334.91,-404.4 -556.16,-569.9 -140.72,-105.27 -218.19,-135.77 -361.74,-205.53 -476.05,-231.31 -1123.46,-241.13 -1648.06,-90.19 -308.73,88.83 -635.58,269.69 -864.43,498.71 -94.56,94.63 -177.07,174.4 -258.62,283.25 -39.07,52.15 -72.01,108.47 -105.97,164.96 -35.94,59.79 -71.58,111.83 -105.92,173.49 -96.5,173.32 -234.34,593.87 -234.34,857.85z"/>
    <path class="fil4" d="M21286.26 3018.17c-130.78,0 -25.93,-62.8 -507.29,-7.76l-543.32 66.29c-152.47,16.79 -304.49,93.68 -425.06,184.53l-160.58 144.22c-262.89,279.57 -206.2,446.71 -167.15,798.05 25.46,229.1 65.61,467.32 94.69,701.17 32.07,257.86 53.71,437.03 97.64,698.23 20.17,119.91 30.86,224.17 48.22,349.71 17,122.95 40.25,224.41 56.27,341.67l100.59 703.74c7.77,57.61 18.44,106.82 29.49,165.25 49.32,260.85 97.06,589.99 141.56,857.51 41.09,247.07 66.31,432.78 186.59,609.27 114.58,168.16 313.48,280.92 523.41,280.92 179.74,0 410.46,-30.53 584.26,-59.21 92.01,-15.18 175.9,-36.13 265.98,-55.75 50.76,-11.05 82.79,-19.59 130.13,-30.74 44.09,-10.39 91.52,-18.76 136.25,-33.08 186.03,-59.59 260.6,-110.57 396.8,-246.67 237.45,-237.27 213.97,-477.32 167.88,-815.58 -8.5,-62.34 -15.7,-111.89 -22.54,-172.19 -6.36,-55.95 -20.23,-124.98 -24.69,-178.51 165.88,-38.65 176.38,-19.97 403.46,-87.61 129.76,-38.66 242.94,-87.51 355.72,-143.82 358.14,-178.8 625.98,-439.66 831.03,-777.64l126.13 -254.87c105.51,-266.38 161.59,-547.45 171.73,-829.83l0 -188.85c-10.35,-287.4 -67.58,-573.07 -168.05,-842.87 -119.57,-321.05 -212.08,-443.9 -402.78,-689.42 -79.73,-102.64 -325.79,-310.52 -431.57,-381.23 -270.81,-180.99 -716.98,-316.6 -1046.53,-316.6 -118.59,0 -273.83,15.11 -395.63,36.17 -116.48,20.15 -232.86,47.71 -346.28,85.53 -39.4,13.14 -70.88,24.1 -104.67,39.26 -10.73,4.82 -100.5,50.71 -101.69,50.71z"/>
    <path class="fil6" d="M23673.86 2569.43c0,70.5 9.47,174.71 20.4,242.06 6.26,38.56 16.26,74.06 28.05,107.41 62.07,175.54 40.36,56.78 -40.08,217.7 -138.01,276.08 -195.96,860.43 -230.02,1166.98l-241.75 2052.8c-4.74,56.88 26.9,355.47 65.19,429.72 18.16,35.22 52.71,85.09 78.97,115.76 90.74,105.96 205.85,206.75 333.17,267.97 132.13,63.52 869.26,166.33 1035.94,166.33 397.64,0 606.77,-205.67 719.77,-490.96 90.02,-227.25 214.92,-1228.16 266.07,-1545.79l158.56 -1052.18c11.71,-83.5 26.34,-178.13 40.93,-263.87l33.87 -270.93c0,-123.68 -49.59,-247.78 -59.27,-364.07 15.61,-23.31 33.09,-35.71 51,-59.06 113.28,-147.69 219.93,-424.34 219.93,-609.81 0,-289.49 6.58,-436.24 -126.99,-702.73 -37.08,-73.97 -67.59,-123.54 -116.09,-188.72 -40.81,-54.84 -93.91,-116.03 -144.33,-160.47l-169.67 -126.66c-402.26,-270.76 -1062.89,-292.66 -1450.69,17.48 -250.11,200.03 -386.05,450.45 -444.01,775.19 -7.61,42.58 -17.2,93.53 -20.01,132.39 -3.74,51.57 -8.94,97.08 -8.94,143.46z"/>
    <path class="fil5" d="M25265.59 3932.56c0,272.16 13.15,269.29 143.94,516.47 -22.84,15.29 -40.67,27.29 -64.28,45.78 -92.42,72.4 -105.37,97.6 -179.13,176.48 -222.71,238.17 -374.66,705.79 -374.66,1030.8 0,243.5 9.81,402.65 97.89,621.78 46.45,115.57 142.67,280.81 222.58,378.55 282.15,345.07 728.68,564.17 1194.28,609.12 130.96,12.65 240.14,3.99 365.48,7.06 56.33,1.38 71.33,29.65 162.58,66.02 75.65,30.15 149.44,45.98 227.27,69.06 415.05,123.08 923.8,308.08 1275.37,-43.4 161.84,-161.8 295.6,-660.79 361.34,-891.73 119.56,-419.99 272.61,-954.72 336.5,-1399.17 66.58,-463.19 -18.31,-938.45 -270.7,-1315.54l-135.14 -178.13c-71.07,-80.6 -156.59,-166.28 -240.3,-233.83 -121.14,-97.76 -142.37,-113.71 -279.82,-202.79 -72.28,-46.85 -198.85,-106.07 -280.68,-142.65 -669.24,-299.15 -1563.02,-219.18 -2159.76,230.55 -205.7,155.03 -402.76,375.31 -402.76,655.57z"/>
    <g>
     <path class="fil7 str1" d="M3727.27 4385.13c0,-230.98 6.24,-930.14 0,-1111.16 93.65,-12.49 230.98,-18.73 318.37,-18.73 436.98,0 811.52,112.36 811.52,593.03 0,387.03 -299.64,549.35 -692.91,549.35 -137.32,0 -324.61,-6.25 -436.98,-12.49zm0 2234.81c37.46,-112.36 24.97,-830.25 31.22,-1260.99 74.9,0 230.97,6.25 337.1,6.25 1186.07,0 1847.78,-461.94 1847.78,-1585.59 0,-980.09 -649.23,-1548.15 -1847.78,-1548.15 -486.91,0 -1198.56,31.22 -1516.93,68.67 -56.19,430.73 -43.7,4045.15 -12.48,4338.55 6.24,37.44 1136.13,24.97 1161.09,-18.74zm2734.23 -4669.38c-93.64,81.14 -93.64,4656.9 -43.7,4694.36 49.94,31.2 892.69,24.97 892.69,24.97 31.2,-480.68 118.61,-4669.4 74.9,-4744.31 -18.73,-43.7 -836.5,-56.19 -923.89,24.98zm1435.78 2222.32c-6.25,68.66 424.49,447.39 480.67,447.39 56.19,-6.24 237.22,-285.09 624.25,-285.09 561.83,0 549.35,373.52 543.1,642.98 -118.61,-87.39 -293.39,-168.54 -580.55,-168.54 -624.25,0 -1117.42,355.82 -1117.42,914.53 0,539.96 287.17,939.5 967.6,939.5 493.15,0 755.35,-299.64 799.03,-343.34l56.2 268.42c0,0 786.55,37.46 805.28,0 18.73,-37.45 49.93,-1069.54 49.93,-1735.42 0,-917.65 -599.28,-1373.34 -1373.34,-1373.34 -836.5,0 -1248.51,586.79 -1254.75,692.91zm786.55 1532.54c0,-198.72 162.31,-352.71 405.76,-352.71 230.98,0 412.01,136.3 412.01,352.71 0,186.23 -137.33,346.46 -412.01,346.46 -230.96,0 -405.76,-142.54 -405.76,-346.46zm5163.87 -2019.45c8.81,-36.27 -905.34,-225.24 -942.63,-218.49 -31.29,5.66 -711.64,1772.86 -711.64,1772.86 0,0 -568.08,-1766.61 -649.23,-1766.61 -74.9,0 -934.94,137.39 -936.38,187.27 -4.73,162.31 792.8,2172.39 1017.53,2615.6 -68.66,212.25 -611.77,1342.14 -618.01,1379.6 56.19,68.66 699.16,380.79 942.62,368.3 87.4,-99.88 1794.07,-3911.88 1897.74,-4338.53zm1746.59 686.67c0,-49.95 755.33,18.73 799.04,-56.17 0,0 49.95,-630.5 -12.49,-717.89 -62.41,-81.17 -749.08,-49.95 -761.57,-43.71 -12.49,0 43.68,-805.28 12.49,-836.49 -31.22,-31.22 -892.7,24.97 -948.87,81.14 -56.19,56.2 -18.73,705.41 -37.46,730.38 -18.73,18.73 -436.98,0 -461.94,6.24 -37.46,6.25 -31.22,730.38 0,761.6 31.2,31.2 430.72,24.95 430.72,31.2 0,6.24 -37.44,1079.96 -43.69,1373.36 0,611.76 349.57,998.79 1067.46,998.79 649.23,6.25 911.42,-305.88 911.42,-305.88 -6.24,-131.1 -143.58,-699.16 -218.49,-717.89 -81.16,-12.49 -237.22,137.34 -455.71,137.34 -199.76,-6.24 -305.88,-137.34 -305.88,-337.1 6.24,-362.05 24.97,-1073.7 24.97,-1104.92zm3352.22 761.6c0,436.96 -230.97,699.15 -667.95,686.67 -293.4,-6.25 -574.31,-243.47 -574.31,-680.45 0,-405.76 218.49,-686.67 661.72,-674.18 293.39,12.49 580.54,168.54 580.54,667.96zm-630.49 -1616.83c-973.82,0 -1573.12,767.84 -1573.12,1548.15 0,1017.52 699.18,1629.29 1585.61,1629.29 998.79,-18.73 1579.34,-742.84 1579.34,-1548.14 0,-1030.02 -705.4,-1629.3 -1591.83,-1629.3zm4007.69 -6.24c-561.83,0 -892.67,274.68 -936.38,349.59 0,-37.47 6.25,-299.64 6.25,-337.1 0,0 -930.14,-49.93 -936.38,-31.2 -56.18,137.32 -93.64,4469.63 -74.91,4475.87 118.61,62.42 973.82,24.97 1030.02,-18.73 56.17,-37.46 31.22,-1360.87 31.22,-1566.88 49.93,81.17 393.27,274.69 805.28,274.69 767.82,-6.25 1442.02,-561.84 1442.02,-1560.64 0,-1036.25 -630.5,-1585.6 -1367.12,-1585.6zm312.13 1598.09c0,387.03 -224.74,655.45 -618.01,655.45 -312.13,0 -599.28,-249.69 -599.28,-661.69 0,-374.56 199.76,-642.99 624.25,-642.99 337.09,0 593.04,224.74 593.04,649.23l0 0zm1560.63 -1566.87c-37.46,68.66 18.73,3052.58 31.2,3071.31 12.49,18.73 905.18,37.46 930.13,-6.24 18.73,-43.69 68.68,-3040.1 49.95,-3065.07 -24.97,-24.98 -973.84,-62.42 -1011.28,0zm-37.46 -992.56c0,343.33 224.73,524.38 549.34,524.38 337.09,0 574.31,-212.25 574.31,-486.93 0,-387.03 -237.22,-618.01 -574.31,-618.01 -449.46,0 -549.34,243.46 -549.34,580.56zm1573.12 1623.05c-6.25,68.66 424.49,447.39 480.66,447.39 56.2,-6.24 237.22,-285.09 624.26,-285.09 561.83,0 549.34,373.52 543.1,642.98 -118.61,-87.39 -293.4,-168.54 -580.55,-168.54 -624.25,0 -1117.42,355.82 -1117.42,914.53 0,539.96 287.17,939.5 967.59,939.5 493.16,0 755.35,-299.64 799.04,-343.34l56.19 268.42c0,0 786.55,37.46 805.29,0 18.73,-37.45 49.93,-1069.54 49.93,-1735.42 0,-917.65 -599.28,-1373.34 -1373.35,-1373.34 -836.49,0 -1248.5,586.79 -1254.74,692.91zm786.55 1532.54c0,-198.72 162.31,-352.71 405.76,-352.71 230.98,0 412,136.3 412,352.71 0,186.23 -137.32,346.46 -412,346.46 -230.96,0 -405.76,-142.54 -405.76,-346.46z"/>
     <path id="1" class="fil8" d="M3727.27 4385.13c0,-230.98 6.24,-930.14 0,-1111.16 93.65,-12.49 230.98,-18.73 318.37,-18.73 436.98,0 811.52,112.36 811.52,593.03 0,387.03 -299.64,549.35 -692.91,549.35 -137.32,0 -324.61,-6.25 -436.98,-12.49zm0 2234.81c37.46,-112.36 24.97,-830.25 31.22,-1260.99 74.9,0 230.97,6.25 337.1,6.25 1186.07,0 1847.78,-461.94 1847.78,-1585.59 0,-980.09 -649.23,-1548.15 -1847.78,-1548.15 -486.91,0 -1198.56,31.22 -1516.93,68.67 -56.19,430.73 -43.7,4045.15 -12.48,4338.55 6.24,37.44 1136.13,24.97 1161.09,-18.74zm2734.23 -4669.38c-93.64,81.14 -93.64,4656.9 -43.7,4694.36 49.94,31.2 892.69,24.97 892.69,24.97 31.2,-480.68 118.61,-4669.4 74.9,-4744.31 -18.73,-43.7 -836.5,-56.19 -923.89,24.98zm1435.78 2222.32c-6.25,68.66 424.49,447.39 480.67,447.39 56.19,-6.24 237.22,-285.09 624.25,-285.09 561.83,0 549.35,373.52 543.1,642.98 -118.61,-87.39 -293.39,-168.54 -580.55,-168.54 -624.25,0 -1117.42,355.82 -1117.42,914.53 0,539.96 287.17,939.5 967.6,939.5 493.15,0 755.35,-299.64 799.03,-343.34l56.2 268.42c0,0 786.55,37.46 805.28,0 18.73,-37.45 49.93,-1069.54 49.93,-1735.42 0,-917.65 -599.28,-1373.34 -1373.34,-1373.34 -836.5,0 -1248.51,586.79 -1254.75,692.91zm786.55 1532.54c0,-198.72 162.31,-352.71 405.76,-352.71 230.98,0 412.01,136.3 412.01,352.71 0,186.23 -137.33,346.46 -412.01,346.46 -230.96,0 -405.76,-142.54 -405.76,-346.46zm5163.87 -2019.45c8.81,-36.27 -905.34,-225.24 -942.63,-218.49 -31.29,5.66 -711.64,1772.86 -711.64,1772.86 0,0 -568.08,-1766.61 -649.23,-1766.61 -74.9,0 -934.94,137.39 -936.38,187.27 -4.73,162.31 792.8,2172.39 1017.53,2615.6 -68.66,212.25 -611.77,1342.14 -618.01,1379.6 56.19,68.66 699.16,380.79 942.62,368.3 87.4,-99.88 1794.07,-3911.88 1897.74,-4338.53zm1746.59 686.67c0,-49.95 755.33,18.73 799.04,-56.17 0,0 49.95,-630.5 -12.49,-717.89 -62.41,-81.17 -749.08,-49.95 -761.57,-43.71 -12.49,0 43.68,-805.28 12.49,-836.49 -31.22,-31.22 -892.7,24.97 -948.87,81.14 -56.19,56.2 -18.73,705.41 -37.46,730.38 -18.73,18.73 -436.98,0 -461.94,6.24 -37.46,6.25 -31.22,730.38 0,761.6 31.2,31.2 430.72,24.95 430.72,31.2 0,6.24 -37.44,1079.96 -43.69,1373.36 0,611.76 349.57,998.79 1067.46,998.79 649.23,6.25 911.42,-305.88 911.42,-305.88 -6.24,-131.1 -143.58,-699.16 -218.49,-717.89 -81.16,-12.49 -237.22,137.34 -455.71,137.34 -199.76,-6.24 -305.88,-137.34 -305.88,-337.1 6.24,-362.05 24.97,-1073.7 24.97,-1104.92zm3352.22 761.6c0,436.96 -230.97,699.15 -667.95,686.67 -293.4,-6.25 -574.31,-243.47 -574.31,-680.45 0,-405.76 218.49,-686.67 661.72,-674.18 293.39,12.49 580.54,168.54 580.54,667.96zm-630.49 -1616.83c-973.82,0 -1573.12,767.84 -1573.12,1548.15 0,1017.52 699.18,1629.29 1585.61,1629.29 998.79,-18.73 1579.34,-742.84 1579.34,-1548.14 0,-1030.02 -705.4,-1629.3 -1591.83,-1629.3zm4007.69 -6.24c-561.83,0 -892.67,274.68 -936.38,349.59 0,-37.47 6.25,-299.64 6.25,-337.1 0,0 -930.14,-49.93 -936.38,-31.2 -56.18,137.32 -93.64,4469.63 -74.91,4475.87 118.61,62.42 973.82,24.97 1030.02,-18.73 56.17,-37.46 31.22,-1360.87 31.22,-1566.88 49.93,81.17 393.27,274.69 805.28,274.69 767.82,-6.25 1442.02,-561.84 1442.02,-1560.64 0,-1036.25 -630.5,-1585.6 -1367.12,-1585.6zm312.13 1598.09c0,387.03 -224.74,655.45 -618.01,655.45 -312.13,0 -599.28,-249.69 -599.28,-661.69 0,-374.56 199.76,-642.99 624.25,-642.99 337.09,0 593.04,224.74 593.04,649.23l0 0zm1560.63 -1566.87c-37.46,68.66 18.73,3052.58 31.2,3071.31 12.49,18.73 905.18,37.46 930.13,-6.24 18.73,-43.69 68.68,-3040.1 49.95,-3065.07 -24.97,-24.98 -973.84,-62.42 -1011.28,0zm-37.46 -992.56c0,343.33 224.73,524.38 549.34,524.38 337.09,0 574.31,-212.25 574.31,-486.93 0,-387.03 -237.22,-618.01 -574.31,-618.01 -449.46,0 -549.34,243.46 -549.34,580.56zm1573.12 1623.05c-6.25,68.66 424.49,447.39 480.66,447.39 56.2,-6.24 237.22,-285.09 624.26,-285.09 561.83,0 549.34,373.52 543.1,642.98 -118.61,-87.39 -293.4,-168.54 -580.55,-168.54 -624.25,0 -1117.42,355.82 -1117.42,914.53 0,539.96 287.17,939.5 967.59,939.5 493.16,0 755.35,-299.64 799.04,-343.34l56.19 268.42c0,0 786.55,37.46 805.29,0 18.73,-37.45 49.93,-1069.54 49.93,-1735.42 0,-917.65 -599.28,-1373.34 -1373.35,-1373.34 -836.49,0 -1248.5,586.79 -1254.74,692.91zm786.55 1532.54c0,-198.72 162.31,-352.71 405.76,-352.71 230.98,0 412,136.3 412,352.71 0,186.23 -137.32,346.46 -412,346.46 -230.96,0 -405.76,-142.54 -405.76,-346.46z"/>
    </g>
   </g>
  </g>
 </g>
</svg>
