<svg id="Capa_1" enable-background="new 0 0 512 512" height="512" viewBox="0 0 512 512" width="512" xmlns="http://www.w3.org/2000/svg"><g><g><path d="m197.526 317.147c0-24.102-19.608-43.711-43.71-43.711-24.101 0-43.71 19.609-43.71 43.711s19.608 43.71 43.71 43.71 43.71-19.608 43.71-43.71zm-43.71 31.61c-17.43 0-31.61-14.18-31.61-31.61 0-17.431 14.18-31.611 31.61-31.611s31.611 14.18 31.611 31.611c-.001 17.43-14.181 31.61-31.611 31.61z"/><path d="m93.669 384.364c-24.101 0-43.71 19.608-43.71 43.71s19.608 43.71 43.71 43.71 43.71-19.608 43.71-43.71-19.608-43.71-43.71-43.71zm0 75.32c-17.43 0-31.61-14.18-31.61-31.61s14.18-31.61 31.61-31.61 31.611 14.18 31.611 31.61c-.001 17.43-14.181 31.61-31.611 31.61z"/><path d="m467.435 344.638h-10.172v-100.33c5.193-2.747 8.744-8.2 8.744-14.474v-36.466c0-9.027-7.343-16.369-16.369-16.369h-26.988c5.014-6.205 8.026-14.093 8.026-22.673 0-19.927-16.212-36.139-36.139-36.139-10.23 0-19.474 4.28-26.055 11.136-6.581-6.855-15.825-11.136-26.056-11.136-19.927 0-36.139 16.212-36.139 36.139 0 8.581 3.011 16.468 8.026 22.673h-26.988c-9.026 0-16.369 7.343-16.369 16.369v36.466c0 6.273 3.551 11.727 8.744 14.474v100.331h-10.17c-12.085 0-22.989 5.121-30.68 13.298v-204.723c8.257-4.961 13.796-14.003 13.796-24.318v-29.702c0-15.634-12.719-28.352-28.351-28.352h-8.495c.447-3.124.684-6.401.684-9.828 0-28.906-16.324-47.584-41.587-47.584-12.724 0-25.551 8.649-35.788 18.116-2.284-.761-4.724-1.18-7.261-1.18h-7.39c-3.552 0-6.919.809-9.926 2.253-10.284-9.571-23.233-18.383-36.076-18.383-25.263 0-41.587 18.677-41.587 47.583 0 3.134.199 6.141.576 9.022h-8.387c-15.633 0-28.351 12.718-28.351 28.352v29.703c0 10.314 5.538 19.358 13.796 24.319v321.633c0 20.485 16.666 37.152 37.152 37.152h150.044c14.084 0 26.362-7.877 32.661-19.457 7.546 11.416 20.491 18.967 35.171 18.967h197.905c23.235 0 42.138-18.903 42.138-42.137v-82.596c-.001-23.236-18.904-42.139-42.139-42.139zm-47.134 146.705-126.54-126.539h36.898l126.54 126.539zm-120.433-245.139h43.163v93.093h-43.163zm137.229 0v93.093h-43.163v-93.093zm-81.966 0h26.703v93.093h-26.703zm80.621 118.601 53.655 53.653v36.9l-90.553-90.553zm53.655 21.972v14.569l-36.543-36.541h14.571c12.115 0 21.972 9.856 21.972 21.972zm-94.87-248.424c8.807 0 15.972 7.165 15.972 15.972s-7.165 15.973-15.972 15.973h-15.971v-15.973c0-8.807 7.164-15.972 15.971-15.972zm-52.11 0c8.807 0 15.972 7.165 15.972 15.972v15.973h-15.972c-8.807 0-15.973-7.165-15.973-15.973.001-8.807 7.166-15.972 15.973-15.972zm-51.303 58.811h154.717v28.874h-154.717zm-21.594 167.641h7.121l126.54 126.539h-33.973l-117.462-117.463c3.998-5.494 10.473-9.076 17.774-9.076zm45.679 126.538-67.651-67.651v-36.897l104.549 104.548zm-102.999-22.548c-17.43 0-31.611-14.18-31.611-31.61 0-17.431 14.18-31.611 31.611-31.611 2.186 0 4.354.231 6.473.674v61.877c-2.118.441-4.286.67-6.473.67zm-15.893-407.781c0 3.217-.262 6.587-.928 9.828h-41.394c.561-1.986.876-4.075.876-6.238v-11.212c0-2.711-.474-5.312-1.339-7.729 7.557-6.894 15.427-12.066 21.363-12.066 17.706 0 21.422 14.91 21.422 27.417zm-64.47-18.547c6.024 0 10.924 4.901 10.924 10.925v11.213c0 2.319-.732 4.467-1.969 6.238h-25.301c-1.237-1.77-1.969-3.919-1.969-6.238v-11.213c0-6.024 4.901-10.925 10.924-10.925zm-74.813 19.353c0-12.507 3.716-27.417 21.421-27.417 6.502 0 15.322 6.201 23.51 14.078-.345 1.583-.533 3.225-.533 4.911v11.213c0 2.163.316 4.252.876 6.238h-44.505c-.55-2.991-.769-6.071-.769-9.023zm-36.161 37.374c0-4.514 3.672-8.186 8.185-8.186h195.237c4.513 0 8.185 3.672 8.185 8.186v29.703c0 4.513-3.672 8.185-8.185 8.185h-195.238c-4.513 0-8.185-3.672-8.185-8.185v-29.703zm164.553 92.791c0 17.43-14.18 31.61-31.611 31.61-17.43 0-31.61-14.18-31.61-31.61s14.18-31.61 31.61-31.61c17.431 0 31.611 14.18 31.611 31.61zm-150.758 26.484c2.326-.538 4.713-.818 7.145-.818 17.43 0 31.611 14.18 31.611 31.611 0 17.43-14.18 31.61-31.611 31.61-2.431 0-4.819-.28-7.145-.817zm167.03 273.365h-150.044c-9.366 0-16.986-7.619-16.986-16.986v-182.467c2.347.385 4.73.591 7.145.591 24.102 0 43.71-19.608 43.71-43.71s-19.608-43.711-43.71-43.711c-2.416 0-4.8.204-7.145.589v-48.892h92.659c-10.458 7.994-17.221 20.588-17.221 34.737 0 24.102 19.608 43.71 43.71 43.71s43.71-19.608 43.71-43.71c0-14.15-6.764-26.744-17.221-34.737h38.379v236.725c-2.136-.319-4.298-.498-6.473-.498-24.102 0-43.71 19.609-43.71 43.711s19.608 43.71 43.71 43.71c1.836 0 3.662-.127 5.471-.354-2.349 6.569-8.617 11.292-15.984 11.292zm45.86-22.462v-28.568l50.54 50.539h-28.568c-12.116 0-21.972-9.856-21.972-21.971zm225.905 21.124-125.693-125.691h33.973l107.467 107.466c-1.157 8.73-7.456 15.856-15.747 18.225z"/></g><g><path d="m478.184 2.468 8.283 23.289c.355.997 1.057 1.787 1.943 2.187l20.692 9.322c2.923 1.317 2.923 5.975 0 7.292l-20.692 9.322c-.886.399-1.588 1.189-1.943 2.187l-8.283 23.289c-1.17 3.29-5.308 3.29-6.478 0l-8.283-23.289c-.355-.997-1.057-1.787-1.943-2.187l-20.692-9.322c-2.923-1.317-2.923-5.975 0-7.292l20.692-9.322c.886-.399 1.588-1.189 1.943-2.187l8.283-23.289c1.17-3.291 5.308-3.291 6.478 0z"/><path d="m299.608 52.408 6.144 17.276c.263.74.784 1.326 1.441 1.622l15.349 6.915c2.168.977 2.168 4.432 0 5.409l-15.349 6.915c-.657.296-1.178.882-1.441 1.622l-6.144 17.276c-.868 2.441-3.938 2.441-4.806 0l-6.144-17.276c-.263-.74-.784-1.326-1.441-1.622l-15.349-6.915c-2.168-.977-2.168-4.432 0-5.409l15.349-6.915c.657-.296 1.178-.882 1.441-1.622l6.144-17.276c.869-2.44 3.938-2.44 4.806 0z"/><circle cx="370.746" cy="32.122" r="18.086"/><ellipse cx="262.36" cy="24.32" rx="7.802" ry="7.802" transform="matrix(.707 -.707 .707 .707 59.646 192.64)"/></g></g></svg>